<svg xmlns="http://www.w3.org/2000/svg" width="222" height="222" fill="none" xmlns:v="https://vecta.io/nano"><path d="M115.452 111.085c-3.324-2.968-7.836-4.281-12.215-4.215-4.112-.069-8.391 1.034-11.568 3.78 3.192 3.159 7.763 4.469 12.134 4.537 4.16-.031 8.561-1.128 11.649-4.101v-.001z" fill="#121212"/><path d="M87.523 126.154a48.96 48.96 0 0 0 21.346 3.472c6.676-.405 13.327-2.288 19.066-5.805 2.542-1.71 5.145-3.584 6.664-6.341.325-.51.502-1.199 1.126-1.407l.045-.137.051-1.994.226 1.154c2.259.367 4.519 1.293 6.833.997 2.567-1.438 5.038-3.059 7.571-4.558.729-.356 1.022-1.224.94-1.999-.411.031-.675.567-1.052.743l-7.023 4.299c-.701.498-1.59.336-2.381.231-1.711-.291-3.397-.707-5.088-1.08l-.068-2.193c2.347.06 4.554 1.074 6.876 1.327.644-.125 1.179-.544 1.731-.88l5.894-3.649c.444-.313 1.125-.581 1.038-1.253.076-.564-.461-.835-.841-1.099l-10.842-6.96-29.224-18.877c-.675-.43-1.337-.917-2.114-1.145-.878.168-1.626.721-2.412 1.125-2.155 1.259-4.407 2.353-6.501 3.709-.473.239-.318.854-.298 1.282.371 1.194 1.3 2.145 1.573 3.37-.409.288-.935.089-1.388.1-7.9-.65-15.871 1.854-22.342 6.406-3.143 2.378-6.045 5.51-6.873 9.52-.965 4.093.777 8.286 3.271 11.462 3.65 4.683 8.826 7.885 14.196 10.181zm-15.826-20.498c.38-2.777 1.923-5.275 3.943-7.147 1.762-1.803 3.89-3.179 6.116-4.315 4.258-2.338 9.046-3.638 13.881-3.854 1.587-.043 3.175.054 4.76.105 1.128-.114 2.569-1.111 2.138-2.43-.394-1.062-1.044-2.005-1.534-3.022 2.376-1.433 4.827-2.731 7.256-4.07l28.174 18.202 12.379 7.964c-2.154 1.265-4.211 2.718-6.404 3.894-1.899-.359-3.754-.94-5.659-1.259-1.078-.245-2.232.399-2.711 1.373-.175 1.125.205 2.288-.118 3.404-.529 1.954-1.796 3.626-3.248 4.982-4.912 4.352-11.227 6.748-17.597 7.85-10.442 1.613-21.495-.29-30.603-5.785-3.738-2.37-7.301-5.327-9.414-9.32-1.055-1.994-1.717-4.301-1.36-6.571l.001-.001z" fill="#000"/><path d="M92.322 113.575c4.233 2.965 9.628 3.874 14.672 3.222 3.653-.516 7.357-1.915 9.947-4.663 1.883-1.96 2.569-5.059 1.491-7.595-.838-2.139-2.693-3.643-4.59-4.79-3.724-2.139-8.128-2.903-12.37-2.618-3.87.302-7.83 1.473-10.799 4.096-1.753 1.567-3.056 3.988-2.606 6.403.388 2.541 2.249 4.527 4.256 5.945h0zm10.915-6.705c4.379-.066 8.891 1.247 12.215 4.216-3.088 2.973-7.49 4.07-11.65 4.101-4.371-.068-8.942-1.378-12.134-4.537 3.178-2.746 7.456-3.848 11.569-3.78h0z" fill="#fafafa"/><g fill="#000"><path d="M143.085 118.067c-1.01.65-2.189.151-3.245-.074l-3.774-.883-.183-.669-.107.19c-.411.992-.751 2.023-1.36 2.914-1.604 2.624-4.137 4.449-6.65 6.102-6.691 4.033-14.535 5.856-22.286 5.85-8.635-.054-17.347-2.213-24.763-6.762-2.812-1.817-5.556-3.86-7.65-6.52-2.214-2.635-3.796-5.916-3.977-9.409-.312 2.381.431 4.752 1.432 6.876 2.063 4.165 5.604 7.352 9.409 9.859 4.771 3.091 10.155 5.142 15.7 6.264 10.532 2.08 21.929.966 31.377-4.409 3.766-2.216 7.551-5.173 8.846-9.582l.234.632 5.395 1.211c.729.18 1.447-.145 2.052-.532l7.017-4.299c.751-.396.819-1.307.883-2.059-.486.416-.976.834-1.533 1.154l-6.817 4.147v-.001zm-1.579 3.652l-5.505-1.211-.042-1.834c-.388 3.387-2.651 6.229-5.249 8.246-4.303 3.43-9.483 5.554-14.788 6.791-9.333 2.088-19.254 1.253-28.193-2.137-4.951-1.982-9.682-4.731-13.44-8.588-2.75-2.923-5.001-6.62-5.184-10.75-.295 1.937.222 3.891.923 5.683 2.052 5.047 6.322 8.745 10.802 11.559 9.857 5.919 21.852 7.879 33.108 5.947 6.561-1.242 13.042-3.786 18.095-8.3 1.806-1.661 3.158-3.803 3.909-6.153l.023.803 5.547 1.248c.87.234 1.661-.333 2.37-.761l6.795-4.179c.666-.404.658-1.233.757-1.917-2.12 1.649-4.538 2.852-6.787 4.307-.979.544-1.933 1.484-3.141 1.245v.001zm9.798-1.994l-.104-.285c-.251.422-.577.798-1.014 1.028l-6.836 4.167c-.557.342-1.21.619-1.872.445l-5.465-1.194-.048-1.803c-.197 1.228-.527 2.447-1.163 3.521-2.097 3.82-5.919 6.218-9.637 8.195-11.047 5.455-24.186 5.643-35.745 1.749-4.718-1.652-9.229-4.019-13.065-7.272-3.121-2.661-5.818-6.067-6.879-10.121-.225-.709-.155-1.501-.473-2.179-.109 4.797 2.64 9.129 5.942 12.354 5.179 4.882 11.776 8.041 18.616 9.719 7.307 1.774 15.035 1.971 22.381.31 4.923-1.148 9.746-3.042 13.845-6.076 2.572-1.774 4.795-4.196 5.887-7.186 1.782.324 3.538.789 5.306 1.185.783.173 1.652.171 2.333-.311l7.144-4.364c.65-.35 1.052-1.13.872-1.865l-.025-.017h0z"/><path d="M134.985 128.615c-1.59 3.236-4.562 5.409-7.509 7.28-6.302 3.718-13.606 5.515-20.873 5.652-6.462.148-12.961-.986-19.006-3.307-4.878-1.971-9.542-4.683-13.248-8.489-2.809-2.925-5.066-6.68-5.249-10.849-.197 1.204-.037 2.424.242 3.6.878 3.708 3.198 6.887 5.891 9.474 7.329 6.665 17.118 10.061 26.842 10.765 5.398.356 10.887-.069 16.094-1.599 5.083-1.429 9.994-3.794 13.937-7.389 2.235-2.156 4.236-5.133 3.856-8.406-.16 1.131-.419 2.262-.977 3.268h.001z"/></g><path d="M82.471 121.547c9.108 5.495 20.16 7.398 30.602 5.786 6.37-1.103 12.686-3.498 17.597-7.851 1.452-1.356 2.719-3.028 3.248-4.981.324-1.117-.056-2.279.118-3.404.479-.975 1.633-1.618 2.711-1.374 1.905.319 3.76.9 5.66 1.259 2.192-1.176 4.25-2.629 6.403-3.893l-12.379-7.965-28.173-18.201c-2.429 1.339-4.881 2.638-7.256 4.07.489 1.017 1.14 1.96 1.534 3.022.431 1.319-1.01 2.316-2.139 2.43-1.584-.051-3.172-.148-4.759-.105-4.835.217-9.623 1.515-13.881 3.854-2.226 1.137-4.354 2.513-6.116 4.315-2.021 1.872-3.563 4.37-3.943 7.147-.357 2.27.304 4.578 1.36 6.571 2.114 3.994 5.677 6.951 9.415 9.32h-.001zm8.202-20.321c2.969-2.623 6.93-3.794 10.799-4.096 4.242-.285 8.646.478 12.37 2.618 1.897 1.148 3.752 2.652 4.59 4.791 1.078 2.535.392 5.635-1.491 7.595-2.59 2.748-6.294 4.147-9.947 4.663-5.044.652-10.439-.257-14.672-3.222-2.007-1.418-3.867-3.404-4.256-5.945-.451-2.415.853-4.836 2.606-6.403v-.001z" fill="#fe0230"/></svg>