<svg xmlns="http://www.w3.org/2000/svg" width="222" height="222" fill="none" xmlns:v="https://vecta.io/nano"><g clip-path="url(#A)"><path fill-rule="evenodd" d="M29 111.323v7.31l6.262-.032 6.262-.032.037-1.022.037-1.022h-5.166-5.166v-2.227-2.227l2.486-.034 2.486-.033.037-1.022.037-1.022h-2.523-2.522v-1.92-1.92h4.977 4.977l-.037-1.022-.037-1.022-6.073-.032-6.073-.031v7.31zm15.104-7.262c0 .061.444 1.083.828 1.908l.305.709c0 .053.278.671 1.021 2.269l.364.838c0 .03.11.29.245.579l1.812 4.055 1.726 3.871c.158.339.166.34 1.434.34h1.275l.331-.712 2.026-4.49 2.806-6.173.428-.965.384-.863.502-1.115.118-.306-1.217.035-1.217.035-2.686 6-2.727 6.039c-.023.022-1.052-2.231-2.287-5.008l-2.72-6.071-.474-1.022h-1.139l-1.139.046v.001zm18.754 7.262v7.308h6.23 6.231v-1.052-1.051l-5.192-.032-5.192-.033-.036-1.92.034-2.198c.07-.277.084-.279 2.522-.279h2.452v-1.05-1.05l-2.486-.034-2.486-.033v-1.858-1.858l5.004-.033 5.003-.032v-1.051-1.052h-6.041-6.042v7.308h0zm16.363-.003v7.321l1.038-.036 1.039-.036.034-3.006.034-3.006 2.735.033 2.735.033.348.682 1.481 3.003 1.133 2.323h1.194c.657 0 1.194-.049 1.194-.108s-.502-1.105-1.115-2.323l-1.78-3.667c0-.036.244-.126.541-.2 1.643-.407 2.731-2.049 2.731-4.121 0-1.847-.858-3.184-2.454-3.825-.751-.302-.782-.304-5.821-.345L79.222 104v7.32zm15.185-6.936c.186.299 3.173 4.449 5.296 7.357l.35.48.063 3.174.063 3.174 1.038.036 1.039.036.001-3.132v-3.132l3.021-4.055 3.019-4.181c0-.077-.492-.126-1.259-.126-1.047 0-1.291.037-1.443.217-.204.243-1.458 1.966-3.134 4.305-.614.857-1.173 1.54-1.242 1.517s-1.098-1.377-2.285-3.009l-2.159-2.968-1.302-.035-1.302-.036.234.378zm17.29 6.931v7.316h.993c.79 0 1.009-.04 1.07-.196.042-.108.076-1.475.076-3.037v-2.841l2.738.033 2.738.033.441.868 1.476 3.004 1.036 2.135h1.198c.659 0 1.198-.035 1.198-.078s-.617-1.318-1.37-2.832l-1.453-3.007c-.071-.222.004-.28.584-.447 1.621-.466 2.617-2.011 2.617-4.057 0-1.842-.862-3.177-2.47-3.827-.733-.296-.786-.299-5.806-.341l-5.066-.041v7.315zm17.302-7.145c-.033.085-.046 3.36-.028 7.277l.033 7.122h6.23 6.231v-.991-.991l-5.161-.062-5.161-.062v-2.167-2.168l2.486-.033 2.486-.034v-1.05-1.05h-2.52-2.521l.035-1.889.034-1.889 5.004-.033 5.003-.032v-1.051-1.052h-6.046l-6.105.155h0zm21.527.619l-1.51 3.251-.791 1.735-.908 1.981-.879 1.92-1.003 2.168-1.138 2.659c0 .078.433.127 1.111.127h1.112l.354-.774.914-2.012 1.256-2.725 2.244-4.859c.343-.764.679-1.373.746-1.353.129.039 1.263 2.467 3.741 8.008l1.646 3.561c.149.187 2.358.22 2.358.035 0-.116-1.009-2.401-1.915-4.339l-2.427-5.388-2.114-4.614c-.081-.104-.501-.155-1.284-.155h-1.163l-.35.775v-.001zm12.651 6.529v7.312h5.538 5.538v-1.051-1.051l-4.437-.033-4.436-.032-.063-6.193-.063-6.193-1.038-.036-1.039-.036v7.313h0zm14.475.005v7.308h.993c.79 0 1.01-.04 1.07-.196.042-.108.077-2.337.077-4.955l.094-4.755c.052.002.718 1.127 1.479 2.5l1.701 3.062.984 1.773c.368.665.711 1.208.764 1.208s.176-.152.275-.339l.839-1.496.661-1.2c0-.023.301-.562.67-1.197l1.604-2.828.935-1.672.063 5.017.063 5.016 1.039.036 1.038.036v-7.313-7.313h-1.064-1.063l-.467.836-2.374 4.243-1.334 2.382-.883 1.456c-.041.001-1.194-2.005-2.563-4.458l-2.489-4.459h-1.056-1.056v7.308h0zm-88.305-4.893a2.46 2.46 0 0 1 .741.58c.305.411.415 1.414.218 2.001-.184.548-.854 1.142-1.483 1.313-.279.076-1.919.131-3.968.131l-3.493.001v-2.085l.092-2.176c.051-.05 1.736-.073 3.745-.052 3.358.036 3.692.059 4.147.287h0zm32.474 0c.784.392 1.015.801 1.015 1.796 0 .908-.177 1.282-.836 1.766-.537.395-1.186.458-4.733.461l-3.431.003v-2.085l.093-2.176c.05-.05 1.736-.073 3.744-.052 3.358.036 3.693.059 4.148.287h0z" fill="#000"/></g><defs><clipPath id="A"><path fill="#fff" transform="translate(29 104)" d="M0 0h163v14.641H0z"/></clipPath></defs></svg>