<svg xmlns="http://www.w3.org/2000/svg" width="222" height="222" fill="none" xmlns:v="https://vecta.io/nano"><g fill-rule="evenodd"><path d="M190.956 113.528v2.682h-10.412v-11.844h10.226v2.529h-6.402v1.882h5.939v2.416h-5.939v2.335h6.588 0zm-17.545-5.284c1.667.345 2.862.694 3.583 1.046s1.247.791 1.576 1.313a3.23 3.23 0 0 1 .493 1.753 3.64 3.64 0 0 1-.658 2.101c-.438.641-1.049 1.127-1.836 1.458s-1.778.497-2.973.497c-2.101 0-3.555-.388-4.364-1.163s-1.267-1.762-1.373-2.957l3.631-.218c.078.565.238.996.48 1.292.393.479.954.719 1.685.719.544 0 .964-.123 1.259-.368s.442-.528.442-.852c0-.307-.14-.581-.421-.824s-.932-.471-1.954-.686c-1.674-.361-2.868-.84-3.58-1.439-.72-.597-1.079-1.359-1.079-2.286 0-.608.184-1.184.552-1.725s.921-.966 1.659-1.276 1.751-.465 3.037-.465c1.578 0 2.782.282 3.61.845s1.321 1.458 1.478 2.686l-3.597.202c-.095-.534-.296-.921-.602-1.164s-.728-.363-1.268-.363c-.443 0-.778.09-1.002.27s-.337.401-.337.659c0 .188.093.358.278.509s.606.302 1.281.436h0zm-8.06 3.799c.267.317.445.563.535.735l1.848 3.432h-4.312l-2.039-3.62c-.259-.468-.489-.772-.691-.912a1.65 1.65 0 0 0-.935-.275h-.337v4.807h-3.833v-11.844h6.36c1.179 0 2.08.097 2.704.291.612.186 1.143.566 1.508 1.079.382.525.573 1.165.573 1.918 0 .658-.146 1.225-.439 1.701a3.36 3.36 0 0 1-1.205 1.16c-.326.188-.773.344-1.34.468.454.146.786.291.993.437.14.097.344.304.61.623zm-2.832-4.978c-.252-.205-.727-.307-1.423-.307h-1.676v2.407h1.609c.174 0 .511-.054 1.011-.161a1.02 1.02 0 0 0 .619-.372 1.07 1.07 0 0 0 .24-.687c0-.382-.126-.676-.38-.88h0zm-19.019-2.699h10.227v2.529h-6.402v1.882h5.938v2.416h-5.938v2.335h6.587v2.682H143.5v-11.844h0zm-9.529 11.844l-4.663-11.844h3.989l2.779 8.524 2.744-8.524h3.873l-4.585 11.844h-4.137 0zm-8.228 0l-.618-1.955h-4.333l-.602 1.955h-3.896l4.642-11.844h4.162l4.641 11.844h-3.996 0zm-2.773-8.773l-1.348 4.257h2.711l-1.363-4.257h0zm-10.566-.259l-2.408 9.032h-2.829l-2.403-9.032v9.032h-3.126v-11.844h5.019l1.935 7.207 1.922-7.207h5.015v11.844h-3.125v-9.032h0zm-13.896 4.865c.266.317.445.563.535.735l1.848 3.432h-4.312l-2.04-3.62c-.258-.468-.488-.772-.691-.912-.275-.183-.602-.279-.935-.275h-.337v4.807h-3.832v-11.844h6.36c1.179 0 2.081.097 2.704.291.612.186 1.143.566 1.508 1.079.382.525.573 1.165.573 1.918 0 .658-.146 1.225-.439 1.701s-.694.863-1.206 1.16c-.326.188-.772.344-1.34.468.454.146.785.291.993.437.14.097.344.304.61.623zm-2.832-4.978c-.253-.205-.727-.307-1.424-.307h-1.677v2.407h1.609c.174 0 .511-.054 1.011-.161.253-.049.459-.173.619-.372s.24-.428.24-.687c0-.382-.126-.676-.379-.88h0zm-12.379 7.19h-4.332l-.602 1.955h-3.49-.406-4.293l-2.604-4.871-1.971 1.981v2.89h-3.816v-11.844h3.816v4.476l3.997-4.476h5.075l-4.507 4.471 4.457 6.979 4.488-11.45h4.163l4.64 11.844h-3.996l-.618-1.955zm-2.154-6.818l-1.349 4.257h2.712l-1.363-4.257h0z" fill="#000"/><path d="M50.348 115.35c1.293 1.181 3.061 1.869 4.981 1.869v3.399c-3.233 0-6.166-1.395-8.133-3.598l-12.008-11.582a7.3 7.3 0 0 0-2.377-1.554c-.89-.359-1.845-.544-2.809-.542V100c2.971 0 5.687 1.173 7.623 3.065l12.725 12.285zm2.173-11.474a7.14 7.14 0 0 0-2.395 1.562l-3.457 3.311-2.424-2.347 3.396-3.286.003.002c1.933-1.923 4.693-3.118 7.684-3.118v12.235H52.52v-8.359h0zm-19.713 12.858c.814-.328 1.554-.792 2.18-1.365l-.005-.004 3.706-3.586 2.423 2.347-2.939 2.843c-1.01 1.146-2.264 2.066-3.675 2.696s-2.945.955-4.498.953v-12.235h2.808v8.351z" fill="url(#A)"/></g><defs><linearGradient id="A" x1="42.664" y1="120.611" x2="42.664" y2="100.008" gradientUnits="userSpaceOnUse"><stop stop-color="#0084ff"/><stop offset="1" stop-color="#ff0084"/></linearGradient></defs></svg>