<svg xmlns="http://www.w3.org/2000/svg" width="222" height="222" fill="none" xmlns:v="https://vecta.io/nano"><g clip-path="url(#A)"><path d="M149.244 96.276l9.579-.275c.459-.018.982.202 1.112.687.158.374-.019.764-.023 1.147-.186.765-.492 1.497-.677 2.265-.126.332-.216.677-.327 1.014l-.067.228-2.926 9.432-.277.92c-.155.415-.26.848-.4 1.269l-.571 1.875-.622 1.981-.709 2.354-1.629 5.113c-.192.422-.443.814-.713 1.187l-.701.824c-.419.386-.849.764-1.339 1.052l-.235.141-.423.218c-.377.164-.759.321-1.16.414-.583.095-1.175.104-1.765.122-1.044-.013-2.086.069-3.129.084-.43.01-.861-.016-1.287.044-.882.043-1.768-.005-2.644.092l-2.801.078-3.108.087-4.47.113c-.721-.035-1.44.035-2.16.058l-2.873.099-.278.012-.589-.001c-.466-.004-.929.061-1.395.048l-.307-.054c-.232-.028-.412-.19-.571-.348l-.146-.258c-.087-.34-.026-.689.024-1.028.046-.405.191-.783.329-1.162.1-.377.238-.74.356-1.11l.419-1.347.313-.975.638-2.058.171-.456c.15-.444.588-.705 1.039-.706l2.911-.087 3.971-.105 5.133-.158 4.735-.144 1.334-.025.099-.066.704-2.189-1.484.049-.328-.003-2.615.088c-.38-.007-.76.003-1.14.031l-4.423.133c-.38-.012-.76.002-1.138.033l-1.536.038-.268.008-2.29.07-1.699.051c-.273.007-.548.052-.818-.006-.371-.056-.665-.378-.729-.746-.099-.281.044-.566.039-.851.114-.55.316-1.077.467-1.617.073-.338.27-.644.287-.993a2.88 2.88 0 0 0 .172-.471c.129-.312.21-.641.324-.959l2.601-8.178.021-.055.742-2.368.651-2.132.216-.558c.141-.389.194-.834.498-1.139a3.09 3.09 0 0 1 .452-.205c.342-.08.693-.075 1.042-.08l1.512-.057 6.521-.186c.381-.016.786.035 1.106.263l.131.164c.107.156.163.341.193.527-.01.658-.223 1.279-.428 1.896l-.089.254-.153.486-.081.263-.17.51-.515 1.646-.106.331-.082.258-.079.248-.33 1.06-.933 2.87 1.05-.027 2.373-.078 4.038-.096.058-.092.944-2.981c.202-.46.29-.959.475-1.423l.364-1.162.182-.595.08-.242.319-1.013.849-2.655c.052-.145.158-.262.243-.389.264-.217.605-.305.939-.326v-.001zm.502.382c-.369.02-.777-.04-1.102.175-.24.157-.28.463-.36.718-.065.279-.199.536-.248.82-.18.397-.244.835-.405 1.239l-.815 2.569c-.056.1-.073.215-.095.327l-1.404 4.38c-.053.215-.137.421-.213.629l-8.305.24 2.212-6.928.451-1.394c.126-.448.315-.879.401-1.337l-.066-.069c.156-.202.105-.48.071-.715-.175-.246-.468-.355-.761-.337l-7.693.213c-.539.089-1.104-.043-1.629.126-.246.063-.373.305-.414.541l-4.162 13.029c-.081.176-.092.377-.184.549l-.816 2.572c-.141.613-.446 1.191-.478 1.828-.085.281-.099.642.146.849.225.214.553.111.829.107l17.625-.515-.984 3.035-3.395.091c-.268.042-.539.026-.808.035l-7.445.204-2.784.081-3.035.092c-.416.067-.841 0-1.256.074-.394.12-.446.584-.571.918l-1.832 5.736c-.207.44-.206.934-.29 1.404.004.399.398.657.765.623l4.174-.106c1.117-.103 2.243-.024 3.361-.126l2.461-.05c.945-.084 1.9-.026 2.846-.097l2.778-.089 2.782-.083 2.881-.065 3.097-.11c.941-.028 1.93.054 2.802-.373.88-.365 1.675-.931 2.319-1.637.606-.666 1.129-1.437 1.379-2.317l2.189-7.078 5.752-18.573c.009-.398.218-.835-.01-1.207-.171-.245-.497-.277-.768-.26l-8.993.263v-.001z" fill="#fdfdfd"/><path d="M149.746 96.658l8.992-.262c.272-.017.598.016.768.26.229.371.02.809.011 1.207l-5.752 18.574-2.189 7.078c-.25.879-.773 1.65-1.379 2.316-.644.706-1.439 1.272-2.319 1.637-.873.428-1.862.346-2.802.374-1.03.094-2.068.026-3.097.109l-2.881.066c-.923.077-1.856.039-2.781.083-.923.08-1.854.03-2.779.089l-2.846.097-2.461.049c-1.118.103-2.244.023-3.361.126l-4.174.106c-.367.034-.761-.224-.766-.622.085-.471.084-.964.291-1.404l1.832-5.736c.125-.335.178-.799.571-.918.415-.073.84-.008 1.256-.074l3.035-.092 2.783-.082 7.446-.204c.27-.009.54.008.808-.035l3.394-.091.985-3.034-17.625.515c-.276.004-.604.107-.829-.107-.245-.208-.231-.568-.146-.85.032-.636.337-1.215.478-1.828l.816-2.572c.092-.172.102-.373.184-.548l4.162-13.029c.041-.236.168-.478.414-.541.524-.169 1.09-.037 1.629-.126l7.693-.213c.292-.018.586.09.761.336.034.235.085.513-.071.715l.066.069c-.086.458-.275.889-.401 1.338l-.451 1.394-2.212 6.928 8.305-.24.213-.628 1.404-4.38c.022-.112.038-.228.095-.328l.815-2.569c.16-.404.224-.842.405-1.239.049-.283.183-.54.248-.82.08-.254.12-.56.36-.718.325-.215.733-.156 1.102-.175h0zm2.536.523l-3.223.077c-.105.246-.171.507-.255.761l-3.164 9.94c-.018.092-.067.153-.145.182l-9.664.275 2.716-8.489.72-2.364-9.249.28-2.311 7.303-2.938 9.212c-.154.426-.239.876-.438 1.285l4.143-.09 14.874-.435-1.08 3.411-.459 1.366-3.115.112-4.913.125-3.511.126-2.939.083-4.512.117-2.204 6.971 5.403-.13 3.267-.109 16.265-.471c.771.008 1.562-.076 2.269-.413 1.504-.665 2.754-1.973 3.249-3.571l7.973-25.75-6.759.195v.001zm-32.164.338l2.861-.084c.686.001 1.376-.072 2.06.011.465.137.86.453 1.182.811.406.579.478 1.334.342 2.017-.036.174 0 .366-.088.527-.09.181-.268.288-.427.399l-3.582 2.422-4.563 3.089-3.978 2.683-7.548 5.111-7.194 4.866-3.353 2.273-7.254 4.908c-.215.156-.505.235-.754.116-.276-.116-.361-.443-.355-.719.119-.273.06-.591.163-.871l.687-2.087.402-1.256a2.21 2.21 0 0 1 .088-.326c.053-.244.255-.408.44-.555l10.694-7.331 10.203-7.005c-.956-.009-1.906.077-2.862.081l-3.224.082c-.312.719-.465 1.496-.761 2.222-.112.214-.365.294-.59.295l-9.09.264c-.418.004-.637-.465-.561-.833.066-.334.055-.686.199-1l1.492-4.645.045-.066c.029-.175.084-.346.136-.515l1.237-3.822c.088-.229.342-.312.561-.349l3.36-.101 3.35-.123 7.94-.209 3.35-.12 2.53-.075 2.862-.083v-.002zm-4.655.736l-3.434.123-2.645.074-9.786.284c-.946-.008-1.888.089-2.834.072l-2.858 8.876c-.073.212-.151.425-.181.65 1.136-.103 2.281-.047 3.419-.133l2.859-.083 2.855-.091.8-2.494 3.631-.094 2.524-.077c.342.008.69-.053 1.027.016.335.144.577.56.441.922-.047.199-.205.341-.364.454l-21.413 14.7c-.137.173-.151.415-.237.618l-1.11 3.537 13.61-9.22 16.529-11.179 7.672-5.181c.115-.598-.033-1.279-.529-1.665-.594-.495-1.414-.349-2.122-.317l-7.853.209v-.001zm-40.818.62l3.201-.094c.838-.071 1.685-.044 2.527-.073.291.006.642-.051.865.184.222.19.211.546.097.793-.003.165.014.337-.056.492l-1.488 4.551-3.139 9.716-2.226 6.824 2.924-.081 2.613-.076 1.876-.069 4.749-.116a.57.57 0 0 1 .232.028.56.56 0 0 1 .203.117.59.59 0 0 1 .196.418c.009.319-.089.632-.108.951l-2.207 6.797c-.09.288-.423.365-.684.398l-12.526.366-3.265.109-4.751.126-1.769.034c-.311-.027-.5-.306-.547-.595l.125-.897 2.568-7.888 1.164-3.653.544-1.647.107-.343.573-1.739.443-1.387 4.052-12.516c.059-.364.387-.664.758-.647.98-.079 1.967-.052 2.949-.083h0zm.573.578l-3.594.097-9.225 28.487c-.131.366-.216.752-.392 1.101.177.033.358.017.536.011l10.225-.287 2.613-.076 3.52-.121 2.942-.086 2.551-.089 2.247-6.965c-.425.015-.852-.002-1.275.046l-3.038.092-2.946.086-2.86.081-3.037.093.826-2.615 5.482-16.921 1.024-3.07c-.64-.045-1.282.023-1.922.012l-3.677.124h0zm49.791 2.922c.305-.209.814-.134.955.243.141.317-.045.639-.015.967l-.743 2.232c-.065.134-.114.276-.147.422-.1.245-.175.497-.257.748-.166.348-.185.764-.414 1.078-.58.473-1.213.873-1.811 1.32l-15.275 10.885 6.279-.179 3.357-.123 2.852-.049c.244-.016.49.146.545.393.109.303-.049.61-.038.919l-2.065 6.366c-.038.274-.149.532-.268.779-.213.297-.623.289-.948.289l-3.271.092c-.921.089-1.851.021-2.77.105l-3.281.096-2.676.078-10.918.299-.054.031-5.587.134-.055.033c-.35-.018-.707.049-1.05-.045-.356-.047-.568-.48-.437-.806.084-.257-.02-.58.204-.781l2.915-1.937 3.483-2.352 4.016-2.715 12.055-8.12 15.419-10.402zm-2.509 2.453l-34.94 23.573 2.546-.067 7.77-.208 2.78-.081 2.785-.083 3.109-.09 3.263-.114 7.704-.211 2.251-7.021c-.507.023-1.014-.005-1.518.052l-3.109.094-4.83.119-3.102.09c-.6.061-1.204.042-1.807.062-.272-.007-.545.04-.816-.006l4.595-3.258 14.802-10.546 1.415-4.233-2.898 1.927v.001z" fill="#010101"/><path d="M120.086 97.137l4.55-.13.559.08c.783.279 1.484.901 1.711 1.731.119.388.081.801.084 1.201-.081.448-.039.988-.442 1.292-.15.118-.308.224-.467.329l-.403.272c.465.098.716.559.732 1.009l-.01.077-.118.794-1.368 4.113-.002.008c-.106.238-.25.467-.468.613l-2.896 2.071-.163.115-.375.271-.127.087-.884.626-.533.38-1.507 1.068-.291.211-2.282 1.616-.364.276-.411.288-.806.575-.395.275-.66.474-2.907 2.071c-.182.137-.347.299-.551.402-.244.167-.503.317-.722.518a4.14 4.14 0 0 0 .647-.051l3.224-.082 1.717-.008c.21.012.423.016.633-.022.301-.052.609-.06.915-.064l3.049-.095c.436.014.88-.065 1.311.035.263.052.446.269.596.479.181.574.037 1.194-.136 1.753l-.477 1.461-.491 1.546-.473 1.457-.084.24-.252.787c-.089.234-.163.474-.221.719l-.017.056a2.31 2.31 0 0 1-.274.592l-.108.105c-.363.314-.877.308-1.327.31-.827-.045-1.654.057-2.48.062-.766-.022-1.531.04-2.295.067l-7.201.202-4.084.144c-.716.013-1.434-.017-2.145.074l-3.444.101-7.335.199c-.266.005-.53-.039-.78-.129-.402-.189-.605-.689-.505-1.116.054-.31.041-.646.213-.921.268-.316.679-.439.988-.705-.131-.049-.25-.126-.348-.227s-.173-.222-.22-.355c-.06-.21-.075-.43-.044-.646l.088-.597c.064-.287.174-.561.257-.842l.026-.088.253-.783.153-.499.448-1.378c.083-.268.136-.565.333-.778.333-.366.778-.594 1.176-.876l2.663-1.833 3.027-2.076 4.358-2.985 5.895-4.05 3.019-2.094-4.507.139-.651 1.944c-.155.38-.562.558-.947.568l-6.262.188-.496.022-2.596.024c-.265-.117-.53-.31-.612-.605-.171-.447-.015-.924.039-1.377l.763-2.386 2.231-6.933c.032-.12.104-.223.181-.317l.185-.184c.485-.25 1.041-.209 1.567-.219l5.608-.171 4.16-.134 2.34-.067 3.046-.091.135.001.315-.004 1.021-.026 1.316-.048 1.675-.042 2.757-.082-.002-.002zm.032.381l-2.862.083c-.84.071-1.687.046-2.53.075l-3.35.12-7.94.209-3.35.123-3.36.101c-.219.037-.473.12-.561.349l-1.237 3.822-.136.516-.045.066-1.492 4.645c-.144.313-.134.665-.199.999-.076.368.143.837.561.833l9.09-.263c.225-.002.479-.082.591-.296.296-.725.448-1.502.761-2.221l3.224-.083 2.862-.08-10.204 7.004-10.693 7.332c-.185.147-.387.31-.44.555-.039.105-.066.215-.088.326l-.402 1.256-.687 2.086c-.104.28-.044.599-.163.871-.006.276.079.603.355.719.25.119.54.041.754-.116l7.254-4.907 3.353-2.274 7.194-4.865 7.548-5.112 3.977-2.683 4.563-3.088 3.583-2.423c.158-.111.337-.218.427-.398.088-.161.051-.353.088-.527.135-.683.064-1.438-.343-2.017-.322-.358-.717-.675-1.181-.811-.684-.083-1.374-.01-2.06-.011l-2.862.083.001.002zm4.891 4.856l-15.419 10.402-12.055 8.12-4.016 2.715-3.483 2.352-2.915 1.937c-.224.201-.121.524-.204.781-.13.326.082.759.438.806.343.094.699.027 1.05.045l.055-.033 5.587-.134.054-.031 10.918-.299c.889-.072 1.784-.052 2.677-.078l3.28-.096c.919-.084 1.849-.017 2.77-.105l3.272-.092c.324 0 .734.008.947-.289.119-.247.23-.505.268-.779l2.065-6.366c-.011-.309.147-.616.038-.919-.055-.247-.301-.409-.544-.393l-2.853.049-3.357.123-6.279.179 15.276-10.885 1.81-1.32c.229-.314.248-.73.414-1.078l.257-.748a2.05 2.05 0 0 1 .147-.422l.743-2.232c-.03-.328.156-.65.015-.966-.141-.377-.649-.453-.955-.243v-.001zm-47.978-3.977l3.385-.103c.358.019.765.025 1.05.281.225.184.324.488.335.772-.069.446-.103.9-.276 1.322l-.053.102-.954 2.998-1.364 4.211-.549 1.716-1.723 5.299-.017.048-1.813 5.598-.064.222 1.912-.076a5.64 5.64 0 0 0 .881-.032l.045.074c.845-.098 1.702-.035 2.55-.104l3.537-.126 2.603-.075c.225-.006.443.063.651.145.239.183.381.452.447.744a1.68 1.68 0 0 1-.023.369l-.006.042c-.065.364-.087.739-.227 1.086-.072.198-.123.403-.185.604l-.381 1.172-.204.675-.11.258-.084.281-.055.188-.566 1.776c-.211.522-.34 1.074-.547 1.598-.23.46-.786.56-1.246.577l-3.612.101-.257.006-.319.006-.247.006-2.011.065-.379.01-.296.008-4.281.134-3.567.095-1.347.054-4.8.128c-.428 0-.873.069-1.287-.083-.405-.171-.621-.639-.566-1.067.061-.431.07-.881.261-1.28l4.616-14.266 1.341-4.133.326-1.01.471-1.449.234-.751 1.314-4.043 1.073-3.308c.056-.123.138-.229.209-.343.171-.166.387-.27.616-.33.457-.06.919-.029 1.377-.049l4.184-.143h.001zm-2.386.475l-2.949.083c-.371-.017-.699.283-.758.647l-4.052 12.516-.443 1.387-.573 1.739-.107.343-.544 1.647-1.164 3.653-2.569 7.889-.124.896c.047.289.236.569.547.595.589.047 1.18-.029 1.769-.034l4.751-.126 3.266-.108 12.526-.367c.261-.033.594-.11.684-.398l2.207-6.797c.02-.319.118-.632.109-.95-.003-.08-.022-.158-.056-.23a.59.59 0 0 0-.343-.306.57.57 0 0 0-.232-.027l-4.749.115c-.623.071-1.251.042-1.876.07-.873-.003-1.741.074-2.613.075-.977-.003-1.949.083-2.924.082l2.226-6.825 3.139-9.716 1.488-4.551c.07-.155.052-.327.056-.492.114-.248.124-.603-.097-.793-.224-.235-.575-.177-.865-.184l-2.527.073-3.201.094h0z" fill="#fdfdfc"/><path d="M152.282 97.181l6.759-.195-7.973 25.749c-.495 1.598-1.745 2.906-3.249 3.571-.707.337-1.497.42-2.27.413l-16.263.47-3.268.109-5.403.13 2.204-6.97 4.512-.117 2.939-.084 3.511-.126 4.913-.125 3.116-.112c.192-.434.3-.915.458-1.366l1.08-3.411-14.874.436-4.143.089c.199-.408.284-.859.438-1.285l2.938-9.211 2.311-7.304 9.249-.28c-.183.803-.491 1.573-.72 2.364l-2.717 8.49 9.664-.276c.079-.029.128-.089.146-.181l3.165-9.941.254-.761 3.223-.077h0zm-36.819 1.073l7.853-.209c.709-.032 1.528-.179 2.123.317.495.386.644 1.067.528 1.665l-7.671 5.181-16.529 11.179-13.611 9.22 1.11-3.537c.086-.203.1-.446.237-.619l21.413-14.7c.158-.112.317-.254.364-.453.136-.362-.107-.778-.441-.922-.338-.069-.685-.008-1.027-.016-.843-.001-1.682.078-2.525.077l-3.631.094-.8 2.494c-.949.086-1.904.054-2.855.091l-2.859.083-3.419.133c.03-.225.108-.438.181-.65l2.858-8.876 2.834-.072 9.786-.284 2.645-.074 3.434-.123v.001zm-40.245 1.198l3.677-.124 1.922-.012-1.023 3.07-5.481 16.922-.826 2.615 3.037-.092 2.86-.082 2.946-.086 3.037-.092c.423-.048.849-.031 1.275-.046l-2.247 6.965c-.847.088-1.701.053-2.551.089l-2.942.086-3.52.121-2.613.076-10.225.287c-.179.006-.36.022-.536-.012.176-.348.26-.735.392-1.101l9.225-28.487 3.594-.097z" fill="#6e2cf0"/><path d="M122.5 104.828l2.898-1.927-1.415 4.232-14.803 10.547-4.595 3.257c.271.047.544 0 .817.006l1.806-.062 3.103-.089 4.83-.12 3.108-.093c.504-.057 1.012-.029 1.519-.053l-2.252 7.022-7.703.21-3.264.114-3.109.091-2.785.082-2.779.082-7.77.207-2.546.067 34.939-23.572.001-.001z" fill="#00d2f7"/></g><defs><clipPath id="A"><path fill="#fff" transform="translate(61 96)" d="M0 0h99v35H0z"/></clipPath></defs></svg>