<svg xmlns="http://www.w3.org/2000/svg" width="222" height="222" fill="none" xmlns:v="https://vecta.io/nano"><path d="M80.002 74.007L87.525 74l22.834 33.893-4.191 6.283c-.462.114-.802-.03-1.012-.429L87.609 87.663l-.016 46.546-7.588.007-.004-60.209zm.008 64.161l1.818-.012 3.095 8.281 3.213-8.281 1.853.031-.019 9.938-1.318-.015-.096-8.124-2.961 8.097-1.173.061-3.099-8.139-.046 8.151-1.211-.046-.057-9.943v.001zm20.26-.003l1.661.015c.86 1.249 1.525 2.634 2.548 3.762.875-1.249 1.594-2.616 2.594-3.769l1.456.015-3.32 4.821 3.519 5.117-1.689-.015-2.621-4.028c-1.005 1.291-1.845 2.696-2.781 4.032-.378 0-1.142-.004-1.525-.004l3.458-5.11-3.3-4.836h0zm9.547.011l1.329-.019.019 9.946-1.344.034-.004-9.96v-.001zm3.572-.023c2.231.152 4.772-.467 6.712.949 1.624 1.268 1.747 3.603 1.395 5.466-.241 1.572-1.391 3.018-2.995 3.364-1.681.345-3.416.141-5.116.193l.004-9.972h0zm1.379 1.165l-.007 7.654c1.509-.061 3.35.341 4.512-.885 1.298-1.462 1.256-3.789.458-5.478-1.043-1.685-3.29-1.23-4.963-1.29v-.001zm11.595-1.116h1.181l4.054 9.818-1.437.045-3.114-7.699-.297.019-3.007 7.623-1.525.026 4.145-9.828v-.004h0zm8.298.058c1.804-.733 4.077-.327 5.372 1.161 1.639 1.948 1.712 5.011.286 7.088-1.608 2.35-5.512 2.46-7.338.319-2.166-2.532-1.559-7.213 1.68-8.568zm.394 1.135c-2.166 1.169-2.461 4.305-1.303 6.282.982 1.83 3.817 2.069 5.169.539 1.376-1.701 1.421-4.377.023-6.077-.917-1.12-2.613-1.39-3.889-.744h0zm-44.639 8.674c1.448-3.238 2.671-6.586 4.237-9.764l1.051-.091 4.099 9.867-1.555-.031c-.952-2.574-1.987-5.117-2.992-7.668-.076.011-.225.026-.298.038-1.055 2.543-2.006 5.129-3.037 7.68l-1.506-.031h0z" fill="#42944a"/><path d="M133.171 74.007h7.549c-.069.911.252 1.951-.29 2.756l-24.623 36.626c-.268.372-.543.911-1.108.786h-8.531l4.191-6.283 22.812-33.886z" fill="#66cc78"/><path d="M133.018 88.798l7.545-11.267.008 56.686h-7.553V88.802v-.004zM105.587 115l9.616.034 12.86 19.171h-9.108l-8.577-12.767-8.665 12.801-9.096-.019L105.588 115h-.001z" fill="#adadad"/></svg>