<svg xmlns="http://www.w3.org/2000/svg" width="222" height="222" fill="none" xmlns:v="https://vecta.io/nano"><path d="M54.83 108.156c0-2.605-.799-4.4-2.209-5.462-1.357-1.138-3.54-1.694-6.414-1.694H30v19.849h7.159v-5.563h9.155c3.087-.025 5.456-.733 6.893-2.301 1.065-1.112 1.623-2.705 1.623-4.829h0zm-7.186.101c0 .632-.107 1.087-.319 1.441-.426.632-1.304.961-2.794.961h-7.425v-4.855h7.478c1.384 0 2.236.304 2.688.936.239.303.373.86.373 1.517h0zm17.379 12.592V101h-7.318v19.849h7.319-.001zm11.329-3.667h11.284l1.836 3.666h7.691L86.625 101h-8.596l-11.151 19.849h7.532l1.943-3.666v-.001zm9.022-4.45h-6.68l2.635-4.779.798-1.82.745 1.795 2.502 4.805v-.001zm38.134 8.117V101h-6.813v10.797L106.663 101h-7.505v19.849h6.866v-11.05l10.353 11.05h7.132zm11.505 0V101h-7.319v19.849h7.319zm27.057-14.868V101h-24.937v4.981h8.809v14.868h7.292v-14.868h8.836zM191.802 101h-7.878l-6.786 7.94-6.601-7.94h-8.117l11.045 13.325v6.524h7.159V114.3l11.178-13.3z" fill="#222"/></svg>