<svg xmlns="http://www.w3.org/2000/svg" xmlns:xlink="http://www.w3.org/1999/xlink" width="222" height="222" fill="none" xmlns:v="https://vecta.io/nano"><g clip-path="url(#F)"><path d="M89.092 100.056c.008-.739.669-1.396 1.42-1.409l12.797-.001v2.951c-3.483 0-6.966.001-10.449-.001-.257-.011-.525.108-.652.336-.136.212-.121.471-.118.712.008.226-.032.468.078.677.138.274.468.4.765.389l8.76-.001c.831-.075 1.638.623 1.617 1.453v7.95c-.003.244.019.494-.051.732-.126.463-.501.849-.964.999-.279.103-.581.069-.872.072H89.09v-2.942l10.382-.001c.212.002.44-.037.597-.187.197-.184.257-.462.249-.719l-.005-3.696c.012-.41-.382-.72-.78-.709-2.83-.003-5.66 0-8.489-.001-.314-.005-.639.033-.94-.075-.579-.188-1.012-.752-1.012-1.355l.001-5.175h0v.001zm77.75-1.401l3.112.007c.209.194.336.463.516.686l2.703 3.826c.121.166.225.367.427.452.318.149.744.052.936-.248l3.265-4.621c.067-.141.237-.097.366-.105l2.833.015v.013l-3.648 5.148c-.127.186-.287.367-.32.596-.032.193.043.38.11.559l3.858 9.901v.039c-1.04.002-2.079-.002-3.118.002l-2.78-7.138c-.118-.288-.191-.621-.458-.816-.524-.455-1.46-.259-1.723.387l-2.952 7.568-3.127-.002 3.927-10.095a.75.75 0 0 0-.078-.729l-3.849-5.446h0zm-47.967 10.353l-.001-3.852a1.48 1.48 0 0 0-1.017-1.368c-.257-.09-.532-.078-.799-.078-3.617.003-7.233-.002-10.849.002-.301.004-.594.096-.841.264a1.48 1.48 0 0 0-.544.681c-.119.287-.101.602-.1.906v7.89c-.015.754.647 1.448 1.418 1.462l8.269.001.002-2.936c-2.016-.012-4.032.001-6.047-.007-.253.001-.532-.125-.608-.378-.139-.355.13-.822.539-.802l8.621-.002c.292-.005.592.023.877-.061a1.49 1.49 0 0 0 1.019-.993c.076-.235.06-.485.061-.729h0zm-3.571-1.17c-2.223.003-4.448-.001-6.672.002-.238.001-.505.024-.702-.134a.61.61 0 0 1 .117-.988.73.73 0 0 1 .315-.057l6.876.001c.271-.011.566.152.621.429.096.346-.165.769-.555.747h0zm4.917-4.142l3.142.009 2.943 7.613c.192.533.86.804 1.388.594.27-.102.496-.32.607-.583l2.957-7.626h3.131l-4.04 10.425c-.085.212-.146.451-.329.606-.151.142-.365.194-.568.191h-4.309c-.168.008-.334-.037-.473-.13a.76.76 0 0 1-.298-.382l-4.151-10.718v.001zm29.606 1.468c.01-.809-.754-1.507-1.571-1.454-3.709.003-7.419-.002-11.129.003-.753.004-1.428.648-1.448 1.39v8.416c.013.748.698 1.407 1.46 1.398h8.217v-2.942c-1.976 0-3.951-.001-5.926 0-.229.008-.486-.037-.636-.222-.282-.341-.044-.969.432-.959l8.62-.004c.314-.005.64.029.944-.073a1.5 1.5 0 0 0 .657-.422c.177-.196.298-.434.35-.69.036-.198.031-.401.032-.601l-.002-3.839v-.001zm-3.53 2.671l-6.937.005c-.188.003-.387-.037-.523-.171-.283-.272-.182-.819.189-.964.104-.043.22-.042.333-.045h6.667c.228-.008.491.011.655.19.314.322.095.98-.384.985h0zm5.852-4.019c.345-.144.726-.099 1.091-.105h10.105c.362.004.74-.037 1.083.109a1.49 1.49 0 0 1 .93 1.409l.002 9.696c-.996.003-1.994-.005-2.99.005l-.011-7.516c.004-.261-.128-.533-.374-.649-.202-.11-.437-.11-.661-.104-2.132.004-4.265-.004-6.397.003-.41-.013-.732.366-.717.753l-.002 7.508h-2.999v-9.764a1.46 1.46 0 0 1 .263-.811 1.5 1.5 0 0 1 .677-.534h0 0z" fill="#503c91"/><path d="M89.09 117.805c.43-.026.863-.012 1.295-.007l1.294 3.971c.035.112.092.231.215.27.18.072.383-.059.422-.24l1.298-3.999 1.301-.007-1.688 5.217c-.033.142-.136.29-.301.281l-1.811.002c-.152.016-.287-.086-.319-.23l-1.707-5.258h0zm39.824-.004l1.238-.001.005.562c-.002.138.096.288.245.301.323.018.647.003.971.003l.013 1.212c-.331.028-.662-.009-.991.021-.18.022-.256.216-.242.374v3.02h-1.239l.002-3.016c.009-.139-.033-.302-.176-.361-.135-.038-.278-.026-.416-.034l-.003-1.198c.186-.03.451.039.554-.164.077-.23.024-.481.039-.719zm-20.931 1.481c.013-.334-.298-.63-.636-.611-1.526-.001-3.051-.003-4.577.002-.332-.011-.629.282-.614.609l-.001 3.383c-.022.329.277.639.614.622l3.379-.001-.001-1.217c-.857-.009-1.714.012-2.57-.009-.282-.039-.214-.505.069-.469l3.709-.004c.162.004.319-.055.436-.164s.186-.26.191-.419l.001-1.723v.001zm-1.511 1.087c-.964-.002-1.929.011-2.892-.007-.23-.03-.249-.38-.041-.453l2.668-.021c.164.013.375-.045.496.101.117.159-.022.422-.231.38h0zm8.757-1.083a.59.59 0 0 1 .043-.234.62.62 0 0 1 .334-.332c.075-.031.156-.047.238-.047l4.577-.002a.65.65 0 0 1 .243.043c.078.03.148.075.207.133s.106.125.138.201.047.156.046.238l.001 4.009c-.413-.001-.827.005-1.24-.004v-3.083c.019-.182-.154-.328-.33-.316-.856-.008-1.712.001-2.568-.004-.125.006-.275-.013-.365.092-.1.095-.085.242-.089.368l.002 2.945h-1.239l.002-4.007h0zm23.397-.612l1.238-.003-.002 3.003c.001.113.005.251.108.325.111.092.266.065.402.072l2.565-.006c.174.009.294-.169.278-.328v-3.061l1.243.009-.007 4.05c-.01.322-.328.579-.649.559h-4.508c-.356.03-.687-.276-.667-.629l-.001-3.991h0zm13.038.613c-.02-.335.291-.632.63-.616h2.435v1.218c-.52.006-1.041-.01-1.56.006-.158.006-.277.161-.266.31v3.088h-1.239v-4.006h0zm16.207.193c-.004-.175.015-.369-.089-.521-.12-.201-.362-.302-.592-.29-1.505.004-3.01-.002-4.514.003-.084-.001-.166.014-.244.044s-.147.076-.206.134-.106.126-.137.202a.59.59 0 0 0-.047.238l-.003 3.311c-.013.216.068.443.252.572.163.13.383.117.581.116l3.162-.006v-1.212c-.852-.011-1.704.01-2.556-.009-.298-.027-.228-.519.069-.472l3.707-.003a.6.6 0 0 0 .614-.581l.003-1.525v-.001zm-1.495.889c-.964-.002-1.93.01-2.893-.006-.244-.013-.266-.385-.049-.458l2.743-.018c.142.008.329-.026.424.113.095.156-.023.398-.225.369h0zm10.373-.479l4.251-.005v-1.214c-1.73 0-3.459-.003-5.189.001-.337-.017-.648.276-.63.609l.001 1.721c-.011.325.299.604.625.586l3.713.007c.32-.032.321.502.006.47l-4.345.004-.002 1.226 5.207-.003c.272.015.467-.186.614-.384v-2.094c-.1-.241-.326-.445-.602-.44-1.237-.011-2.474.004-3.711-.006-.19.031-.335-.175-.246-.341.045-.126.191-.139.308-.137h0z" fill="#9fa1a0"/><path d="M45.239 104.609l17.12 25.251h8.556l-17.093-25.251h-8.583z" fill="url(#A)"/><path d="M45.295 92h25.898l-21.597 31.518H41l12.823-18.909 4.208-6.321H41L45.295 92z" fill="url(#B)"/><path d="M75.123 110.93l-4.246 6.486L58.03 98.288H41l4.239 6.321h8.584l17.093 25.251 8.565-12.626-4.357-6.303v-.001z" fill="url(#C)"/><path d="M71.193 92l-21.596 31.518 4.189 6.342 21.338-31.572L71.193 92z" fill="url(#D)"/><path d="M66.521 110.93h8.602l-4.246 6.486-4.356-6.486z" fill="url(#E)"/><path d="M41 123.518h8.596l4.189 6.342h-8.546L41 123.518z" fill="#cfcbc9"/></g><defs><linearGradient id="A" x1="571.727" y1="859.159" x2="1534.11" y2="2372.84" xlink:href="#G"><stop stop-color="#f6b969"/><stop offset=".93" stop-color="#cecdcb"/></linearGradient><linearGradient id="B" x1="8.966" y1="2323.64" x2="1349.91" y2="141.694" xlink:href="#G"><stop stop-color="#ef7124"/><stop offset=".98" stop-color="#f2bb3c"/></linearGradient><linearGradient id="C" x1="774.471" y1="513.179" x2="2821.16" y2="2929.72" xlink:href="#G"><stop stop-color="#443a93"/><stop offset=".98" stop-color="#95539d"/></linearGradient><linearGradient id="D" x1="776.484" y1="3133.86" x2="2644.58" y2="1187.98" xlink:href="#G"><stop offset=".02" stop-color="#95539d"/><stop offset="1" stop-color="#493a94"/></linearGradient><linearGradient id="E" x1="674.518" y1="414.878" x2="671.038" y2="532.393" xlink:href="#G"><stop stop-color="#e8bd86"/><stop offset=".93" stop-color="#cecdcb"/></linearGradient><clipPath id="F"><path fill="#fff" transform="translate(41 92)" d="M0 0h140v38H0z"/></clipPath><linearGradient id="G" gradientUnits="userSpaceOnUse"/></defs></svg>