<svg xmlns="http://www.w3.org/2000/svg" width="222" height="222" fill="none" xmlns:v="https://vecta.io/nano"><g clip-path="url(#B)"><path fill-rule="evenodd" d="M96.686 85.942c-2.07-.568-4.198.69-4.713 2.786l-.597 2.43c-.479 1.948.622 3.57 2.31 3.852 6.911 1.155 19.595 2.699 37.583 4.044a1.58 1.58 0 0 0 1.512-.843c.471-.896.007-2.002-.961-2.286l-18.527-5.426-16.607-4.557h0zm-9.349 1.633c1.159-4.715 5.948-7.546 10.605-6.268l16.646 4.568 18.566 5.438c3.873 1.134 5.734 5.562 3.844 9.149-1.179 2.24-3.565 3.572-6.084 3.384-18.066-1.352-30.906-2.908-38.011-4.096-4.71-.787-7.241-5.359-6.163-9.745l.597-2.43v.001zm-14.087 30.992c-4.97-5.18-1.149-13.813 6.002-13.563l6.892.241 56.521 4.538c6.018.484 9.331 7.27 6.031 12.358l-9.384 14.469c-1.337 2.06-3.549 3.41-6.028 3.583-8.282.579-23.815 1.244-35.593.423a7.78 7.78 0 0 1-2.614-.654l-.836-.371a7.96 7.96 0 0 1-2.513-1.765l-18.477-19.259zm5.836-8.762c-2.86-.1-4.389 3.354-2.4 5.426l18.478 19.259a3.18 3.18 0 0 0 1.005.705l.836.372c.333.147.675.233 1.016.257 11.445.797 26.717.151 34.932-.424.947-.066 1.82-.582 2.361-1.416l9.384-14.469c1.32-2.034-.005-4.749-2.412-4.943l-56.414-4.53-6.785-.237h0z" fill="url(#A)"/></g><defs><linearGradient id="A" x1="146.044" y1="112.227" x2="77.273" y2="103.288" gradientUnits="userSpaceOnUse"><stop stop-color="#9666bd"/><stop offset=".391" stop-color="#737db9"/><stop offset=".667" stop-color="#738ebe"/><stop offset="1" stop-color="#3bccd0"/></linearGradient><clipPath id="B"><path fill="#fff" transform="translate(71 81)" d="M0 0h79v60H0z"/></clipPath></defs></svg>