<svg xmlns="http://www.w3.org/2000/svg" xmlns:xlink="http://www.w3.org/1999/xlink" width="1110" height="127" fill="none" xmlns:v="https://vecta.io/nano"><g fill="#0be17b"><path d="M5.426 36.51C1.809 32.499 0 27.407 0 21.234S1.809 9.988 5.426 6.016C9.044 2.005 13.822 0 19.759 0s10.715 2.005 14.333 6.016c3.618 3.971 5.426 9.044 5.426 15.217s-1.809 11.266-5.426 15.276c-3.618 3.971-8.395 5.957-14.333 5.957S9.044 40.482 5.426 36.51zM6.724 7.255c-3.303 3.657-4.955 8.317-4.955 13.979s1.652 10.322 4.955 13.979 7.648 5.485 13.035 5.485 9.732-1.828 13.035-5.485 4.955-8.316 4.955-13.979-1.651-10.322-4.955-13.979S25.146 1.77 19.759 1.77 10.027 3.598 6.724 7.255zm39.187 32.853h4.129c.59 0 .885-.295.885-.885V3.244c0-.59-.295-.885-.885-.885h-4.129c-.59 0-.885-.295-.885-.885s.295-.885.885-.885h6.488c.629 0 1.121.295 1.475.885l24.183 36.864c.079.157.197.236.354.236.157-.039.236-.216.236-.531v-34.8c0-.59-.295-.885-.885-.885h-3.539c-.59 0-.885-.295-.885-.885s.295-.885.885-.885H85.43c.59 0 .885.295.885.885s-.295.885-.885.885h-4.129c-.59 0-.885.295-.885.885v35.979c0 .59.295.885.885.885h4.129c.59 0 .885.295.885.885s-.295.885-.885.885h-6.488c-.629 0-1.121-.295-1.475-.885L53.284 4.129c-.079-.157-.197-.216-.354-.177-.157 0-.236.157-.236.472v34.8c0 .59.295.885.885.885h3.539c.59 0 .885.295.885.885s-.295.885-.885.885H45.911c-.59 0-.885-.295-.885-.885s.295-.885.885-.885zm46.311 1.77c-.59 0-.885-.295-.885-.885s.295-.885.885-.885h4.129c.59 0 .885-.295.885-.885V3.244c0-.59-.295-.885-.885-.885h-4.129c-.59 0-.885-.295-.885-.885s.295-.885.885-.885h28.016c.59 0 .885.295.885.885v8.258c0 .59-.295.885-.885.885s-.884-.295-.884-.885V3.244c0-.59-.295-.885-.885-.885H99.89c-.59 0-.885.295-.885.885v15.925c0 .59.295.885.885.885h13.272c.589 0 .884-.295.884-.885V16.22c0-.59.295-.885.885-.885s.885.295.885.885v9.437c0 .59-.295.885-.885.885s-.885-.295-.885-.885v-2.949c0-.59-.295-.885-.884-.885H99.89c-.59 0-.885.295-.885.885v16.515c0 .59.295.885.885.885h19.17c.59 0 .884-.295.884-.885v-6.488c0-.59.295-.885.885-.885s.885.295.885.885v8.258c0 .59-.295.885-.885.885H92.222z"/><use xlink:href="#B"/><path d="M166.035 37.454c3.303 2.163 6.92 3.244 10.852 3.244 3.972 0 7.039-.865 9.202-2.595 2.202-1.769 3.303-4.05 3.303-6.842 0-1.534-.472-2.87-1.416-4.011s-2.123-2.025-3.539-2.654c-1.573-.708-4.62-1.671-9.142-2.89-4.522-1.258-7.648-2.3-9.378-3.126-1.691-.865-3.028-1.947-4.011-3.244-.944-1.298-1.416-2.792-1.416-4.483 0-3.303 1.082-5.938 3.244-7.904S169.338 0 174.056 0c4.679 0 8.985 1.671 12.917 5.014.629.511.944.315.944-.59V1.475c0-.59.295-.885.885-.885s.884.295.884.885v11.207c0 .59-.294.885-.884.885s-.885-.295-.885-.885v-4.13c-2.163-2.477-4.856-4.384-8.081-5.721-1.73-.708-3.656-1.062-5.78-1.062-4.011 0-6.979.826-8.906 2.477s-2.89 3.677-2.89 6.075c0 1.534.472 2.871 1.415 4.011a9.56 9.56 0 0 0 3.539 2.654c1.573.708 4.62 1.691 9.142 2.949 4.522 1.219 7.629 2.261 9.32 3.126 1.73.826 3.067 1.887 4.01 3.185.984 1.298 1.475 2.851 1.475 4.66 0 3.539-1.239 6.35-3.716 8.434s-6.154 3.126-11.03 3.126-9.279-1.671-13.212-5.014c-.629-.511-.943-.315-.943.59v2.949c0 .59-.295.885-.885.885s-.885-.295-.885-.885V29.786c0-.59.295-.885.885-.885s.885.295.885.885v4.424c1.061 1.219 2.32 2.3 3.775 3.244zm29.876-27.427V1.475c0-.59.295-.885.885-.885h31.85c.59 0 .885.295.885.885v8.552c0 .59-.295.885-.885.885s-.885-.295-.885-.885V3.244c0-.59-.294-.885-.884-.885H214.49c-.589 0-.884.295-.884.885v35.979c0 .59.295.885.884.885h4.129c.59 0 .885.295.885.885s-.295.885-.885.885h-11.796c-.59 0-.885-.295-.885-.885s.295-.885.885-.885h4.128c.59 0 .885-.295.885-.885V3.244c0-.59-.295-.885-.885-.885h-12.386c-.59 0-.885.295-.885.885v6.783c0 .59-.294.885-.884.885s-.885-.295-.885-.885zm43.371 26.483c-3.617-4.011-5.426-9.103-5.426-15.276s1.809-11.246 5.426-15.217C242.9 2.005 247.678 0 253.615 0s10.715 2.005 14.333 6.016c3.617 3.971 5.426 9.044 5.426 15.217s-1.809 11.266-5.426 15.276c-3.618 3.971-8.395 5.957-14.333 5.957s-10.715-1.986-14.333-5.957zm1.298-29.255c-3.303 3.657-4.955 8.317-4.955 13.979s1.652 10.322 4.955 13.979 7.648 5.485 13.035 5.485 9.732-1.828 13.035-5.485 4.955-8.316 4.955-13.979-1.652-10.322-4.955-13.979-7.648-5.485-13.035-5.485-9.732 1.828-13.035 5.485zm46.855 18.107c-.59 0-.885.295-.885.885v12.976c0 .59.295.885.885.885h4.719c.589 0 .884.295.884.885s-.295.885-.884.885h-12.387c-.589 0-.884-.295-.884-.885s.295-.885.884-.885h4.129c.59 0 .885-.295.885-.885V3.244c0-.59-.295-.885-.885-.885h-4.129c-.589 0-.884-.295-.884-.885s.295-.885.884-.885h19.759c3.893 0 6.823 1.062 8.789 3.185 2.005 2.084 3.008 5.151 3.008 9.201s-1.003 7.137-3.008 9.26c-1.966 2.084-4.896 3.126-8.789 3.126h-12.091zm12.091-1.769c6.685 0 10.027-3.539 10.027-10.617s-3.342-10.617-10.027-10.617h-12.091c-.59 0-.885.295-.885.885v19.464c0 .59.295.885.885.885h12.091zm52.205-19.759c-.079-.236-.197-.354-.354-.354s-.275.118-.354.354l-8.08 20.998c-.315.59-.099.885.648.885h15.572c.708 0 .924-.295.649-.885l-8.081-20.998zm9.437 24.478c-.236-.55-.708-.826-1.415-.826h-16.751c-.708 0-1.18.275-1.416.826l-4.188 10.912c-.314.59-.118.885.59.885h3.539c.59 0 .885.295.885.885s-.295.885-.885.885H330.32c-.589 0-.884-.295-.884-.885s.295-.885.884-.885h3.834c.472 0 .865-.295 1.18-.885L350.079.885c.158-.59.59-.885 1.298-.885s1.14.295 1.298.885l14.745 38.339c.276.59.669.885 1.18.885h3.834c.59 0 .885.295.885.885s-.295.885-.885.885h-11.207c-.59 0-.885-.295-.885-.885s.295-.885.885-.885h3.539c.669 0 .865-.295.59-.885l-4.188-10.912zm13.405-7.078c0-6.134 1.73-11.207 5.19-15.217S387.687 0 393.152 0c4.758 0 9.064 1.671 12.917 5.014.63.511.944.315.944-.59V1.475c0-.59.295-.885.885-.885s.885.295.885.885v11.207c0 .59-.295.885-.885.885s-.885-.295-.885-.885v-4.13c-1.062-1.219-2.3-2.34-3.716-3.362-3.224-2.281-6.606-3.421-10.145-3.421-4.836 0-8.847 1.868-12.032 5.603-3.185 3.696-4.778 8.356-4.778 13.979 0 5.584 1.652 10.204 4.955 13.861s7.707 5.485 13.212 5.485 9.948-1.789 13.33-5.367c.393-.393.747-.433 1.062-.118s.471.57.471.767-.098.393-.294.59c-4.011 3.932-8.966 5.898-14.864 5.898-5.859 0-10.597-2.005-14.215-6.016s-5.426-9.083-5.426-15.217zm41.011 0c0-6.134 1.73-11.207 5.19-15.217S428.698 0 434.163 0c4.758 0 9.064 1.671 12.918 5.014.629.511.943.315.943-.59V1.475c0-.59.295-.885.885-.885s.885.295.885.885v11.207c0 .59-.295.885-.885.885s-.885-.295-.885-.885v-4.13c-1.061-1.219-2.3-2.34-3.716-3.362-3.224-2.281-6.606-3.421-10.145-3.421-4.836 0-8.847 1.868-12.032 5.603-3.185 3.696-4.778 8.356-4.778 13.979 0 5.584 1.652 10.204 4.955 13.861s7.707 5.485 13.212 5.485 9.948-1.789 13.33-5.367c.393-.393.747-.433 1.062-.118s.472.57.472.767-.099.393-.295.59c-4.011 3.932-8.966 5.898-14.864 5.898-5.859 0-10.597-2.005-14.215-6.016s-5.426-9.083-5.426-15.217zm41.188 20.644c-.59 0-.885-.295-.885-.885s.295-.885.885-.885h4.129c.59 0 .885-.295.885-.885V3.244c0-.59-.295-.885-.885-.885h-4.129c-.59 0-.885-.295-.885-.885s.295-.885.885-.885h28.017c.59 0 .885.295.885.885v8.258c0 .59-.295.885-.885.885s-.885-.295-.885-.885V3.244c0-.59-.295-.885-.885-.885H464.44c-.59 0-.885.295-.885.885v15.925c0 .59.295.885.885.885h13.271c.59 0 .885-.295.885-.885V16.22c0-.59.295-.885.884-.885s.885.295.885.885v9.437c0 .59-.295.885-.885.885s-.884-.295-.884-.885v-2.949c0-.59-.295-.885-.885-.885H464.44c-.59 0-.885.295-.885.885v16.515c0 .59.295.885.885.885h19.169c.59 0 .885-.295.885-.885v-6.488c0-.59.295-.885.885-.885s.884.295.884.885v8.258c0 .59-.295.885-.884.885h-28.607zm36.231 0c-.59 0-.885-.295-.885-.885s.295-.885.885-.885h4.128c.59 0 .885-.295.885-.885V3.244c0-.59-.295-.885-.885-.885h-4.128c-.59 0-.885-.295-.885-.885s.295-.885.885-.885h12.976c.59 0 .884.295.884.885s-.294.885-.884.885h-5.309c-.59 0-.884.295-.884.885v35.979c0 .59.294.885.884.885h18.875c.589 0 .884-.295.884-.885v-6.488c0-.59.295-.885.885-.885s.885.295.885.885v8.258c0 .59-.295.885-.885.885h-28.311zm34.099 0c-.59 0-.885-.295-.885-.885s.295-.885.885-.885h4.129c.589 0 .884-.295.884-.885V3.244c0-.59-.295-.885-.884-.885h-4.129c-.59 0-.885-.295-.885-.885s.295-.885.885-.885h28.016c.59 0 .885.295.885.885v8.258c0 .59-.295.885-.885.885s-.884-.295-.884-.885V3.244c0-.59-.295-.885-.885-.885h-18.58c-.589 0-.884.295-.884.885v15.925c0 .59.295.885.884.885h13.272c.589 0 .884-.295.884-.885V16.22c0-.59.295-.885.885-.885s.885.295.885.885v9.437c0 .59-.295.885-.885.885s-.885-.295-.885-.885v-2.949c0-.59-.295-.885-.884-.885h-13.272c-.589 0-.884.295-.884.885v16.515c0 .59.295.885.884.885h19.17c.59 0 .884-.295.884-.885v-6.488c0-.59.295-.885.885-.885s.885.295.885.885v8.258c0 .59-.295.885-.885.885h-28.606zm55.989-20.644c3.225 0 5.702-.826 7.432-2.477s2.595-3.971 2.595-6.96-.865-5.308-2.595-6.96-4.207-2.477-7.432-2.477H571c-.59 0-.885.295-.885.885V20.35c0 .59.295.885.885.885h12.091zm-12.976 17.99c0 .59.295.885.885.885h3.539c.59 0 .885.295.885.885s-.295.885-.885.885h-11.207c-.59 0-.885-.295-.885-.885s.295-.885.885-.885h4.129c.59 0 .885-.295.885-.885V3.244c0-.59-.295-.885-.885-.885h-4.129c-.59 0-.885-.295-.885-.885s.295-.885.885-.885h19.759c3.815 0 6.724.983 8.73 2.949 2.044 1.966 3.067 4.719 3.067 8.258s-1.023 6.291-3.067 8.257c-2.006 1.966-4.915 2.949-8.73 2.949h-.295c-.314 0-.55.098-.707.295-.118.157-.079.354.118.59l11.206 15.335c.511.59 1.003.885 1.475.885h3.834c.589 0 .884.295.884.885s-.295.885-.884.885h-11.797c-.59 0-.885-.295-.885-.885s.295-.885.885-.885h3.834c.708 0 .806-.295.295-.885l-11.797-16.22H571c-.59 0-.885.295-.885.885v15.335zm51.933-35.39c-.079-.236-.197-.354-.354-.354s-.275.118-.354.354l-8.081 20.998c-.314.59-.098.885.649.885h15.572c.707 0 .924-.295.648-.885l-8.08-20.998zm9.437 24.478c-.236-.55-.708-.826-1.416-.826h-16.751c-.707 0-1.179.275-1.415.826l-4.188 10.912c-.315.59-.118.885.59.885h3.539c.59 0 .885.295.885.885s-.295.885-.885.885h-11.207c-.59 0-.885-.295-.885-.885s.295-.885.885-.885h3.834c.472 0 .865-.295 1.18-.885L620.396.885c.158-.59.59-.885 1.298-.885s1.14.295 1.298.885l14.745 38.339c.275.59.669.885 1.18.885h3.834c.589 0 .884.295.884.885s-.295.885-.884.885h-11.207c-.59 0-.885-.295-.885-.885s.295-.885.885-.885h3.539c.668 0 .865-.295.59-.885l-4.188-10.912zm10.308-18.285V1.475c0-.59.295-.885.884-.885h31.851c.59 0 .885.295.885.885v8.552c0 .59-.295.885-.885.885s-.885-.295-.885-.885V3.244c0-.59-.295-.885-.885-.885h-12.386c-.59 0-.885.295-.885.885v35.979c0 .59.295.885.885.885h4.129c.59 0 .884.295.884.885s-.294.885-.884.885h-11.797c-.589 0-.884-.295-.884-.885s.295-.885.884-.885h4.129c.59 0 .885-.295.885-.885V3.244c0-.59-.295-.885-.885-.885h-12.386c-.59 0-.885.295-.885.885v6.783c0 .59-.295.885-.885.885s-.884-.295-.884-.885zm38.525 31.851c-.59 0-.885-.295-.885-.885s.295-.885.885-.885h4.129c.589 0 .884-.295.884-.885V3.244c0-.59-.295-.885-.884-.885h-4.129c-.59 0-.885-.295-.885-.885s.295-.885.885-.885h11.796c.59 0 .885.295.885.885s-.295.885-.885.885h-4.129c-.589 0-.884.295-.884.885v35.979c0 .59.295.885.884.885h4.129c.59 0 .885.295.885.885s-.295.885-.885.885h-11.796zm23.624-5.368c-3.618-4.011-5.427-9.103-5.427-15.276s1.809-11.246 5.427-15.217C707.559 2.005 712.337 0 718.274 0s10.715 2.005 14.333 6.016c3.618 3.971 5.426 9.044 5.426 15.217s-1.808 11.266-5.426 15.276c-3.618 3.971-8.395 5.957-14.333 5.957s-10.715-1.986-14.332-5.957zm1.297-29.255c-3.303 3.657-4.954 8.317-4.954 13.979s1.651 10.322 4.954 13.979 7.648 5.485 13.035 5.485 9.732-1.828 13.035-5.485 4.955-8.316 4.955-13.979-1.652-10.322-4.955-13.979-7.648-5.485-13.035-5.485-9.732 1.828-13.035 5.485zm39.188 32.853h4.128c.59 0 .885-.295.885-.885V3.244c0-.59-.295-.885-.885-.885h-4.128c-.59 0-.885-.295-.885-.885s.295-.885.885-.885h6.488c.629 0 1.12.295 1.474.885l24.183 36.864c.079.157.197.236.354.236.157-.039.236-.216.236-.531v-34.8c0-.59-.295-.885-.885-.885h-3.539c-.59 0-.885-.295-.885-.885s.295-.885.885-.885h11.207c.59 0 .885.295.885.885s-.295.885-.885.885h-4.129c-.59 0-.885.295-.885.885v35.979c0 .59.295.885.885.885h4.129c.59 0 .885.295.885.885s-.295.885-.885.885h-6.488c-.629 0-1.121-.295-1.475-.885L751.799 4.129c-.078-.157-.196-.216-.354-.177-.157 0-.235.157-.235.472v34.8c0 .59.294.885.884.885h3.539c.59 0 .885.295.885.885s-.295.885-.885.885h-11.206c-.59 0-.885-.295-.885-.885s.295-.885.885-.885zm70.509-14.746c-.59 0-.885.295-.885.885v12.976c0 .59.295.885.885.885h4.718c.59 0 .885.295.885.885s-.295.885-.885.885h-12.386c-.59 0-.885-.295-.885-.885s.295-.885.885-.885h4.129c.59 0 .885-.295.885-.885V3.244c0-.59-.295-.885-.885-.885h-4.129c-.59 0-.885-.295-.885-.885s.295-.885.885-.885h19.759c3.893 0 6.823 1.062 8.789 3.185 2.005 2.084 3.008 5.151 3.008 9.201s-1.003 7.137-3.008 9.26c-1.966 2.084-4.896 3.126-8.789 3.126h-12.091zm12.091-1.769c6.685 0 10.027-3.539 10.027-10.617s-3.342-10.617-10.027-10.617h-12.091c-.59 0-.885.295-.885.885v19.464c0 .59.295.885.885.885h12.091zm37.037-2.359c3.224 0 5.702-.826 7.432-2.477s2.595-3.971 2.595-6.96-.865-5.308-2.595-6.96-4.208-2.477-7.432-2.477h-12.091c-.59 0-.885.295-.885.885V20.35c0 .59.295.885.885.885h12.091zm-12.976 17.99c0 .59.295.885.885.885h3.539c.59 0 .884.295.884.885s-.294.885-.884.885h-11.207c-.59 0-.885-.295-.885-.885s.295-.885.885-.885h4.129c.59 0 .884-.295.884-.885V3.244c0-.59-.294-.885-.884-.885h-4.129c-.59 0-.885-.295-.885-.885s.295-.885.885-.885h19.759c3.814 0 6.724.983 8.73 2.949 2.044 1.966 3.067 4.719 3.067 8.258s-1.023 6.291-3.067 8.257c-2.006 1.966-4.916 2.949-8.73 2.949h-.295c-.314 0-.55.098-.708.295-.118.157-.078.354.118.59l11.207 15.335c.511.59 1.003.885 1.475.885h3.833c.59 0 .885.295.885.885s-.295.885-.885.885h-11.796c-.59 0-.885-.295-.885-.885s.295-.885.885-.885h3.834c.708 0 .806-.295.295-.885l-11.797-16.22h-8.257c-.59 0-.885.295-.885.885v15.335zm38.441-2.714c-3.618-4.011-5.427-9.103-5.427-15.276s1.809-11.246 5.427-15.217C893.146 2.005 897.924 0 903.862 0s10.715 2.005 14.332 6.016c3.618 3.971 5.427 9.044 5.427 15.217s-1.809 11.266-5.427 15.276c-3.617 3.971-8.395 5.957-14.332 5.957s-10.716-1.986-14.333-5.957zm1.297-29.255c-3.303 3.657-4.954 8.317-4.954 13.979s1.651 10.322 4.954 13.979 7.648 5.485 13.036 5.485 9.732-1.828 13.035-5.485 4.954-8.316 4.954-13.979-1.651-10.322-4.954-13.979-7.648-5.485-13.035-5.485-9.733 1.828-13.036 5.485zm41.414 14.038c0 5.584 1.612 10.224 4.836 13.92 3.264 3.657 7.373 5.485 12.328 5.485s9.457-2.261 13.507-6.783V22.708c0-.59-.295-.885-.885-.885h-3.539c-.59 0-.885-.295-.885-.885s.295-.885.885-.885h11.207c.59 0 .884.295.884.885s-.294.885-.884.885h-4.129c-.59 0-.885.295-.885.885v18.285c0 .59-.295.885-.884.885s-.885-.295-.885-.885v-2.949c0-.944-.315-1.14-.944-.59-3.893 3.342-8.002 5.014-12.327 5.014-5.702 0-10.322-2.005-13.861-6.016s-5.309-9.064-5.309-15.158c0-6.134 1.731-11.207 5.191-15.218C939.161 2.025 943.624 0 949.05 0c4.718 0 9.024 1.671 12.917 5.014.629.55.944.354.944-.59V1.475c0-.59.295-.885.885-.885s.884.295.884.885v11.207c0 .59-.295.885-.884.885s-.885-.295-.885-.885v-4.13a21.94 21.94 0 0 0-3.716-3.362c-3.224-2.281-6.606-3.421-10.145-3.421-4.837 0-8.847 1.848-12.032 5.544s-4.778 8.356-4.778 13.979zm63.21-.059c3.224 0 5.7-.826 7.43-2.477s2.6-3.971 2.6-6.96-.87-5.308-2.6-6.96-4.206-2.477-7.43-2.477h-12.092c-.59 0-.884.295-.884.885V20.35c0 .59.294.885.884.885h12.092zm-12.976 17.99c0 .59.294.885.884.885h3.539c.59 0 .885.295.885.885s-.295.885-.885.885h-11.206c-.59 0-.885-.295-.885-.885s.295-.885.885-.885h4.128c.59 0 .885-.295.885-.885V3.244c0-.59-.295-.885-.885-.885h-4.128c-.59 0-.885-.295-.885-.885s.295-.885.885-.885h19.759c3.814 0 6.72.983 8.73 2.949 2.04 1.966 3.07 4.719 3.07 8.258s-1.03 6.291-3.07 8.257c-2.01 1.966-4.916 2.949-8.73 2.949h-.295c-.315 0-.551.098-.708.295-.118.157-.079.354.118.59l11.205 15.335c.51.59 1 .885 1.48.885h3.83c.59 0 .88.295.88.885s-.29.885-.88.885h-11.796c-.59 0-.885-.295-.885-.885s.295-.885.885-.885h3.836c.71 0 .8-.295.29-.885l-11.794-16.22h-8.258c-.59 0-.884.295-.884.885v15.335zm51.936-35.39c-.08-.236-.2-.354-.36-.354-.15 0-.27.118-.35.354l-8.08 20.998c-.32.59-.1.885.65.885h15.57c.71 0 .92-.295.65-.885l-8.08-20.998zm9.43 24.478c-.23-.55-.7-.826-1.41-.826h-16.75c-.71 0-1.18.275-1.42.826l-4.19 10.912c-.31.59-.11.885.59.885h3.54c.59 0 .89.295.89.885s-.3.885-.89.885H1013c-.59 0-.89-.295-.89-.885s.3-.885.89-.885h3.83c.47 0 .86-.295 1.18-.885L1032.75.885c.16-.59.59-.885 1.3-.885s1.14.295 1.3.885l14.75 38.339c.27.59.66.885 1.18.885h3.83c.59 0 .88.295.88.885s-.29.885-.88.885h-11.21c-.59 0-.88-.295-.88-.885s.29-.885.88-.885h3.54c.67 0 .87-.295.59-.885l-4.19-10.912zm15.14 11.796h4.13c.59 0 .88-.295.88-.885V3.244c0-.59-.29-.885-.88-.885h-4.13c-.59 0-.88-.295-.88-.885s.29-.885.88-.885h6.49c.71 0 1.2.295 1.47.885l16.52 36.569c.39.786.78.786 1.18 0l16.51-36.569c.28-.59.77-.885 1.48-.885h6.49c.59 0 .88.295.88.885s-.29.885-.88.885h-4.13c-.59 0-.89.295-.89.885v35.979c0 .59.3.885.89.885h4.13c.59 0 .88.295.88.885s-.29.885-.88.885h-11.21c-.59 0-.89-.295-.89-.885s.3-.885.89-.885h3.54c.59 0 .88-.295.88-.885V4.719c0-.393-.08-.55-.23-.472-.08 0-.16.059-.24.177l-16.51 36.569c-.32.59-.75.885-1.3.885s-.99-.295-1.3-.885l-16.52-36.569c-.15-.236-.27-.295-.35-.177s-.12.275-.12.472v34.505c0 .59.3.885.89.885h3.54c.59 0 .88.295.88.885s-.29.885-.88.885h-11.21c-.59 0-.88-.295-.88-.885s.29-.885.88-.885z"/></g><g opacity=".13" fill="#0be17b"><path d="M5.426 57.504C1.809 53.493 0 48.401 0 42.227S1.809 30.981 5.426 27.01c3.618-4.011 8.395-6.016 14.333-6.016s10.715 2.005 14.333 6.016c3.618 3.972 5.426 9.044 5.426 15.218s-1.809 11.266-5.426 15.276c-3.618 3.971-8.395 5.957-14.333 5.957S9.044 61.475 5.426 57.504zm1.298-29.255c-3.303 3.657-4.955 8.317-4.955 13.979S3.421 52.55 6.724 56.207s7.648 5.485 13.035 5.485 9.732-1.828 13.035-5.485 4.955-8.317 4.955-13.979-1.651-10.322-4.955-13.979-7.648-5.485-13.035-5.485-9.732 1.828-13.035 5.485zm39.187 32.853h4.129c.59 0 .885-.295.885-.885V24.238c0-.59-.295-.885-.885-.885h-4.129c-.59 0-.885-.295-.885-.885s.295-.885.885-.885h6.488c.629 0 1.121.295 1.475.885l24.183 36.864c.079.157.197.236.354.236.157-.039.236-.216.236-.531v-34.8c0-.59-.295-.885-.885-.885h-3.539c-.59 0-.885-.295-.885-.885s.295-.885.885-.885H85.43c.59 0 .885.295.885.885s-.295.885-.885.885h-4.129c-.59 0-.885.295-.885.885v35.979c0 .59.295.885.885.885h4.129c.59 0 .885.295.885.885s-.295.885-.885.885h-6.488c-.629 0-1.121-.295-1.475-.885L53.284 25.123c-.079-.157-.197-.216-.354-.177-.157 0-.236.157-.236.472v34.8c0 .59.295.885.885.885h3.539c.59 0 .885.295.885.885s-.295.885-.885.885H45.911c-.59 0-.885-.295-.885-.885s.295-.885.885-.885zm46.311 1.769c-.59 0-.885-.295-.885-.885s.295-.885.885-.885h4.129c.59 0 .885-.295.885-.885V24.238c0-.59-.295-.885-.885-.885h-4.129c-.59 0-.885-.295-.885-.885s.295-.885.885-.885h28.016c.59 0 .885.295.885.885v8.258c0 .59-.295.885-.885.885s-.884-.295-.884-.885v-6.488c0-.59-.295-.885-.885-.885H99.89c-.59 0-.885.295-.885.885v15.925c0 .59.295.885.885.885h13.272c.589 0 .884-.295.884-.885v-2.949c0-.59.295-.885.885-.885s.885.295.885.885v9.437c0 .59-.295.885-.885.885s-.885-.295-.885-.885v-2.949c0-.59-.295-.885-.884-.885H99.89c-.59 0-.885.295-.885.885v16.515c0 .59.295.885.885.885h19.17c.59 0 .884-.295.884-.885v-6.488c0-.59.295-.885.885-.885s.885.295.885.885v8.258c0 .59-.295.885-.885.885H92.222z"/><use xlink:href="#B" y="20.994"/><path d="M166.035 58.448c3.303 2.163 6.92 3.244 10.852 3.244 3.972 0 7.039-.865 9.202-2.595 2.202-1.769 3.303-4.05 3.303-6.842 0-1.534-.472-2.87-1.416-4.011s-2.123-2.025-3.539-2.654c-1.573-.708-4.62-1.671-9.142-2.89-4.522-1.258-7.648-2.3-9.378-3.126-1.691-.865-3.028-1.946-4.011-3.244-.944-1.298-1.416-2.792-1.416-4.483 0-3.303 1.082-5.938 3.244-7.904s5.604-2.949 10.322-2.949c4.679 0 8.985 1.671 12.917 5.014.629.511.944.315.944-.59v-2.949c0-.59.295-.885.885-.885s.884.295.884.885v11.207c0 .59-.294.885-.884.885s-.885-.295-.885-.885v-4.129c-2.163-2.477-4.856-4.384-8.081-5.721-1.73-.708-3.656-1.062-5.78-1.062-4.011 0-6.979.826-8.906 2.477s-2.89 3.677-2.89 6.075c0 1.534.472 2.871 1.415 4.011s2.124 2.025 3.539 2.654c1.573.708 4.62 1.691 9.142 2.949 4.522 1.219 7.629 2.261 9.32 3.126 1.73.826 3.067 1.888 4.01 3.185.984 1.298 1.475 2.851 1.475 4.66 0 3.539-1.239 6.35-3.716 8.435s-6.154 3.126-11.03 3.126-9.279-1.671-13.212-5.014c-.629-.511-.943-.314-.943.59v2.949c0 .59-.295.885-.885.885s-.885-.295-.885-.885V50.78c0-.59.295-.885.885-.885s.885.295.885.885v4.424c1.061 1.219 2.32 2.3 3.775 3.244zm29.876-27.427v-8.552c0-.59.295-.885.885-.885h31.85c.59 0 .885.295.885.885v8.552c0 .59-.295.885-.885.885s-.885-.295-.885-.885v-6.783c0-.59-.294-.885-.884-.885H214.49c-.589 0-.884.295-.884.885v35.979c0 .59.295.885.884.885h4.129c.59 0 .885.295.885.885s-.295.885-.885.885h-11.796c-.59 0-.885-.295-.885-.885s.295-.885.885-.885h4.128c.59 0 .885-.295.885-.885V24.238c0-.59-.295-.885-.885-.885h-12.386c-.59 0-.885.295-.885.885v6.783c0 .59-.294.885-.884.885s-.885-.295-.885-.885zm43.371 26.483c-3.617-4.011-5.426-9.103-5.426-15.276s1.809-11.246 5.426-15.218c3.618-4.011 8.396-6.016 14.333-6.016s10.715 2.005 14.333 6.016c3.617 3.972 5.426 9.044 5.426 15.218s-1.809 11.266-5.426 15.276c-3.618 3.971-8.395 5.957-14.333 5.957s-10.715-1.986-14.333-5.957zm1.298-29.255c-3.303 3.657-4.955 8.317-4.955 13.979s1.652 10.322 4.955 13.979 7.648 5.485 13.035 5.485 9.732-1.828 13.035-5.485 4.955-8.317 4.955-13.979-1.652-10.322-4.955-13.979-7.648-5.485-13.035-5.485-9.732 1.828-13.035 5.485zm46.855 18.107c-.59 0-.885.295-.885.885v12.976c0 .59.295.885.885.885h4.719c.589 0 .884.295.884.885s-.295.885-.884.885h-12.387c-.589 0-.884-.295-.884-.885s.295-.885.884-.885h4.129c.59 0 .885-.295.885-.885V24.238c0-.59-.295-.885-.885-.885h-4.129c-.589 0-.884-.295-.884-.885s.295-.885.884-.885h19.759c3.893 0 6.823 1.062 8.789 3.185 2.005 2.084 3.008 5.151 3.008 9.201s-1.003 7.137-3.008 9.26c-1.966 2.084-4.896 3.126-8.789 3.126h-12.091zm12.091-1.769c6.685 0 10.027-3.539 10.027-10.617s-3.342-10.617-10.027-10.617h-12.091c-.59 0-.885.295-.885.885v19.464c0 .59.295.885.885.885h12.091z"/><use xlink:href="#C"/><path d="M374.573 42.227c0-6.134 1.73-11.207 5.19-15.218s7.924-6.016 13.389-6.016c4.758 0 9.064 1.671 12.917 5.014.63.511.944.315.944-.59v-2.949c0-.59.295-.885.885-.885s.885.295.885.885v11.207c0 .59-.295.885-.885.885s-.885-.295-.885-.885v-4.129c-1.062-1.219-2.3-2.34-3.716-3.362-3.224-2.281-6.606-3.421-10.145-3.421-4.836 0-8.847 1.868-12.032 5.603-3.185 3.696-4.778 8.356-4.778 13.979 0 5.584 1.652 10.204 4.955 13.861s7.707 5.485 13.212 5.485 9.948-1.789 13.33-5.367c.393-.393.747-.433 1.062-.118s.471.57.471.767-.098.393-.294.59c-4.011 3.932-8.966 5.898-14.864 5.898-5.859 0-10.597-2.005-14.215-6.016s-5.426-9.083-5.426-15.217zm41.011 0c0-6.134 1.73-11.207 5.19-15.218s7.924-6.016 13.389-6.016c4.758 0 9.064 1.671 12.918 5.014.629.511.943.315.943-.59v-2.949c0-.59.295-.885.885-.885s.885.295.885.885v11.207c0 .59-.295.885-.885.885s-.885-.295-.885-.885v-4.129a21.86 21.86 0 0 0-3.716-3.362c-3.224-2.281-6.606-3.421-10.145-3.421-4.836 0-8.847 1.868-12.032 5.603-3.185 3.696-4.778 8.356-4.778 13.979 0 5.584 1.652 10.204 4.955 13.861s7.707 5.485 13.212 5.485 9.948-1.789 13.33-5.367c.393-.393.747-.433 1.062-.118s.472.57.472.767-.099.393-.295.59c-4.011 3.932-8.966 5.898-14.864 5.898-5.859 0-10.597-2.005-14.215-6.016s-5.426-9.083-5.426-15.217zm41.188 20.644c-.59 0-.885-.295-.885-.885s.295-.885.885-.885h4.129c.59 0 .885-.295.885-.885V24.238c0-.59-.295-.885-.885-.885h-4.129c-.59 0-.885-.295-.885-.885s.295-.885.885-.885h28.017c.59 0 .885.295.885.885v8.258c0 .59-.295.885-.885.885s-.885-.295-.885-.885v-6.488c0-.59-.295-.885-.885-.885H464.44c-.59 0-.885.295-.885.885v15.925c0 .59.295.885.885.885h13.271c.59 0 .885-.295.885-.885v-2.949c0-.59.295-.885.884-.885s.885.295.885.885v9.437c0 .59-.295.885-.885.885s-.884-.295-.884-.885v-2.949c0-.59-.295-.885-.885-.885H464.44c-.59 0-.885.295-.885.885v16.515c0 .59.295.885.885.885h19.169c.59 0 .885-.295.885-.885v-6.488c0-.59.295-.885.885-.885s.884.295.884.885v8.258c0 .59-.295.885-.884.885h-28.607zm36.231 0c-.59 0-.885-.295-.885-.885s.295-.885.885-.885h4.128c.59 0 .885-.295.885-.885V24.238c0-.59-.295-.885-.885-.885h-4.128c-.59 0-.885-.295-.885-.885s.295-.885.885-.885h12.976c.59 0 .884.295.884.885s-.294.885-.884.885h-5.309c-.59 0-.884.295-.884.885v35.979c0 .59.294.885.884.885h18.875c.589 0 .884-.295.884-.885v-6.488c0-.59.295-.885.885-.885s.885.295.885.885v8.258c0 .59-.295.885-.885.885h-28.311zm34.099 0c-.59 0-.885-.295-.885-.885s.295-.885.885-.885h4.129c.589 0 .884-.295.884-.885V24.238c0-.59-.295-.885-.884-.885h-4.129c-.59 0-.885-.295-.885-.885s.295-.885.885-.885h28.016c.59 0 .885.295.885.885v8.258c0 .59-.295.885-.885.885s-.884-.295-.884-.885v-6.488c0-.59-.295-.885-.885-.885h-18.58c-.589 0-.884.295-.884.885v15.925c0 .59.295.885.884.885h13.272c.589 0 .884-.295.884-.885v-2.949c0-.59.295-.885.885-.885s.885.295.885.885v9.437c0 .59-.295.885-.885.885s-.885-.295-.885-.885v-2.949c0-.59-.295-.885-.884-.885h-13.272c-.589 0-.884.295-.884.885v16.515c0 .59.295.885.884.885h19.17c.59 0 .884-.295.884-.885v-6.488c0-.59.295-.885.885-.885s.885.295.885.885v8.258c0 .59-.295.885-.885.885h-28.606zm55.989-20.644c3.225 0 5.702-.826 7.432-2.477s2.595-3.972 2.595-6.96-.865-5.308-2.595-6.96-4.207-2.477-7.432-2.477H571c-.59 0-.885.295-.885.885v17.105c0 .59.295.885.885.885h12.091zm-12.976 17.99c0 .59.295.885.885.885h3.539c.59 0 .885.295.885.885s-.295.885-.885.885h-11.207c-.59 0-.885-.295-.885-.885s.295-.885.885-.885h4.129c.59 0 .885-.295.885-.885V24.238c0-.59-.295-.885-.885-.885h-4.129c-.59 0-.885-.295-.885-.885s.295-.885.885-.885h19.759c3.815 0 6.724.983 8.73 2.949 2.044 1.966 3.067 4.719 3.067 8.258s-1.023 6.291-3.067 8.258c-2.006 1.966-4.915 2.949-8.73 2.949h-.295c-.314 0-.55.098-.707.295-.118.157-.079.354.118.59l11.206 15.335c.511.59 1.003.885 1.475.885h3.834c.589 0 .884.295.884.885s-.295.885-.884.885h-11.797c-.59 0-.885-.295-.885-.885s.295-.885.885-.885h3.834c.708 0 .806-.295.295-.885l-11.797-16.22H571c-.59 0-.885.295-.885.885v15.335z"/><use xlink:href="#D"/><path d="M641.793 31.021v-8.552c0-.59.295-.885.884-.885h31.851c.59 0 .885.295.885.885v8.552c0 .59-.295.885-.885.885s-.885-.295-.885-.885v-6.783c0-.59-.295-.885-.885-.885h-12.386c-.59 0-.885.295-.885.885v35.979c0 .59.295.885.885.885h4.129c.59 0 .884.295.884.885s-.294.885-.884.885h-11.797c-.589 0-.884-.295-.884-.885s.295-.885.884-.885h4.129c.59 0 .885-.295.885-.885V24.238c0-.59-.295-.885-.885-.885h-12.386c-.59 0-.885.295-.885.885v6.783c0 .59-.295.885-.885.885s-.884-.295-.884-.885zm38.525 31.85c-.59 0-.885-.295-.885-.885s.295-.885.885-.885h4.129c.589 0 .884-.295.884-.885V24.238c0-.59-.295-.885-.884-.885h-4.129c-.59 0-.885-.295-.885-.885s.295-.885.885-.885h11.796c.59 0 .885.295.885.885s-.295.885-.885.885h-4.129c-.589 0-.884.295-.884.885v35.979c0 .59.295.885.884.885h4.129c.59 0 .885.295.885.885s-.295.885-.885.885h-11.796zm23.624-5.367c-3.618-4.011-5.427-9.103-5.427-15.276s1.809-11.246 5.427-15.218c3.617-4.011 8.395-6.016 14.332-6.016s10.715 2.005 14.333 6.016c3.618 3.972 5.426 9.044 5.426 15.218s-1.808 11.266-5.426 15.276c-3.618 3.971-8.395 5.957-14.333 5.957s-10.715-1.986-14.332-5.957zm1.297-29.255c-3.303 3.657-4.954 8.317-4.954 13.979s1.651 10.322 4.954 13.979 7.648 5.485 13.035 5.485 9.732-1.828 13.035-5.485 4.955-8.317 4.955-13.979-1.652-10.322-4.955-13.979-7.648-5.485-13.035-5.485-9.732 1.828-13.035 5.485zm39.188 32.853h4.128c.59 0 .885-.295.885-.885V24.238c0-.59-.295-.885-.885-.885h-4.128c-.59 0-.885-.295-.885-.885s.295-.885.885-.885h6.488c.629 0 1.12.295 1.474.885l24.183 36.864c.079.157.197.236.354.236.157-.039.236-.216.236-.531v-34.8c0-.59-.295-.885-.885-.885h-3.539c-.59 0-.885-.295-.885-.885s.295-.885.885-.885h11.207c.59 0 .885.295.885.885s-.295.885-.885.885h-4.129c-.59 0-.885.295-.885.885v35.979c0 .59.295.885.885.885h4.129c.59 0 .885.295.885.885s-.295.885-.885.885h-6.488c-.629 0-1.121-.295-1.475-.885l-24.183-36.864c-.078-.157-.196-.216-.354-.177-.157 0-.235.157-.235.472v34.8c0 .59.294.885.884.885h3.539c.59 0 .885.295.885.885s-.295.885-.885.885h-11.206c-.59 0-.885-.295-.885-.885s.295-.885.885-.885zm70.509-14.746c-.59 0-.885.295-.885.885v12.976c0 .59.295.885.885.885h4.718c.59 0 .885.295.885.885s-.295.885-.885.885h-12.386c-.59 0-.885-.295-.885-.885s.295-.885.885-.885h4.129c.59 0 .885-.295.885-.885V24.238c0-.59-.295-.885-.885-.885h-4.129c-.59 0-.885-.295-.885-.885s.295-.885.885-.885h19.759c3.893 0 6.823 1.062 8.789 3.185 2.005 2.084 3.008 5.151 3.008 9.201s-1.003 7.137-3.008 9.26c-1.966 2.084-4.896 3.126-8.789 3.126h-12.091zm12.091-1.769c6.685 0 10.027-3.539 10.027-10.617s-3.342-10.617-10.027-10.617h-12.091c-.59 0-.885.295-.885.885v19.464c0 .59.295.885.885.885h12.091zm37.037-2.36c3.224 0 5.702-.826 7.432-2.477s2.595-3.972 2.595-6.96-.865-5.308-2.595-6.96-4.208-2.477-7.432-2.477h-12.091c-.59 0-.885.295-.885.885v17.105c0 .59.295.885.885.885h12.091zm-12.976 17.99c0 .59.295.885.885.885h3.539c.59 0 .884.295.884.885s-.294.885-.884.885h-11.207c-.59 0-.885-.295-.885-.885s.295-.885.885-.885h4.129c.59 0 .884-.295.884-.885V24.238c0-.59-.294-.885-.884-.885h-4.129c-.59 0-.885-.295-.885-.885s.295-.885.885-.885h19.759c3.814 0 6.724.983 8.73 2.949 2.044 1.966 3.067 4.719 3.067 8.258s-1.023 6.291-3.067 8.258c-2.006 1.966-4.916 2.949-8.73 2.949h-.295c-.314 0-.55.098-.708.295-.118.157-.078.354.118.59l11.207 15.335c.511.59 1.003.885 1.475.885h3.833c.59 0 .885.295.885.885s-.295.885-.885.885h-11.796c-.59 0-.885-.295-.885-.885s.295-.885.885-.885h3.834c.708 0 .806-.295.295-.885l-11.797-16.22h-8.257c-.59 0-.885.295-.885.885v15.335zm38.441-2.713c-3.618-4.011-5.427-9.103-5.427-15.276s1.809-11.246 5.427-15.218c3.617-4.011 8.395-6.016 14.333-6.016s10.715 2.005 14.332 6.016c3.618 3.972 5.427 9.044 5.427 15.218s-1.809 11.266-5.427 15.276c-3.617 3.971-8.395 5.957-14.332 5.957s-10.716-1.986-14.333-5.957zm1.297-29.255c-3.303 3.657-4.954 8.317-4.954 13.979s1.651 10.322 4.954 13.979 7.648 5.485 13.036 5.485 9.732-1.828 13.035-5.485 4.954-8.317 4.954-13.979-1.651-10.322-4.954-13.979-7.648-5.485-13.035-5.485-9.733 1.828-13.036 5.485zm41.414 14.037c0 5.584 1.612 10.224 4.836 13.92 3.264 3.657 7.373 5.485 12.328 5.485s9.457-2.261 13.507-6.783V43.702c0-.59-.295-.885-.885-.885h-3.539c-.59 0-.885-.295-.885-.885s.295-.885.885-.885h11.207c.59 0 .884.295.884.885s-.294.885-.884.885h-4.129c-.59 0-.885.295-.885.885v18.285c0 .59-.295.885-.884.885s-.885-.295-.885-.885v-2.949c0-.944-.315-1.14-.944-.59-3.893 3.342-8.002 5.014-12.327 5.014-5.702 0-10.322-2.005-13.861-6.016s-5.309-9.064-5.309-15.158c0-6.134 1.731-11.207 5.191-15.218 3.5-4.05 7.963-6.075 13.389-6.075 4.718 0 9.024 1.671 12.917 5.014.629.55.944.354.944-.59V22.47c0-.59.295-.885.885-.885s.884.295.884.885v11.207c0 .59-.295.885-.884.885s-.885-.295-.885-.885v-4.129c-1.062-1.219-2.301-2.34-3.716-3.362-3.224-2.281-6.606-3.421-10.145-3.421-4.837 0-8.847 1.848-12.032 5.544s-4.778 8.356-4.778 13.979zm63.21-.059c3.224 0 5.7-.826 7.43-2.477s2.6-3.972 2.6-6.96-.87-5.308-2.6-6.96-4.206-2.477-7.43-2.477h-12.092c-.59 0-.884.295-.884.885v17.105c0 .59.294.885.884.885h12.092zm-12.976 17.99c0 .59.294.885.884.885h3.539c.59 0 .885.295.885.885s-.295.885-.885.885h-11.206c-.59 0-.885-.295-.885-.885s.295-.885.885-.885h4.128c.59 0 .885-.295.885-.885V24.238c0-.59-.295-.885-.885-.885h-4.128c-.59 0-.885-.295-.885-.885s.295-.885.885-.885h19.759c3.814 0 6.72.983 8.73 2.949 2.04 1.966 3.07 4.719 3.07 8.258s-1.03 6.291-3.07 8.258c-2.01 1.966-4.916 2.949-8.73 2.949h-.295c-.315 0-.551.098-.708.295-.118.157-.079.354.118.59l11.205 15.335c.51.59 1 .885 1.48.885h3.83c.59 0 .88.295.88.885s-.29.885-.88.885h-11.796c-.59 0-.885-.295-.885-.885s.295-.885.885-.885h3.836c.71 0 .8-.295.29-.885l-11.794-16.22h-8.258c-.59 0-.884.295-.884.885v15.335z"/><use xlink:href="#E"/><path d="M1058.98 61.102h4.13c.59 0 .88-.295.88-.885V24.238c0-.59-.29-.885-.88-.885h-4.13c-.59 0-.88-.295-.88-.885s.29-.885.88-.885h6.49c.71 0 1.2.295 1.47.885l16.52 36.569c.39.786.78.786 1.18 0l16.51-36.569c.28-.59.77-.885 1.48-.885h6.49c.59 0 .88.295.88.885s-.29.885-.88.885h-4.13c-.59 0-.89.295-.89.885v35.979c0 .59.3.885.89.885h4.13c.59 0 .88.295.88.885s-.29.885-.88.885h-11.21c-.59 0-.89-.295-.89-.885s.3-.885.89-.885h3.54c.59 0 .88-.295.88-.885V25.712c0-.393-.08-.55-.23-.472-.08 0-.16.059-.24.177l-16.51 36.569c-.32.59-.75.885-1.3.885s-.99-.295-1.3-.885l-16.52-36.569c-.15-.236-.27-.295-.35-.177s-.12.275-.12.472v34.505c0 .59.3.885.89.885h3.54c.59 0 .88.295.88.885s-.29.885-.88.885h-11.21c-.59 0-.88-.295-.88-.885s.29-.885.88-.885z"/></g><g opacity=".06" fill="#0be17b"><path d="M5.426 78.498C1.809 74.487 0 69.395 0 63.221s1.809-11.246 5.426-15.218c3.618-4.011 8.395-6.016 14.333-6.016s10.715 2.005 14.333 6.016c3.618 3.971 5.426 9.044 5.426 15.218s-1.809 11.266-5.426 15.276c-3.618 3.972-8.395 5.957-14.333 5.957S9.044 82.469 5.426 78.498zm1.298-29.255C3.421 52.9 1.769 57.56 1.769 63.222S3.421 73.543 6.724 77.2s7.648 5.485 13.035 5.485 9.732-1.829 13.035-5.485 4.955-8.317 4.955-13.979-1.651-10.322-4.955-13.979-7.648-5.485-13.035-5.485-9.732 1.828-13.035 5.485zm39.187 32.853h4.129c.59 0 .885-.295.885-.885V45.232c0-.59-.295-.885-.885-.885h-4.129c-.59 0-.885-.295-.885-.885s.295-.885.885-.885h6.488c.629 0 1.121.295 1.475.885l24.183 36.864c.079.157.197.236.354.236.157-.039.236-.216.236-.531v-34.8c0-.59-.295-.885-.885-.885h-3.539c-.59 0-.885-.295-.885-.885s.295-.885.885-.885H85.43c.59 0 .885.295.885.885s-.295.885-.885.885h-4.129c-.59 0-.885.295-.885.885V81.21c0 .59.295.885.885.885h4.129c.59 0 .885.295.885.885s-.295.885-.885.885h-6.488c-.629 0-1.121-.295-1.475-.885L53.284 46.116c-.079-.157-.197-.216-.354-.177-.157 0-.236.157-.236.472v34.8c0 .59.295.885.885.885h3.539c.59 0 .885.295.885.885s-.295.885-.885.885H45.911c-.59 0-.885-.295-.885-.885s.295-.885.885-.885zm46.311 1.769c-.59 0-.885-.295-.885-.885s.295-.885.885-.885h4.129c.59 0 .885-.295.885-.885V45.232c0-.59-.295-.885-.885-.885h-4.129c-.59 0-.885-.295-.885-.885s.295-.885.885-.885h28.016c.59 0 .885.295.885.885v8.258c0 .59-.295.885-.885.885s-.884-.295-.884-.885v-6.488c0-.59-.295-.885-.885-.885H99.89c-.59 0-.885.295-.885.885v15.925c0 .59.295.885.885.885h13.272c.589 0 .884-.295.884-.885v-2.949c0-.59.295-.885.885-.885s.885.295.885.885v9.437c0 .59-.295.885-.885.885s-.885-.295-.885-.885v-2.949c0-.59-.295-.885-.884-.885H99.89c-.59 0-.885.295-.885.885v16.515c0 .59.295.885.885.885h19.17c.59 0 .884-.295.884-.885v-6.488c0-.59.295-.885.885-.885s.885.295.885.885v8.258c0 .59-.295.885-.885.885H92.222z"/><use xlink:href="#B" y="41.988"/><path d="M166.035 79.441c3.303 2.163 6.92 3.244 10.852 3.244 3.972 0 7.039-.865 9.202-2.595 2.202-1.769 3.303-4.05 3.303-6.842 0-1.534-.472-2.871-1.416-4.011s-2.123-2.025-3.539-2.654c-1.573-.708-4.62-1.671-9.142-2.89-4.522-1.258-7.648-2.3-9.378-3.126-1.691-.865-3.028-1.947-4.011-3.244-.944-1.298-1.416-2.792-1.416-4.483 0-3.303 1.082-5.938 3.244-7.904s5.604-2.949 10.322-2.949c4.679 0 8.985 1.671 12.917 5.014.629.511.944.315.944-.59v-2.949c0-.59.295-.885.885-.885s.884.295.884.885v11.207c0 .59-.294.885-.884.885s-.885-.295-.885-.885V50.54c-2.163-2.477-4.856-4.384-8.081-5.721-1.73-.708-3.656-1.062-5.78-1.062-4.011 0-6.979.826-8.906 2.477s-2.89 3.677-2.89 6.075c0 1.534.472 2.871 1.415 4.011s2.124 2.025 3.539 2.654c1.573.708 4.62 1.691 9.142 2.949 4.522 1.219 7.629 2.261 9.32 3.126 1.73.826 3.067 1.888 4.01 3.185.984 1.298 1.475 2.851 1.475 4.66 0 3.539-1.239 6.35-3.716 8.435s-6.154 3.126-11.03 3.126-9.279-1.671-13.212-5.013c-.629-.511-.943-.314-.943.59v2.949c0 .59-.295.885-.885.885s-.885-.295-.885-.885V71.774c0-.59.295-.885.885-.885s.885.295.885.885v4.424c1.061 1.219 2.32 2.3 3.775 3.244zm29.876-27.426v-8.552c0-.59.295-.885.885-.885h31.85c.59 0 .885.295.885.885v8.552c0 .59-.295.885-.885.885s-.885-.295-.885-.885v-6.783c0-.59-.294-.885-.884-.885H214.49c-.589 0-.884.295-.884.885v35.979c0 .59.295.885.884.885h4.129c.59 0 .885.295.885.885s-.295.885-.885.885h-11.796c-.59 0-.885-.295-.885-.885s.295-.885.885-.885h4.128c.59 0 .885-.295.885-.885V45.232c0-.59-.295-.885-.885-.885h-12.386c-.59 0-.885.295-.885.885v6.783c0 .59-.294.885-.884.885s-.885-.295-.885-.885zm43.371 26.483c-3.617-4.011-5.426-9.103-5.426-15.276s1.809-11.246 5.426-15.218c3.618-4.011 8.396-6.016 14.333-6.016s10.715 2.005 14.333 6.016c3.617 3.971 5.426 9.044 5.426 15.218s-1.809 11.266-5.426 15.276c-3.618 3.972-8.395 5.957-14.333 5.957s-10.715-1.986-14.333-5.957zm1.298-29.255c-3.303 3.657-4.955 8.317-4.955 13.979s1.652 10.322 4.955 13.979 7.648 5.485 13.035 5.485 9.732-1.829 13.035-5.485 4.955-8.317 4.955-13.979-1.652-10.322-4.955-13.979-7.648-5.485-13.035-5.485-9.732 1.828-13.035 5.485zm46.855 18.107c-.59 0-.885.295-.885.885v12.976c0 .59.295.885.885.885h4.719c.589 0 .884.295.884.885s-.295.885-.884.885h-12.387c-.589 0-.884-.295-.884-.885s.295-.885.884-.885h4.129c.59 0 .885-.295.885-.885V45.232c0-.59-.295-.885-.885-.885h-4.129c-.589 0-.884-.295-.884-.885s.295-.885.884-.885h19.759c3.893 0 6.823 1.062 8.789 3.185 2.005 2.084 3.008 5.151 3.008 9.201s-1.003 7.137-3.008 9.26c-1.966 2.084-4.896 3.126-8.789 3.126h-12.091zm12.091-1.769c6.685 0 10.027-3.539 10.027-10.617s-3.342-10.617-10.027-10.617h-12.091c-.59 0-.885.295-.885.885v19.464c0 .59.295.885.885.885h12.091z"/><use xlink:href="#C" y="20.994"/><path d="M374.573 63.221c0-6.134 1.73-11.207 5.19-15.218s7.924-6.016 13.389-6.016c4.758 0 9.064 1.671 12.917 5.014.63.511.944.315.944-.59v-2.949c0-.59.295-.885.885-.885s.885.295.885.885v11.207c0 .59-.295.885-.885.885s-.885-.295-.885-.885V50.54c-1.062-1.219-2.3-2.34-3.716-3.362-3.224-2.281-6.606-3.421-10.145-3.421-4.836 0-8.847 1.868-12.032 5.603-3.185 3.696-4.778 8.356-4.778 13.979 0 5.584 1.652 10.204 4.955 13.861s7.707 5.485 13.212 5.485 9.948-1.789 13.33-5.367c.393-.393.747-.433 1.062-.118s.471.57.471.767-.098.393-.294.59c-4.011 3.932-8.966 5.898-14.864 5.898-5.859 0-10.597-2.005-14.215-6.016s-5.426-9.083-5.426-15.217zm41.011 0c0-6.134 1.73-11.207 5.19-15.218s7.924-6.016 13.389-6.016c4.758 0 9.064 1.671 12.918 5.014.629.511.943.315.943-.59v-2.949c0-.59.295-.885.885-.885s.885.295.885.885v11.207c0 .59-.295.885-.885.885s-.885-.295-.885-.885V50.54a21.86 21.86 0 0 0-3.716-3.362c-3.224-2.281-6.606-3.421-10.145-3.421-4.836 0-8.847 1.868-12.032 5.603-3.185 3.696-4.778 8.356-4.778 13.979 0 5.584 1.652 10.204 4.955 13.861s7.707 5.485 13.212 5.485 9.948-1.789 13.33-5.367c.393-.393.747-.433 1.062-.118s.472.57.472.767-.099.393-.295.59c-4.011 3.932-8.966 5.898-14.864 5.898-5.859 0-10.597-2.005-14.215-6.016s-5.426-9.083-5.426-15.217zm41.188 20.644c-.59 0-.885-.295-.885-.885s.295-.885.885-.885h4.129c.59 0 .885-.295.885-.885V45.232c0-.59-.295-.885-.885-.885h-4.129c-.59 0-.885-.295-.885-.885s.295-.885.885-.885h28.017c.59 0 .885.295.885.885v8.258c0 .59-.295.885-.885.885s-.885-.295-.885-.885v-6.488c0-.59-.295-.885-.885-.885H464.44c-.59 0-.885.295-.885.885v15.925c0 .59.295.885.885.885h13.271c.59 0 .885-.295.885-.885v-2.949c0-.59.295-.885.884-.885s.885.295.885.885v9.437c0 .59-.295.885-.885.885s-.884-.295-.884-.885v-2.949c0-.59-.295-.885-.885-.885H464.44c-.59 0-.885.295-.885.885v16.515c0 .59.295.885.885.885h19.169c.59 0 .885-.295.885-.885v-6.488c0-.59.295-.885.885-.885s.884.295.884.885v8.258c0 .59-.295.885-.884.885h-28.607zm36.231 0c-.59 0-.885-.295-.885-.885s.295-.885.885-.885h4.128c.59 0 .885-.295.885-.885V45.232c0-.59-.295-.885-.885-.885h-4.128c-.59 0-.885-.295-.885-.885s.295-.885.885-.885h12.976c.59 0 .884.295.884.885s-.294.885-.884.885h-5.309c-.59 0-.884.295-.884.885v35.979c0 .59.294.885.884.885h18.875c.589 0 .884-.295.884-.885v-6.488c0-.59.295-.885.885-.885s.885.295.885.885v8.258c0 .59-.295.885-.885.885h-28.311zm34.099 0c-.59 0-.885-.295-.885-.885s.295-.885.885-.885h4.129c.589 0 .884-.295.884-.885V45.232c0-.59-.295-.885-.884-.885h-4.129c-.59 0-.885-.295-.885-.885s.295-.885.885-.885h28.016c.59 0 .885.295.885.885v8.258c0 .59-.295.885-.885.885s-.884-.295-.884-.885v-6.488c0-.59-.295-.885-.885-.885h-18.58c-.589 0-.884.295-.884.885v15.925c0 .59.295.885.884.885h13.272c.589 0 .884-.295.884-.885v-2.949c0-.59.295-.885.885-.885s.885.295.885.885v9.437c0 .59-.295.885-.885.885s-.885-.295-.885-.885v-2.949c0-.59-.295-.885-.884-.885h-13.272c-.589 0-.884.295-.884.885v16.515c0 .59.295.885.884.885h19.17c.59 0 .884-.295.884-.885v-6.488c0-.59.295-.885.885-.885s.885.295.885.885v8.258c0 .59-.295.885-.885.885h-28.606zm55.989-20.644c3.225 0 5.702-.826 7.432-2.477s2.595-3.971 2.595-6.96-.865-5.308-2.595-6.96-4.207-2.477-7.432-2.477H571c-.59 0-.885.295-.885.885v17.105c0 .59.295.885.885.885h12.091zm-12.976 17.99c0 .59.295.885.885.885h3.539c.59 0 .885.295.885.885s-.295.885-.885.885h-11.207c-.59 0-.885-.295-.885-.885s.295-.885.885-.885h4.129c.59 0 .885-.295.885-.885V45.232c0-.59-.295-.885-.885-.885h-4.129c-.59 0-.885-.295-.885-.885s.295-.885.885-.885h19.759c3.815 0 6.724.983 8.73 2.949 2.044 1.966 3.067 4.718 3.067 8.258s-1.023 6.291-3.067 8.258c-2.006 1.966-4.915 2.949-8.73 2.949h-.295c-.314 0-.55.098-.707.295-.118.157-.079.354.118.59l11.206 15.335c.511.59 1.003.885 1.475.885h3.834c.589 0 .884.295.884.885s-.295.885-.884.885h-11.797c-.59 0-.885-.295-.885-.885s.295-.885.885-.885h3.834c.708 0 .806-.295.295-.885l-11.797-16.22H571c-.59 0-.885.295-.885.885v15.335z"/><use xlink:href="#D" y="20.994"/><path d="M641.793 52.015v-8.552c0-.59.295-.885.884-.885h31.851c.59 0 .885.295.885.885v8.552c0 .59-.295.885-.885.885s-.885-.295-.885-.885v-6.783c0-.59-.295-.885-.885-.885h-12.386c-.59 0-.885.295-.885.885v35.979c0 .59.295.885.885.885h4.129c.59 0 .884.295.884.885s-.294.885-.884.885h-11.797c-.589 0-.884-.295-.884-.885s.295-.885.884-.885h4.129c.59 0 .885-.295.885-.885V45.232c0-.59-.295-.885-.885-.885h-12.386c-.59 0-.885.295-.885.885v6.783c0 .59-.295.885-.885.885s-.884-.295-.884-.885zm38.525 31.85c-.59 0-.885-.295-.885-.885s.295-.885.885-.885h4.129c.589 0 .884-.295.884-.885V45.232c0-.59-.295-.885-.884-.885h-4.129c-.59 0-.885-.295-.885-.885s.295-.885.885-.885h11.796c.59 0 .885.295.885.885s-.295.885-.885.885h-4.129c-.589 0-.884.295-.884.885v35.979c0 .59.295.885.884.885h4.129c.59 0 .885.295.885.885s-.295.885-.885.885h-11.796zm23.624-5.367c-3.618-4.011-5.427-9.103-5.427-15.276s1.809-11.246 5.427-15.218c3.617-4.011 8.395-6.016 14.332-6.016s10.715 2.005 14.333 6.016c3.618 3.971 5.426 9.044 5.426 15.218s-1.808 11.266-5.426 15.276c-3.618 3.972-8.395 5.957-14.333 5.957s-10.715-1.986-14.332-5.957zm1.297-29.255c-3.303 3.657-4.954 8.317-4.954 13.979s1.651 10.322 4.954 13.979 7.648 5.485 13.035 5.485 9.732-1.829 13.035-5.485 4.955-8.317 4.955-13.979-1.652-10.322-4.955-13.979-7.648-5.485-13.035-5.485-9.732 1.828-13.035 5.485zm39.188 32.853h4.128c.59 0 .885-.295.885-.885V45.232c0-.59-.295-.885-.885-.885h-4.128c-.59 0-.885-.295-.885-.885s.295-.885.885-.885h6.488c.629 0 1.12.295 1.474.885l24.183 36.864c.079.157.197.236.354.236.157-.039.236-.216.236-.531v-34.8c0-.59-.295-.885-.885-.885h-3.539c-.59 0-.885-.295-.885-.885s.295-.885.885-.885h11.207c.59 0 .885.295.885.885s-.295.885-.885.885h-4.129c-.59 0-.885.295-.885.885V81.21c0 .59.295.885.885.885h4.129c.59 0 .885.295.885.885s-.295.885-.885.885h-6.488c-.629 0-1.121-.295-1.475-.885l-24.183-36.864c-.078-.157-.196-.216-.354-.177-.157 0-.235.157-.235.472v34.8c0 .59.294.885.884.885h3.539c.59 0 .885.295.885.885s-.295.885-.885.885h-11.206c-.59 0-.885-.295-.885-.885s.295-.885.885-.885zm70.509-14.746c-.59 0-.885.295-.885.885v12.976c0 .59.295.885.885.885h4.718c.59 0 .885.295.885.885s-.295.885-.885.885h-12.386c-.59 0-.885-.295-.885-.885s.295-.885.885-.885h4.129c.59 0 .885-.295.885-.885V45.232c0-.59-.295-.885-.885-.885h-4.129c-.59 0-.885-.295-.885-.885s.295-.885.885-.885h19.759c3.893 0 6.823 1.062 8.789 3.185 2.005 2.084 3.008 5.151 3.008 9.201s-1.003 7.137-3.008 9.26c-1.966 2.084-4.896 3.126-8.789 3.126h-12.091zm12.091-1.769c6.685 0 10.027-3.539 10.027-10.617s-3.342-10.617-10.027-10.617h-12.091c-.59 0-.885.295-.885.885v19.464c0 .59.295.885.885.885h12.091zm37.037-2.36c3.224 0 5.702-.826 7.432-2.477s2.595-3.971 2.595-6.96-.865-5.308-2.595-6.96-4.208-2.477-7.432-2.477h-12.091c-.59 0-.885.295-.885.885v17.105c0 .59.295.885.885.885h12.091zm-12.976 17.99c0 .59.295.885.885.885h3.539c.59 0 .884.295.884.885s-.294.885-.884.885h-11.207c-.59 0-.885-.295-.885-.885s.295-.885.885-.885h4.129c.59 0 .884-.295.884-.885V45.232c0-.59-.294-.885-.884-.885h-4.129c-.59 0-.885-.295-.885-.885s.295-.885.885-.885h19.759c3.814 0 6.724.983 8.73 2.949 2.044 1.966 3.067 4.718 3.067 8.258s-1.023 6.291-3.067 8.258c-2.006 1.966-4.916 2.949-8.73 2.949h-.295c-.314 0-.55.098-.708.295-.118.157-.078.354.118.59l11.207 15.335c.511.59 1.003.885 1.475.885h3.833c.59 0 .885.295.885.885s-.295.885-.885.885h-11.796c-.59 0-.885-.295-.885-.885s.295-.885.885-.885h3.834c.708 0 .806-.295.295-.885l-11.797-16.22h-8.257c-.59 0-.885.295-.885.885v15.335zm38.441-2.713c-3.618-4.011-5.427-9.103-5.427-15.276s1.809-11.246 5.427-15.218c3.617-4.011 8.395-6.016 14.333-6.016s10.715 2.005 14.332 6.016c3.618 3.971 5.427 9.044 5.427 15.218s-1.809 11.266-5.427 15.276c-3.617 3.972-8.395 5.957-14.332 5.957s-10.716-1.986-14.333-5.957zm1.297-29.255c-3.303 3.657-4.954 8.317-4.954 13.979s1.651 10.322 4.954 13.979 7.648 5.485 13.036 5.485 9.732-1.829 13.035-5.485 4.954-8.317 4.954-13.979-1.651-10.322-4.954-13.979-7.648-5.485-13.035-5.485-9.733 1.828-13.036 5.485zM932.24 63.28c0 5.584 1.612 10.224 4.836 13.92 3.264 3.657 7.373 5.485 12.328 5.485s9.457-2.261 13.507-6.783V64.696c0-.59-.295-.885-.885-.885h-3.539c-.59 0-.885-.295-.885-.885s.295-.885.885-.885h11.207c.59 0 .884.295.884.885s-.294.885-.884.885h-4.129c-.59 0-.885.295-.885.885V82.98c0 .59-.295.885-.884.885s-.885-.295-.885-.885v-2.949c0-.944-.315-1.14-.944-.59-3.893 3.342-8.002 5.013-12.327 5.013-5.702 0-10.322-2.005-13.861-6.016s-5.309-9.064-5.309-15.158c0-6.134 1.731-11.207 5.191-15.217 3.5-4.05 7.963-6.075 13.389-6.075 4.718 0 9.024 1.671 12.917 5.014.629.55.944.354.944-.59v-2.949c0-.59.295-.885.885-.885s.884.295.884.885V54.67c0 .59-.295.885-.884.885s-.885-.295-.885-.885v-4.13c-1.062-1.219-2.301-2.34-3.716-3.362-3.224-2.281-6.606-3.421-10.145-3.421-4.837 0-8.847 1.848-12.032 5.544s-4.778 8.356-4.778 13.979zm63.21-.059c3.224 0 5.7-.826 7.43-2.477s2.6-3.971 2.6-6.96-.87-5.308-2.6-6.96-4.206-2.477-7.43-2.477h-12.092c-.59 0-.884.295-.884.885v17.105c0 .59.294.885.884.885h12.092zm-12.976 17.99c0 .59.294.885.884.885h3.539c.59 0 .885.295.885.885s-.295.885-.885.885h-11.206c-.59 0-.885-.295-.885-.885s.295-.885.885-.885h4.128c.59 0 .885-.295.885-.885V45.232c0-.59-.295-.885-.885-.885h-4.128c-.59 0-.885-.295-.885-.885s.295-.885.885-.885h19.759c3.814 0 6.72.983 8.73 2.949 2.04 1.966 3.07 4.718 3.07 8.258s-1.03 6.291-3.07 8.258c-2.01 1.966-4.916 2.949-8.73 2.949h-.295c-.315 0-.551.098-.708.295-.118.157-.079.354.118.59l11.205 15.335c.51.59 1 .885 1.48.885h3.83c.59 0 .88.295.88.885s-.29.885-.88.885h-11.796c-.59 0-.885-.295-.885-.885s.295-.885.885-.885h3.836c.71 0 .8-.295.29-.885l-11.794-16.22h-8.258c-.59 0-.884.295-.884.885v15.335z"/><use xlink:href="#E" y="20.994"/><path d="M1058.98 82.096h4.13c.59 0 .88-.295.88-.885V45.232c0-.59-.29-.885-.88-.885h-4.13c-.59 0-.88-.295-.88-.885s.29-.885.88-.885h6.49c.71 0 1.2.295 1.47.885l16.52 36.569c.39.786.78.786 1.18 0l16.51-36.569c.28-.59.77-.885 1.48-.885h6.49c.59 0 .88.295.88.885s-.29.885-.88.885h-4.13c-.59 0-.89.295-.89.885v35.979c0 .59.3.885.89.885h4.13c.59 0 .88.295.88.885s-.29.885-.88.885h-11.21c-.59 0-.89-.295-.89-.885s.3-.885.89-.885h3.54c.59 0 .88-.295.88-.885V46.706c0-.393-.08-.55-.23-.472-.08 0-.16.059-.24.177l-16.51 36.569c-.32.59-.75.885-1.3.885s-.99-.295-1.3-.885l-16.52-36.569c-.15-.236-.27-.295-.35-.177s-.12.275-.12.472v34.505c0 .59.3.885.89.885h3.54c.59 0 .88.295.88.885s-.29.885-.88.885h-11.21c-.59 0-.88-.295-.88-.885s.29-.885.88-.885z"/></g><g opacity=".04" fill="#0be17b"><path d="M5.426 99.491C1.809 95.481 0 90.388 0 84.215s1.809-11.246 5.426-15.218c3.618-4.011 8.395-6.016 14.333-6.016s10.715 2.005 14.333 6.016c3.618 3.972 5.426 9.044 5.426 15.218s-1.809 11.266-5.426 15.276c-3.618 3.972-8.395 5.958-14.333 5.958s-10.715-1.986-14.333-5.958zm1.298-29.255c-3.303 3.657-4.955 8.317-4.955 13.979s1.652 10.322 4.955 13.979 7.648 5.485 13.035 5.485 9.732-1.828 13.035-5.485 4.955-8.317 4.955-13.979-1.651-10.322-4.955-13.979-7.648-5.485-13.035-5.485-9.732 1.828-13.035 5.485zm39.187 32.853h4.129c.59 0 .885-.295.885-.884v-35.98c0-.59-.295-.885-.885-.885h-4.129c-.59 0-.885-.295-.885-.885s.295-.885.885-.885h6.488c.629 0 1.121.295 1.475.885l24.183 36.864c.079.157.197.236.354.236.157-.04.236-.217.236-.531v-34.8c0-.59-.295-.885-.885-.885h-3.539c-.59 0-.885-.295-.885-.885s.295-.885.885-.885H85.43c.59 0 .885.295.885.885s-.295.885-.885.885h-4.129c-.59 0-.885.295-.885.885v35.98c0 .589.295.884.885.884h4.129c.59 0 .885.295.885.885s-.295.885-.885.885h-6.488c-.629 0-1.121-.295-1.475-.885L53.284 67.11c-.079-.157-.197-.216-.354-.177-.157 0-.236.157-.236.472v34.8c0 .589.295.884.885.884h3.539c.59 0 .885.295.885.885s-.295.885-.885.885H45.911c-.59 0-.885-.295-.885-.885s.295-.885.885-.885zm46.311 1.77c-.59 0-.885-.295-.885-.885s.295-.885.885-.885h4.129c.59 0 .885-.295.885-.884v-35.98c0-.59-.295-.885-.885-.885h-4.129c-.59 0-.885-.295-.885-.885s.295-.885.885-.885h28.016c.59 0 .885.295.885.885v8.258c0 .59-.295.885-.885.885s-.884-.295-.884-.885v-6.488c0-.59-.295-.885-.885-.885H99.89c-.59 0-.885.295-.885.885V82.15c0 .59.295.885.885.885h13.272c.589 0 .884-.295.884-.885v-2.949c0-.59.295-.885.885-.885s.885.295.885.885v9.437c0 .59-.295.885-.885.885s-.885-.295-.885-.885v-2.949c0-.59-.295-.885-.884-.885H99.89c-.59 0-.885.295-.885.885v16.516c0 .589.295.884.885.884h19.17c.59 0 .884-.295.884-.884v-6.489c0-.59.295-.885.885-.885s.885.295.885.885v8.258c0 .59-.295.885-.885.885H92.222z"/><use xlink:href="#B" y="62.981"/><path d="M166.035 100.435c3.303 2.163 6.92 3.244 10.852 3.244 3.972 0 7.039-.865 9.202-2.595 2.202-1.77 3.303-4.05 3.303-6.842 0-1.534-.472-2.871-1.416-4.011s-2.123-2.025-3.539-2.654c-1.573-.708-4.62-1.671-9.142-2.89-4.522-1.258-7.648-2.3-9.378-3.126-1.691-.865-3.028-1.947-4.011-3.244-.944-1.298-1.416-2.792-1.416-4.483 0-3.303 1.082-5.938 3.244-7.904s5.604-2.949 10.322-2.949c4.679 0 8.985 1.671 12.917 5.013.629.511.944.315.944-.59v-2.949c0-.59.295-.885.885-.885s.884.295.884.885v11.207c0 .59-.294.885-.884.885s-.885-.295-.885-.885v-4.129c-2.163-2.477-4.856-4.384-8.081-5.721-1.73-.708-3.656-1.062-5.78-1.062-4.011 0-6.979.826-8.906 2.477s-2.89 3.677-2.89 6.075c0 1.534.472 2.87 1.415 4.011s2.124 2.025 3.539 2.654c1.573.708 4.62 1.691 9.142 2.949 4.522 1.219 7.629 2.261 9.32 3.126 1.73.826 3.067 1.888 4.01 3.185.984 1.298 1.475 2.851 1.475 4.66 0 3.539-1.239 6.35-3.716 8.434s-6.154 3.127-11.03 3.127-9.279-1.672-13.212-5.014c-.629-.511-.943-.315-.943.59v2.949c0 .59-.295.885-.885.885s-.885-.295-.885-.885V92.767c0-.59.295-.885.885-.885s.885.295.885.885v4.424c1.061 1.219 2.32 2.3 3.775 3.244zm29.876-27.427v-8.552c0-.59.295-.885.885-.885h31.85c.59 0 .885.295.885.885v8.552c0 .59-.295.885-.885.885s-.885-.295-.885-.885v-6.783c0-.59-.294-.885-.884-.885H214.49c-.589 0-.884.295-.884.885v35.98c0 .589.295.884.884.884h4.129c.59 0 .885.295.885.885s-.295.885-.885.885h-11.796c-.59 0-.885-.295-.885-.885s.295-.885.885-.885h4.128c.59 0 .885-.295.885-.884v-35.98c0-.59-.295-.885-.885-.885h-12.386c-.59 0-.885.295-.885.885v6.783c0 .59-.294.885-.884.885s-.885-.295-.885-.885zm43.371 26.483c-3.617-4.011-5.426-9.103-5.426-15.276s1.809-11.246 5.426-15.218c3.618-4.011 8.396-6.016 14.333-6.016s10.715 2.005 14.333 6.016c3.617 3.972 5.426 9.044 5.426 15.218s-1.809 11.266-5.426 15.276c-3.618 3.972-8.395 5.958-14.333 5.958s-10.715-1.986-14.333-5.958zm1.298-29.255c-3.303 3.657-4.955 8.317-4.955 13.979s1.652 10.322 4.955 13.979 7.648 5.485 13.035 5.485 9.732-1.828 13.035-5.485 4.955-8.317 4.955-13.979-1.652-10.322-4.955-13.979-7.648-5.485-13.035-5.485-9.732 1.828-13.035 5.485zm46.855 18.108c-.59 0-.885.295-.885.885v12.977c0 .589.295.884.885.884h4.719c.589 0 .884.295.884.885s-.295.885-.884.885h-12.387c-.589 0-.884-.295-.884-.885s.295-.885.884-.885h4.129c.59 0 .885-.295.885-.884v-35.98c0-.59-.295-.885-.885-.885h-4.129c-.589 0-.884-.295-.884-.885s.295-.885.884-.885h19.759c3.893 0 6.823 1.062 8.789 3.185 2.005 2.084 3.008 5.151 3.008 9.201s-1.003 7.137-3.008 9.26c-1.966 2.084-4.896 3.126-8.789 3.126h-12.091zm12.091-1.769c6.685 0 10.027-3.539 10.027-10.617s-3.342-10.617-10.027-10.617h-12.091c-.59 0-.885.295-.885.885V85.69c0 .59.295.885.885.885h12.091zm52.205-19.76c-.079-.236-.197-.354-.354-.354s-.275.118-.354.354l-8.08 20.998c-.315.59-.099.885.648.885h15.572c.708 0 .924-.295.649-.885l-8.081-20.998zm9.437 24.478c-.236-.55-.708-.826-1.415-.826h-16.751c-.708 0-1.18.275-1.416.826l-4.188 10.912c-.314.589-.118.884.59.884h3.539c.59 0 .885.295.885.885s-.295.885-.885.885H330.32c-.589 0-.884-.295-.884-.885s.295-.885.884-.885h3.834c.472 0 .865-.295 1.18-.884l14.745-38.339c.158-.59.59-.885 1.298-.885s1.14.295 1.298.885l14.745 38.339c.276.589.669.884 1.18.884h3.834c.59 0 .885.295.885.885s-.295.885-.885.885h-11.207c-.59 0-.885-.295-.885-.885s.295-.885.885-.885h3.539c.669 0 .865-.295.59-.884l-4.188-10.912zm13.405-7.078c0-6.134 1.73-11.207 5.19-15.218s7.924-6.016 13.389-6.016c4.758 0 9.064 1.671 12.917 5.013.63.511.944.315.944-.59v-2.949c0-.59.295-.885.885-.885s.885.295.885.885v11.207c0 .59-.295.885-.885.885s-.885-.295-.885-.885v-4.129c-1.062-1.219-2.3-2.34-3.716-3.362-3.224-2.281-6.606-3.421-10.145-3.421-4.836 0-8.847 1.868-12.032 5.603-3.185 3.696-4.778 8.356-4.778 13.979 0 5.584 1.652 10.204 4.955 13.861s7.707 5.485 13.212 5.485 9.948-1.789 13.33-5.367c.393-.393.747-.433 1.062-.118s.471.57.471.767-.098.393-.294.59c-4.011 3.932-8.966 5.899-14.864 5.899-5.859 0-10.597-2.006-14.215-6.017s-5.426-9.083-5.426-15.217zm41.011 0c0-6.134 1.73-11.207 5.19-15.218s7.924-6.016 13.389-6.016c4.758 0 9.064 1.671 12.918 5.013.629.511.943.315.943-.59v-2.949c0-.59.295-.885.885-.885s.885.295.885.885v11.207c0 .59-.295.885-.885.885s-.885-.295-.885-.885v-4.129a21.86 21.86 0 0 0-3.716-3.362c-3.224-2.281-6.606-3.421-10.145-3.421-4.836 0-8.847 1.868-12.032 5.603-3.185 3.696-4.778 8.356-4.778 13.979 0 5.584 1.652 10.204 4.955 13.861s7.707 5.485 13.212 5.485 9.948-1.789 13.33-5.367c.393-.393.747-.433 1.062-.118s.472.57.472.767-.099.393-.295.59c-4.011 3.932-8.966 5.899-14.864 5.899-5.859 0-10.597-2.006-14.215-6.017s-5.426-9.083-5.426-15.217zm41.188 20.644c-.59 0-.885-.295-.885-.885s.295-.885.885-.885h4.129c.59 0 .885-.295.885-.884v-35.98c0-.59-.295-.885-.885-.885h-4.129c-.59 0-.885-.295-.885-.885s.295-.885.885-.885h28.017c.59 0 .885.295.885.885v8.258c0 .59-.295.885-.885.885s-.885-.295-.885-.885v-6.488c0-.59-.295-.885-.885-.885H464.44c-.59 0-.885.295-.885.885V82.15c0 .59.295.885.885.885h13.271c.59 0 .885-.295.885-.885v-2.949c0-.59.295-.885.884-.885s.885.295.885.885v9.437c0 .59-.295.885-.885.885s-.884-.295-.884-.885v-2.949c0-.59-.295-.885-.885-.885H464.44c-.59 0-.885.295-.885.885v16.516c0 .589.295.884.885.884h19.169c.59 0 .885-.295.885-.884v-6.489c0-.59.295-.885.885-.885s.884.295.884.885v8.258c0 .59-.295.885-.884.885h-28.607zm36.231 0c-.59 0-.885-.295-.885-.885s.295-.885.885-.885h4.128c.59 0 .885-.295.885-.884v-35.98c0-.59-.295-.885-.885-.885h-4.128c-.59 0-.885-.295-.885-.885s.295-.885.885-.885h12.976c.59 0 .884.295.884.885s-.294.885-.884.885h-5.309c-.59 0-.884.295-.884.885v35.98c0 .589.294.884.884.884h18.875c.589 0 .884-.295.884-.884v-6.489c0-.59.295-.885.885-.885s.885.295.885.885v8.258c0 .59-.295.885-.885.885h-28.311zm34.099 0c-.59 0-.885-.295-.885-.885s.295-.885.885-.885h4.129c.589 0 .884-.295.884-.884v-35.98c0-.59-.295-.885-.884-.885h-4.129c-.59 0-.885-.295-.885-.885s.295-.885.885-.885h28.016c.59 0 .885.295.885.885v8.258c0 .59-.295.885-.885.885s-.884-.295-.884-.885v-6.488c0-.59-.295-.885-.885-.885h-18.58c-.589 0-.884.295-.884.885V82.15c0 .59.295.885.884.885h13.272c.589 0 .884-.295.884-.885v-2.949c0-.59.295-.885.885-.885s.885.295.885.885v9.437c0 .59-.295.885-.885.885s-.885-.295-.885-.885v-2.949c0-.59-.295-.885-.884-.885h-13.272c-.589 0-.884.295-.884.885v16.516c0 .589.295.884.884.884h19.17c.59 0 .884-.295.884-.884v-6.489c0-.59.295-.885.885-.885s.885.295.885.885v8.258c0 .59-.295.885-.885.885h-28.606zm55.989-20.644c3.225 0 5.702-.826 7.432-2.477s2.595-3.972 2.595-6.96-.865-5.308-2.595-6.96-4.207-2.477-7.432-2.477H571c-.59 0-.885.295-.885.885V83.33c0 .59.295.885.885.885h12.091zm-12.976 17.99c0 .589.295.884.885.884h3.539c.59 0 .885.295.885.885s-.295.885-.885.885h-11.207c-.59 0-.885-.295-.885-.885s.295-.885.885-.885h4.129c.59 0 .885-.295.885-.884v-35.98c0-.59-.295-.885-.885-.885h-4.129c-.59 0-.885-.295-.885-.885s.295-.885.885-.885h19.759c3.815 0 6.724.983 8.73 2.949 2.044 1.966 3.067 4.719 3.067 8.258s-1.023 6.291-3.067 8.258c-2.006 1.966-4.915 2.949-8.73 2.949h-.295c-.314 0-.55.098-.707.295-.118.157-.079.354.118.59l11.206 15.336c.511.589 1.003.884 1.475.884h3.834c.589 0 .884.295.884.885s-.295.885-.884.885h-11.797c-.59 0-.885-.295-.885-.885s.295-.885.885-.885h3.834c.708 0 .806-.295.295-.884l-11.797-16.221H571c-.59 0-.885.295-.885.885v15.336zm51.933-35.39c-.079-.236-.197-.354-.354-.354s-.275.118-.354.354l-8.081 20.998c-.314.59-.098.885.649.885h15.572c.707 0 .924-.295.648-.885l-8.08-20.998zm9.437 24.478c-.236-.55-.708-.826-1.416-.826h-16.751c-.707 0-1.179.275-1.415.826l-4.188 10.912c-.315.589-.118.884.59.884h3.539c.59 0 .885.295.885.885s-.295.885-.885.885h-11.207c-.59 0-.885-.295-.885-.885s.295-.885.885-.885h3.834c.472 0 .865-.295 1.18-.884l14.745-38.339c.158-.59.59-.885 1.298-.885s1.14.295 1.298.885l14.745 38.339c.275.589.669.884 1.18.884h3.834c.589 0 .884.295.884.885s-.295.885-.884.885h-11.207c-.59 0-.885-.295-.885-.885s.295-.885.885-.885h3.539c.668 0 .865-.295.59-.884l-4.188-10.912zm10.308-18.285v-8.552c0-.59.295-.885.884-.885h31.851c.59 0 .885.295.885.885v8.552c0 .59-.295.885-.885.885s-.885-.295-.885-.885v-6.783c0-.59-.295-.885-.885-.885h-12.386c-.59 0-.885.295-.885.885v35.98c0 .589.295.884.885.884h4.129c.59 0 .884.295.884.885s-.294.885-.884.885h-11.797c-.589 0-.884-.295-.884-.885s.295-.885.884-.885h4.129c.59 0 .885-.295.885-.884v-35.98c0-.59-.295-.885-.885-.885h-12.386c-.59 0-.885.295-.885.885v6.783c0 .59-.295.885-.885.885s-.884-.295-.884-.885zm38.525 31.851c-.59 0-.885-.295-.885-.885s.295-.885.885-.885h4.129c.589 0 .884-.295.884-.884v-35.98c0-.59-.295-.885-.884-.885h-4.129c-.59 0-.885-.295-.885-.885s.295-.885.885-.885h11.796c.59 0 .885.295.885.885s-.295.885-.885.885h-4.129c-.589 0-.884.295-.884.885v35.98c0 .589.295.884.884.884h4.129c.59 0 .885.295.885.885s-.295.885-.885.885h-11.796zm23.624-5.368c-3.618-4.011-5.427-9.103-5.427-15.276s1.809-11.246 5.427-15.218c3.617-4.011 8.395-6.016 14.332-6.016s10.715 2.005 14.333 6.016c3.618 3.972 5.426 9.044 5.426 15.218s-1.808 11.266-5.426 15.276c-3.618 3.972-8.395 5.958-14.333 5.958s-10.715-1.986-14.332-5.958zm1.297-29.255c-3.303 3.657-4.954 8.317-4.954 13.979s1.651 10.322 4.954 13.979 7.648 5.485 13.035 5.485 9.732-1.828 13.035-5.485 4.955-8.317 4.955-13.979-1.652-10.322-4.955-13.979-7.648-5.485-13.035-5.485-9.732 1.828-13.035 5.485zm39.188 32.853h4.128c.59 0 .885-.295.885-.884v-35.98c0-.59-.295-.885-.885-.885h-4.128c-.59 0-.885-.295-.885-.885s.295-.885.885-.885h6.488c.629 0 1.12.295 1.474.885l24.183 36.864c.079.157.197.236.354.236.157-.04.236-.217.236-.531v-34.8c0-.59-.295-.885-.885-.885h-3.539c-.59 0-.885-.295-.885-.885s.295-.885.885-.885h11.207c.59 0 .885.295.885.885s-.295.885-.885.885h-4.129c-.59 0-.885.295-.885.885v35.98c0 .589.295.884.885.884h4.129c.59 0 .885.295.885.885s-.295.885-.885.885h-6.488c-.629 0-1.121-.295-1.475-.885L751.799 67.11c-.078-.157-.196-.216-.354-.177-.157 0-.235.157-.235.472v34.8c0 .589.294.884.884.884h3.539c.59 0 .885.295.885.885s-.295.885-.885.885h-11.206c-.59 0-.885-.295-.885-.885s.295-.885.885-.885zm70.509-14.745c-.59 0-.885.295-.885.885v12.977c0 .589.295.884.885.884h4.718c.59 0 .885.295.885.885s-.295.885-.885.885h-12.386c-.59 0-.885-.295-.885-.885s.295-.885.885-.885h4.129c.59 0 .885-.295.885-.884v-35.98c0-.59-.295-.885-.885-.885h-4.129c-.59 0-.885-.295-.885-.885s.295-.885.885-.885h19.759c3.893 0 6.823 1.062 8.789 3.185 2.005 2.084 3.008 5.151 3.008 9.201s-1.003 7.137-3.008 9.26c-1.966 2.084-4.896 3.126-8.789 3.126h-12.091zm12.091-1.769c6.685 0 10.027-3.539 10.027-10.617s-3.342-10.617-10.027-10.617h-12.091c-.59 0-.885.295-.885.885V85.69c0 .59.295.885.885.885h12.091zm37.037-2.36c3.224 0 5.702-.826 7.432-2.477s2.595-3.972 2.595-6.96-.865-5.308-2.595-6.96-4.208-2.477-7.432-2.477h-12.091c-.59 0-.885.295-.885.885V83.33c0 .59.295.885.885.885h12.091zm-12.976 17.99c0 .589.295.884.885.884h3.539c.59 0 .884.295.884.885s-.294.885-.884.885h-11.207c-.59 0-.885-.295-.885-.885s.295-.885.885-.885h4.129c.59 0 .884-.295.884-.884v-35.98c0-.59-.294-.885-.884-.885h-4.129c-.59 0-.885-.295-.885-.885s.295-.885.885-.885h19.759c3.814 0 6.724.983 8.73 2.949 2.044 1.966 3.067 4.719 3.067 8.258s-1.023 6.291-3.067 8.258c-2.006 1.966-4.916 2.949-8.73 2.949h-.295c-.314 0-.55.098-.708.295-.118.157-.078.354.118.59l11.207 15.336c.511.589 1.003.884 1.475.884h3.833c.59 0 .885.295.885.885s-.295.885-.885.885h-11.796c-.59 0-.885-.295-.885-.885s.295-.885.885-.885h3.834c.708 0 .806-.295.295-.884L860.23 85.984h-8.257c-.59 0-.885.295-.885.885v15.336zm38.441-2.714c-3.618-4.011-5.427-9.103-5.427-15.276s1.809-11.246 5.427-15.218c3.617-4.011 8.395-6.016 14.333-6.016s10.715 2.005 14.332 6.016c3.618 3.972 5.427 9.044 5.427 15.218s-1.809 11.266-5.427 15.276c-3.617 3.972-8.395 5.958-14.332 5.958s-10.716-1.986-14.333-5.958zm1.297-29.255c-3.303 3.657-4.954 8.317-4.954 13.979s1.651 10.322 4.954 13.979 7.648 5.485 13.036 5.485 9.732-1.828 13.035-5.485 4.954-8.317 4.954-13.979-1.651-10.322-4.954-13.979-7.648-5.485-13.035-5.485-9.733 1.828-13.036 5.485zm41.414 14.038c0 5.584 1.612 10.224 4.836 13.92 3.264 3.657 7.373 5.485 12.328 5.485s9.457-2.261 13.507-6.783V85.689c0-.59-.295-.885-.885-.885h-3.539c-.59 0-.885-.295-.885-.885s.295-.885.885-.885h11.207c.59 0 .884.295.884.885s-.294.885-.884.885h-4.129c-.59 0-.885.295-.885.885v18.285c0 .59-.295.885-.884.885s-.885-.295-.885-.885v-2.949c0-.944-.315-1.141-.944-.59-3.893 3.342-8.002 5.014-12.327 5.014-5.702 0-10.322-2.006-13.861-6.017s-5.309-9.064-5.309-15.158c0-6.134 1.731-11.207 5.191-15.218 3.5-4.05 7.963-6.075 13.389-6.075 4.718 0 9.024 1.671 12.917 5.013.629.55.944.354.944-.59v-2.949c0-.59.295-.885.885-.885s.884.295.884.885v11.207c0 .59-.295.885-.884.885s-.885-.295-.885-.885v-4.129c-1.062-1.219-2.301-2.34-3.716-3.362-3.224-2.281-6.606-3.421-10.145-3.421-4.837 0-8.847 1.848-12.032 5.544s-4.778 8.356-4.778 13.979zm63.21-.059c3.224 0 5.7-.826 7.43-2.477s2.6-3.972 2.6-6.96-.87-5.308-2.6-6.96-4.206-2.477-7.43-2.477h-12.092c-.59 0-.884.295-.884.885V83.33c0 .59.294.885.884.885h12.092zm-12.976 17.99c0 .589.294.884.884.884h3.539c.59 0 .885.295.885.885s-.295.885-.885.885h-11.206c-.59 0-.885-.295-.885-.885s.295-.885.885-.885h4.128c.59 0 .885-.295.885-.884v-35.98c0-.59-.295-.885-.885-.885h-4.128c-.59 0-.885-.295-.885-.885s.295-.885.885-.885h19.759c3.814 0 6.72.983 8.73 2.949 2.04 1.966 3.07 4.719 3.07 8.258s-1.03 6.291-3.07 8.258c-2.01 1.966-4.916 2.949-8.73 2.949h-.295c-.315 0-.551.098-.708.295-.118.157-.079.354.118.59l11.205 15.336c.51.589 1 .884 1.48.884h3.83c.59 0 .88.295.88.885s-.29.885-.88.885h-11.796c-.59 0-.885-.295-.885-.885s.295-.885.885-.885h3.836c.71 0 .8-.295.29-.884l-11.794-16.221h-8.258c-.59 0-.884.295-.884.885v15.336zm51.936-35.39c-.08-.236-.2-.354-.36-.354-.15 0-.27.118-.35.354l-8.08 20.998c-.32.59-.1.885.65.885h15.57c.71 0 .92-.295.65-.885l-8.08-20.998zm9.43 24.478c-.23-.55-.7-.826-1.41-.826h-16.75c-.71 0-1.18.275-1.42.826l-4.19 10.912c-.31.589-.11.884.59.884h3.54c.59 0 .89.295.89.885s-.3.885-.89.885H1013c-.59 0-.89-.295-.89-.885s.3-.885.89-.885h3.83c.47 0 .86-.295 1.18-.884l14.74-38.339c.16-.59.59-.885 1.3-.885s1.14.295 1.3.885l14.75 38.339c.27.589.66.884 1.18.884h3.83c.59 0 .88.295.88.885s-.29.885-.88.885h-11.21c-.59 0-.88-.295-.88-.885s.29-.885.88-.885h3.54c.67 0 .87-.295.59-.884l-4.19-10.912zm15.14 11.796h4.13c.59 0 .88-.295.88-.884v-35.98c0-.59-.29-.885-.88-.885h-4.13c-.59 0-.88-.295-.88-.885s.29-.885.88-.885h6.49c.71 0 1.2.295 1.47.885l16.52 36.569c.39.786.78.786 1.18 0l16.51-36.569c.28-.59.77-.885 1.48-.885h6.49c.59 0 .88.295.88.885s-.29.885-.88.885h-4.13c-.59 0-.89.295-.89.885v35.98c0 .589.3.884.89.884h4.13c.59 0 .88.295.88.885s-.29.885-.88.885h-11.21c-.59 0-.89-.295-.89-.885s.3-.885.89-.885h3.54c.59 0 .88-.295.88-.884V67.7c0-.393-.08-.55-.23-.472-.08 0-.16.059-.24.177l-16.51 36.569c-.32.59-.75.885-1.3.885s-.99-.295-1.3-.885l-16.52-36.569c-.15-.236-.27-.295-.35-.177s-.12.275-.12.472v34.505c0 .589.3.884.89.884h3.54c.59 0 .88.295.88.885s-.29.885-.88.885h-11.21c-.59 0-.88-.295-.88-.885s.29-.885.88-.885z"/></g><g opacity=".02" fill="#0be17b"><path d="M5.426 120.485C1.809 116.474 0 111.382 0 105.209s1.809-11.246 5.426-15.218c3.618-4.011 8.395-6.016 14.333-6.016s10.715 2.005 14.333 6.016c3.618 3.971 5.426 9.044 5.426 15.218s-1.809 11.265-5.426 15.276c-3.618 3.972-8.395 5.957-14.333 5.957s-10.715-1.985-14.333-5.957zM6.724 91.23c-3.303 3.657-4.955 8.317-4.955 13.979s1.652 10.322 4.955 13.978 7.648 5.486 13.035 5.486 9.732-1.829 13.035-5.486 4.955-8.316 4.955-13.978-1.651-10.322-4.955-13.979-7.648-5.485-13.035-5.485-9.732 1.829-13.035 5.485zm39.187 32.853h4.129c.59 0 .885-.295.885-.885V87.219c0-.59-.295-.885-.885-.885h-4.129c-.59 0-.885-.295-.885-.885s.295-.885.885-.885h6.488c.629 0 1.121.295 1.475.885l24.183 36.864c.079.157.197.235.354.235.157-.039.236-.216.236-.53v-34.8c0-.59-.295-.885-.885-.885h-3.539c-.59 0-.885-.295-.885-.885s.295-.885.885-.885H85.43c.59 0 .885.295.885.885s-.295.885-.885.885h-4.129c-.59 0-.885.295-.885.885v35.979c0 .59.295.885.885.885h4.129c.59 0 .885.295.885.885s-.295.884-.885.884h-6.488c-.629 0-1.121-.294-1.475-.884L53.284 88.104c-.079-.157-.197-.216-.354-.177-.157 0-.236.157-.236.472v34.799c0 .59.295.885.885.885h3.539c.59 0 .885.295.885.885s-.295.884-.885.884H45.911c-.59 0-.885-.294-.885-.884s.295-.885.885-.885zm46.311 1.769c-.59 0-.885-.294-.885-.884s.295-.885.885-.885h4.129c.59 0 .885-.295.885-.885V87.219c0-.59-.295-.885-.885-.885h-4.129c-.59 0-.885-.295-.885-.885s.295-.885.885-.885h28.016c.59 0 .885.295.885.885v8.258c0 .59-.295.885-.885.885s-.884-.295-.884-.885v-6.488c0-.59-.295-.885-.885-.885H99.89c-.59 0-.885.295-.885.885v15.925c0 .59.295.885.885.885h13.272c.589 0 .884-.295.884-.885v-2.949c0-.59.295-.885.885-.885s.885.295.885.885v9.437c0 .59-.295.885-.885.885s-.885-.295-.885-.885v-2.949c0-.59-.295-.885-.884-.885H99.89c-.59 0-.885.295-.885.885v16.515c0 .59.295.885.885.885h19.17c.59 0 .884-.295.884-.885v-6.488c0-.59.295-.885.885-.885s.885.295.885.885v8.258c0 .59-.295.884-.885.884H92.222z"/><use xlink:href="#B" y="83.975"/><path d="M166.035 121.429a19.41 19.41 0 0 0 10.852 3.244c3.972 0 7.039-.865 9.202-2.595 2.202-1.77 3.303-4.051 3.303-6.842 0-1.534-.472-2.871-1.416-4.011s-2.123-2.025-3.539-2.654c-1.573-.708-4.62-1.672-9.142-2.89-4.522-1.259-7.648-2.301-9.378-3.127-1.691-.865-3.028-1.946-4.011-3.244-.944-1.298-1.416-2.792-1.416-4.483 0-3.303 1.082-5.937 3.244-7.904s5.604-2.949 10.322-2.949c4.679 0 8.985 1.671 12.917 5.014.629.511.944.315.944-.59V85.45c0-.59.295-.885.885-.885s.884.295.884.885v11.207c0 .59-.294.885-.884.885s-.885-.295-.885-.885v-4.129c-2.163-2.477-4.856-4.384-8.081-5.721-1.73-.708-3.656-1.062-5.78-1.062-4.011 0-6.979.826-8.906 2.477s-2.89 3.677-2.89 6.075c0 1.534.472 2.871 1.415 4.011s2.124 2.025 3.539 2.654c1.573.708 4.62 1.691 9.142 2.949 4.522 1.219 7.629 2.261 9.32 3.126 1.73.826 3.067 1.888 4.01 3.185.984 1.298 1.475 2.851 1.475 4.66 0 3.539-1.239 6.35-3.716 8.434s-6.154 3.126-11.03 3.126-9.279-1.671-13.212-5.013c-.629-.511-.943-.315-.943.59v2.949c0 .59-.295.884-.885.884s-.885-.294-.885-.884v-11.207c0-.59.295-.885.885-.885s.885.295.885.885v4.424c1.061 1.219 2.32 2.3 3.775 3.244zm29.876-27.427V85.45c0-.59.295-.885.885-.885h31.85c.59 0 .885.295.885.885v8.552c0 .59-.295.885-.885.885s-.885-.295-.885-.885v-6.783c0-.59-.294-.885-.884-.885H214.49c-.589 0-.884.295-.884.885v35.979c0 .59.295.885.884.885h4.129c.59 0 .885.295.885.885s-.295.884-.885.884h-11.796c-.59 0-.885-.294-.885-.884s.295-.885.885-.885h4.128c.59 0 .885-.295.885-.885V87.219c0-.59-.295-.885-.885-.885h-12.386c-.59 0-.885.295-.885.885v6.783c0 .59-.294.885-.884.885s-.885-.295-.885-.885zm43.371 26.483c-3.617-4.011-5.426-9.103-5.426-15.276s1.809-11.246 5.426-15.218c3.618-4.011 8.396-6.016 14.333-6.016s10.715 2.005 14.333 6.016c3.617 3.971 5.426 9.044 5.426 15.218s-1.809 11.265-5.426 15.276c-3.618 3.972-8.395 5.957-14.333 5.957s-10.715-1.985-14.333-5.957zm1.298-29.255c-3.303 3.657-4.955 8.317-4.955 13.979s1.652 10.322 4.955 13.978 7.648 5.486 13.035 5.486 9.732-1.829 13.035-5.486 4.955-8.316 4.955-13.978-1.652-10.322-4.955-13.979-7.648-5.485-13.035-5.485-9.732 1.829-13.035 5.485zm46.855 18.107c-.59 0-.885.295-.885.885v12.976c0 .59.295.885.885.885h4.719c.589 0 .884.295.884.885s-.295.884-.884.884h-12.387c-.589 0-.884-.294-.884-.884s.295-.885.884-.885h4.129c.59 0 .885-.295.885-.885V87.219c0-.59-.295-.885-.885-.885h-4.129c-.589 0-.884-.295-.884-.885s.295-.885.884-.885h19.759c3.893 0 6.823 1.062 8.789 3.185 2.005 2.084 3.008 5.151 3.008 9.201s-1.003 7.137-3.008 9.26c-1.966 2.084-4.896 3.126-8.789 3.126h-12.091zm12.091-1.769c6.685 0 10.027-3.539 10.027-10.617s-3.342-10.617-10.027-10.617h-12.091c-.59 0-.885.295-.885.885v19.464c0 .59.295.885.885.885h12.091zm52.205-19.759c-.079-.236-.197-.354-.354-.354s-.275.118-.354.354l-8.08 20.998c-.315.589-.099.884.648.884h15.572c.708 0 .924-.295.649-.884l-8.081-20.998zm9.437 24.478c-.236-.551-.708-.826-1.415-.826h-16.751c-.708 0-1.18.275-1.416.826l-4.188 10.911c-.314.59-.118.885.59.885h3.539c.59 0 .885.295.885.885s-.295.884-.885.884H330.32c-.589 0-.884-.294-.884-.884s.295-.885.884-.885h3.834c.472 0 .865-.295 1.18-.885l14.745-38.338c.158-.59.59-.885 1.298-.885s1.14.295 1.298.885l14.745 38.338c.276.59.669.885 1.18.885h3.834c.59 0 .885.295.885.885s-.295.884-.885.884h-11.207c-.59 0-.885-.294-.885-.884s.295-.885.885-.885h3.539c.669 0 .865-.295.59-.885l-4.188-10.911zm13.405-7.078c0-6.135 1.73-11.207 5.19-15.218s7.924-6.016 13.389-6.016c4.758 0 9.064 1.671 12.917 5.014.63.511.944.315.944-.59V85.45c0-.59.295-.885.885-.885s.885.295.885.885v11.207c0 .59-.295.885-.885.885s-.885-.295-.885-.885v-4.129c-1.062-1.219-2.3-2.34-3.716-3.362-3.224-2.281-6.606-3.421-10.145-3.421-4.836 0-8.847 1.868-12.032 5.603-3.185 3.696-4.778 8.356-4.778 13.979 0 5.583 1.652 10.204 4.955 13.86s7.707 5.486 13.212 5.486 9.948-1.789 13.33-5.368c.393-.393.747-.432 1.062-.118s.471.571.471.767-.098.393-.294.59c-4.011 3.932-8.966 5.898-14.864 5.898-5.859 0-10.597-2.005-14.215-6.016s-5.426-9.083-5.426-15.217zm41.011 0c0-6.135 1.73-11.207 5.19-15.218s7.924-6.016 13.389-6.016c4.758 0 9.064 1.671 12.918 5.014.629.511.943.315.943-.59V85.45c0-.59.295-.885.885-.885s.885.295.885.885v11.207c0 .59-.295.885-.885.885s-.885-.295-.885-.885v-4.129c-1.061-1.219-2.3-2.34-3.716-3.362-3.224-2.281-6.606-3.421-10.145-3.421-4.836 0-8.847 1.868-12.032 5.603-3.185 3.696-4.778 8.356-4.778 13.979 0 5.583 1.652 10.204 4.955 13.86s7.707 5.486 13.212 5.486 9.948-1.789 13.33-5.368c.393-.393.747-.432 1.062-.118s.472.571.472.767-.099.393-.295.59c-4.011 3.932-8.966 5.898-14.864 5.898-5.859 0-10.597-2.005-14.215-6.016s-5.426-9.083-5.426-15.217zm41.188 20.643c-.59 0-.885-.294-.885-.884s.295-.885.885-.885h4.129c.59 0 .885-.295.885-.885V87.219c0-.59-.295-.885-.885-.885h-4.129c-.59 0-.885-.295-.885-.885s.295-.885.885-.885h28.017c.59 0 .885.295.885.885v8.258c0 .59-.295.885-.885.885s-.885-.295-.885-.885v-6.488c0-.59-.295-.885-.885-.885H464.44c-.59 0-.885.295-.885.885v15.925c0 .59.295.885.885.885h13.271c.59 0 .885-.295.885-.885v-2.949c0-.59.295-.885.884-.885s.885.295.885.885v9.437c0 .59-.295.885-.885.885s-.884-.295-.884-.885v-2.949c0-.59-.295-.885-.885-.885H464.44c-.59 0-.885.295-.885.885v16.515c0 .59.295.885.885.885h19.169c.59 0 .885-.295.885-.885v-6.488c0-.59.295-.885.885-.885s.884.295.884.885v8.258c0 .59-.295.884-.884.884h-28.607zm36.231 0c-.59 0-.885-.294-.885-.884s.295-.885.885-.885h4.128c.59 0 .885-.295.885-.885V87.219c0-.59-.295-.885-.885-.885h-4.128c-.59 0-.885-.295-.885-.885s.295-.885.885-.885h12.976c.59 0 .884.295.884.885s-.294.885-.884.885h-5.309c-.59 0-.884.295-.884.885v35.979c0 .59.294.885.884.885h18.875c.589 0 .884-.295.884-.885v-6.488c0-.59.295-.885.885-.885s.885.295.885.885v8.258c0 .59-.295.884-.885.884h-28.311zm34.099 0c-.59 0-.885-.294-.885-.884s.295-.885.885-.885h4.129c.589 0 .884-.295.884-.885V87.219c0-.59-.295-.885-.884-.885h-4.129c-.59 0-.885-.295-.885-.885s.295-.885.885-.885h28.016c.59 0 .885.295.885.885v8.258c0 .59-.295.885-.885.885s-.884-.295-.884-.885v-6.488c0-.59-.295-.885-.885-.885h-18.58c-.589 0-.884.295-.884.885v15.925c0 .59.295.885.884.885h13.272c.589 0 .884-.295.884-.885v-2.949c0-.59.295-.885.885-.885s.885.295.885.885v9.437c0 .59-.295.885-.885.885s-.885-.295-.885-.885v-2.949c0-.59-.295-.885-.884-.885h-13.272c-.589 0-.884.295-.884.885v16.515c0 .59.295.885.884.885h19.17c.59 0 .884-.295.884-.885v-6.488c0-.59.295-.885.885-.885s.885.295.885.885v8.258c0 .59-.295.884-.885.884h-28.606zm55.989-20.643c3.225 0 5.702-.826 7.432-2.478s2.595-3.971 2.595-6.959-.865-5.309-2.595-6.96-4.207-2.477-7.432-2.477H571c-.59 0-.885.295-.885.885v17.105c0 .59.295.885.885.885h12.091zm-12.976 17.989c0 .59.295.885.885.885h3.539c.59 0 .885.295.885.885s-.295.884-.885.884h-11.207c-.59 0-.885-.294-.885-.884s.295-.885.885-.885h4.129c.59 0 .885-.295.885-.885V87.219c0-.59-.295-.885-.885-.885h-4.129c-.59 0-.885-.295-.885-.885s.295-.885.885-.885h19.759c3.815 0 6.724.983 8.73 2.949 2.044 1.966 3.067 4.719 3.067 8.258s-1.023 6.291-3.067 8.257c-2.006 1.966-4.915 2.949-8.73 2.949h-.295c-.314 0-.55.098-.707.295-.118.157-.079.354.118.59l11.206 15.335c.511.59 1.003.885 1.475.885h3.834c.589 0 .884.295.884.885s-.295.884-.884.884h-11.797c-.59 0-.885-.294-.885-.884s.295-.885.885-.885h3.834c.708 0 .806-.295.295-.885l-11.797-16.22H571c-.59 0-.885.295-.885.885v15.335zm51.933-35.389c-.079-.236-.197-.354-.354-.354s-.275.118-.354.354l-8.081 20.998c-.314.589-.098.884.649.884h15.572c.707 0 .924-.295.648-.884l-8.08-20.998zm9.437 24.478c-.236-.551-.708-.826-1.416-.826h-16.751c-.707 0-1.179.275-1.415.826l-4.188 10.911c-.315.59-.118.885.59.885h3.539c.59 0 .885.295.885.885s-.295.884-.885.884h-11.207c-.59 0-.885-.294-.885-.884s.295-.885.885-.885h3.834c.472 0 .865-.295 1.18-.885l14.745-38.338c.158-.59.59-.885 1.298-.885s1.14.295 1.298.885l14.745 38.338c.275.59.669.885 1.18.885h3.834c.589 0 .884.295.884.885s-.295.884-.884.884h-11.207c-.59 0-.885-.294-.885-.884s.295-.885.885-.885h3.539c.668 0 .865-.295.59-.885l-4.188-10.911zm10.308-18.285V85.45c0-.59.295-.885.884-.885h31.851c.59 0 .885.295.885.885v8.552c0 .59-.295.885-.885.885s-.885-.295-.885-.885v-6.783c0-.59-.295-.885-.885-.885h-12.386c-.59 0-.885.295-.885.885v35.979c0 .59.295.885.885.885h4.129c.59 0 .884.295.884.885s-.294.884-.884.884h-11.797c-.589 0-.884-.294-.884-.884s.295-.885.884-.885h4.129c.59 0 .885-.295.885-.885V87.219c0-.59-.295-.885-.885-.885h-12.386c-.59 0-.885.295-.885.885v6.783c0 .59-.295.885-.885.885s-.884-.295-.884-.885zm38.525 31.85c-.59 0-.885-.294-.885-.884s.295-.885.885-.885h4.129c.589 0 .884-.295.884-.885V87.219c0-.59-.295-.885-.884-.885h-4.129c-.59 0-.885-.295-.885-.885s.295-.885.885-.885h11.796c.59 0 .885.295.885.885s-.295.885-.885.885h-4.129c-.589 0-.884.295-.884.885v35.979c0 .59.295.885.884.885h4.129c.59 0 .885.295.885.885s-.295.884-.885.884h-11.796zm23.624-5.367c-3.618-4.011-5.427-9.103-5.427-15.276s1.809-11.246 5.427-15.218c3.617-4.011 8.395-6.016 14.332-6.016s10.715 2.005 14.333 6.016c3.618 3.971 5.426 9.044 5.426 15.218s-1.808 11.265-5.426 15.276c-3.618 3.972-8.395 5.957-14.333 5.957s-10.715-1.985-14.332-5.957zm1.297-29.255c-3.303 3.657-4.954 8.317-4.954 13.979s1.651 10.322 4.954 13.978 7.648 5.486 13.035 5.486 9.732-1.829 13.035-5.486 4.955-8.316 4.955-13.978-1.652-10.322-4.955-13.979-7.648-5.485-13.035-5.485-9.732 1.829-13.035 5.485zm39.188 32.853h4.128c.59 0 .885-.295.885-.885V87.219c0-.59-.295-.885-.885-.885h-4.128c-.59 0-.885-.295-.885-.885s.295-.885.885-.885h6.488c.629 0 1.12.295 1.474.885l24.183 36.864c.079.157.197.235.354.235.157-.039.236-.216.236-.53v-34.8c0-.59-.295-.885-.885-.885h-3.539c-.59 0-.885-.295-.885-.885s.295-.885.885-.885h11.207c.59 0 .885.295.885.885s-.295.885-.885.885h-4.129c-.59 0-.885.295-.885.885v35.979c0 .59.295.885.885.885h4.129c.59 0 .885.295.885.885s-.295.884-.885.884h-6.488c-.629 0-1.121-.294-1.475-.884l-24.183-36.864c-.078-.157-.196-.216-.354-.177-.157 0-.235.157-.235.472v34.799c0 .59.294.885.884.885h3.539c.59 0 .885.295.885.885s-.295.884-.885.884h-11.206c-.59 0-.885-.294-.885-.884s.295-.885.885-.885zm70.509-14.746c-.59 0-.885.295-.885.885v12.976c0 .59.295.885.885.885h4.718c.59 0 .885.295.885.885s-.295.884-.885.884h-12.386c-.59 0-.885-.294-.885-.884s.295-.885.885-.885h4.129c.59 0 .885-.295.885-.885V87.219c0-.59-.295-.885-.885-.885h-4.129c-.59 0-.885-.295-.885-.885s.295-.885.885-.885h19.759c3.893 0 6.823 1.062 8.789 3.185 2.005 2.084 3.008 5.151 3.008 9.201s-1.003 7.137-3.008 9.26c-1.966 2.084-4.896 3.126-8.789 3.126h-12.091zm12.091-1.769c6.685 0 10.027-3.539 10.027-10.617s-3.342-10.617-10.027-10.617h-12.091c-.59 0-.885.295-.885.885v19.464c0 .59.295.885.885.885h12.091zm37.037-2.359c3.224 0 5.702-.826 7.432-2.478s2.595-3.971 2.595-6.959-.865-5.309-2.595-6.96-4.208-2.477-7.432-2.477h-12.091c-.59 0-.885.295-.885.885v17.105c0 .59.295.885.885.885h12.091zm-12.976 17.989c0 .59.295.885.885.885h3.539c.59 0 .884.295.884.885s-.294.884-.884.884h-11.207c-.59 0-.885-.294-.885-.884s.295-.885.885-.885h4.129c.59 0 .884-.295.884-.885V87.219c0-.59-.294-.885-.884-.885h-4.129c-.59 0-.885-.295-.885-.885s.295-.885.885-.885h19.759c3.814 0 6.724.983 8.73 2.949 2.044 1.966 3.067 4.719 3.067 8.258s-1.023 6.291-3.067 8.257c-2.006 1.966-4.916 2.949-8.73 2.949h-.295c-.314 0-.55.098-.708.295-.118.157-.078.354.118.59l11.207 15.335c.511.59 1.003.885 1.475.885h3.833c.59 0 .885.295.885.885s-.295.884-.885.884h-11.796c-.59 0-.885-.294-.885-.884s.295-.885.885-.885h3.834c.708 0 .806-.295.295-.885l-11.797-16.22h-8.257c-.59 0-.885.295-.885.885v15.335zm38.441-2.713c-3.618-4.011-5.427-9.103-5.427-15.276s1.809-11.246 5.427-15.218c3.617-4.011 8.395-6.016 14.333-6.016s10.715 2.005 14.332 6.016c3.618 3.971 5.427 9.044 5.427 15.218s-1.809 11.265-5.427 15.276c-3.617 3.972-8.395 5.957-14.332 5.957s-10.716-1.985-14.333-5.957zm1.297-29.255c-3.303 3.657-4.954 8.317-4.954 13.979s1.651 10.322 4.954 13.978 7.648 5.486 13.036 5.486 9.732-1.829 13.035-5.486 4.954-8.316 4.954-13.978-1.651-10.322-4.954-13.979-7.648-5.485-13.035-5.485-9.733 1.829-13.036 5.485zm41.414 14.038c0 5.583 1.612 10.223 4.836 13.919 3.264 3.657 7.373 5.486 12.328 5.486s9.457-2.261 13.507-6.783v-11.207c0-.59-.295-.885-.885-.885h-3.539c-.59 0-.885-.294-.885-.884s.295-.885.885-.885h11.207c.59 0 .884.295.884.885s-.294.884-.884.884h-4.129c-.59 0-.885.295-.885.885v18.285c0 .59-.295.884-.884.884s-.885-.294-.885-.884v-2.949c0-.944-.315-1.141-.944-.59-3.893 3.342-8.002 5.013-12.327 5.013-5.702 0-10.322-2.005-13.861-6.016s-5.309-9.064-5.309-15.158c0-6.135 1.731-11.207 5.191-15.218 3.5-4.05 7.963-6.075 13.389-6.075 4.718 0 9.024 1.671 12.917 5.014.629.55.944.354.944-.59V85.45c0-.59.295-.885.885-.885s.884.295.884.885v11.207c0 .59-.295.885-.884.885s-.885-.295-.885-.885v-4.129c-1.062-1.219-2.301-2.34-3.716-3.362-3.224-2.281-6.606-3.421-10.145-3.421-4.837 0-8.847 1.848-12.032 5.544s-4.778 8.356-4.778 13.979zm63.21-.059c3.224 0 5.7-.826 7.43-2.478s2.6-3.971 2.6-6.959-.87-5.309-2.6-6.96-4.206-2.477-7.43-2.477h-12.092c-.59 0-.884.295-.884.885v17.105c0 .59.294.885.884.885h12.092zm-12.976 17.989c0 .59.294.885.884.885h3.539c.59 0 .885.295.885.885s-.295.884-.885.884h-11.206c-.59 0-.885-.294-.885-.884s.295-.885.885-.885h4.128c.59 0 .885-.295.885-.885V87.219c0-.59-.295-.885-.885-.885h-4.128c-.59 0-.885-.295-.885-.885s.295-.885.885-.885h19.759c3.814 0 6.72.983 8.73 2.949 2.04 1.966 3.07 4.719 3.07 8.258s-1.03 6.291-3.07 8.257c-2.01 1.966-4.916 2.949-8.73 2.949h-.295c-.315 0-.551.098-.708.295-.118.157-.079.354.118.59l11.205 15.335c.51.59 1 .885 1.48.885h3.83c.59 0 .88.295.88.885s-.29.884-.88.884h-11.796c-.59 0-.885-.294-.885-.884s.295-.885.885-.885h3.836c.71 0 .8-.295.29-.885l-11.794-16.22h-8.258c-.59 0-.884.295-.884.885v15.335zm51.936-35.389c-.08-.236-.2-.354-.36-.354-.15 0-.27.118-.35.354l-8.08 20.998c-.32.589-.1.884.65.884h15.57c.71 0 .92-.295.65-.884l-8.08-20.998zm9.43 24.478c-.23-.551-.7-.826-1.41-.826h-16.75c-.71 0-1.18.275-1.42.826l-4.19 10.911c-.31.59-.11.885.59.885h3.54c.59 0 .89.295.89.885s-.3.884-.89.884H1013c-.59 0-.89-.294-.89-.884s.3-.885.89-.885h3.83c.47 0 .86-.295 1.18-.885l14.74-38.338c.16-.59.59-.885 1.3-.885s1.14.295 1.3.885l14.75 38.338c.27.59.66.885 1.18.885h3.83c.59 0 .88.295.88.885s-.29.884-.88.884h-11.21c-.59 0-.88-.294-.88-.884s.29-.885.88-.885h3.54c.67 0 .87-.295.59-.885l-4.19-10.911zm15.14 11.796h4.13c.59 0 .88-.295.88-.885V87.219c0-.59-.29-.885-.88-.885h-4.13c-.59 0-.88-.295-.88-.885s.29-.885.88-.885h6.49c.71 0 1.2.295 1.47.885l16.52 36.57c.39.786.78.786 1.18 0l16.51-36.57c.28-.59.77-.885 1.48-.885h6.49c.59 0 .88.295.88.885s-.29.885-.88.885h-4.13c-.59 0-.89.295-.89.885v35.979c0 .59.3.885.89.885h4.13c.59 0 .88.295.88.885s-.29.884-.88.884h-11.21c-.59 0-.89-.294-.89-.884s.3-.885.89-.885h3.54c.59 0 .88-.295.88-.885V88.694c0-.393-.08-.55-.23-.472-.08 0-.16.059-.24.177l-16.51 36.569c-.32.59-.75.884-1.3.884s-.99-.294-1.3-.884l-16.52-36.569c-.15-.236-.27-.295-.35-.177s-.12.275-.12.472v34.504c0 .59.3.885.89.885h3.54c.59 0 .88.295.88.885s-.29.884-.88.884h-11.21c-.59 0-.88-.294-.88-.884s.29-.885.88-.885z"/></g><defs ><path id="B" d="M129.646 23.888c-.59 0-.885-.295-.885-.885s.295-.885.885-.885h23.003c.59 0 .885.295.885.885s-.295.885-.885.885h-23.003z"/><path id="C" d="M351.731 24.828c-.079-.236-.197-.354-.354-.354s-.275.118-.354.354l-8.08 20.998c-.315.59-.099.885.648.885h15.572c.708 0 .924-.295.649-.885l-8.081-20.998zm9.437 24.478c-.236-.55-.708-.826-1.415-.826h-16.751c-.708 0-1.18.275-1.416.826l-4.188 10.912c-.314.59-.118.885.59.885h3.539c.59 0 .885.295.885.885s-.295.885-.885.885H330.32c-.589 0-.884-.295-.884-.885s.295-.885.884-.885h3.834c.472 0 .865-.295 1.18-.885l14.745-38.339c.158-.59.59-.885 1.298-.885s1.14.295 1.298.885l14.745 38.339c.276.59.669.885 1.18.885h3.834c.59 0 .885.295.885.885s-.295.885-.885.885h-11.207c-.59 0-.885-.295-.885-.885s.295-.885.885-.885h3.539c.669 0 .865-.295.59-.885l-4.188-10.912z"/><path id="D" d="M622.048 24.828c-.079-.236-.197-.354-.354-.354s-.275.118-.354.354l-8.081 20.998c-.314.59-.098.885.649.885h15.572c.707 0 .924-.295.648-.885l-8.08-20.998zm9.437 24.478c-.236-.55-.708-.826-1.416-.826h-16.751c-.707 0-1.179.275-1.415.826l-4.188 10.912c-.315.59-.118.885.59.885h3.539c.59 0 .885.295.885.885s-.295.885-.885.885h-11.207c-.59 0-.885-.295-.885-.885s.295-.885.885-.885h3.834c.472 0 .865-.295 1.18-.885l14.745-38.339c.158-.59.59-.885 1.298-.885s1.14.295 1.298.885l14.745 38.339c.275.59.669.885 1.18.885h3.834c.589 0 .884.295.884.885s-.295.885-.884.885h-11.207c-.59 0-.885-.295-.885-.885s.295-.885.885-.885h3.539c.668 0 .865-.295.59-.885l-4.188-10.912z"/><path id="E" d="M1034.41 24.828c-.08-.236-.2-.354-.36-.354-.15 0-.27.118-.35.354l-8.08 20.998c-.32.59-.1.885.65.885h15.57c.71 0 .92-.295.65-.885l-8.08-20.998zm9.43 24.478c-.23-.55-.7-.826-1.41-.826h-16.75c-.71 0-1.18.275-1.42.826l-4.19 10.912c-.31.59-.11.885.59.885h3.54c.59 0 .89.295.89.885s-.3.885-.89.885H1013c-.59 0-.89-.295-.89-.885s.3-.885.89-.885h3.83c.47 0 .86-.295 1.18-.885l14.74-38.339c.16-.59.59-.885 1.3-.885s1.14.295 1.3.885l14.75 38.339c.27.59.66.885 1.18.885h3.83c.59 0 .88.295.88.885s-.29.885-.88.885h-11.21c-.59 0-.88-.295-.88-.885s.29-.885.88-.885h3.54c.67 0 .87-.295.59-.885l-4.19-10.912z"/></defs></svg>