<svg xmlns="http://www.w3.org/2000/svg" width="222" height="222" fill="#e9bb20" xmlns:v="https://vecta.io/nano"><path d="M101.658 80.053l2.671 2.667c.087.064.156.186.279.18.285-.189.494-.468.743-.701l3.537-3.529 1.883-1.899c.09-.128.285-.203.41-.078l2.826 2.832c.166.342.482.567.738.835L117 82.625c.148.156.322.285.504.401l3.471-3.445c.124-.148.412-.367.204-.561l-5.091-5.103c-.103-.097-.226-.168-.346-.238l-2.589-2.581L111.019 69c-.39.308-.71.689-1.069 1.028l-2.753 2.756-3.5 3.487-2.864 2.889c.228.339.537.608.825.894zm.151 5.463l-2.541-2.578c-.387-.352-.704-.781-1.145-1.068l-3.582 3.572c-.148.103-.121.302.009.407l2.92 2.916c.209.197.378.456.647.575.138-.029.238-.134.339-.225l3.279-3.298c.073-.08.191-.201.073-.301zm2.786 2.788c-.181.131-.361.268-.516.431l-2.288 2.319c-.294.307-.638.569-.893.911-.097.118.032.242.107.329l9.289 9.291c.235.214.424.515.723.639.282-.111.461-.397.682-.597l7.229-7.238 1.531-1.504a7.2 7.2 0 0 0 .769-.867l-1.643-1.621-1.55-1.577c-.179-.198-.385-.366-.602-.519l-6.166 6.148c-.094.09-.231.201-.361.112-.344-.256-.606-.603-.917-.895l-5.394-5.363zm14.932 45.289c.296-.235.664-.403.87-.734.143-.229.269-.472.362-.726l.054.073c.115-.38.115-.783.102-1.175-.028-.827-.579-1.559-1.268-1.975-.454-.283-.993-.347-1.502-.473-.396-.102-.808-.062-1.212-.063h-2.958c-.424.004-.855-.04-1.272.058-.108.748.013 1.498-.04 2.248.048.589-.026 1.18.016 1.769l-.006 1.231c.045.547-.039 1.096 0 1.643.049.824-.039 1.648.008 2.471.014.316-.036.636.025.949.061.229.334.234.527.235l4.77-.006c.834-.087 1.709-.241 2.402-.746.251-.186.545-.378.611-.707.165-.268.304-.56.361-.87.095-.685.073-1.419-.295-2.025-.337-.594-.99-.861-1.556-1.177h.001zm-.051 2.82c-.133.619-.833.868-1.393.914l-3.415.001.002-2.722 3.334.015c.501.099 1.159.178 1.381.715.185.324.202.724.091 1.077zm-4.778-6.053l2.153-.017c.523.006 1.082.017 1.547.285.752.386.711 1.628-.013 2.024-.56.32-1.235.319-1.862.314-.612-.011-1.222.015-1.833-.016l.008-2.59zm-5.957-43.246a15.79 15.79 0 0 0 1.06 1.058c.116.303.395.488.614.71.182.172.339.374.549.514.137.028.233-.103.33-.178l3.323-3.335c.068-.102.266-.225.148-.358-.255-.321-.575-.582-.855-.879l-2.672-2.67c-.139-.179-.36-.116-.486.04l-3.327 3.326c-.067.093-.2.173-.189.299.149.256.389.44.592.65.299.28.549.622.913.822zm12.334-.428l1.874 1.883c.302.316.609.631.962.894l3.444-3.414c.123-.139.299-.27.318-.466a1.24 1.24 0 0 0-.168-.231l-2.38-2.397c-.214-.229-.466-.416-.715-.603l-.437-.437-.092-.083c-.286.202-.53.456-.772.708l-3.059 3.037c.279.423.671.751 1.025 1.11zm-8.004 37.788l2.249-.045c-.092-.554-.372-1.047-.581-1.562l-2.916-6.865-1.407-3.359-1.327-3.021c-.81-.006-1.621.008-2.431-.006-.192.002-.388-.012-.574.042-.073.095-.125.204-.174.313l-4.219 9.918-1.697 3.976a1.88 1.88 0 0 0-.149.566c.79.078 1.586.025 2.378.045.308-.006.631.028.925-.084.195-.244.266-.558.389-.84.248-.662.592-1.291.739-1.986l.196-.37c.263-.03.526-.054.792-.051l3.533.003 1.79.045.119.203c.286.913.699 1.778 1.036 2.672.073.13.107.333.281.362.343.074.697.039 1.047.044zm-7.314-6.304c.114-.419.309-.809.472-1.209l1.018-2.526c.076-.203.184-.391.311-.565.225.397.365.834.542 1.254l1.255 3.025c-.266.037-.536.044-.804.039-.931-.016-1.863.012-2.794-.018zm-33.025-.218c-.454-.523-1.081-.822-1.694-1.112l-.012-.17c.37-.281.776-.537 1.039-.932.325-.489.597-1.041.631-1.637.025-.525.027-1.059-.099-1.572l-.034-.314c-.402-1.042-1.34-1.804-2.38-2.157a7.64 7.64 0 0 0-2.219-.377c-2.139 0-4.278.01-6.417-.008-.14.005-.284.008-.418.055-.14.087-.107.277-.126.417l.006 12.667c.005.566-.045 1.136.056 1.697l7.868.019c1.259-.195 2.576-.507 3.551-1.38.579-.573 1.064-1.309 1.11-2.145.025-.538.061-1.09-.072-1.617-.154-.526-.352-1.075-.79-1.434zm-8.5-3.69l.027-1.613.827-.051 2.993.076c.377.091.776.211 1.052.499.582.597.438 1.697-.244 2.159-.374.152-.766.295-1.175.294-.439 0-.871.103-1.311.078-.704-.022-1.411.036-2.112-.035-.095-.463-.049-.938-.057-1.407zm.073 7.275v-3.007l.115-.116 3.048-.005c.668-.011 1.353.039 1.987.261.728.266 1.035 1.186.75 1.878-.298.668-1.049 1.005-1.753.992-1.382.013-2.766.019-4.148-.003zm27.175-1.444c.339.549.816.995 1.16 1.541l1.841 2.434c.127.133.23.356.44.351l2.584.006c.092-.671.046-1.349.056-2.024l.012-12.54c-.096-.081-.196-.176-.331-.163-.823.001-1.647.012-2.469-.005-.172.005-.386-.003-.494.157-.078.313-.036.64-.042.959l.007 6.741a4.08 4.08 0 0 1-.048.855c-.482-.557-.887-1.174-1.354-1.743l-4.826-6.357c-.199-.221-.321-.619-.67-.614-.794-.018-1.588.009-2.381-.01-.178.012-.449-.038-.522.178-.054.34-.013.688-.021 1.032l-.004 13.239c.003.121-.001.293.15.327.239.048.486.03.729.032l2.392-.014c.105-.324.14-.665.128-1.004l-.008-7.402c-.007-.165.043-.321.087-.475.316.32.588.681.868 1.035l2.331 3.093a1.59 1.59 0 0 0 .383.371zm-11.158-9.694a3.73 3.73 0 0 0-.062-.528l.005-.076c-1.041-.017-2.083-.016-3.124 0l-.188.061v14.572l3.335.017c.054-.488.029-.979.031-1.468l.002-12.578zm44.025 9.366l3.248 4.3c.129.161.267.387.507.354l2.49-.025c.054-.306.024-.617.029-.924l.001-13.405c.028-.131-.056-.3-.207-.279-.981.015-1.962-.026-2.94.024l-.004 7.411c-.007.463.04.935-.084 1.389-.225-.251-.419-.526-.616-.799l-3.515-4.616-2.344-3.08c-.122-.134-.235-.339-.441-.323l-2.747-.005-.18.058-.006 14.598c.644.085 1.295.027 1.943.042.433-.014.872.042 1.303-.027.17-.02.128-.207.145-.328l-.003-5.1.027-3.483c.428.385.734.88 1.097 1.323l1.429 1.858c.29.344.484.782.868 1.037zm16.28-7.116c.512-.094 1.034.007 1.549-.062l.065.014c.298.221.683.246 1.012.402.698.291 1.253.816 1.86 1.25l1.944-2.242c.144-.134.113-.363-.04-.474-.405-.369-.863-.677-1.32-.978-.663-.434-1.43-.652-2.169-.915-1.058-.115-2.127-.29-3.19-.114-.582.109-1.219.113-1.72.468-.619.157-1.153.521-1.699.838-.452.361-.957.675-1.307 1.147-.253.352-.57.661-.766 1.053-.182.344-.401.672-.53 1.042-.242.67-.508 1.351-.506 2.075-.006.953-.073 1.919.108 2.862.336 1.25.955 2.431 1.834 3.384.913.874 1.97 1.687 3.242 1.923-.035.033-.068.068-.099.104.329-.019.65.06.969.133.432.069.873.033 1.309.042.516-.01 1.037.031 1.551-.037.534-.125 1.107-.115 1.595-.397 1.06-.383 1.945-1.107 2.729-1.897.147-.116.122-.354-.015-.467l-1.509-1.533c-.126-.105-.293-.322-.468-.182-.517.365-.961.846-1.561 1.083-.859.449-1.849.587-2.804.463-.289-.13-.596-.208-.889-.323-.855-.327-1.54-1.006-1.993-1.788-.347-.575-.474-1.245-.591-1.896-.145-1.3.216-2.689 1.099-3.673.582-.691 1.421-1.152 2.31-1.305zm20.315 8.883c-.532-.09-1.073-.048-1.61-.055-2.084-.004-4.169.007-6.254-.005-.05-.484-.022-.97-.026-1.455l.026-1.455 5.515-.006c.448-.008.908.051 1.346-.081l.008-2.489c-.011-.159.025-.395-.185-.429-2.248-.005-4.497.013-6.745-.009-.077-.453-.034-.912-.042-1.369.01-.508-.049-1.026.076-1.525l7.515-.004c.124.02.283-.052.269-.198l.012-2.385c.033-.169-.114-.315-.28-.281l-8.466.001c-.759.014-1.519-.027-2.276.023l-.004 14.489a3.77 3.77 0 0 1-.005.149c.678.055 1.359.013 2.039.026h7.559c.51-.006 1.023.032 1.529-.05.084-.479.049-.965.052-1.447s.032-.968-.053-1.445zm-31.708 11.751c-.821-.334-1.713-.428-2.539-.745-.365-.148-.746-.336-.971-.671-.101-.314-.035-.657-.058-.983.228-.253.486-.494.794-.648l.414-.01c.997-.152 1.969.286 2.791.81.147.069.299.226.474.161.234-.245.383-.556.601-.815.12-.178.308-.34.321-.566-.088-.204-.288-.325-.467-.44-.448-.256-.903-.514-1.399-.666-.489-.174-1.01-.199-1.518-.271-.54-.073-1.081.029-1.606.149-.744.173-1.444.598-1.891 1.224-.445.683-.654 1.538-.471 2.343a2.38 2.38 0 0 0 1.206 1.75c.697.385 1.463.628 2.237.806.609.14 1.224.301 1.773.609.213.128.436.314.467.578.033.336.069.735-.189.998-.428.496-1.138.586-1.755.561-.993-.026-1.917-.5-2.689-1.096-.107-.074-.217-.15-.344-.176-.187.051-.293.227-.408.366-.235.334-.549.605-.75.963 1.093 1.109 2.658 1.657 4.191 1.732.929.018 1.906-.145 2.687-.676 1.133-.705 1.53-2.246 1.147-3.48-.288-.925-1.172-1.509-2.048-1.807zm-36.557 3.929c-.029-.404-.016-.809 0-1.213l-.015-5.952c-.011-.446.049-.899-.037-1.34-.041-.189-.275-.171-.422-.189-.48-.006-.964-.034-1.441.021-.2.031-.16.286-.179.434l.006 5.843-.03 1.453c.06.937.013 1.875.03 2.812 1.11.088 2.226.016 3.339.039l4.112-.03a11.15 11.15 0 0 0-.011-1.86c-1.783-.014-3.568.028-5.35-.018h-.001zm14.554-6.085l-1.172-2.607a128.19 128.19 0 0 0-1.754 0l-4.48 10.213c-.037.107-.092.264.048.322.482.051.968.01 1.451.023.16-.02.408.039.467-.165l.951-2.179c.049-.114.195-.11.299-.123l1.401-.002 3.102.033c.411.726.63 1.541 1.011 2.281.084.193.316.138.486.154l1.638-.012c-.1-.356-.268-.687-.431-1.017l-3.018-6.921zm-3.081 2.064l.638-1.476c.112-.258.192-.537.382-.75.333.475.478 1.042.735 1.557l.518 1.218c.154.362.367.715.384 1.119-1.106.013-2.212.023-3.317-.004.151-.58.435-1.111.66-1.664z"/></svg>