<svg xmlns="http://www.w3.org/2000/svg" width="222" height="222" fill="#7524f9" xmlns:v="https://vecta.io/nano"><path d="M104.035 105.948c.189.192.415.342.665.443a1.96 1.96 0 0 0 .786.142c.269.007.537-.042.786-.142a1.96 1.96 0 0 0 .665-.443 2.04 2.04 0 0 0 .44-.667c.1-.25.151-.517.147-.786a1.96 1.96 0 0 0-.587-1.45 1.94 1.94 0 0 0-.66-.461 1.93 1.93 0 0 0-.791-.151 1.92 1.92 0 0 0-.791.151 1.91 1.91 0 0 0-.66.461 1.97 1.97 0 0 0-.444.664 1.96 1.96 0 0 0-.142.786c-.004.269.046.536.147.786a2.01 2.01 0 0 0 .439.667zm-.361 1.978c-.034.038-.061.082-.078.13s-.025.099-.022.15v11.715c-.003.052.004.103.022.151a.41.41 0 0 0 .078.13.38.38 0 0 0 .13.079.39.39 0 0 0 .151.023h3.055c.052.002.103-.005.151-.023a.38.38 0 0 0 .13-.079c.035-.038.062-.082.08-.13s.025-.099.022-.151v-11.715c.003-.051-.005-.102-.023-.15a.37.37 0 0 0-.079-.13c-.038-.035-.082-.061-.13-.079s-.099-.025-.151-.022h-3.053c-.051-.003-.102.005-.15.022a.37.37 0 0 0-.13.079"/><path d="M136.08 111.382c.487-.378 1.09-.576 1.706-.561a2.54 2.54 0 0 1 1.656.561c.458.356.747.882.865 1.577h-5.144c.136-.694.442-1.22.917-1.577zm7.436 3.641c.12-.254.179-.662.178-1.221.011-1.083-.242-2.152-.738-3.115-.476-.932-1.198-1.716-2.088-2.266-.935-.569-2.013-.86-3.107-.839a6.19 6.19 0 0 0-3.234.866 6.14 6.14 0 0 0-2.293 2.317c-.546.999-.827 2.122-.815 3.26-.013 1.142.277 2.266.839 3.26a6.2 6.2 0 0 0 2.342 2.343c1.051.586 2.238.885 3.441.867.862.008 1.717-.154 2.516-.479a6.63 6.63 0 0 0 2.114-1.427c.045-.038.081-.084.108-.137s.041-.11.046-.168c0-.047-.009-.094-.026-.138a.34.34 0 0 0-.077-.117l-1.317-1.272c-.07-.086-.171-.141-.28-.154a.44.44 0 0 0-.282.102 5 5 0 0 1-1.222.586c-.391.104-.793.156-1.198.153-.848 0-1.552-.169-2.113-.509a2.62 2.62 0 0 1-1.095-1.557h7.564c.373 0 .62-.12.739-.359m7.501-4.198c-.617-.015-1.219.183-1.706.561-.479.356-.785.882-.916 1.577h5.143c-.118-.694-.408-1.22-.866-1.577-.468-.377-1.054-.576-1.655-.561zm5.909 2.981c0 .558-.06.966-.179 1.221-.119.24-.365.36-.737.36h-7.564a2.61 2.61 0 0 0 1.094 1.557c.559.339 1.264.508 2.114.509.405.003.807-.049 1.198-.153.432-.139.844-.337 1.223-.586.079-.066.178-.102.28-.102.11.013.211.068.28.153l1.318 1.273a.34.34 0 0 1 .077.117c.018.043.027.09.025.138-.004.058-.019.116-.045.168s-.063.099-.108.137c-.605.606-1.321 1.089-2.109 1.422-.798.324-1.653.487-2.515.479a6.86 6.86 0 0 1-3.439-.866 6.22 6.22 0 0 1-2.342-2.343 6.47 6.47 0 0 1-.838-3.259 6.63 6.63 0 0 1 .814-3.261 6.13 6.13 0 0 1 2.281-2.313 6.19 6.19 0 0 1 3.234-.866c1.094-.021 2.172.27 3.107.839.891.55 1.612 1.334 2.088 2.266.496.962.75 2.032.74 3.114m9.592 2.389c-.527.544-1.197.815-2.012.814-.831 0-1.51-.271-2.037-.814-.508-.544-.763-1.249-.763-2.114 0-.849.254-1.561.763-2.139a2.66 2.66 0 0 1 .923-.657c.352-.149.732-.221 1.114-.209a2.65 2.65 0 0 1 1.097.203c.347.144.658.361.915.636.542.559.814 1.28.815 2.164 0 .867-.272 1.572-.815 2.115v.001zm1.528-7.743a5.66 5.66 0 0 0-3.081-.866c-1.46 0-2.658.594-3.594 1.782l-.128-1.145c-.033-.255-.161-.382-.382-.382h-2.594c-.052-.003-.103.005-.151.022s-.093.045-.13.08a.36.36 0 0 0-.079.13.35.35 0 0 0-.021.15v16.553c-.004.052.004.103.021.151s.044.093.079.131a.36.36 0 0 0 .13.079c.048.018.099.025.151.023h3.055c.051.002.102-.005.15-.023a.36.36 0 0 0 .13-.079.39.39 0 0 0 .08-.131c.017-.048.025-.099.022-.151V119.2c.833.864 1.92 1.295 3.261 1.295 1.085.015 2.153-.276 3.081-.838a5.94 5.94 0 0 0 2.166-2.318c.528-.996.799-2.108.788-3.234.015-1.144-.256-2.273-.788-3.285-.487-.976-1.237-1.796-2.166-2.368z" fill-rule="evenodd"/><path d="M116.631 107.825a.4.4 0 0 1 .15.022c.049.018.093.044.13.079s.063.082.08.13.025.099.022.15v2.318c.003.051-.004.102-.022.15s-.044.092-.08.129a.37.37 0 0 1-.28.103h-2.036v9.015c.003.052-.005.103-.023.151s-.045.092-.08.13a.38.38 0 0 1-.13.079c-.048.018-.099.025-.151.023h-3.055c-.052.002-.103-.005-.151-.023a.38.38 0 0 1-.209-.209c-.018-.048-.025-.099-.022-.151v-9.009h-2.037c-.051.003-.102-.004-.151-.022a.37.37 0 0 1-.129-.081c-.035-.037-.062-.081-.08-.129s-.025-.099-.022-.15v-2.318c-.003-.051.005-.102.023-.15a.38.38 0 0 1 .079-.13c.037-.035.082-.061.13-.079a.4.4 0 0 1 .15-.022h2.037v-3.439c-.003-.051.004-.102.022-.15a.37.37 0 0 1 .079-.13.38.38 0 0 1 .13-.079c.048-.017.1-.025.151-.022h3.06a.39.39 0 0 1 .151.022.38.38 0 0 1 .13.079c.035.037.062.081.08.13s.025.099.023.15v3.439l2.031-.006z"/><path fill-rule="evenodd" d="M96.107 116.814c.781 0 1.401-.178 1.859-.534s.688-.891.688-1.605c0-.697-.229-1.206-.687-1.527-.459-.341-1.079-.51-1.859-.51h-2.855v4.176h2.855zm1.477-9.223c0-1.086-.671-1.63-2.012-1.631h-2.319v3.413h2.317c.628 0 1.121-.144 1.477-.432.357-.307.535-.757.535-1.35h.002zm1.525 3.184c.955.257 1.808.801 2.445 1.557a4.1 4.1 0 0 1 1.045 2.827c0 1.715-.552 3.006-1.656 3.871-1.087.848-2.75 1.273-4.99 1.274h-6.264c-.051.002-.102-.005-.151-.023a.37.37 0 0 1-.13-.079c-.035-.038-.062-.082-.079-.13s-.025-.1-.021-.151v-17.062c-.003-.051.004-.102.021-.15s.044-.093.079-.13a.39.39 0 0 1 .13-.08c.048-.017.099-.025.151-.022h6.24c1.118 0 2.076.204 2.875.611a4.26 4.26 0 0 1 1.834 1.655 4.41 4.41 0 0 1 .641 2.343c.018.819-.204 1.624-.638 2.318-.407.661-.916 1.12-1.528 1.375"/><path d="M132.816 120.173c.001-.083-.026-.163-.077-.229l-7.09-9.559 6.844-7.367c.069-.057.114-.139.127-.228a.17.17 0 0 0-.028-.093c-.018-.028-.044-.049-.074-.062a.32.32 0 0 0-.108-.061c-.039-.013-.081-.018-.122-.014h-3.458a.55.55 0 0 0-.24.052.56.56 0 0 0-.193.151l-6.562 7.113v-6.933c.003-.051-.005-.103-.022-.151a.37.37 0 0 0-.21-.21c-.048-.017-.099-.025-.15-.022h-3.06c-.052-.003-.103.004-.151.022s-.093.045-.13.081-.062.081-.08.129a.39.39 0 0 0-.022.151v17.073c-.003.051.005.103.022.151s.045.092.08.129.082.063.13.08.099.025.151.022h3.055c.051.003.102-.004.15-.022s.092-.044.129-.08a.37.37 0 0 0 .103-.28v-5.51l1.503-1.629 5.434 7.291c.05.075.118.136.198.176a.52.52 0 0 0 .26.053h3.286c.203 0 .305-.075.305-.229"/><path fill-rule="evenodd" d="M81.668 103.748v1.743a.96.96 0 0 1-.128.479c-.084.146-.205.267-.351.351l-5.616 3.241 5.015 2.887c.328.189.6.462.79.79s.289.7.289 1.079v4.644c0 .379-.099.751-.288 1.079s-.462.601-.79.791l-13.194 7.569a2.16 2.16 0 0 1-2.156 0l-4.312-2.493c-.073-.042-.133-.102-.175-.175a.48.48 0 0 1-.064-.24c0-.084.022-.167.064-.239a.48.48 0 0 1 .175-.176l14.255-8.204c.037-.021.067-.051.088-.088s.032-.078.032-.12-.011-.083-.032-.12-.052-.067-.088-.088l-5.292-3.057a.96.96 0 0 0-.958 0l-14.487 8.34a.72.72 0 0 1-.719 0l-1.639-.939c-.33-.189-.604-.461-.795-.79S51 119.31 51 118.93v-1.901c0-.127.033-.251.096-.36a.72.72 0 0 1 .263-.263l20.764-11.927c.037-.021.067-.052.088-.088s.032-.078.032-.12-.011-.084-.032-.12-.052-.067-.088-.088l-5.301-3.067a.96.96 0 0 0-.958 0L51.73 109.13a.48.48 0 0 1-.479 0 .48.48 0 0 1-.239-.416v-4.989c0-.379.1-.752.291-1.08s.464-.601.793-.79l13.187-7.568c.327-.188.698-.287 1.075-.287s.748.099 1.075.287l13.162 7.591c.327.19.599.463.787.791s.287.7.286 1.079z"/></svg>