<svg xmlns="http://www.w3.org/2000/svg" width="222" height="222" fill="none" xmlns:v="https://vecta.io/nano"><g clip-path="url(#A)"><g fill="#ff9d0b"><path d="M64.241 96.12c1.544-.621 3.193-.965 4.849-1.106.897.004 1.803-.063 2.695.058 4.734.446 9.196 3.16 11.78 7.148a2.61 2.61 0 0 1 .078.261c-.29.122-.586.235-.897.281-.534-.699-1.066-1.4-1.663-2.046-1.628-1.628-3.594-2.941-5.781-3.685-1.56-.55-3.215-.861-4.873-.808-4.012-.118-7.957 1.657-10.752 4.494-.831.938-1.658 1.905-2.231 3.026.526-.196.992-.517 1.499-.75-.657 1.081-1.498 2.038-2.22 3.076-.38.509-.707 1.065-1.17 1.506-.547-1.831-1.027-3.683-1.554-5.52.597.664 1.004 1.48 1.643 2.106.361-.656.676-1.34 1.11-1.953 1.793-2.732 4.443-4.897 7.488-6.089zm-3.273 6.193c2.16-2.295 5.186-3.755 8.331-4.005l2.057-.002c2.806.215 5.532 1.391 7.604 3.296.619.515 1.118 1.151 1.631 1.767.1.152.269.292.268.488a3.25 3.25 0 0 1-.964.862c-.976-1.382-2.19-2.615-3.66-3.469-2.12-1.3-4.677-1.845-7.145-1.562-1.833.157-3.582.866-5.121 1.853-2.096 1.416-3.738 3.518-4.518 5.932-.752 2.221-.777 4.674-.105 6.917.758 2.472 2.362 4.681 4.502 6.136 1.576 1.101 3.438 1.774 5.346 1.976l2.266.001c2.157-.219 4.25-1.058 5.952-2.403.934-.721 1.708-1.62 2.429-2.548l1.05.737c-.044.111-.086.223-.151.323-1.918 2.628-4.843 4.52-8.056 5.085-1.215.248-2.465.144-3.695.141-2.636-.262-5.179-1.387-7.158-3.147-2.26-1.985-3.791-4.79-4.183-7.778-.189-1.286-.169-2.604.033-3.887.37-2.508 1.586-4.848 3.288-6.712zm-6.67 13.087l3.521 2.121c.389.234.786.459 1.135.75-.511.011-1.022-.009-1.533.02.771 1.513 1.913 2.814 3.165 3.95 2.726 2.36 6.321 3.783 9.945 3.655 1.725.052 3.444-.319 5.055-.921a14.88 14.88 0 0 0 6.436-4.684c.26-.336.491-.697.791-1.003a36.47 36.47 0 0 0 .83.364c-.222.528-.626.952-.966 1.405-2.218 2.767-5.369 4.77-8.828 5.566-3.438.804-7.142.461-10.354-1.015-2.759-1.249-5.136-3.314-6.791-5.847-.246-.336-.372-.782-.742-1.01-.046.634-.194 1.252-.284 1.88l-.233.078c-.345-1.778-.804-3.531-1.146-5.309z"/></g><g fill="#000"><path d="M145.013 99.699l3.521.002.006 18.969-3.525.019-.002-18.99zm-28.701.131l3.526-.002.003 8.474c.001.18.039.356.069.532l3.976-4.712c.202-.24.39-.499.628-.707l4.086.01-5.435 5.911c-.124.144-.309.332-.14.519l5.392 7.519c.271.395.615.753.789 1.208l-4.124.006c-.205.019-.321-.184-.419-.328l-3.959-6.16c-.327.289-.711.588-.854 1.009l-.019 5.476c-1.173-.005-2.347.019-3.518-.013l-.001-18.741zm39.787-.001l3.532-.001.003 7.544c.008.485-.044.978.084 1.453l4.421-5.281c.111-.186.349-.133.533-.145l3.72.024-5.594 6.069c-.142.191.028.399.14.555l6.062 8.447c-.261.126-.554.09-.832.093-1.162-.002-2.326-.003-3.488 0l-3.618-5.564c-.218-.311-.375-.67-.661-.925-.234.386-.755.613-.763 1.109l-.013 5.374c-1.162.014-2.325-.011-3.487.012-.047-.146-.112-.29-.103-.445l.002-17.238c.003-.361-.034-.73.062-1.082v.001zm-58.465.048c.948-.214 1.993.284 2.434 1.149.235.361.168.811.179 1.219.049.842-.624 1.563-1.363 1.865-1.136.475-2.608-.238-2.879-1.45-.009-.575-.134-1.217.195-1.731.316-.52.839-.912 1.434-1.052zm54.15-.004c1.24-.281 2.665.748 2.606 2.062.108.908-.476 1.81-1.313 2.146-.372.194-.801.173-1.205.148-.884-.137-1.655-.855-1.81-1.744-.182-.475-.002-.977.185-1.421.274-.627.891-1.027 1.537-1.191zM63.5 106.291a8.29 8.29 0 0 1 5.394-3.382 28.61 28.61 0 0 1 2.763-.003c1.735.304 3.382 1.151 4.591 2.442.781.821 1.469 1.797 1.767 2.898-1.129.012-2.258-.001-3.388.007-.602-.913-1.458-1.674-2.49-2.061-.802-.284-1.676-.493-2.525-.315-1.465.18-2.814 1.046-3.626 2.273-.584.921-.914 2.023-.843 3.118.112 1.267.661 2.508 1.597 3.382.927.883 2.196 1.429 3.483 1.407 1.347.051 2.669-.538 3.638-1.456.285-.269.489-.608.745-.904.134-.059.288-.026.432-.035l3.112.006c-.858 2.783-3.328 4.978-6.181 5.54-.84.212-1.714.112-2.569.124-2.561-.223-4.934-1.777-6.248-3.976-.907-1.494-1.299-3.276-1.163-5.015.16-1.444.657-2.869 1.513-4.05zm41.865-1.575a6.06 6.06 0 0 1 3.316-1.686c.445-.025.892-.02 1.339-.002 1.144.184 2.126.922 2.823 1.822.924 1.105 1.437 2.523 1.537 3.952l-.003 9.728c-1.196-.01-2.393.007-3.589-.009l.003-8.892c.001-.514.065-1.045-.102-1.541-.144-.627-.458-1.261-1.028-1.6-.855-.579-2.058-.485-2.87.125-1.004.789-1.409 2.097-1.528 3.321l.002 8.591c-1.167 0-2.334.01-3.5-.004l.018-15.126 3.484.009c.026.436-.095.903.098 1.312zm-20.93-1.084c.684-.245 1.402-.457 2.135-.425l.002 3.06c-.5.138-1.013.251-1.48.486-1.516.754-2.59 2.393-2.536 4.106-.058 1.944 1.331 3.8 3.183 4.359l.832.238.001 3.056c-.581.06-1.141-.126-1.696-.263-1.469-.468-2.83-1.344-3.778-2.57-.91-1.12-1.465-2.505-1.644-3.932-.189-1.503.126-3.055.804-4.405.871-1.692 2.393-3.048 4.178-3.71zm3.055-.434c3.758-.003 7.147 3.305 7.315 7.047.08.379.125.77.011 1.147-.111 2.79-1.972 5.387-4.512 6.507-.884.388-1.844.663-2.816.63l.005-3.087c1.174-.117 2.312-.664 3.086-1.565a4.53 4.53 0 0 0 1.061-3.842c-.315-2.004-2.142-3.609-4.153-3.751l.003-3.086zm42.676 2.273c1.183-1.217 2.782-2.016 4.461-2.254l.467-.01v3.066c-1.061.217-2.089.703-2.815 1.523-.734.839-1.191 1.939-1.163 3.063-.033 1.488.761 2.944 1.986 3.777.592.421 1.295.627 1.99.806l.004 3.076c-1.1.003-2.177-.384-3.139-.898-2.142-1.166-3.662-3.407-3.931-5.834-.034-.685-.035-1.373.016-2.058.257-1.589.994-3.105 2.124-4.257zm5.94-2.272c.885-.032 1.753.219 2.569.54 1.244.527 2.369 1.368 3.173 2.46.878 1.132 1.391 2.522 1.546 3.94v1.443c-.154 1.439-.693 2.843-1.58 3.992-.729.957-1.7 1.72-2.775 2.254-.922.408-1.917.733-2.935.698l.005-3.083c1.064-.135 2.111-.59 2.847-1.386.864-.826 1.309-2.021 1.358-3.199-.047-1.158-.475-2.321-1.301-3.152-.754-.812-1.813-1.305-2.908-1.427v-3.08h.001zm-39.77 1.469l3.556.002v14.016l-3.556.002v-14.02zm54.143.064l.062-.06 3.451-.003c.134.865-.066 1.735.028 2.6.049.855-.006 1.711-.02 2.564.115.888-.065 1.78.03 2.667a18.1 18.1 0 0 1-.037 1.743c.034.649.077 1.3.007 1.948-.027.832.111 1.667-.011 2.496-1.175-.009-2.35.026-3.523-.017l.013-13.938z"/></g></g><defs><clipPath id="A"><path fill="#fff" transform="translate(54 95)" d="M0 0h115v32.046H0z"/></clipPath></defs></svg>