<svg xmlns="http://www.w3.org/2000/svg" width="222" height="222" fill="none" xmlns:v="https://vecta.io/nano"><g fill-rule="evenodd"><path d="M108.142 102.455c15.383-5.166 29.13-4.131 30.71 2.321 1.578 6.459-9.613 15.878-24.994 21.053-15.383 5.166-29.137 4.131-30.71-2.33-1.578-6.45 9.612-15.877 24.994-21.044z" fill="url(#A)"/><path d="M88.135 85.064c1.602-.614 6.332 3.381 9.182 5.367 2.635-.909 6.692-1.907 10.257-1.339 1.942.31 3.674.845 5.006 1.563 1.501-1.029 9.613-7.305 10.144-5.143.398 1.649.35 3.254.12 4.809-.43 2.861-1.168 5.805-1.914 8.724-.364 1.443-1.056 2.837-1.189 4.139-.207 1.968.468 4.082.952 5.812.491 1.739.746 3.607 1.913 4.809 6.349 4.936 11.945 12.041 13.119 15.55.492 1.477.246 2.649-.714 3.47-1.611 1.378-3.85 1.14-5.603-.113-1.12-.804-2.621-2.408-3.817-3.691-.908-.945-1.865-1.842-2.867-2.687-.507-.424-.738-.479-1.063-.526-.532-.073-1.597.342-2.39.556-2.094.568-4.651.998-7.048 1.31.913 1.108 2.867 2.671 4.058 4.025.682.782 1.642 1.931 1.666 3.359.023 1.212-1.366 2.949-5.01 2.455-1.022-.135-4.508-1.641-5.126-2.017-14.85-8.82-15.479-17.305-17.176-31.659-.46-3.958-2.264-8.932-2.977-13.294-.293-1.833-.984-4.865.477-5.478z" fill="#060001"/></g><path d="M115.241 100.638c-.756.087-1.366 1.45-2.23 2.08-1.278.933-3.167.574-3.064-.151.094-.725.507-.781 1.619-.948s3.032-1.045 2.437-4.212c-.526-2.767-3.635-2.145-3.635-2.145s-.556-1.027-1.93-1.133c-1.358-.103-2.485 1.659-2.485 1.659s-.888.545-1.317-.573c-.214-.558-1.365-1.435-2.539-.949-1.191.494-2.23 1.691-1.937 2.981.293 1.277 1.612 1.779 2.523 1.715s1.493.432 1.414.86c-.135.687-1.978 1.181-3.755.16-1.014-.582-1.452-2.2-1.42-2.551l.064-.821s-2.842 0-3.501 2.399c-.648 2.4.986 3.572 1.963 3.478.65-.063.158-.963.945-1.705.222-.207.864-.344 1.159.047s.182.869-.278 1.132-.802 1.453.5 2.202c.586.334-.31 2.113-1.349.757-.612-.789-.548-1.14-1.198-1.069-.652.064-1.437-.565-1.572-.661-.128-.096-.889.31-.596 1.197s.254 2.066 3.231 2.167c.62.032.826.138.952.632s1.61 2.75 3.802 1.54.864-3.118-.088-3.4c-.603-.175-.952-.956-.5-1.428.245-.253.5-.158 1.152.105 1.863.767 2.729 3.102 1.516 4.077-.507.406.522 1.084 1.371 1.202.851.128 4.129-.207 4.486-2.042.158-.804.056-1.307.079-1.762.032-.845 1.262-.949 1.294-.391s-.017.686.244.926c.716.647 2.63-.184 3.185-1.467.578-1.292.42-4.027-.54-3.907l-.001-.002zm-8.51 3.588c-.34 0-.793-.494-.547-.774.564-.622.65-1.506.611-2.049-.057-.725-.476-1.005-.5-1.428-.015-.366.263-.597.596-.71.721-.231 1.262 1.413 1.206 2.823-.032 1.133-.588 2.138-1.366 2.138zm.77-8.35c.254-.669.676-.605.849-.59.175.008.66.192.635.639 0 0-.263 1.354.263 1.777.793.646 1.841.376 2.087.376.342-.007.746.797.175 1.172s-2.279.519-3.192-.408c-.977-.973-1.056-2.335-.817-2.966z" fill="#fff" stroke="#df6f28" stroke-width=".212" stroke-miterlimit="10"/><defs><linearGradient id="A" x1="99.236" y1="102.323" x2="122.875" y2="125.849" gradientUnits="userSpaceOnUse"><stop stop-color="#dc631e"/><stop offset=".98" stop-color="#fcf5f0"/></linearGradient></defs></svg>