<svg xmlns="http://www.w3.org/2000/svg" width="222" height="222" fill="none" xmlns:v="https://vecta.io/nano"><path d="M56 93.275c.11 0 .22.018.348.018h30.708.367l-2.933 7.902L72.518 95.2v21.597h-1.54V95.2l-12.008 6.013-.275-.751-2.585-6.912c-.018-.037-.073-.11-.092-.183C56 93.348 56 93.33 56 93.275zm2.237 1.613l1.54 4.125 8.177-4.107c0-.018-.018-.018-.018-.037l-9.698.018zm26.895 0h-9.717v.018l8.177 4.107 1.54-4.125zm70.125-1.833v12.778l1.503.184-.073.55h-4.034c-.018-.165-.073-.349-.091-.55l1.155-.184v-7.131h-4.034v7.095l1.632.11c-.018.22-.073.403-.092.605h-4.381c-.019-.165-.074-.349-.092-.55l1.393-.184v-7.131h-1.65c-.073-.202 0-.348.092-.477.257-.385.568-.55.99-.477.183.018.367 0 .55 0l.092-.953c.11-.697.458-1.32.916-1.852l1.357-1.65c.092-.11.202-.165.367-.165l3.116-.037c.11 0 .22-.018.349-.037.311.055.623.055.935.055zm-1.54 1.137c-.037 0-.092 0-.11.018-.66.312-1.357.367-2.09.312-.275-.018-.569 0-.844 0a.36.36 0 0 0-.256.11c-.459.44-.697.953-.697 1.595v1.595h4.015l-.018-3.63zM75.598 109.06v-1.558h4.675v17.16h-17.16v-17.16h4.657v1.54h-3.117v14.043h14.043v-14.043l-3.098.018zm15.492-2.475c-.018-.183-.073-.367-.092-.587l.88-.128s.587-.092.917-.11v-.257V94.43c0-.22-.073-.293-.275-.312-.44-.037-.88-.11-1.32-.183-.073 0-.11-.018-.183-.037.018-.202.073-.385.092-.55h1.228l5.262-.018c1.155 0 2.255.22 3.245.825 1.265.752 2.035 1.852 2.402 3.245.403 1.613.385 3.227-.092 4.803-.586 1.999-1.98 3.245-3.905 3.905-1.155.404-2.328.495-3.538.459-1.32-.037-2.64 0-3.942 0l-.678.018zm3.41-12.412v11.422l1.98.165c1.705.202 3.447-.605 4.327-2.383.953-1.907 1.045-3.905.403-5.922-.55-1.687-1.705-2.768-3.447-3.208-1.082-.275-2.163-.11-3.263-.073zm26.033 12.412c-.22-.128-.458-.22-.678-.385-.477-.312-.733-.99-.587-1.54.019-.073.092-.11.165-.165l1.687-1.21c-.11-.037-.202-.092-.312-.128-2.181-.954-1.925-3.319-.77-4.4.752-.697 1.687-1.155 2.659-1.302.953-.128 1.851.183 2.603.825.037.037.092.092.165.128l.935-.88a.45.45 0 0 1 .293-.11c.294-.018.587 0 .88 0v1.375c-.586-.018-1.173-.037-1.613.312l.11 1.173c-.018.917-.477 1.614-1.21 2.164-.697.513-1.503.788-2.328 1.026a.43.43 0 0 1-.22 0c-.312-.091-.514.074-.697.312-.202.275-.458.513-.678.788-.202.257-.184.55.091.697a.95.95 0 0 0 .459.11h3.428a4.24 4.24 0 0 1 1.063.128c1.082.275 1.614 1.229 1.265 2.292-.256.788-.788 1.338-1.43 1.815-.935.697-1.98 1.173-3.08 1.467-.366.091-.751.018-1.136 0-.605-.037-1.229-.184-1.797-.477-1.082-.568-1.265-1.522-1.228-2.383 0-.074.091-.165.165-.202l1.631-1.357c.037.019.092-.036.165-.073zm2.09 3.575c.789 0 1.504-.22 2.109-.697.458-.366.788-.788.916-1.375.165-.696-.091-1.081-.788-1.246-.202-.037-.403-.074-.587-.074l-2.896-.018c-.074 0-.184.018-.22.073l-.954 1.265c-.22.367-.183.752.074 1.082.128.202.348.367.55.495.513.385 1.155.477 1.796.495zm-1.906-9.937c.018.22.036.459.091.66.22 1.174 1.027 1.815 2.182 1.742.678-.037 1.265-.44 1.43-1.063.257-.99.073-1.925-.587-2.732-.476-.55-1.118-.678-1.815-.513-.641.128-1.026.587-1.173 1.228-.092.22-.11.477-.128.678zm-6.949 24.145v3.704l2.035.201c-.018.184-.036.349-.091.495-.019.037-.11.11-.184.11-.733 0-1.448-.036-2.163-.036l-2.255.036h-.202c-.018-.201-.073-.385-.11-.586l1.375-.202v-11.348l-1.375.128c-.018-.183-.073-.367-.11-.587.954-.201 1.852-.641 2.879-.66l.091 1.522c.074-.037.11-.073.165-.092l2.072-1.558c.073-.037.165-.092.22-.092 1.082 0 2.072.294 2.805 1.119.568.605.825 1.356.953 2.163.129.917.129 1.815-.091 2.732-.367 1.375-1.229 2.365-2.549 2.878a10.55 10.55 0 0 1-1.888.495c-.513.092-1.027-.092-1.467-.312-.036-.018-.091-.036-.128-.073.037-.037.037-.037.018-.037zm0-3.978v2.182c0 .091.037.22.092.293.55.752 1.723 1.173 2.64.953.862-.22 1.338-.843 1.632-1.631.348-.935.348-1.889.22-2.842-.092-.678-.257-1.32-.642-1.888-.55-.825-1.32-1.045-2.2-.569-.587.312-1.137.734-1.687 1.119-.073.036-.091.165-.091.256l.036 2.127zm-10.981-5.592h-.825c-.129 0-.184-.036-.22-.165l-.477-1.356c-.073-.165-.165-.294-.275-.404-2.127-1.815-6.563-1.54-7.627 2.457-.568 2.127-.385 4.217.843 6.123 1.063 1.632 2.585 2.494 4.583 2.402.825-.037 1.522-.44 2.127-.953.201-.184.293-.495.403-.752l.605-1.173c.037-.074.165-.129.257-.165.256-.019.513 0 .825 0l-.514 2.42c-.018.036-.091.11-.128.128-1.338.642-2.732 1.155-4.198 1.412-.733.128-1.43-.019-2.127-.22-2.732-.752-4.51-2.952-4.767-5.739-.11-1.43.018-2.805.66-4.106.733-1.449 1.907-2.42 3.373-3.044.972-.403 1.998-.733 3.062-.733 1.595 0 2.989.55 4.29 1.43a.2.2 0 0 1 .11.183l.019 2.255zm37.436-8.818c-.018.202-.073.385-.091.568h-3.85l-.092-.568 1.412-.183v-6.985l-1.357.128c-.018-.202-.073-.385-.092-.568.495-.257 2.365-.697 2.842-.66l.11 1.558.257-.165 2.328-1.54a.71.71 0 0 1 .367-.11 5.57 5.57 0 0 1 .953.073c.99.165 1.467.697 1.595 1.742l.073 1.045v5.262c0 .201.074.275.257.275.403.018.843.091 1.302.128-.019.202-.074.385-.092.568h-3.85c-.018-.183-.073-.366-.092-.568l.99-.183v-.257-5.17-.165c-.036-1.302-.953-1.558-1.833-1.32-.293.092-.568.22-.843.385-.404.22-.789.495-1.21.77-.074.037-.11.128-.11.22v5.408c0 .129.036.184.165.184.22.018.513.091.861.128zm23.229-7.48l-.862-.202c.018-.202.037-.385.092-.568h3.226l.092.568-.99.128c-.183.018-.275.092-.348.275l-2.879 7.425-2.09 4.748c-.018.037-.11.128-.165.128h-1.943v-1.705h.88c.403.037.642-.11.843-.458l1.412-2.273c.018-.037.073-.11.11-.184a2.53 2.53 0 0 1-.403.092l-.587-1.522-2.42-6.288c-.073-.183-.165-.257-.348-.257l-.99-.128c.018-.202.073-.385.091-.568h4.015l.092.568-1.32.202.862 2.383.99 2.768c.165.44.256.88.275 1.357 0 .092.018.183.091.275l2.274-6.765zm-36.099 3.813c.019-1.173.294-2.291 1.119-3.208.696-.788 1.613-1.173 2.603-1.503 1.852-.568 3.942.495 4.675 2.401a5.44 5.44 0 0 1-.037 4.089c-.568 1.375-1.705 2.09-3.08 2.548-2.328.752-4.785-.788-5.188-3.41a17.57 17.57 0 0 1-.092-.917zm7.205-.183c-.018-.165-.018-.477-.073-.77-.128-.917-.477-1.723-1.21-2.365-1.045-.935-3.043-1.137-3.887.843-.476 1.119-.568 2.255-.293 3.41.202.88.605 1.632 1.338 2.2 1.064.789 2.714.844 3.539-.751.421-.77.55-1.595.586-2.567zm-23.283 21.395l.073.605-2.181.44-.569-1.43c-.073.037-.128.092-.201.128l-1.925 1.412c-.092.073-.22.11-.349.11-.605-.018-1.21-.183-1.686-.568-.844-.66-1.064-1.925-.569-2.952.184-.367.44-.605.844-.733l3.538-1.174c.165-.036.22-.11.202-.293l-.037-1.595c-.092-.788-.495-1.082-1.302-.99-.458.037-.88.183-1.338.293-.092.019-.183.129-.202.22a22.12 22.12 0 0 0-.293 1.174h-1.375v-1.247c0-.037.073-.11.11-.128l3.043-1.375c.037-.019.11-.037.165-.019.385.019.77.019 1.137.092.972.183 1.43.66 1.54 1.632l.092 1.338v3.832c0 .385.036.77.256 1.081.037.074.165.129.257.129a10.23 10.23 0 0 0 .77.018zm-2.823-3.52l-.257.092-2.475 1.026c-.293.11-.458.312-.55.605-.11.349-.092.679 0 .99a.96.96 0 0 0 1.027.77c.293-.018.605-.073.861-.201.459-.257.88-.569 1.32-.862a.21.21 0 0 0 .092-.165l-.018-2.255zm29.975 3.52c-.275 0-.514-.018-.77 0-.165 0-.22-.073-.294-.183-.183-.367-.22-.77-.22-1.174v-3.978c0-.477-.073-.972-.165-1.448-.091-.459-.311-.844-.751-1.064-.605-.293-1.247-.311-1.907-.293-.037 0-.073.018-.11.037l-3.025 1.356c-.037.019-.11.092-.128.129v1.246h1.301c.037 0 .11-.091.129-.128l.275-1.063c.018-.074.091-.184.128-.184.513-.11 1.045-.275 1.595-.311.678-.037 1.045.293 1.118.971l.037 1.632c0 .165-.073.202-.202.257l-3.593 1.21c-.403.128-.66.366-.825.733-.458.935-.348 2.017.312 2.732.55.586 1.265.77 2.035.788a.34.34 0 0 0 .22-.092l1.43-1.045.696-.513.569 1.43 2.181-.403c.019-.257-.018-.459-.036-.642zm-2.805-1.247c0 .037-.037.11-.092.129a18.67 18.67 0 0 1-1.247.843c-.385.22-.788.348-1.246.202-.312-.092-.514-.294-.66-.587-.165-.403-.165-.843-.019-1.247a.77.77 0 0 1 .495-.513l2.549-1.045c.073-.018.128-.037.22-.092a49.4 49.4 0 0 1 0 2.31zm-24.384-22.036v-1.229c0-.037.074-.128.129-.165l3.025-1.357c.275-.11.641-.018.953-.018.128 0 .275.018.403.073.972.202 1.449.752 1.504 1.852l.073 4.455.037.972c0 .092.018.165.036.257.129.495.184.55.697.55h.495a6.51 6.51 0 0 0 .073.586l-2.181.404-.569-1.43c-.091.073-.165.11-.22.165l-1.906 1.375c-.074.036-.165.11-.22.11-.88 0-1.705-.257-2.219-1.027-.55-.788-.55-1.65-.11-2.548.165-.367.404-.569.789-.697l3.556-1.173c.184-.074.257-.129.22-.312l-.036-1.467c-.037-.77-.44-1.137-1.21-1.063-.495.037-.972.183-1.467.293-.073.018-.165.128-.183.202l-.275 1.045c-.019.073-.11.128-.165.128-.349.055-.77.019-1.229.019zm4.62 1.851c-.11.037-.201.074-.275.11l-2.511 1.045c-.202.092-.367.202-.44.404-.202.476-.202.971.018 1.43.128.275.367.403.642.495.476.11.88-.019 1.301-.275l1.155-.77c.037-.037.11-.11.11-.184v-2.255zm25.96 21.634l1.522.183c-.018.183-.018.348-.073.477-.019.073-.129.11-.22.11-.55 0-1.064-.037-1.614-.037l-2.126.037h-.294c-.018-.202-.073-.367-.091-.587l1.375-.183v-11.495h-1.357c-.018-.184-.073-.367-.092-.587.99-.22 1.925-.678 2.989-.66l-.019 12.742zm-14.19-10.395v2.493h2.934v.788h-2.897c0 .11-.018.184-.018.275v5.244c0 .165.018.311.036.476.074.495.385.789.88.825.44.019.825-.091 1.229-.275.11-.036.256-.11.385-.165a15.77 15.77 0 0 0 .293.569l-1.412.788c-.091.073-.201.11-.293.183-.752.44-1.448.22-2.127-.128-.385-.202-.44-.642-.476-1.045l-.019-.88v-5.518-.312h-1.815c-.073-.202-.018-.348.11-.495.294-.367.66-.55 1.137-.458.202.018.403 0 .66 0v-.99c0-.129.073-.275.128-.367.22-.293.495-.568.752-.843.165-.22.165-.22.513-.165zm-20.551-15.657v2.328l.935-1.063 1.118-1.265a.48.48 0 0 1 .312-.128h1.246v1.687c-.348 0-.678-.018-.99 0-.22.018-.458.073-.641.165-.752.385-1.339.954-1.815 1.632-.037.037-.074.128-.074.183v4.419c0 .036 0 .073.019.128l1.925.183c-.019.22-.074.459-.092.642h-4.62c-.018-.183-.073-.367-.092-.568l1.21-.129c.129-.018.202-.073.202-.201v-6.674c0-.037 0-.073-.018-.128l-1.375.11c-.019-.202-.074-.385-.092-.605.935-.257 1.815-.66 2.842-.715zm17.765 26.235c-.019.202-.074.385-.092.568h-1.357l-2.548.019c-.367 0-.367 0-.44-.349-.018-.073-.018-.165-.018-.22l1.375-.183v-6.967l-1.375.092c-.019-.202-.074-.385-.092-.587.99-.22 1.943-.678 3.025-.66v8.122l1.522.165zm-2.53-9.497c-.037 0-.074.019-.11.019-.404.018-.514-.092-.587-.495-.073-.44-.037-.862.073-1.302.019-.073.074-.165.11-.165.495-.018 1.027-.165 1.522-.018.073.018.128.11.128.165.092.513.092 1.045-.073 1.558-.018.073-.11.128-.165.128-.293.055-.605.074-.898.11z" fill="#000"/></svg>