<svg xmlns="http://www.w3.org/2000/svg" width="222" height="222" fill="none" xmlns:v="https://vecta.io/nano"><g clip-path="url(#A)" fill="#356afe"><path d="M57.854 94.323c.82-.431 2.069-.431 2.889 0l8.371 4.399c.494.26.765.646.814 1.046h.008v22.112c-.011.435-.285.868-.822 1.15l-8.371 4.399c-.82.431-2.069.431-2.889 0l-8.371-4.399c-.535-.281-.792-.717-.804-1.15v-.108V99.91v-.072-.07h.004c.037-.404.296-.781.801-1.046l8.371-4.399zm10.764 17.781l-7.875 4.138c-.82.432-2.069.432-2.889 0l-7.858-4.129v9.723l7.858 4.107c.444.236.904.466 1.355.496l.09.002c.469.002.925-.235 1.387-.459l7.933-4.182v-9.696zm-21.301 9.295c0 .847.099 1.404.295 1.796.163.325.407.574.853.876l.026.017.337.215.155.095.475.285-.682 1.122-.532-.32-.089-.054-.4-.256c-1.272-.853-1.746-1.783-1.755-3.717v-.059h1.318zm11.322-15.222a1.15 1.15 0 0 0-.17.073l-8.371 4.399-.025.013-.007.005.013.007.019.01 8.371 4.399a1.15 1.15 0 0 0 .17.073v-8.979zm1.318 0v8.979c.061-.021.118-.045.17-.073l8.371-4.399.025-.013.007-.004-.013-.008-.019-.01-8.371-4.399c-.052-.028-.109-.052-.17-.073zm8.66-4.84l-7.509 3.946 7.509 3.946v-7.892zm-18.622.009v7.874l7.492-3.937-7.492-3.937zm10.132-5.864a2.09 2.09 0 0 0-1.658 0l-8.371 4.399-.025.014-.007.004.013.007.019.01 8.371 4.399a2.09 2.09 0 0 0 1.658 0l8.371-4.399.025-.014.007-.004-.013-.007-.019-.01-8.371-4.399zm9.728.482l.532.32.09.055.4.256c1.272.853 1.746 1.783 1.755 3.717v.059h-1.318c0-.847-.099-1.404-.295-1.796-.163-.325-.407-.574-.853-.876l-.025-.017-.337-.215-.155-.094-.476-.285.682-1.122zm16.163 24.994v-12.331h3.42v-2.258h-3.42v-1.621c0-1.833.802-2.75 2.405-2.75.464 0 .956.077 1.478.232v-2.403c-.638-.193-1.343-.29-2.116-.29-1.487 0-2.642.425-3.463 1.274s-1.232 2.084-1.232 3.705v1.853h-2.81v2.258h2.811v12.331h2.927zm11.882.202c1.121 0 2.101-.231 2.941-.695s1.474-1.128 1.899-1.997v2.49h2.898v-14.589h-2.898v2.373a4.75 4.75 0 0 0-1.913-2.011c-.831-.473-1.806-.71-2.927-.71-1.256 0-2.376.319-3.362.956s-1.753 1.534-2.304 2.692-.826 2.489-.826 3.994.27 2.822.811 3.951 1.299 2.002 2.275 2.62 2.111.926 3.405.926zm.696-2.315c-1.333 0-2.372-.454-3.115-1.361s-1.116-2.18-1.116-3.821c0-1.659.372-2.957 1.116-3.893s1.772-1.404 3.086-1.404c1.333 0 2.361.454 3.087 1.361s1.087 2.199 1.087 3.878c0 1.66-.363 2.948-1.087 3.865s-1.744 1.375-3.058 1.375zm14.23 2.113v-8.308c0-1.293.371-2.325 1.115-3.097s1.734-1.158 2.971-1.158c1.082 0 1.869.289 2.362.868s.738 1.506.738 2.779v8.916h2.927v-9.089c0-3.898-1.748-5.848-5.245-5.848-1.12 0-2.12.247-2.999.739s-1.551 1.201-2.014 2.127l-.261-2.518h-2.724c.154 1.216.232 2.586.232 4.11v10.479h2.898zm19.909.202c.811 0 1.536-.106 2.173-.318v-2.374c-.522.155-1.033.232-1.536.232-.773 0-1.376-.208-1.811-.623s-.652-1.124-.652-2.127v-7.323h4.028v-2.258h-4.028v-4.661l-2.927 1.014v3.647h-2.84v2.258h2.84v7.555c0 1.621.415 2.856 1.246 3.705s2 1.273 3.507 1.273zm11.186 0c1.41 0 2.656-.309 3.738-.926s1.918-1.496 2.507-2.634.884-2.47.884-3.995-.295-2.861-.884-4.009-1.425-2.031-2.507-2.648-2.328-.927-3.738-.927c-1.43 0-2.686.309-3.767.927s-1.918 1.5-2.507 2.648-.884 2.485-.884 4.009.295 2.856.884 3.995 1.425 2.016 2.507 2.634 2.337.926 3.767.926zm-.029-2.315c-1.333 0-2.362-.444-3.087-1.332s-1.086-2.19-1.086-3.908c0-1.679.367-2.971 1.101-3.878s1.768-1.361 3.101-1.361c1.314 0 2.333.454 3.057 1.361s1.087 2.199 1.087 3.878c0 1.718-.358 3.02-1.072 3.908s-1.749 1.332-3.101 1.332zm13.475 2.113v-8.25c0-1.332.329-2.383.986-3.155s1.545-1.158 2.666-1.158c.966 0 1.666.289 2.101.868s.652 1.496.652 2.75v8.945h2.927v-8.25c0-1.332.323-2.383.971-3.155s1.531-1.158 2.651-1.158c.966 0 1.667.289 2.101.868s.652 1.496.652 2.75v8.945H176v-9.089c0-3.898-1.622-5.848-4.868-5.848-1.082 0-2.053.251-2.913.753s-1.511 1.187-1.956 2.055c-.695-1.872-2.173-2.808-4.434-2.808-1.062 0-1.99.242-2.782.724s-1.4 1.168-1.825 2.055l-.261-2.431h-2.724c.154 1.216.231 2.586.231 4.11v10.479h2.898z"/></g><defs><clipPath id="A"><path fill="#fff" transform="translate(46 94)" d="M0 0h130v33.752H0z"/></clipPath></defs></svg>