<svg xmlns="http://www.w3.org/2000/svg" width="222" height="222" fill="none" xmlns:v="https://vecta.io/nano"><g clip-path="url(#A)" fill="#0010db"><path d="M104.591 110.038l11.439 11.439-5.04 5.04-11.439-11.439-8.803 8.803c4.438 6.972 11.976 11.126 20.256 11.126s15.818-4.147 20.256-11.126l-20.256-20.256-6.413 6.413zM111.004 87C97.771 87 87 97.764 87 111.004a24.08 24.08 0 0 0 .712 5.824l23.292-23.284 23.284 23.292a24.14 24.14 0 0 0 .712-5.825C135 97.764 124.236 87 111.004 87z"/></g><defs><clipPath id="A"><path fill="#fff" transform="translate(87 87)" d="M0 0h48v48H0z"/></clipPath></defs></svg>