<svg xmlns="http://www.w3.org/2000/svg" width="222" height="222" fill="#000" xmlns:v="https://vecta.io/nano"><path d="M59.596 115.657c-.046 0-.139.046-.139.093a.59.59 0 0 0-.116.278c-.169.728-.434 1.429-.788 2.087a7.32 7.32 0 0 1-1.136 1.669c-.554.611-1.269 1.054-2.064 1.276a4.61 4.61 0 0 1-1.368.232h-5.379c-.069 0-.139-.024-.232-.024v-18.712c-.003-.019-.001-.038.005-.056s.016-.035.03-.048.03-.024.048-.03a.12.12 0 0 1 .056-.005h2.991v-.394h-9.066v.394h3.107v18.898h-3.084v.371h17.274v-5.867c.002-.02 0-.04-.006-.059s-.016-.036-.029-.051-.029-.028-.047-.037-.037-.014-.057-.015zm4.29-18.735h-.649v29.842h.649V96.922zm15.605 12.683c-.07-.232-.116-.464-.162-.696a9.65 9.65 0 0 0-1.438-2.991 8.76 8.76 0 0 0-1.345-1.437 10.61 10.61 0 0 0-1.484-1.021c-.582-.331-1.196-.603-1.832-.811-.541-.201-1.1-.348-1.669-.441l-1.322-.162-.904-.046-1.484-.047a10.86 10.86 0 0 0-.904.047l-.811.046c.046.348.046.371.371.371l1.113-.046a15.94 15.94 0 0 1 2.574.139l1.183.255c.488.149.962.343 1.414.58a6.59 6.59 0 0 1 1.438 1.066 6.82 6.82 0 0 1 1.438 2.203c.356.9.59 1.843.696 2.806 0 .092.023.347.023.347a25.48 25.48 0 0 1 .046 3.85l-.023.185-.232 1.53a8.66 8.66 0 0 1-.603 1.855l-.603 1.183a5.49 5.49 0 0 1-1.493 1.75c-.615.472-1.324.808-2.078.986a11.76 11.76 0 0 1-1.994.278c-.649.047-1.299.023-1.948.023h-1.113c-.116.256-.093.302.185.325.184.027.37.043.557.046l3.617-.046a13.43 13.43 0 0 0 1.693-.255 8.42 8.42 0 0 0 2.087-.788 15.68 15.68 0 0 0 1.554-.951c.727-.515 1.369-1.141 1.901-1.855a10.92 10.92 0 0 0 1.136-1.948 11.03 11.03 0 0 0 .603-2.063c.013-.069.021-.139.023-.209.145-1.289.113-2.592-.093-3.872-.031-.022-.057-.049-.077-.081a.28.28 0 0 1-.039-.105zm12.275 8.603a6.4 6.4 0 0 1-4.526-10.925c1.2-1.201 2.828-1.875 4.525-1.875 1.675-.005 3.284.654 4.475 1.832l.974-.997a7.79 7.79 0 0 0-3.999-2.09c-1.51-.287-3.071-.12-4.487.478a7.79 7.79 0 0 0-4.758 7.209c.006 1.537.467 3.038 1.325 4.314a7.79 7.79 0 0 0 7.984 3.296c1.508-.3 2.893-1.039 3.982-2.124l-.974-.973c-1.206 1.186-2.83 1.852-4.522 1.855zm42.967-13.982h-1.391v14.979h1.391v-14.979zm3.571 1.252h5.379v13.727h1.391v-13.727h5.38v-1.392h-12.15v1.392zm32.346 12.359v-13.681h-1.391v15.072h9.924v-1.391h-8.533zm-47.024-13.751h-6.33v15.119h1.391v-4.731h4.939c1.378 0 2.699-.547 3.673-1.521s1.521-2.295 1.521-3.673a5.19 5.19 0 0 0-1.521-3.672c-.974-.974-2.295-1.522-3.673-1.522zm0 8.997h-4.939v-7.605h4.939a3.8 3.8 0 0 1 3.803 3.802c0 1.009-.401 1.976-1.114 2.689a3.8 3.8 0 0 1-2.689 1.114zm-17.924-8.881l-6.724 15.072h1.53l1.809-4.058h8.393l1.855 4.058h1.531l-6.887-15.072h-1.507zm-2.759 9.623l3.501-7.907 3.617 7.907h-7.118zm54.398-9.669l-6.725 15.072h1.531l1.808-4.058h8.394l1.855 4.058h1.53l-6.886-15.072h-1.507zm-2.76 9.646l3.525-7.907 3.617 7.907h-7.142z"/></svg>