<svg xmlns="http://www.w3.org/2000/svg" width="222" height="222" fill="#0b3460" xmlns:v="https://vecta.io/nano"><path d="M60 94.002l9.983 5.594.007 27.697L60 121.27V94.002zm15.081 0l9.983 5.601.002 27.688-9.986-6.017.001-27.272zm15.086 27.266L90.171 94l9.972 5.593.009 27.701-9.985-6.026zm41.382-23.554c2.076-1.112 4.567-1.143 6.825-.664 1.857.405 3.455 1.523 4.788 2.837l-2.42 2.488c-.903-.74-1.82-1.521-2.946-1.896-1.376-.459-2.945-.444-4.267.184-1.045.507-1.769 1.529-2.102 2.622-.365 1.22-.373 2.527-.179 3.778.212 1.26.785 2.557 1.905 3.258 1.274.847 2.924.862 4.353.445.84-.276 1.602-.901 1.905-1.748.182-.436.217-.914.237-1.38-1.508.002-3.016-.005-4.525.003v-3.227h7.986l-.002 9.561-2.902-.001-.133-1.458c-.755.96-1.915 1.54-3.113 1.707-2.129.331-4.461.052-6.256-1.214-1.782-1.271-2.966-3.307-3.303-5.459-.342-2.171-.224-4.506.829-6.477.768-1.394 1.891-2.63 3.32-3.359zm17.601.107c2.029-1.087 4.449-1.297 6.685-.843 1.609.306 2.978 1.292 4.189 2.348l-2.256 2.632c-1.095-.92-2.377-1.807-3.858-1.846-1.093-.056-2.262.177-3.112.91-1.192.976-1.737 2.549-1.78 4.054-.051 1.497.165 3.114 1.131 4.317.988 1.323 2.805 1.794 4.378 1.502 1.355-.23 2.462-1.109 3.514-1.931l2.194 2.614c-1.427 1.274-3.106 2.392-5.038 2.662-1.96.273-4.05.088-5.814-.863-1.544-.808-2.741-2.19-3.464-3.761-.846-2.016-1-4.296-.573-6.43.451-2.213 1.824-4.248 3.804-5.365zm-38.737-.679l4.109-.004 5.739 9.397 1.06 1.814c-.235-3.716-.071-7.454-.133-11.179l3.712.005v16.798c-1.337-.005-2.673-.003-4.01 0l-3.575-5.811c-1.148-1.88-2.335-3.744-3.337-5.709.194 3.826.127 7.658.14 11.487h-3.706V97.142h.001zm-.254 21.058h.66l2.038 6.317 2.068-6.346.631-.004-2.34 6.895h-.752l-2.305-6.862zm23.348.394l.51-.014-.003 1.427 1.143-.004-.012.501-1.125-.003-.01 4.058 1.067-.002v.504c-.507-.087-1.254.243-1.563-.313-.092-.154-.05-.345-.064-.514l-.005-3.733-.863.002-.009-.496c.294-.046.708.136.904-.168.053-.413.013-.831.03-1.245zm-6.273 1.353c.532-.095 1.157-.109 1.585.275.484.339.638.963.645 1.523l.004 3.317c-.186-.001-.372-.001-.556 0v-3.079c-.012-.437-.055-.927-.384-1.249-.332-.377-.892-.371-1.348-.295-.47.074-.916.448-.927.949l-.003 3.674-.574-.001v-5.054l.571.002-.005.831c.217-.401.526-.788.993-.893h-.001zm-8.083.164c.806-.369 1.886-.282 2.497.408.532.563.624 1.38.647 2.12l-3.752-.003c-.025.609.085 1.299.585 1.707.83.642 2.226.356 2.613-.666l.411.287c-.574 1.264-2.43 1.619-3.43.664-.725-.696-.826-1.792-.711-2.738.089-.724.483-1.432 1.14-1.779zm-.126.722c-.36.365-.484.887-.495 1.385l3.148.005c-.022-.548-.137-1.134-.559-1.519-.588-.496-1.581-.457-2.094.129zm19.393-.832l.562.011.015 3.397c.007.481.251.997.721 1.178.529.153 1.177.118 1.599-.274.249-.228.327-.578.32-.905l-.005-3.405.562.006v5.053c-.187-.001-.373 0-.557 0l-.005-.813c-.401 1.035-1.912 1.226-2.675.497-.412-.357-.526-.93-.53-1.449l-.007-3.296zm8.701.285c.384-.273.881-.233 1.328-.257v.532c-.476.024-.994-.025-1.419.23-.288.165-.486.484-.459.821v3.45c-.193-.001-.384-.001-.575 0l-.001-5.028.576.007-.001.914c.155-.244.302-.508.551-.669zm4.929-.046c.871-.555 2.222-.457 2.844.428.426.556.515 1.282.516 1.962h-3.736c-.043.615.084 1.313.59 1.719.827.647 2.226.348 2.589-.68l.402.269c-.54 1.279-2.425 1.655-3.416.694-.599-.545-.747-1.401-.746-2.175-.003-.823.27-1.711.957-2.217zm.04.636c-.331.366-.435.868-.455 1.347h3.156c-.033-.491-.109-1.011-.448-1.391-.556-.668-1.709-.61-2.253.044zm6.995-.694c.9-.483 2.164-.331 2.795.521l-.357.333c-.466-.558-1.246-.792-1.941-.571-.661.157-.823 1.19-.229 1.527.602.34 1.352.157 1.956.501.923.396.904 1.89.067 2.372-1.004.605-2.432.325-3.117-.634l.425-.318c.476.758 1.516 1.02 2.309.628.537-.263.592-1.113.137-1.475-.663-.408-1.554-.188-2.18-.681-.724-.511-.656-1.788.135-2.203z"/></svg>