<svg xmlns="http://www.w3.org/2000/svg" width="222" height="222" fill="none" xmlns:v="https://vecta.io/nano"><path d="M99.884 84.318c.227-.76 1.144-.662 1.767-.666 1.088-.007 2.177.134 3.21.479 3.822 1.199 6.638 4.949 6.709 8.959 1.49-2.858 4.46-4.831 7.661-5.156l-.084-.343c.087.103.16.216.22.34.742.028 1.502-.082 2.234.075.718.279.589 1.195.608 1.817.04 2.931-1.317 5.838-3.609 7.669-1.811 1.49-4.17 2.248-6.507 2.171l-.002 1.457-.001 1.715c.378.004.756.009 1.136-.009 1.974.187 3.957.365 5.895.816 1.997.46 4.001 1.08 5.726 2.22.966.657 1.87 1.575 2.088 2.767.124.502-.023 1.011-.026 1.516.151 1.171.052 2.355.08 3.531-.012.953.057 1.912-.105 2.858.206.833.067 1.699.105 2.549-.028 1.281.08 2.571-.099 3.844.188.854.066 1.733.099 2.6-.028 1.105.059 2.215-.044 3.318-.238 1.516-1.53 2.569-2.795 3.278-2.622 1.431-5.609 2.011-8.547 2.375-4.434.493-8.966.305-13.312-.723-2.112-.549-4.285-1.256-5.942-2.734-.831-.72-1.375-1.777-1.335-2.893.033-1.793-.091-3.593.087-5.377-.178-1.689-.047-3.39-.096-5.084-.033-.453.108-.894.098-1.343-.162-1.286-.066-2.584-.091-3.876.023-.789-.084-1.591.115-2.364a3.49 3.49 0 0 1 1.007-3.369c1.828-1.802 4.404-2.515 6.828-3.111 1.938-.411 3.908-.669 5.886-.768l1.063-.031-.001-1.71v-2.826l.001-2.896c-2.46.127-4.896-.782-6.771-2.358-1.609-1.457-2.768-3.409-3.174-5.549-.117-1.049-.281-2.124-.082-3.168zm2.097 1.5c.024 1.052.254 2.095.702 3.05 1.173 2.579 3.889 4.355 6.726 4.377-.012-3.346-2.573-6.509-5.853-7.157l-.103.052-.028-.108c-.465-.16-.963-.158-1.444-.214zm12.918 6.409c-1.422 1.366-2.248 3.297-2.299 5.266 1.41-.035 2.846-.411 3.993-1.256 2.106-1.276 3.415-3.717 3.441-6.169l-.559.035c-1.713.148-3.353.92-4.576 2.124zm-8.825 13.019c-2.584.474-5.257.95-7.53 2.349-.591.402-1.316.904-1.352 1.692.314 1.051 1.387 1.581 2.29 2.053 3.079 1.422 6.501 1.891 9.86 2.067 4.154.115 8.415-.185 12.327-1.691 1.11-.483 2.344-.997 3.018-2.06.427-.808-.434-1.509-1.019-1.934-2.311-1.478-5.066-2.035-7.739-2.44-1.278-.144-2.557-.28-3.843-.277l.005.812c-.026.873.047 1.75-.035 2.62-.193.984-1.787 1.085-2.077.116-.132-.894-.08-1.812-.015-2.709-.455-.034-.938.041-1.358-.164a32.13 32.13 0 0 0 1.354.01v-.577c-1.291.034-2.609-.066-3.886.133zm-8.891 7.319c.021.96-.012 1.92.012 2.88-.019.664.521 1.15 1.005 1.52 1.323.944 2.896 1.452 4.449 1.88 3.933.99 8.044 1.173 12.073.798 2.772-.291 5.583-.808 8.094-2.066.776-.434 1.689-.924 1.969-1.83.066-1.056 0-2.116.03-3.173-2.035 1.315-4.412 1.958-6.768 2.417-4.238.761-8.6.812-12.861.202-2.776-.443-5.609-1.091-8.004-2.628zm-.002 6.367c.045 1.074-.052 2.154.047 3.224.392 1.058 1.525 1.57 2.468 2.049 4.012 1.736 8.471 2.071 12.793 1.971 2.993-.127 6.01-.533 8.836-1.563.999-.381 1.999-.827 2.816-1.532.34-.311.694-.705.666-1.2.021-.978-.01-1.954.009-2.929-1.868 1.219-4.043 1.852-6.206 2.308-4.295.854-8.735.95-13.073.363-2.894-.436-5.871-1.068-8.355-2.691zm0 6.403c.052 1.087-.072 2.185.066 3.265.399.954 1.403 1.447 2.269 1.903 3.345 1.518 7.064 1.962 10.703 2.079 3.459.046 6.962-.27 10.278-1.3 1.199-.388 2.391-.866 3.408-1.622.417-.338.88-.765.899-1.34.023-.994-.007-1.987.009-2.978-2.013 1.287-4.351 1.939-6.674 2.392-4.163.767-8.452.828-12.644.265-2.883-.429-5.822-1.087-8.314-2.664z" fill="#242528"/><path d="M104.619 75.331c3.721-1.652 8.088-1.762 11.902-.355a15.7 15.7 0 0 1 6.079 4.019c2.633 2.752 4.198 6.496 4.316 10.302.296 5.725-2.795 11.516-7.796 14.346-1.938-.452-3.921-.629-5.896-.816l.154-.153.028.174c3.004-.565 5.755-2.241 7.697-4.593s3.058-5.379 3.013-8.434c-.005-2.956-1.109-5.871-2.966-8.157-1.79-2.215-4.331-3.79-7.087-4.48-2.733-.657-5.688-.424-8.255.735-2.618 1.124-4.822 3.145-6.239 5.611-1.436 2.452-1.929 5.404-1.551 8.208.687 5.519 5.328 10.292 10.829 11.12a37.41 37.41 0 0 0-5.887.768c-1.62-.807-3.002-2.063-4.164-3.441-2.394-2.884-3.795-6.615-3.701-10.379-.075-6.15 3.884-12.069 9.525-14.472zm.831 4.824c1.906-1.089 4.139-1.582 6.327-1.429 2.708.169 5.349 1.361 7.246 3.306a11.2 11.2 0 0 1 3.236 8.487 11.14 11.14 0 0 1-3.359 7.45c-1.808 1.814-4.265 2.927-6.811 3.152l.002-1.457c2.337.077 4.696-.681 6.507-2.171 2.292-1.832 3.649-4.738 3.609-7.669-.019-.622.11-1.539-.608-1.817-.732-.157-1.492-.047-2.234-.075a1.57 1.57 0 0 0-.22-.34c-.636-2.039-2.023-3.849-3.874-4.93-2.026-1.22-4.581-1.446-6.829-.756-1.366.413-2.574 1.229-3.583 2.227-1.033-.345-2.122-.486-3.21-.479 1.008-1.411 2.278-2.654 3.801-3.497zm-3.471 5.663c.48.056.979.054 1.444.214l.028.108c-.378.868-.72 1.77-.77 2.727-.448-.955-.678-1.997-.702-3.05zm-2.015 1.668c.406 2.14 1.565 4.092 3.173 5.548 1.144 2.781 3.768 4.885 6.771 5.254v2.827c-3.683-.291-7.095-2.588-8.82-5.843-1.343-2.351-1.484-5.16-1.124-7.786zm19.508 2.617l.559-.035c-.026 2.452-1.334 4.893-3.441 6.169 1.751-1.535 2.812-3.806 2.882-6.134zm-13.4 15.144c1.278-.199 2.595-.1 3.888-.133v.577c-.455.005-.906.003-1.356-.01-.82-.082-1.596-.413-2.422-.436l-.11.002zm6.011-.241c1.286-.003 2.565.133 3.842.277-1.294.028-2.532.535-3.837.535l-.005-.812z" fill="#00ffa3"/></svg>