<svg xmlns="http://www.w3.org/2000/svg" xmlns:xlink="http://www.w3.org/1999/xlink" width="222" height="222" fill="none" xmlns:v="https://vecta.io/nano"><g clip-path="url(#F)"><path d="M93.787 102.462c.006-.592.526-1.12 1.116-1.13l10.055-.001v2.367h-8.21c-.202-.009-.413.086-.512.269-.107.17-.095.378-.093.571.006.181-.025.375.062.543.108.22.367.321.601.312l6.882-.001c.653-.06 1.287.5 1.271 1.166v6.377c-.003.196.015.397-.041.587a1.17 1.17 0 0 1-.757.801c-.219.083-.457.056-.685.059h-9.69v-2.36l8.157-.001c.166.002.346-.03.469-.151.155-.147.202-.37.196-.576l-.004-2.965c.009-.329-.3-.577-.613-.568-2.224-.003-4.447 0-6.67-.001-.247-.005-.502.026-.739-.061-.455-.15-.795-.603-.795-1.087l.001-4.15h0 0zm61.089-1.124l2.445.005c.164.156.264.372.405.551l2.124 3.069c.095.133.177.295.336.362.25.12.585.043.735-.198l2.565-3.707c.053-.113.186-.077.288-.084l2.226.012v.011l-2.866 4.129c-.101.15-.226.295-.252.479-.025.154.034.305.087.448l3.031 7.942v.032c-.817.001-1.634-.002-2.45.001l-2.184-5.726c-.093-.231-.15-.498-.36-.654-.412-.365-1.148-.208-1.354.31l-2.319 6.071-2.457-.001 3.085-8.098a.61.61 0 0 0-.061-.585l-3.024-4.369zm-37.688 8.304l-.001-3.09c-.001-.487-.34-.948-.8-1.097-.202-.072-.418-.063-.627-.062-2.842.002-5.683-.002-8.525.001a1.18 1.18 0 0 0-.66.212c-.194.135-.343.325-.427.546-.094.23-.08.483-.079.727v6.329c-.012.605.508 1.161 1.114 1.173l6.497.001.001-2.356c-1.583-.01-3.168.001-4.751-.005-.198.001-.418-.1-.477-.304-.109-.285.102-.659.423-.643l6.774-.002c.229-.003.465.019.688-.048.38-.105.692-.418.801-.797.06-.188.047-.389.049-.584v-.001zm-2.806-.938c-1.747.002-3.495-.001-5.243.001-.187.001-.396.02-.551-.107-.256-.196-.196-.657.092-.793.075-.037.162-.044.247-.045h5.403c.212-.009.444.123.488.345.075.277-.13.617-.436.599h0zm3.863-3.323l2.469.008 2.312 6.106c.151.428.676.646 1.09.477a.86.86 0 0 0 .477-.468l2.324-6.117h2.46l-3.174 8.362c-.067.17-.115.362-.259.486-.118.114-.286.156-.446.153h-3.386c-.132.007-.262-.029-.371-.103a.6.6 0 0 1-.234-.307l-3.262-8.598v.001zm23.262 1.178c.008-.649-.592-1.209-1.235-1.166-2.914.002-5.829-.002-8.744.002a1.18 1.18 0 0 0-1.137 1.115v6.75c.01.601.548 1.13 1.146 1.123l6.457-.001v-2.36c-1.552.001-3.104-.001-4.656.001-.18.006-.382-.03-.5-.179-.221-.273-.034-.777.339-.769l6.773-.003c.247-.005.503.023.742-.059a1.18 1.18 0 0 0 .517-.339c.139-.156.233-.347.274-.553.029-.159.025-.321.026-.482l-.002-3.08h0zm-2.774 2.142l-5.45.004c-.148.003-.304-.029-.411-.137-.223-.218-.143-.657.148-.773.082-.035.173-.034.262-.036h5.239c.179-.007.385.009.514.152.246.258.075.787-.302.79zm4.599-3.224c.271-.115.57-.079.857-.084h7.939c.284.004.582-.029.851.088.446.177.747.649.731 1.13l.001 7.778c-.783.002-1.566-.005-2.349.004l-.009-6.029c.004-.21-.1-.428-.294-.521-.158-.088-.343-.088-.518-.084-1.676.004-3.352-.002-5.027.003-.322-.011-.575.293-.564.604l-.001 6.023h-2.357l.001-7.833c.003-.232.075-.459.207-.651a1.19 1.19 0 0 1 .532-.428z" fill="#503c91"/><path d="M93.785 116.7c.338-.021.678-.01 1.017-.006l1.017 3.185c.027.09.073.185.169.217.142.058.301-.047.332-.192l1.02-3.208 1.023-.006-1.326 4.185c-.026.114-.107.232-.237.225l-1.423.002c-.12.012-.226-.069-.251-.185l-1.341-4.217zm31.291-.003l.973-.001.003.451c-.001.111.076.23.193.241.254.015.508.002.763.002l.01.973c-.26.022-.52-.008-.779.017-.141.017-.201.173-.189.299v2.423h-.974l.001-2.419c.007-.112-.025-.243-.138-.29-.106-.03-.219-.021-.327-.028l-.002-.96c.146-.025.354.031.435-.132.061-.184.019-.386.031-.576zm-16.446 1.187a.49.49 0 0 0-.5-.489c-1.199-.001-2.397-.003-3.596.001a.48.48 0 0 0-.482.488l-.001 2.714a.48.48 0 0 0 .482.499l2.655-.001-.001-.976c-.673-.007-1.347.01-2.019-.007-.222-.032-.168-.405.054-.376l2.914-.004a.48.48 0 0 0 .343-.131c.093-.088.146-.209.15-.336l.001-1.382h0zm-1.187.872c-.758-.002-1.516.009-2.273-.005-.18-.024-.195-.305-.032-.364l2.096-.016c.13.01.295-.036.391.081.091.127-.018.338-.182.304zm6.88-.868a.5.5 0 0 1 .034-.188.49.49 0 0 1 .105-.16c.045-.045.098-.082.157-.107s.123-.037.187-.037l3.597-.001a.48.48 0 0 1 .191.034c.061.024.116.06.162.106s.084.101.108.162.038.125.037.19l.001 3.217c-.325-.001-.65.003-.975-.004v-2.473c.015-.146-.12-.263-.259-.253-.673-.007-1.345 0-2.017-.004-.099.005-.216-.01-.287.074-.079.077-.068.194-.07.296l.001 2.362h-.974l.002-3.215v.001zm18.384-.491l.972-.002-.001 2.408c.001.091.004.202.085.261.087.074.208.052.315.057l2.016-.004c.137.007.231-.136.218-.264v-2.454l.977.007-.005 3.248c-.008.259-.258.465-.51.449h-3.542c-.28.024-.541-.222-.525-.505v-3.202.001zm10.244.492c-.016-.269.228-.508.495-.494h1.913v.976c-.409.005-.818-.008-1.226.005-.124.005-.217.129-.208.249v2.477h-.974v-3.213zm12.734.154c-.004-.14.012-.295-.07-.418-.095-.161-.285-.242-.465-.232-1.183.003-2.365-.002-3.547.002-.066-.001-.131.011-.191.036a.49.49 0 0 0-.163.107c-.046.046-.083.101-.107.162a.48.48 0 0 0-.037.191l-.003 2.656c-.01.173.054.355.199.458.127.105.301.095.456.094l2.485-.005v-.973c-.67-.008-1.339.008-2.009-.007-.234-.021-.179-.416.054-.378l2.913-.003c.252.012.487-.21.482-.465l.003-1.224v-.001zm-1.175.713c-.757-.002-1.516.009-2.273-.005-.192-.01-.209-.308-.038-.367l2.155-.014c.111.006.259-.021.333.091.074.124-.018.319-.177.295zm8.15-.384l3.34-.004v-.974c-1.359.001-2.718-.002-4.077.001-.264-.014-.509.221-.495.489l.002 1.38c-.01.261.234.485.491.47l2.917.006c.251-.026.252.403.005.377l-3.415.003-.001.983 4.091-.002c.213.012.367-.149.482-.308v-1.679c-.078-.194-.255-.357-.472-.354-.972-.009-1.945.004-2.916-.004-.15.024-.263-.141-.194-.274.036-.101.15-.111.242-.11h0z" fill="#9fa1a0"/><path d="M59.331 106.114l13.451 20.256h6.723l-13.43-20.256h-6.744z" fill="url(#A)"/><path d="M59.375 96h20.348l-16.969 25.282H56l10.075-15.168 3.306-5.07H56L59.375 96z" fill="url(#B)"/><path d="M82.811 111.185l-3.336 5.203-10.094-15.344H56l3.331 5.071h6.744l13.43 20.255 6.729-10.129-3.423-5.056h0z" fill="url(#C)"/><path d="M79.722 96l-16.968 25.282 3.291 5.088 16.766-25.326L79.722 96z" fill="url(#D)"/><path d="M76.053 111.185h6.759l-3.336 5.203-3.423-5.203z" fill="url(#E)"/><path d="M56 121.282h6.754l3.291 5.088h-6.715L56 121.282z" fill="#cfcbc9"/></g><defs><linearGradient id="A" x1="473" y1="711.381" x2="1251.65" y2="1910.98" xlink:href="#G"><stop stop-color="#f6b969"/><stop offset=".93" stop-color="#cecdcb"/></linearGradient><linearGradient id="B" x1="30.83" y1="1886.12" x2="1116.4" y2="155.921" xlink:href="#G"><stop stop-color="#ef7124"/><stop offset=".98" stop-color="#f2bb3c"/></linearGradient><linearGradient id="C" x1="632.298" y1="433.851" x2="2279.32" y2="2338.65" xlink:href="#G"><stop stop-color="#443a93"/><stop offset=".98" stop-color="#95539d"/></linearGradient><linearGradient id="D" x1="633.88" y1="2536.05" x2="2133.33" y2="1006.18" xlink:href="#G"><stop offset=".02" stop-color="#95539d"/><stop offset="1" stop-color="#493a94"/></linearGradient><linearGradient id="E" x1="553.765" y1="354.998" x2="550.915" y2="449.26" xlink:href="#G"><stop stop-color="#e8bd86"/><stop offset=".93" stop-color="#cecdcb"/></linearGradient><clipPath id="F"><path fill="#fff" transform="translate(56 96)" d="M0 0h110v30.482H0z"/></clipPath><linearGradient id="G" gradientUnits="userSpaceOnUse"/></defs></svg>