<svg xmlns="http://www.w3.org/2000/svg" width="222" height="222" fill="none" xmlns:v="https://vecta.io/nano"><g clip-path="url(#A)" fill-rule="evenodd"><path d="M96.659 131.326v5.602h8.182v2.036h-8.182V141h10.228v-6.109h-8.184v-1.528h4.113v-2.037h-6.157zm31.324 0v5.422h-1.437v-5.422h-22.097v2.037h5.994V141h2.046v-7.637h3.827V141h2.047v-2.137h6.138V141h2.045v-2.147h1.437V141h2.046v-2.137h4.681l.36 2.137h2.43l-.387-2.137h1.099v-7.537h-10.229 0 0zm2.046 5.422h6.137v-3.385h-6.138v3.385h.001 0zm-11.666 0h6.138v-3.385h-6.138v3.385h0zm21.066-5.422v2.037h7.122l-7.122 5.601V141h10.228v-2.036h-7.108l7.108-5.601v-2.037h-10.228z" fill="#ff0002"/><path d="M72 131.06v5.747h8.398v4.179h2.099v-9.926H72zm2.099 3.656h6.298v-1.568h-6.298v1.568zm10.221-3.656v5.747h8.398v4.179h2.1v-9.926H84.32h-.001zm2.1 3.656h6.299v-1.568h-6.299v1.568zm7.361-40.28l3.252 2.422-3.079 9.989 16.804-12.536-16.977.125h-.001z" fill="#151df4"/><path d="M125.43 99.571l-12.545 8.677 4.126 2.963-12.677-.023 41.728-30.187-35.433 3.95L75.583 81l14.569 10.771h28.486l-40.481 30.227 31.95-3.812 31.404 3.812-14.111-10.412-1.97-12.015v-.001.001z" fill="#ff0002"/></g><defs><clipPath id="A"><path fill="#fff" transform="translate(72 81)" d="M0 0h78v60H0z"/></clipPath></defs></svg>