<svg xmlns="http://www.w3.org/2000/svg" width="222" height="222" fill="none" xmlns:v="https://vecta.io/nano"><path fill-rule="evenodd" d="M51 111v24h60 60v-24-24h-60-60v24zm13.52-14.24l2.9 6.88 1.649 3.784c.137.256.448.643.69.86l.44.396h-1.714c-.943 0-1.714-.016-1.714-.036s.091-.127.203-.237c.411-.404.28-.929-.955-3.847l-.677-1.6-2.73-.021-2.73-.021-.747 1.821c-1.15 2.801-1.194 3.083-.59 3.721l.209.22h-1.475-1.475l.395-.389c.264-.26.518-.639.763-1.14.305-.622 2.419-5.54 5.441-12.653.314-.738.58-1.332.593-1.32s.698 1.624 1.524 3.582zm44.89 3.901l2.951 7.766c.372.896-.344-.448-2.906-5.458l-2.953-5.625c-.037.011-1.369 2.566-2.96 5.679l-2.924 5.628c-.045-.045 5.838-15.491 5.9-15.49.028.001 1.329 3.376 2.892 7.5zm-14.345-6.903c.802.165 1.558.411 2.134.694l.468.23-.005 1.179-.004 1.179-.178-.237c-.721-.956-1.71-1.675-2.769-2.014-.504-.161-.884-.221-1.6-.25-1.182-.048-1.97.101-2.92.553-.57.271-.82.457-1.425 1.058-.587.583-.802.865-1.075 1.409-.639 1.274-.893 2.734-.751 4.316.097 1.081.315 1.855.789 2.802.317.633.501.879 1.114 1.487.601.596.862.79 1.426 1.062 1.088.525 1.857.679 3.13.629 1.562-.062 2.881-.492 3.874-1.265.163-.127.32-.231.349-.231s.042.225.029.5l-.024.5-.505.333c-1.366.901-3.587 1.383-5.321 1.156-3.21-.422-5.584-2.436-6.423-5.449-.168-.605-.189-.848-.185-2.2.004-1.31.029-1.609.183-2.16.466-1.668 1.545-3.212 2.86-4.094.951-.637 2.314-1.139 3.537-1.302.767-.102 2.543-.041 3.293.113zm-17.796.123c1.339.125 2.349.514 3.036 1.171 1.221 1.167 1.452 3.087.554 4.609-.536.909-1.85 1.863-2.778 2.018-.183.03-.332.085-.332.121 0 .106 3.621 4.612 4.275 5.32.325.352.829.82 1.121 1.04s.532.428.535.462-.552.052-1.233.04l-1.238-.022-2.945-3.68-2.949-3.74c-.002-.033.436-.06.974-.06.759 0 1.078-.035 1.427-.155 2.153-.745 2.834-3.63 1.254-5.315-.713-.761-1.488-1.006-3.193-1.008l-1.039-.001.022 6.5.022 6.5.181.332c.099.183.278.408.397.5l.216.168h-1.64-1.64l.279-.275c.516-.507.499-.262.499-7.205v-6.32l-.203-.392c-.112-.216-.267-.431-.346-.479s-.142-.115-.142-.148c0-.09 3.883-.074 4.887.02zm45.401 5.797l5.119 5.878.021-5.058c.015-3.49-.007-5.193-.07-5.497-.075-.366-.157-.504-.488-.82l-.398-.38h1.382c.76 0 1.382.027 1.382.061s-.069.103-.153.155-.239.267-.345.479l-.193.385-.041 7.171-.04 7.17-5.57-6.395-5.569-6.395-.024.784c-.013.431-.013 2.926 0 5.544.027 5.346-.002 5.086.638 5.625l.351.295h-1.446-1.446l.24-.221c.132-.122.31-.347.395-.5.147-.266.155-.561.177-6.301l-.059-6.322c-.125-.456-.548-.96-1.032-1.229-.24-.133-.436-.257-.436-.274s.56-.032 1.243-.032h1.244l5.118 5.877zm13.635-5.617c-.563.572-.546.411-.574 5.4-.027 4.97.009 5.47.46 6.443a3.39 3.39 0 0 0 2.426 1.9c.701.143 2.161.063 2.708-.149.977-.378 1.728-1.186 2.056-2.212.178-.555.18-.626.18-5.602V94.8l-.185-.34c-.102-.187-.257-.385-.345-.439s-.161-.126-.161-.16.641-.061 1.425-.061h1.426l-.284.279c-.524.516-.535.615-.535 5.247 0 2.289-.037 4.499-.084 4.947-.261 2.5-1.678 4.088-4.044 4.534-1.103.207-2.636.085-3.597-.288-1.297-.503-2.274-1.541-2.74-2.913l-.219-.646-.052-4.96c-.035-3.4-.08-5.05-.145-5.245-.051-.157-.225-.436-.385-.62l-.291-.335h1.608 1.607l-.255.26zm16.43 2.38l2.66 5.978 1.54 3.378c.022 0 1.216-2.69 2.652-5.978l2.611-5.978 1.29-.022 1.289-.022-.307.31c-.557.561-.543.384-.543 7.133 0 6.769-.008 6.67.543 7.181l.281.261h-1.6-1.601l.289-.314c.158-.173.327-.452.375-.62.057-.203.085-2.232.083-6.026l-.002-5.72-.359.8-2.822 6.418-2.504 5.62c-.023 0-1.321-2.864-2.885-6.366l-2.912-6.407c-.037-.022-.053 2.51-.036 5.627.034 6.323.01 6.059.606 6.648l.344.34h-1.52-1.521l.303-.203a1.78 1.78 0 0 0 .486-.54l.184-.337.022-6.223-.067-6.552c-.089-.325-.328-.615-.728-.882-.194-.13-.141-.135 1.243-.119l1.445.017 1.161 2.6zm-91.317 2.731l-1.12 2.845c.015.015 1.072.017 2.348.005l2.321-.021-1.156-2.778-1.201-2.823c-.025-.025-.562 1.223-1.193 2.773zm32.14 22.429l3.058 7.16c.337.646.513.876.894 1.173l.342.267h-1.726H94.4l.21-.246c.41-.48.321-.834-.993-3.954l-.64-1.52-2.723-.021-2.723-.021-.743 1.821c-1.108 2.715-1.19 3.174-.657 3.698l.247.243h-1.468-1.468l.357-.324c.582-.528.386-.095 6.025-13.316l.646-1.511c.074-.17.162-.278.197-.24s1.335 3.095 2.891 6.791zm43.886-2.86l2.909 6.9c.676 1.606 1.355 3.142 1.508 3.414s.452.641.664.82l.386.325-1.739.001h-1.739l.212-.163c.292-.227.351-.623.183-1.219-.113-.401-.916-2.395-1.611-3.999l-.165-.381-2.721.021-2.721.021-.608 1.48c-1.258 3.061-1.337 3.521-.689 4.06l.215.179-1.479.001h-1.48l.382-.38c.571-.568.44-.278 5.185-11.438l1.584-3.62c.025-.001.801 1.789 1.724 3.978zm-59.739-3.578c1.129.092 2.233.36 3.094.752l.607.276-.004 1.185c-.004 1.138-.01 1.177-.142.985-.075-.11-.32-.393-.544-.63-1.613-1.703-4.414-2.181-6.667-1.138-2.141.991-3.376 3.209-3.373 6.061.003 2.833 1.283 5.114 3.451 6.151 1.026.491 1.759.627 3.092.573 1.566-.063 2.585-.379 3.667-1.139l.521-.366v.525.525l-.468.295c-.614.387-1.525.76-2.424.994-.625.163-.907.188-2.027.183-1.073-.005-1.414-.036-1.946-.18-3.364-.911-5.457-3.52-5.631-7.018-.219-4.402 2.632-7.669 7.008-8.032l.772-.071c.022-.006.479.025 1.014.069zm28.712.454c2.029.665 3.077 2.318 2.789 4.402-.238 1.717-1.482 3.028-3.337 3.516-.576.152-2.019.191-2.938.08l-.549-.067v2.651c0 2.988.031 3.219.487 3.691l.301.311h-1.624-1.625l.217-.168c.119-.092.297-.317.397-.5l.18-.332v-6.32c0-5.922-.009-6.344-.148-6.698-.081-.207-.261-.471-.4-.586l-.251-.208 3.001.032c2.752.03 3.043.047 3.5.196zm8.544-.056c-.114.088-.292.332-.397.54l-.19.38v6.28 6.28l.178.379c.098.209.277.47.398.58l.22.201h-1.607-1.606l.289-.315c.514-.56.502-.387.502-7.165v-6.16l-.194-.423c-.107-.233-.286-.494-.397-.58l-.203-.157h1.607 1.607l-.207.16zm13.348.54l.146 1.01.049.309-.383-.376c-.655-.645-.902-.714-2.718-.762-.864-.022-1.586-.027-1.603-.01-.068.068-.029 11.69.041 12.342.079.739.22 1.094.553 1.398l.207.189h-1.572-1.572l.215-.22a2.3 2.3 0 0 0 .36-.54c.137-.298.148-.755.17-6.74l.024-6.42h-1.464c-1.768 0-2.157.102-2.803.732-.219.215-.407.38-.417.369-.014-.016.249-1.842.282-1.961.003-.011 2.341-.02 5.196-.02h5.191l.098.7zm19.746-.543c-.112.086-.291.347-.397.58l-.195.423-.023 6.386-.023 6.385 2.259-.025 2.259-.026.528-.249c.482-.227 1.139-.76 1.139-.924 0-.037.03-.067.066-.067.058 0 .012.321-.271 1.9l-.047.26h-4.16c-3.8 0-4.145-.011-3.979-.125.304-.21.509-.719.595-1.481.049-.429.071-2.984.056-6.414l-.025-5.7-.19-.38c-.104-.208-.283-.452-.397-.54l-.207-.16h1.607 1.608l-.203.157zm-45.673 3.914v3.19l.224.05c.476.106 2.027.145 2.471.063 1.384-.257 2.214-1.138 2.44-2.589.218-1.402-.343-2.714-1.46-3.412-.633-.396-1.121-.493-2.47-.493h-1.205v3.191zm-13.315 1.231l-1.151 2.818 1.176.022a76.34 76.34 0 0 0 2.344 0l1.169-.022-1.161-2.786-1.194-2.818c-.018-.018-.551 1.236-1.184 2.786zm46.172-2.653l-1.141 2.812-1.065 2.66c0 .021 1.046.039 2.326.039 2.177 0 2.324-.009 2.285-.14-.056-.191-2.26-5.492-2.299-5.531-.017-.017-.065.055-.106.16z" fill="#152a48"/></svg>