<svg xmlns="http://www.w3.org/2000/svg" xmlns:xlink="http://www.w3.org/1999/xlink" width="222" height="222" fill="none" xmlns:v="https://vecta.io/nano"><g clip-path="url(#L)"><path d="M61.247 122.217c-2.339.861-3.627 1.136-5.083 1.136-3.933 0-6.878-1.585-8.739-3.445A12.17 12.17 0 0 1 44 111.532c.026-3.168 1.251-6.204 3.421-8.477 1.12-1.142 2.451-2.047 3.917-2.663s3.037-.929 4.623-.922c1.084 0 2.846.173 5.286 1.172v7.135c-1.894-2.377-4.133-2.518-5.117-2.518-1.694 0-2.982.517-4.067 1.516-.629.608-1.128 1.341-1.466 2.154a6.52 6.52 0 0 0-.499 2.57c0 1.586.644 3.344 1.83 4.48.983.931 2.542 1.586 4.202 1.586.874 0 3.05-.102 5.117-2.412v7.065h0z" fill="url(#A)"/><path d="M95.781 99.702v18.277h7.046v5.065H89.918V99.702h5.863 0z" fill="url(#B)"/><path d="M131.236 123.162v-23.46h5.862l10.807 14.534V99.702h5.863v23.461h-5.863l-10.807-14.062v14.062h-5.862v-.001z" fill="url(#C)"/><path d="M163.668 111.661l-8.166-11.959h7.014l4.269 6.273 4.1-6.273H178l-8.436 11.959v11.501h-5.896v-11.501z" fill="url(#D)"/><path d="M75.486 99.025a12.03 12.03 0 0 0-6.765 2.089c-2.002 1.361-3.563 3.296-4.485 5.559s-1.162 4.754-.692 7.157 1.63 4.61 3.333 6.342 3.873 2.912 6.235 3.39a11.99 11.99 0 0 0 7.036-.705c2.225-.938 4.127-2.525 5.465-4.563s2.052-4.431 2.052-6.881a12.57 12.57 0 0 0-.927-4.741 12.4 12.4 0 0 0-2.64-4.019 12.16 12.16 0 0 0-3.951-2.685 12 12 0 0 0-4.661-.943h0zm0 19.04c-1.294-.001-2.558-.391-3.633-1.122s-1.913-1.77-2.408-2.986a6.76 6.76 0 0 1-.372-3.843c.253-1.291.875-2.476 1.79-3.406a6.51 6.51 0 0 1 3.348-1.82 6.43 6.43 0 0 1 3.778.379 6.56 6.56 0 0 1 2.935 2.45c.718 1.094 1.102 2.38 1.102 3.695 0 .874-.169 1.739-.498 2.546a6.65 6.65 0 0 1-1.418 2.158 6.53 6.53 0 0 1-2.122 1.442 6.45 6.45 0 0 1-2.503.506h0v.001z" fill="url(#E)"/><path d="M116.229 99c-2.413 0-4.773.728-6.78 2.092s-3.57 3.302-4.494 5.57-1.165 4.764-.694 7.172 1.633 4.619 3.339 6.355 3.881 2.919 6.248 3.397a12.01 12.01 0 0 0 7.051-.706c2.23-.939 4.135-2.53 5.476-4.571s2.057-4.441 2.057-6.896c0-3.292-1.286-6.449-3.574-8.777S119.465 99 116.229 99zm0 19.064c-1.294 0-2.558-.39-3.633-1.121a6.63 6.63 0 0 1-2.409-2.985c-.495-1.216-.625-2.553-.372-3.844s.875-2.475 1.79-3.406 2.079-1.564 3.348-1.82a6.44 6.44 0 0 1 3.779.378c1.194.504 2.216 1.356 2.934 2.45a6.73 6.73 0 0 1 1.103 3.696c-.001 1.764-.69 3.456-1.916 4.703s-2.89 1.949-4.624 1.949h0z" fill="url(#F)"/><path d="M128.419 111.412l.008-.175c-.035-2.845-1.033-5.59-2.827-7.773-1.829 2.23-2.831 5.043-2.831 7.948s1.002 5.718 2.831 7.949c1.793-2.182 2.791-4.925 2.827-7.768l-.008-.181h0z" fill="url(#G)"/><path d="M106.857 103.464a12.49 12.49 0 0 0-2.827 7.774c0 .059.009.115.009.175s0 .115-.009.173c.034 2.845 1.033 5.592 2.827 7.775a12.54 12.54 0 0 0 2.831-7.948c0-2.905-1.002-5.718-2.831-7.949h0 0z" fill="url(#H)"/><path d="M124.042 101.88a12.03 12.03 0 0 0-7.643-2.88c-.057 0-.112.009-.17.009s-.114 0-.172-.009c-2.797.035-5.496 1.051-7.642 2.876a12.03 12.03 0 0 0 7.814 2.884c2.856.004 5.622-1.016 7.813-2.88h0z" fill="url(#I)"/><path d="M108.429 120.957c2.191 1.853 4.951 2.868 7.8 2.868s5.609-1.015 7.8-2.868c-2.191-1.853-4.951-2.867-7.8-2.867s-5.609 1.014-7.8 2.867h0z" fill="url(#J)"/><path d="M116.229 114.515a3.02 3.02 0 0 0 2.156-.909 3.13 3.13 0 0 0 0-4.387 3.02 3.02 0 0 0-2.156-.909c-.809 0-1.585.327-2.157.909a3.13 3.13 0 0 0 0 4.387c.572.582 1.348.909 2.157.909h0z" fill="url(#K)"/></g><defs><radialGradient id="A" cx="0" cy="0" r="1" gradientTransform="translate(118.015 349.166) scale(8972.63 12425.8)" xlink:href="#M"><stop stop-color="#007bff"/><stop offset=".49" stop-color="#ff79f4"/><stop offset="1" stop-color="#00fff6"/></radialGradient><radialGradient id="B" cx="0" cy="0" r="1" gradientTransform="translate(24245.6 473.917) scale(6783.71 12266.1)" xlink:href="#M"><stop stop-color="#007bff"/><stop offset=".49" stop-color="#ff79f4"/><stop offset="1" stop-color="#00fff6"/></radialGradient><radialGradient id="C" cx="0" cy="0" r="1" gradientTransform="translate(45665.2 471.588) scale(11765.1 12249.7)" xlink:href="#M"><stop stop-color="#007bff"/><stop offset=".49" stop-color="#ff79f4"/><stop offset="1" stop-color="#00fff6"/></radialGradient><radialGradient id="D" cx="0" cy="0" r="1" gradientTransform="translate(58213.3 470.816) scale(11722.3 12223.7)" xlink:href="#M"><stop stop-color="#007bff"/><stop offset=".49" stop-color="#ff79f4"/><stop offset="1" stop-color="#00fff6"/></radialGradient><radialGradient id="E" cx="0" cy="0" r="1" gradientTransform="translate(10162.9 118.132) scale(12671.4 12889.1)" xlink:href="#M"><stop stop-color="#007bff"/><stop offset=".49" stop-color="#ff79f4"/><stop offset="1" stop-color="#00fff6"/></radialGradient><linearGradient id="F" x1="4937.96" y1="-462.015" x2="5745.37" y2="2374.95" xlink:href="#M"><stop offset=".14" stop-color="#ff79f4"/><stop offset=".3" stop-color="#c19af4"/><stop offset=".49" stop-color="#7dbdf5"/><stop offset=".66" stop-color="#47daf5"/><stop offset=".81" stop-color="#20eef6"/><stop offset=".93" stop-color="#09faf6"/><stop offset="1" stop-color="#00fff6"/></linearGradient><linearGradient id="G" x1="1494.23" y1="308.534" x2="1494.23" y2="1049.2" xlink:href="#M"><stop stop-color="#8773eb"/><stop offset="1" stop-color="#00c4f0"/></linearGradient><linearGradient id="H" x1="1160.34" y1="312.524" x2="1160.34" y2="1017.57" xlink:href="#M"><stop stop-color="#8773eb"/><stop offset="1" stop-color="#00c4f0"/></linearGradient><linearGradient id="I" x1="3808.94" y1="147.467" x2="3251.35" y2="147.467" xlink:href="#M"><stop stop-color="#008dee"/><stop offset="1" stop-color="#a26dea"/></linearGradient><linearGradient id="J" x1="3093.62" y1="485.775" x2="3816.4" y2="485.775" xlink:href="#M"><stop stop-color="#009bee"/><stop offset="1" stop-color="#00caf0"/></linearGradient><linearGradient id="K" x1="1421.75" y1="457.398" x2="1421.75" y2="298.009" xlink:href="#M"><stop stop-color="#ff79f4"/><stop offset="1" stop-color="#00fff6"/></linearGradient><clipPath id="L"><path fill="#fff" transform="translate(44 99)" d="M0 0h134v25H0z"/></clipPath><linearGradient id="M" gradientUnits="userSpaceOnUse"/></defs></svg>