<svg xmlns="http://www.w3.org/2000/svg" width="222" height="222" fill="none" xmlns:v="https://vecta.io/nano"><path d="M107.79 76.188c4.454-.578 9.085.181 13.084 2.189 4.502 2.235 8.181 6.008 10.241 10.513 2.053 4.43 2.502 9.537 1.294 14.251-1.183 4.693-4.034 8.954-7.936 11.919-3.72 2.858-8.392 4.502-13.122 4.613-4.688.142-9.408-1.211-13.268-3.82-4.033-2.697-7.121-6.719-8.619-11.269a21.47 21.47 0 0 1 .461-14.744c1.683-4.196 4.74-7.848 8.605-10.303 2.791-1.781 5.956-2.925 9.26-3.348h0zm1.806 1.428c-5.539.261-10.9 2.839-14.516 6.943-3.16 3.526-4.991 8.155-5.074 12.842-.106 4.615 1.406 9.125 4.287 12.783 2.917 3.724 7.195 6.41 11.886 7.421 4.64 1.023 9.638.435 13.882-1.676 4.193-2.061 7.623-5.558 9.552-9.74a19.92 19.92 0 0 0 .929-14.292c-1.39-4.477-4.439-8.431-8.445-10.991-3.664-2.37-8.116-3.532-12.501-3.29h0zm-1.315 3.442c3.784-.53 7.744.197 11.058 2.067 3.543 1.974 6.331 5.207 7.704 8.961 1.481 3.981 1.353 8.506-.357 12.398-1.631 3.723-4.565 6.756-8.276 8.557-3.715 1.811-8.106 2.23-12.118 1.192-4.015-1.022-7.605-3.521-9.925-6.88a16.65 16.65 0 0 1-2.913-11.07c.339-3.773 2.038-7.405 4.718-10.138 2.659-2.739 6.28-4.569 10.109-5.086h0zm-6.558 6.932c-1.656.99-3.064 2.478-3.659 4.309-.546 1.557-.647 3.313 0 4.857.502 1.183 1.449 2.237 2.702 2.683 1.289.457 2.752.276 3.977-.286l.034-.523c-1.079.303-2.211.604-3.342.394-1.077-.158-2.075-.816-2.574-1.77-.464-.872-.365-1.958.147-2.789.52-.937 1.479-1.557 2.495-1.885 2.37-.79 4.864-1.24 7.368-1.279l-2.169 3.271c-.46.793-.933 1.649-.925 2.586.015.825.592 1.52 1.258 1.97.843.547 1.785.927 2.674 1.395.867.454 1.877.84 2.413 1.698.393.728-.285 1.412-.81 1.856-1.636-.826-3.421-1.417-5.269-1.527-1.618-.126-3.326.206-4.632 1.192-1.694 1.241-2.593 3.223-3.124 5.17l.533-.001c.286-.827.69-1.712 1.519-2.138.892-.496 1.968-.239 2.859.119 1.604.679 3.072 1.62 4.551 2.518 1.873.847 4.013.982 6.037.73 2.874-.365 5.525-1.88 7.414-4.004 1.544-1.715 2.44-3.94 2.597-6.213.11-2 .06-4.046-.561-5.971-.588-1.864-1.675-3.54-3.15-4.854-2.037-1.83-4.652-3.007-7.381-3.424-3.735-.58-7.734-.045-10.981 1.917h-.002 0zm7.688 3.707c3.963-.023 7.84 1.591 10.741 4.196 1.082.99 2.001 2.213 2.363 3.637.451 1.882.081 3.994-1.212 5.493a4.86 4.86 0 0 1-3.845 1.796c-2.058-.026-3.928-1.022-5.619-2.079 1.148-1.382 2.562-2.594 3.393-4.203.674-1.248.573-2.902-.362-3.999-1.142-1.218-2.831-1.665-4.376-2.182-.61-.252-1.379-.515-1.606-1.186-.042-.539.31-1.003.523-1.475h0z" fill="#000"/><path d="M109.597 77.616c4.384-.242 8.836.921 12.5 3.29 4.006 2.56 7.055 6.514 8.445 10.991 1.473 4.664 1.144 9.849-.929 14.293-1.929 4.181-5.359 7.678-9.552 9.739-4.244 2.111-9.242 2.699-13.882 1.677-4.69-1.012-8.969-3.698-11.886-7.422-2.869-3.618-4.406-8.21-4.287-12.783.101-4.729 1.896-9.274 5.074-12.842 3.616-4.104 8.977-6.682 14.517-6.943h0zm-1.316 3.442c-3.829.517-7.45 2.347-10.109 5.086-2.68 2.733-4.379 6.365-4.718 10.138-.375 3.872.664 7.86 2.914 11.071 2.32 3.359 5.91 5.858 9.926 6.88 4.011 1.038 8.402.619 12.117-1.192 3.682-1.772 6.675-4.863 8.277-8.557a16.67 16.67 0 0 0 .357-12.398c-1.374-3.754-4.162-6.987-7.705-8.961-3.314-1.87-7.273-2.597-11.058-2.068h0zm-6.558 6.932c3.248-1.962 7.247-2.497 10.982-1.917 2.729.417 5.343 1.594 7.381 3.424 1.467 1.307 2.57 2.998 3.15 4.854.621 1.925.671 3.972.56 5.971-.157 2.273-1.053 4.498-2.596 6.214-1.889 2.124-4.54 3.639-7.414 4.004-2.025.252-4.165.116-6.037-.73-1.48-.898-2.947-1.84-4.552-2.518-.89-.359-1.966-.616-2.859-.12-.829.426-1.233 1.311-1.519 2.138l-.534.002c.53-1.948 1.429-3.93 3.123-5.17 1.306-.987 3.015-1.318 4.633-1.192 1.847.11 3.632.701 5.268 1.526.526-.444 1.203-1.127.81-1.856-.536-.857-1.545-1.244-2.413-1.697-.889-.469-1.831-.848-2.674-1.396-.666-.451-1.243-1.145-1.257-1.97-.009-.937.464-1.793.925-2.586.699-1.105 1.451-2.177 2.168-3.271-2.503.039-4.997.489-7.367 1.279-1.017.328-1.975.948-2.496 1.885-.512.832-.611 1.917-.147 2.789.499.955 1.498 1.612 2.575 1.77 1.13.21 2.263-.091 3.342-.394l-.035.523c-1.224.562-2.687.743-3.976.286-1.253-.446-2.2-1.5-2.702-2.683-.644-1.544-.544-3.3 0-4.857.595-1.832 2.002-3.319 3.658-4.309h.002 0zm7.688 3.707c-.213.472-.565.935-.523 1.475.227.67.996.933 1.606 1.185 1.545.517 3.234.964 4.376 2.182.935 1.096 1.036 2.751.362 3.999-.831 1.608-2.244 2.82-3.393 4.202 1.691 1.057 3.562 2.053 5.619 2.079a4.86 4.86 0 0 0 3.846-1.796c1.292-1.498 1.662-3.611 1.211-5.493-.362-1.424-1.281-2.647-2.363-3.637-2.901-2.605-6.778-4.219-10.741-4.196h0zM45 128.648h6.887c1.056.017 2.196.244 2.982.983.667.625.906 1.557.901 2.434l-.002 8.724c-.01.778-.251 1.609-.873 2.137-.681.576-1.618.743-2.494.744-2.467-.001-4.933 0-7.4-.001v-15.021h0zm2.975 2.615l.002 9.938h4.818v-7.685c.023-.806-.448-1.612-1.211-1.938-1.13-.515-2.408-.252-3.608-.315h0zm22.132-1.738c.418-.622 1.215-.864 1.944-.872l2.532-.005.002 1.964c-.519.04-1.106-.123-1.57.159-.509.424-.33 1.151-.363 1.722h1.71v2.617a243.36 243.36 0 0 0-1.709 0v8.559h-2.975l-.002-8.559-1.41-.002.002-2.615h1.41c.031-.991-.159-2.09.43-2.968h0zm5.953-.877h3.047v2.615H76.06v-2.615h0zm33.481.641c.803-.596 1.857-.659 2.829-.643l5.744.002v2.615c-1.536.006-3.073-.013-4.608.008-.865.016-1.81.489-2.012 1.371-.127.74-.028 1.497-.056 2.245h6.305v2.62h-6.305l-.002 6.162h-2.974l.003-11.941c.01-.903.303-1.88 1.076-2.439h0zm10.148-.641h3.048v2.615h-3.048v-2.615zm-61.275 4.622c.516-.563 1.317-.765 2.066-.773l3.464-.004c.813-.003 1.702.149 2.297.737.547.536.699 1.331.694 2.061v4.097l-6.232.002v1.811h6.232v2.468c-2.153-.004-4.307.008-6.46-.004-.812-.027-1.709-.195-2.269-.819-.423-.469-.501-1.124-.481-1.726l.002-5.679c.002-.764.149-1.586.689-2.171h-.002 0zm2.286 1.552l.002 2.169h3.332c.008-.613.081-1.372-.497-1.778-.823-.573-1.892-.347-2.836-.391zm15.36 8.847v-11.174h3.047v11.174H76.06zm5.599-10.454c.542-.56 1.372-.715 2.129-.72h3.963c.751.01 1.564.189 2.097.743.569.585.694 1.434.689 2.21v8.222c-.994-.001-1.985 0-2.975-.001l-.002-6.619c.01-.692-.395-1.386-1.046-1.675-.776-.393-1.674-.238-2.51-.265l-.002 8.559h-2.975v-8.553c-.002-.673.139-1.398.631-1.901h0zm10.845-.72l6.487-.002c.719.002 1.494.144 2.031.646.545.513.697 1.286.692 1.998l-.001 8.532-1.86.001-1.112-2.387-1.036 2.387c-1.07-.013-2.139.021-3.206-.016-.779-.027-1.654-.375-1.924-1.148-.257-.759-.104-1.575-.144-2.358.038-.855-.149-1.785.306-2.565.385-.666 1.206-.919 1.947-.945 1.35-.024 2.702-.002 4.054-.01v-1.518c-2.079-.002-4.156 0-6.234-.002v-2.613h0zm2.902 6.677v2.1h3.33c-.014-.483.049-.973-.053-1.448-.132-.411-.588-.6-.995-.629-.76-.052-1.522-.012-2.282-.023zm24.284 4.497v-11.174h3.048v11.174h-3.048zm5.592-10.447c.538-.561 1.364-.721 2.121-.727h3.966c.756.006 1.575.187 2.113.746.563.585.69 1.429.685 2.201v8.228c-.993-.001-1.985 0-2.974-.001l-.002-6.616c.01-.695-.395-1.393-1.051-1.682-.776-.389-1.671-.234-2.506-.261l-.001 8.559h-2.975v-8.545c-.003-.673.135-1.398.624-1.902zm10.852-.727l5.988-.003c.803-.015 1.684.008 2.357.502.624.454.854 1.249.862 1.979l.002 8.696-1.86.001-1.112-2.387-1.034 2.386c-1.17-.025-2.344.054-3.509-.046-.831-.072-1.642-.655-1.728-1.51-.09-.919-.014-1.846-.04-2.768-.015-.669-.007-1.409.444-1.956.462-.575 1.25-.746 1.964-.757l3.9-.004v-1.518c-2.079-.002-4.156 0-6.234-.002v-2.613h0zm2.902 6.677v2.1h3.331c-.012-.482.046-.969-.052-1.444-.131-.414-.59-.604-.997-.633-.76-.052-1.522-.012-2.282-.023zm8.971-6.031c.585-.539 1.434-.654 2.209-.648l3.96.008c.82.021 1.71.31 2.171 1.018.48.714.472 1.604.462 2.426v7.725c-.994-.001-1.985 0-2.975-.001v-6.608c.011-.698-.395-1.399-1.055-1.69-.775-.387-1.67-.234-2.503-.261l-.002 8.559h-2.975v-8.551c-.003-.708.155-1.476.708-1.977zm11.391.139c.509-.562 1.302-.787 2.051-.785h4.68v2.613c-.952.024-1.909-.047-2.856.036-.947.134-1.584 1.04-1.593 1.939l-.001 4.118h4.45v2.468h-4.52c-.747-.002-1.552-.12-2.138-.606-.575-.475-.772-1.242-.769-1.95l-.001-5.664c.003-.765.17-1.576.697-2.169h0zm9.513-.365c1.034-.623 2.299-.369 3.449-.42 1.186.048 2.492-.199 3.565.436.766.446 1.072 1.362 1.072 2.193l.004 4.264-6.233.002v1.811H177v2.468h-6.3c-.756-.01-1.562-.12-2.175-.583-.518-.385-.737-1.037-.732-1.653l.001-6.153c.012-.887.303-1.872 1.116-2.365h0zm1.856 1.907l.001 2.17h3.332c.007-.611.081-1.364-.489-1.772-.821-.582-1.897-.354-2.844-.398z" fill="#ead296"/></svg>