<svg xmlns="http://www.w3.org/2000/svg" width="222" height="222" fill="none" xmlns:v="https://vecta.io/nano"><g clip-path="url(#B)"><path fill-rule="evenodd" d="M39 103.343c1.375 0 2.693.563 3.666 1.565a5.43 5.43 0 0 1 1.519 3.778v16.028c-1.375-.001-2.693-.564-3.666-1.565A5.43 5.43 0 0 1 39 119.372v-16.029zM49.37 98a5.11 5.11 0 0 1 3.666 1.566c.972 1.001 1.519 2.361 1.519 3.778v16.028a5.11 5.11 0 0 1-3.666-1.565 5.43 5.43 0 0 1-1.519-3.778V98z" fill="url(#A)"/><path d="M75.666 118.847c1.442 0 2.163-.703 2.163-2.109v-10.785c0-1.406-.721-2.11-2.163-2.11h-5.07v15.003h5.07v.001zm-.651-1.702h-2.303v-11.6h2.303c.279 0 .465.044.558.132s.139.276.139.563v10.21c0 .288-.047.476-.139.563s-.279.132-.558.132zm10.396 1.702c1.457 0 2.186-.703 2.186-2.109v-12.894h-2.117v12.558c0 .288-.043.476-.128.563s-.275.132-.57.132h-1.326c-.279 0-.465-.044-.558-.132s-.139-.275-.139-.563v-12.558h-2.117v12.894c0 1.405.729 2.109 2.186 2.109h2.582zm11.443 0v-1.75h-4.21v-5.129h3.349v-1.749h-3.349v-4.626h4.047v-1.749h-6.163v15.003h6.326zm5.675 0v-13.254h2.442v-1.749h-6.978v1.749h2.442v13.254h2.094zm10.396 0v-5.8h2.675c1.442 0 2.162-.703 2.162-2.109v-4.985c0-1.406-.72-2.11-2.162-2.11h-4.768v15.003h2.093v.001zm2.047-7.525h-2.047v-5.729h2.047c.279 0 .465.044.558.132s.139.276.139.564v4.314c0 .287-.046.479-.139.575s-.279.144-.558.144zm7.326 7.525v-6.064h1.14l2.186 6.064h2.256l-2.303-6.112c1.039-.176 1.559-.871 1.559-2.085v-4.697c0-1.406-.722-2.11-2.164-2.11h-4.768v15.003h2.094v.001zm2.046-7.789h-2.046v-5.464h2.046c.28 0 .466.044.559.132s.139.275.139.563v4.074c0 .288-.046.476-.139.564s-.279.131-.559.131h0zm10.303 7.789c1.442 0 2.164-.703 2.164-2.109v-10.785c0-1.406-.722-2.11-2.164-2.11h-2.581c-1.458 0-2.186.703-2.186 2.11v10.785c0 1.405.728 2.109 2.186 2.109h2.581zm-.627-1.75h-1.349c-.28 0-.462-.044-.547-.132s-.128-.275-.128-.563v-10.113c0-.288.043-.476.128-.564s.267-.132.547-.132h1.349c.279 0 .465.044.558.132s.139.276.139.564v10.113c0 .288-.046.476-.139.563s-.279.132-.558.132zm9.14 1.75v-13.254h2.442v-1.749h-6.977v1.749h2.442v13.254h2.093 0zm9.001 0c1.442 0 2.163-.703 2.163-2.109v-10.785c0-1.406-.721-2.11-2.163-2.11h-2.582c-1.458 0-2.186.703-2.186 2.11v10.785c0 1.405.728 2.109 2.186 2.109h2.582 0zm-.628-1.75h-1.349c-.279 0-.462-.044-.547-.132s-.128-.275-.128-.563v-10.113c0-.288.043-.476.128-.564s.268-.132.547-.132h1.349c.279 0 .465.044.558.132s.139.276.139.564v10.113c0 .288-.046.476-.139.563s-.279.132-.558.132zm10.21 1.774c1.457 0 2.186-.712 2.186-2.133v-2.541h-2.14v2.277c0 .288-.042.475-.127.563s-.268.132-.547.132h-1.187c-.279 0-.465-.044-.558-.132s-.139-.275-.139-.563V106.24c0-.287.046-.475.139-.563s.279-.132.558-.132h1.186c.279 0 .462.044.547.132s.128.276.128.563v2.301h2.14v-2.588c0-1.406-.729-2.109-2.187-2.109h-2.465c-1.442 0-2.163.703-2.163 2.109v10.785c0 1.422.721 2.133 2.163 2.133h2.465.001zm9.489-.024c1.442 0 2.163-.703 2.163-2.109v-10.785c0-1.406-.721-2.11-2.163-2.11h-2.582c-1.457 0-2.186.703-2.186 2.11v10.785c0 1.405.729 2.109 2.186 2.109h2.582zm-.628-1.75h-1.349c-.279 0-.461-.044-.546-.132s-.128-.275-.128-.563v-10.113c0-.288.042-.476.128-.564s.267-.132.546-.132h1.349c.279 0 .465.044.558.132s.14.276.14.564v10.113c0 .288-.047.476-.14.563s-.279.132-.558.132zm11.396 1.75v-1.75h-3.605v-13.253h-2.093v15.003H182z" fill="#000"/></g><defs><linearGradient id="A" x1="54.555" y1="109.98" x2="39" y2="109.98" gradientUnits="userSpaceOnUse"><stop stop-color="#af0bd9"/><stop offset="1" stop-color="#5574ff"/></linearGradient><clipPath id="B"><path fill="#fff" transform="translate(39 98)" d="M0 0h143v27H0z"/></clipPath></defs></svg>