<svg xmlns="http://www.w3.org/2000/svg" width="222" height="222" fill="none" xmlns:v="https://vecta.io/nano"><g clip-path="url(#A)"><path d="M107.595 70.097c.768-.785 1.62-1.491 2.562-2.062.432 3.225.211 6.487.345 9.731-.035 4.157.147 8.322-.112 12.473-.019 1.13-.445 2.193-1.13 3.087-.249-6.653.026-13.316-.137-19.972L98.947 83.505c.003-1.501-.106-3.004.016-4.501 0-.479.419-.792.705-1.121 2.695-2.541 5.234-5.238 7.927-7.786h0zM111.411 68c1.71.677 2.898 2.129 4.207 3.352 2.181 2.088 4.246 4.288 6.445 6.359.311.313.644.623.868 1.009.218 1.568.031 3.154.044 4.728-3.451-3.292-6.784-6.704-10.162-10.072-.17 6.641.064 13.287-.122 19.924-.848-1.05-1.379-2.35-1.299-3.713L111.411 68zM84.22 93.422c3.029-3.174 6.218-6.193 9.259-9.357a107.9 107.9 0 0 1 4.861.041c-3.497 3.69-7.239 7.151-10.614 10.947l1.191.536c-2.023.105-4.05.093-6.077.048.298-.827.746-1.596 1.38-2.215l-.001-.001zm39.402-9.3c1.595-.003 3.202-.201 4.787.013 2.958 2.8 5.77 5.759 8.654 8.635.791.75 1.467 1.609 1.966 2.579-1.604.166-3.217.153-4.825.08-.167-.393-.304-.808-.608-1.121-3.297-3.419-6.794-6.656-9.973-10.187l-.001.001zM82.869 96.687c2.577-.252 5.168-.067 7.751-.131 1.662-.093 3.144.747 4.671 1.255l13.848 5.009.074-4.201c.653 1.037 1.361 2.135 1.297 3.416l.022 21.928c-1.77-.415-2.878-1.97-4.146-3.135l-7.44-7.365c-.026-1.676-.041-3.352-.003-5.025l10.224 10.258-.074-11.643-18.57-7.288c2.532 2.857 5.34 5.45 7.924 8.259-1.633-.01-3.282.166-4.905-.064-2.453-2.187-4.655-4.652-7.038-6.918-1.328-1.344-2.779-2.638-3.637-4.355h.001zm43.587 1.172c1.591-.533 3.125-1.395 4.844-1.398l7.731.032c-.342.83-.774 1.632-1.428 2.263-2.737 2.909-5.641 5.66-8.426 8.528-.32.287-.608.715-1.086.721-1.562.131-3.131.016-4.696.038 2.666-2.768 5.439-5.437 8.026-8.278l-18.636 7.297-.016 11.637 10.22-10.248c0 1.485.096 2.969.01 4.454.044.529-.404.865-.714 1.222l-8.53 8.419a6.43 6.43 0 0 1-2.043 1.411c-.429-6.337-.281-12.697-.317-19.046.074-2.114-.147-4.476 1.274-6.235.103 1.357.116 2.717.096 4.077 4.614-1.484 9.125-3.269 13.691-4.894zm10.95 37.374l.048-6.152c2.699.169 5.404-.054 8.1.151l-.013 3.457c1.357-.619 2.613-1.459 4.025-1.954 1.45-.265 2.939-.064 4.405-.134.077 1.916-.025 3.831-.006 5.747-1.895.019-3.797-.1-5.69.032-.999.243-1.831.9-2.724 1.376l-.058 14.819c-2.696-.074-5.392-.01-8.087-.026-.199-5.771.061-11.544 0-17.316h0zm-47.103-4.936l8.052.016 3.451 14.019c1.217-4.662 2.28-9.361 3.413-14.041l8.155.003-5.69 22.091c-2.049.246-4.114.135-6.173.151-1.86-.016-3.724.089-5.584-.071l-5.625-22.168h.001zM68 130.425c6.045-.115 12.096.015 18.144-.058.81-.022 1.62.07 2.424.179-.096 3.691 0 7.388-.035 11.078-.016.789-.144 1.669-.772 2.216-.672.402-1.495.367-2.251.411-3.119.007-6.236-.035-9.355.01l-.006 5.58c4.127.16 8.264-.099 12.391.147-.394.821-.749 1.67-1.281 2.417-1.521.29-3.086.08-4.623.134-4.873-.057-9.752.125-14.622-.099L68 130.425zm8.135 2.704l.013 8.476a112.63 112.63 0 0 0 4.191-.02c.18-2.866.103-5.74.067-8.61-1.425-.064-2.856-.048-4.271.154h0zm39.045-2.739l20.532-.032-.025 11.595c.073 1.198-.903 2.336-2.146 2.26-3.394.083-6.791 0-10.184.032l-.013 5.632 12.419.016c-.457.893-.819 1.879-1.572 2.579-5.443.179-10.898-.013-16.347.095-.906.02-1.809-.06-2.708-.13l.044-22.047h0zm8.187 2.663c-.058 2.854-.003 5.711-.023 8.565 1.399.045 2.802.023 4.203-.048l.039-8.54c-1.409-.064-2.818-.076-4.22.023h.001z" fill="#7faffb"/></g><defs><clipPath id="A"><path fill="#fff" transform="translate(68 68)" d="M0 0h86v85H0z"/></clipPath></defs></svg>