<svg xmlns="http://www.w3.org/2000/svg" width="222" height="222" fill="none" xmlns:v="https://vecta.io/nano"><g clip-path="url(#A)"><path d="M40.514 96.051l2.339 1.298 4.606 2.608c.425.255.901.492 1.411.462.718-.085 1.299-.552 1.918-.884l4.153-2.336L57.121 96a2.21 2.21 0 0 1 .106.734l-.016 3.349-5.574 3.147c-.714.389-1.383.92-2.201 1.072-.483.049-.974.048-1.458-.005-.45-.09-.846-.339-1.242-.56l-4.274-2.425-2.07-1.214-.01-3.367a1.47 1.47 0 0 1 .133-.679v-.001z" fill="#4c6efb"/><path d="M32.005 106.971c-.104-2.03 1.55-3.912 3.525-4.236.662-.032 1.329-.047 1.986.026.769.212 1.434.663 2.127 1.041l6.898 3.891c.543.301 1.059.658 1.635.893a4.71 4.71 0 0 0 1.163-.003c.488-.197.927-.495 1.388-.745l7.298-4.105c.668-.372 1.317-.824 2.076-.987a13.74 13.74 0 0 1 2.089.003c1.736.395 3.155 1.925 3.381 3.697l.027.836-.001 16.353-3.642.005-.008-16.462c.072-.623-.71-1.133-1.231-.748l-7.493 4.221-3.384 1.852c-.642.146-1.319.091-1.973.05-.568-.143-1.055-.492-1.563-.767l-9.361-5.29c-.249-.154-.575-.302-.851-.121-.385.169-.491.627-.492 1.008l-.011 16.257c-1.193.01-2.386.016-3.579-.003l-.005-16.666zm98.172-2.568c.671-.179 1.483-.176 2.057.265.483.373.389 1.043.369 1.579-.014.544-.511.928-.994 1.072-.353.04-.708.025-1.06.022-.497-.002-1.004-.321-1.183-.789a6.45 6.45 0 0 1 0-1.463c.159-.327.464-.576.81-.686h.001zm-17.564 2.169c.058-.11.128-.265.273-.266l1.692-.006.134.137.01 2.262 3.131.002.011 2.395c-.998.014-1.997-.009-2.995.009l-.143.135-.007 5.346c-.031.484.332.936.783 1.083.488.051.982.03 1.47-.005l.986-.23-.003 2.391c-1.563.47-3.35.753-4.871.003-1.051-.508-1.403-1.751-1.491-2.824l-.004-5.905c-.441-.005-.882.017-1.321-.009l-.128-.153a7.22 7.22 0 0 1 .003-1.139c.453-.462 1.097-.658 1.597-1.057.111-.094.154-.239.206-.368l.667-1.801h0zm72.191-.177l1.921.007.035 2.186c.01.176.225.197.364.203l2.766.035.034 2.198-.009.064-3.053.006c-.165.454-.093.94-.104 1.412l.005 4.078a1.15 1.15 0 0 0 .781 1.103c.218.085.446.19.69.167.59-.066 1.165-.225 1.741-.369l.011 2.255c-.365.121-.729.245-1.108.309-.785.125-1.589.309-2.383.137-.866-.125-1.819-.445-2.26-1.265-.738-1.209-.509-2.67-.546-4.013l-.062-3.815-1.384-.084.002-1.282 1.369-.826c.327-.223.451-.616.586-.966l.604-1.54h0zm-102.419 3.099c.579-.569 1.394-.819 2.186-.9.9-.069 1.828.037 2.666.388.611.252.968.838 1.453 1.256.303-.351.6-.718.987-.982.786-.555 1.787-.709 2.73-.677.829.035 1.704.189 2.369.721.919.682 1.155 1.919 1.168 2.995l-.019 7.755a120.53 120.53 0 0 1-2.946-.002l-.002-6.288c.018-.704-.06-1.439-.4-2.066-.551-.985-2.091-.929-2.793-.147-.483.548-.678 1.289-.76 2l-.014 6.515-3.137.017-.014-7.16c-.071-.707-.337-1.56-1.086-1.806-.635-.059-1.386-.14-1.886.345-.671.56-.813 1.483-.888 2.302l-.024 6.299a42.51 42.51 0 0 1-3.153-.009c.094-.77.019-1.549.042-2.322l.028-8.941 2.345.018.305 1.331.254.028.592-.67h0zm16.943-.005c2.208-.97 4.782-1.277 7.088-.459.591.293 1.13.73 1.439 1.323.389.718.512 1.553.497 2.361l-.004 7.36a81.86 81.86 0 0 1-2.16-.008l-.582-1.532c-.526.323-.889.851-1.429 1.153-.579.348-1.262.442-1.921.524-.717.097-1.45-.037-2.126-.277-1.021-.402-1.722-1.432-1.81-2.514-.068-.96-.1-2.04.56-2.822.881-1.065 2.348-1.349 3.658-1.436.919-.123 1.855-.017 2.767-.198.022-.574 0-1.213-.41-1.662-.425-.491-1.12-.575-1.731-.531-1.018.023-1.924.539-2.897.766l-.94-2.048h0zm3.473 5.495c-.55.163-1.127.495-1.3 1.078-.14.509-.161 1.136.22 1.551.264.27.662.349 1.025.378.682.015 1.427-.137 1.909-.657.566-.538.664-1.375.65-2.115.018-.157-.061-.387-.252-.371-.75-.019-1.518-.042-2.252.136zm20.356-4.509c.538-.878 1.388-1.587 2.387-1.866.649-.077 1.305-.041 1.957-.019l-.142 2.921c-.644-.007-1.291-.054-1.932.022-.734.156-1.458.574-1.804 1.262-.214.425-.361.898-.344 1.377l.004 5.542c-.021.116.054.391-.149.36-.978.003-1.957.018-2.933-.009l-.131-.141-.008-10.663c-.004-.159.008-.323.105-.455.188-.153.443-.085.667-.101.571.027 1.157-.069 1.716.091.099.568.301 1.115.352 1.69l.255-.011zm28.256-1.049c.584-.52 1.345-.894 2.142-.858.761-.002 1.574-.077 2.259.326 1.464.732 2.17 2.378 2.391 3.92l-.008 3.147c-.217 1.175-.621 2.384-1.499 3.236-1.278 1.256-3.404 1.418-4.927.522-.405-.242-.698-.622-1.087-.884-.035.439.115.862.111 1.298l.001 4.865-3.079.003c-.074-.365-.053-.74-.053-1.11l.006-14.829c-.023-.248.219-.392.445-.355l2.083.013c.239.435.296.945.486 1.403.274-.198.489-.46.729-.696v-.001zm.539 1.813c-.842.408-1.096 1.454-1.077 2.313.025.985-.135 2.019.262 2.953.217.588.74 1.058 1.364 1.167.508.012 1.078.108 1.514-.224.706-.461.93-1.333 1.04-2.116.014-1.103.147-2.282-.376-3.298-.243-.511-.736-.957-1.327-.954-.468.009-.974-.076-1.4.159zm11.893-2.517c.694-.217 1.432-.141 2.149-.155 1.721-.079 3.437.869 4.307 2.35.513.852.833 1.842.786 2.844-.015.936.097 1.901-.201 2.806-.338 1.168-1.053 2.27-2.115 2.898-1.439.875-3.264 1.026-4.87.576-1.236-.324-2.32-1.159-2.957-2.263-.493-.909-.807-1.935-.763-2.975.025-.737-.078-1.493.125-2.213.217-1.023.7-2.011 1.458-2.741.598-.521 1.309-.928 2.081-1.126v-.001zm.838 2.489c-.941.356-1.2 1.445-1.317 2.335-.052 1.055-.089 2.187.416 3.15.282.59.919 1.019 1.582.991.454-.01.943.064 1.352-.186.824-.377 1.06-1.357 1.195-2.169.048-1.105.117-2.286-.421-3.296-.294-.588-.938-.981-1.597-.953-.405.008-.834-.049-1.21.128zm11.876-.746c.539-.875 1.381-1.597 2.39-1.853.643-.088 1.295-.04 1.942-.021.004.401.01.805-.071 1.2-.068.569-.045 1.145-.06 1.717-.909.027-1.893-.174-2.725.296-.867.433-1.386 1.414-1.346 2.369l.008 5.866c-1.043.08-2.096.031-3.142.026l.009-11.282c.36-.104.736-.076 1.107-.078.428.005.866-.039 1.278.103l.363 1.69.247-.033zm-47.196-1.715c.533-.081 1.076-.031 1.613-.042.507.011 1.02-.043 1.522.052.199 1.173-.029 2.359.018 3.538l.001 7.778-3.157.003.003-11.329zm5.168-.037l3.142-.007c.267-.012.417.252.541.448l1.796 2.99h.216c.334-.625.729-1.214 1.096-1.82.347-.538.626-1.123 1.038-1.619l3.35.009c-.009.393-.291.679-.485.995l-2.856 4.288c-.184.259-.013.558.147.778l3.497 5.24c-.302.089-.618.064-.926.065-.874-.006-1.747.006-2.618-.006l-2.233-3.668h-.235l-2.226 3.666c-1.184.003-2.37.027-3.553-.013l3.665-5.594c.159-.231-.056-.465-.173-.659l-2.619-3.959c-.214-.364-.544-.689-.564-1.134h0zm-94.135 3.907c.459.072.825.377 1.224.589l6.269 3.545c.4.239.889.227 1.336.164.476-.167.892-.461 1.336-.692l5.411-3.05c.397-.215.767-.53 1.24-.552l.005 4.064-5.968 3.37c-.455.247-.892.534-1.378.721-.468.189-.985.156-1.479.149-.602.008-1.138-.301-1.642-.594l-6.357-3.608.003-4.106h0z" fill="#1f2342"/></g><defs><clipPath id="A"><path fill="#fff" transform="translate(32 96)" d="M0 0h158v29.259H0z"/></clipPath></defs></svg>