<svg xmlns="http://www.w3.org/2000/svg" width="222" height="222" fill="none" xmlns:v="https://vecta.io/nano"><path d="M109.8 75.031c5.783-.282 11.648 1.418 16.341 4.824 5.157 3.686 8.907 9.309 10.233 15.516.959 4.419.772 9.086-.588 13.403-1.432 4.587-4.194 8.741-7.838 11.869a25.7 25.7 0 0 1-13.429 6.043c-6.516.9-13.359-.768-18.679-4.654-3.803-2.754-6.869-6.536-8.706-10.862-1.796-4.184-2.435-8.848-1.885-13.364a25.68 25.68 0 0 1 5.906-13.564c2.923-3.466 6.752-6.172 11.024-7.703 2.451-.882 5.02-1.39 7.621-1.508h0zm-7.303 6.645a21.25 21.25 0 0 0-10.118 9.438c-1.125 2.15-1.94 4.491-2.215 6.908l6.23-2.436 27.942-10.865-.138-.203c-2.947-2.377-6.548-3.94-10.303-4.447-3.85-.52-7.848.012-11.398 1.604h0zm14.398 34.156l-4.958-2.183c.031-.132.069-.26.114-.386l9.484-21.592c-.483.211-.977.395-1.47.578l-7.404 16.842-3.765 8.513c-1.636-.758-3.294-1.473-4.95-2.184a2.7 2.7 0 0 1 .097-.355l8.781-19.963c-.498.16-.999.33-1.466.564l-7.185 16.301-3.276 7.507c1.014.51 2.038 1.01 3.115 1.377 3.354 1.2 7.012 1.482 10.521.905 5.002-.828 9.647-3.56 12.835-7.498 3.444-4.191 5.171-9.755 4.651-15.158-.289-3.491-1.511-6.886-3.441-9.805l-11.683 26.537v.001zm-26.729-11.957c.03.707.207 1.396.364 2.082.93 3.845 2.989 7.4 5.828 10.151l7.555-17.171c.063-.149.111-.306.157-.461l-13.904 5.398h.001z" fill="#ff9016"/><path d="M128.472 134.177c1.336-.091 2.665.256 3.786.989 1.715 1.122 2.853 3.147 2.762 5.216.04 1.44-.556 2.847-1.481 3.933-1.156 1.333-2.912 2.168-4.688 2.102-2.049.05-4.041-1.102-5.127-2.823a5.88 5.88 0 0 1-.926-3.598c.034-3.014 2.676-5.676 5.675-5.819h-.001zm-.717 2.702c-1.439.5-2.504 1.959-2.462 3.495.013 1.531 1.129 2.944 2.582 3.386 1.419.47 3.054-.147 3.909-1.347.853-1.153.897-2.839.116-4.041-.835-1.362-2.628-2.052-4.145-1.493h0zm-16.646-2.501l2.56.009-.006 4.272 5.461.001.003-4.258 2.556-.003.002 11.845c-.853-.007-1.706 0-2.559-.004l-.002-5.028h-5.461v5.027l-2.55.003-.005-11.864h.001zm-36.094.04l3.401.001 2.711 8.158 2.616-7.884c.041-.1.087-.197.138-.292l3.384.02.004 11.851c-.742-.005-1.484.008-2.225-.008l-.013-8.253-2.867 8.245-2.051.015-2.843-8.117c-.116.205-.066.452-.076.679l.002 7.439c-.732-.016-1.466.034-2.196-.03l.015-11.824h0zm14.448-.027l8.688.004.001 2.179-6.133.009.001 2.661h5.394v2.328c-1.796-.004-3.591.009-5.387-.005l-.013 2.494 6.681.007.002 2.183c-3.081-.002-6.163.037-9.243-.019l.008-11.84v-.001h-.001zm10.297.071l10.092-.01v2.203c-1.237.037-2.472-.05-3.709.004-.023.292-.043.584-.022.877.089.861-.052 1.722-.001 2.584.075.861-.061 1.723.03 2.584-.066.731.041 1.461-.031 2.193-.024.46.084.921-.004 1.381-.868-.021-1.737.014-2.605-.021l.011-9.591c-1.251-.1-2.506.048-3.758-.003l-.001-2.201h-.001zm36.752 1.011l.028-1.067 5.066.012c1.132.032 2.297.268 3.232.939 1.26.861 1.941 2.362 2.107 3.846.158 1.648.01 3.417-.891 4.849-.85 1.372-2.44 2.197-4.04 2.215l-5.5.003-.002-10.797h0zm2.613 1.186l-.005 7.409 2.504.001c.844-.022 1.698-.427 2.151-1.157.693-1.062.694-2.408.507-3.618-.134-.927-.617-1.872-1.494-2.289-1.138-.562-2.445-.28-3.663-.346h0z" fill="#000"/></svg>