<svg xmlns="http://www.w3.org/2000/svg" width="222" height="222" fill="none" fill-rule="evenodd" xmlns:v="https://vecta.io/nano"><path d="M47 120.535h5.53v-10.887c0-1.075.214-2.139.632-3.131s1.029-1.893 1.8-2.65c1.556-1.538 3.654-2.403 5.85-2.403V96c-3.658.002-7.166 1.439-9.754 3.995S47 106.009 47 109.634v10.915-.014h0zm11.047 0V126c3.668 0 7.184-1.428 9.768-3.982 2.598-2.553 4.057-6.027 4.057-9.652v-10.901h-5.53v10.915c0 2.169-.889 4.243-2.445 5.78s-3.668 2.39-5.864 2.39l.014-.014v-.001z" fill="#fc0"/><path d="M150.843 96h-4.147v24.316h4.147V96zM98.52 110.848c0-5.934 3.855-9.968 9.43-9.968s8.931 4.034 8.959 9.94a17.62 17.62 0 0 1-.084 1.539h-13.992c.555 3.397 2.94 4.825 5.631 4.825 1.9 0 3.91-.749 5.477-1.997l2.053 2.939c-2.316 1.983-4.924 2.662-7.794 2.662-5.672 0-9.693-3.951-9.693-9.968l.014.028h-.001zm14.159-1.622c-.457-2.939-2.177-4.658-4.798-4.658-2.94 0-4.59 1.899-5.02 4.658h9.832-.014zm23.395-7.847h4.132v18.937h-4.132v-2.273c-1.304 1.677-3.259 2.772-5.949 2.772-5.298 0-9.472-4.173-9.472-9.967s4.174-9.968 9.472-9.968c2.69 0 4.645 1.109 5.949 2.786v-2.287zm.263 9.469c0-3.452-2.288-6.072-5.713-6.072s-5.713 2.745-5.713 6.072 2.149 6.072 5.713 6.072 5.713-2.607 5.713-6.072zm18.93 11.243V126c2.274 0 5.56-1.303 7.585-3.327 2.038-2.024 3.883-4.727 5.228-7.278L175 101.42h-4.549l-5.366 11.354-5.506-11.34h-4.368l7.502 15.208c-.873 1.22-1.803 2.385-2.468 3.05-1.22 1.22-3.897 2.398-4.978 2.398v.001zm-66.537-1.802h-4.118v-6.766-12.31h4.118v2.398c1.567-1.497 3.287-2.745 6.171-2.745v4.117c-1.637 0-3.204.652-4.368 1.803a6.19 6.19 0 0 0-1.803 4.366v9.122.014.001z" fill="#000"/></svg>