<svg xmlns="http://www.w3.org/2000/svg" width="222" height="222" fill="none" xmlns:v="https://vecta.io/nano"><g clip-path="url(#A)"><path d="M73.744 89h.04l1.176 1.773c1.755 2.924 2.598 6.445 2.123 9.847-.334 2.36-1.314 4.712-3.099 6.328-.697.64-1.382 1.322-1.833 2.167-.516.952-.736 2.085-.498 3.152.321 1.604 1.343 2.96 2.519 4.043-.604.33-1.223.644-1.889.828-1.486.447-3.14.351-4.538-.339-1.554-.752-2.749-2.079-3.67-3.521-1.122-1.759-1.949-3.729-2.278-5.801-.424-2.569-.003-5.249 1.095-7.599.504-1.064 1.103-2.096 1.884-2.979-.119 1.427-.044 2.898.466 4.247.449 1.14 1.132 2.26 2.188 2.92.014-.637.011-1.28.168-1.903.421-1.961 1.664-3.63 3.115-4.957 1.51-1.338 2.392-3.259 2.791-5.216.193-.982.326-1.988.239-2.99h.001zm.655 24.395c1.023-1.149 2.544-1.84 4.079-1.798 1.714.069 3.397.837 4.551 2.122 2.16 2.431 2.481 6.198 1.058 9.08-.72 1.499-1.933 2.74-3.404 3.5-1.241.622-2.456 1.323-3.519 2.226-1.015.831-1.903 1.897-2.296 3.171-.137.405-.145.837-.121 1.259-1.261-1.278-1.869-3.146-1.642-4.929.261-2.148 1.408-4.065 2.746-5.711 1.131-1.318 2.287-2.69 2.858-4.363.32-.955.331-2.138-.378-2.924-.97-1.134-2.519-1.483-3.932-1.634v.001zm-15.174.421c.708.982 1.486 1.918 2.369 2.743 1.723 1.65 3.828 2.979 6.182 3.454 2.161.448 4.45.073 6.414-.919a13.43 13.43 0 0 1 .603-.291c-.741 1.432-1.734 2.719-2.815 3.904-1.416 1.436-3.163 2.688-5.2 2.961-1.293.147-2.636-.006-3.837-.52-1.543-.669-2.675-2.082-3.226-3.655-.876-2.452-.827-5.127-.489-7.677z" fill="#263684"/><path d="M80.428 96.911l.467-.029H93.31c1.299-.011 2.621.202 3.787.805 2.306 1.164 3.936 3.637 3.969 6.255l.002 7.533c-.019 2.879-1.951 5.628-4.635 6.613.052.268.247.472.387.697l8.871 13.242c.199.282.391.569.555.875l-8.768.008-9.751-14.548c-.382-.54-.484-1.269-.238-1.887.192-.547.679-.893 1.068-1.292l3.601-3.506c.305-.353.465-.808.448-1.274l-.005-4.406c-.044-.979-.947-1.771-1.904-1.77l-9.991-.009c-.349-.011-.704.039-1.047-.044.549-1.714.874-3.505.895-5.306.004-.654-.084-1.304-.123-1.957h-.001zm25.884 2.459c1.258-1.463 3.116-2.371 5.031-2.487l15.325-.001 4.826.015-.007 7.304c-5.356-.009-10.711.001-16.067-.005-.707-.015-1.452.318-1.801.961-.369.638-.268 1.405-.279 2.112.016.749-.036 1.503.026 2.25.082.933.926 1.72 1.857 1.722l9.311.001a7.2 7.2 0 0 1 4.207 1.559c1.394 1.09 2.359 2.716 2.658 4.466.13.666.09 1.346.094 2.02l.001 6.452c.016 1.301-.373 2.596-1.044 3.703a7.24 7.24 0 0 1-6.113 3.495c-4.557.011-9.114-.001-13.67.006-.222.045-.328-.176-.438-.322l-3.551-5.312c-.36-.567-.769-1.104-1.095-1.692l15.658-.016c.934-.041 1.754-.876 1.782-1.819l.005-3.226c.01-.643-.299-1.283-.831-1.646-.389-.282-.88-.354-1.348-.351-2.973.005-5.947-.001-8.921.002a7.06 7.06 0 0 1-5.293-2.146c-1.286-1.291-2.039-3.022-2.108-4.846l-.003-7.329c-.03-1.772.634-3.538 1.789-4.871h-.001zm32.057-1.321c1.273-.818 2.795-1.203 4.299-1.168l15.03.002 4.288.024.001 7.333c-.523.068-1.048-.015-1.573-.001-5.013.011-10.025-.019-15.036.016-1.028-.035-1.901.924-1.878 1.941l-.004 17.389c-.013.687.296 1.409.894 1.771.379.25.842.312 1.285.308l6.789-.006c.964.024 1.853-.809 1.904-1.776l.013-8.998c1.363-.058 2.729-.009 4.094-.025 1.17.016 2.342-.033 3.511.025l.006 18.099-18.451.014c-.695-.013-1.393.043-2.082-.061-1.739-.194-3.378-1.071-4.555-2.369-1.134-1.26-1.855-2.923-1.873-4.633l-.004-13.582c-.078-.779-.047-1.563-.051-2.346v-5.47c.042-.784.088-1.576.313-2.333.471-1.707 1.608-3.198 3.08-4.154h0z" fill="#383735"/></g><defs><clipPath id="A"><path fill="#fff" transform="translate(59 89)" d="M0 0h103v44H0z"/></clipPath></defs></svg>