<svg xmlns="http://www.w3.org/2000/svg" width="222" height="222" fill="none" xmlns:v="https://vecta.io/nano"><g clip-path="url(#A)"><path d="M144.141 97.22c1.759-.813 3.729-1.093 5.654-1.001 1.823.083 3.662.458 5.292 1.305 1.292.669 2.431 1.675 3.146 2.951.488.862.776 1.829.88 2.811.092.906.066 1.836-.188 2.716-.344 1.259-1.116 2.381-2.127 3.199-.403.33-.844.611-1.302.859 1.343.493 2.564 1.359 3.399 2.529.909 1.252 1.348 2.8 1.407 4.335.083 1.602-.28 3.243-1.131 4.613-.725 1.182-1.773 2.147-2.96 2.854-1.385.828-2.948 1.326-4.538 1.568-2.264.339-4.61.197-6.797-.492-1.985-.62-3.813-1.694-5.375-3.062-.191-.151-.346-.35-.563-.466l2.042-2.232a.69.69 0 0 1 .233.175c1.224 1.277 2.792 2.207 4.482 2.718 1.141.351 2.335.513 3.527.531 1.772.002 3.596-.3 5.146-1.201 1.124-.646 2.054-1.659 2.497-2.887.298-.827.428-1.726.302-2.6-.122-.962-.539-1.885-1.191-2.604-1.031-1.153-2.533-1.78-4.037-2.016-.915-.159-1.844-.109-2.768-.116h-3.179v-2.99l4.134-.001c.855-.009 1.714-.134 2.522-.417.923-.316 1.792-.835 2.439-1.573.555-.629.917-1.425 1.015-2.258.089-.803 0-1.638-.338-2.378-.318-.711-.854-1.312-1.492-1.754-.717-.501-1.546-.821-2.392-1.028-.978-.234-1.987-.32-2.992-.315-.86.012-1.722.113-2.547.363a6.66 6.66 0 0 0-2.263 1.178c-.546.433-1.019.952-1.435 1.509l-2.396-1.564c.988-1.398 2.334-2.548 3.894-3.259h0zm-48.989-.378c.974-.258 1.98-.374 2.985-.414 2.585-.114 5.212.485 7.449 1.797.499.284.969.617 1.433.953a.59.59 0 0 0 .04-.223l-.002-1.916h2.621v9.103h-2.633l-.049-3.055c-1.368-1.457-3.12-2.536-5.013-3.165-1.688-.54-3.522-.719-5.259-.311-.872.202-1.717.546-2.45 1.065-.583.413-1.096.939-1.437 1.57a3.46 3.46 0 0 0-.374 2.34c.121.669.464 1.287.936 1.773.621.645 1.421 1.081 2.235 1.433 1.501.633 3.1.977 4.673 1.376 1.907.5 3.804 1.09 5.574 1.969.887.451 1.745.978 2.479 1.656.546.497.986 1.1 1.363 1.732.858 1.513 1.046 3.353.684 5.04-.346 1.633-1.219 3.151-2.471 4.257-1.206 1.046-2.71 1.71-4.266 2.032-1.222.262-2.477.312-3.723.288-2.123-.078-4.237-.576-6.151-1.503-.876-.437-1.692-.985-2.429-1.629l-.002 2.767h-2.668v-9.52h2.674l.019 2.287c.006.193-.018.411.132.56 1.239 1.53 2.912 2.681 4.73 3.416 1.175.461 2.435.678 3.692.745 1.107.045 2.228-.019 3.299-.32a6.39 6.39 0 0 0 2.257-1.079c.667-.486 1.174-1.168 1.528-1.908a4.32 4.32 0 0 0 .432-2.133c-.052-.914-.416-1.804-1.001-2.507-.52-.618-1.177-1.105-1.92-1.421-.997-.421-2.019-.784-3.058-1.087l-6.02-1.746c-1.409-.519-2.808-1.155-3.955-2.143-.728-.617-1.281-1.42-1.667-2.289-.317-.688-.483-1.439-.517-2.195-.096-1.783.491-3.599 1.645-4.965.439-.533.975-.975 1.53-1.381.8-.57 1.702-.997 2.652-1.246v-.002zm25.854.011c1.07-.289 2.181-.405 3.287-.433 2.175-.052 4.374.393 6.329 1.357.805.386 1.558.871 2.274 1.401a.59.59 0 0 0 .039-.223l-.001-1.916h2.633v9.103h-2.631l-.026-1.846-.014-1.203c-1.165-1.249-2.626-2.209-4.201-2.861-1.697-.697-3.577-1.011-5.401-.752-.926.133-1.839.411-2.653.877-.742.43-1.416 1.017-1.85 1.764-.449.747-.583 1.661-.424 2.513.138.751.565 1.429 1.13 1.935.605.548 1.334.936 2.083 1.25 1.907.787 3.956 1.122 5.925 1.709 1.689.497 3.363 1.09 4.9 1.957.846.486 1.655 1.06 2.306 1.792.501.587.943 1.234 1.238 1.95.637 1.565.656 3.345.178 4.956-.489 1.656-1.535 3.15-2.953 4.142-1.361.968-2.992 1.498-4.64 1.7-2.099.245-4.249.139-6.289-.43-.961-.268-1.907-.606-2.79-1.072-.795-.418-1.538-.93-2.213-1.523v2.765h-2.632v-9.52h2.632l.029 2.635c.083.243.299.415.456.613 1.24 1.375 2.835 2.41 4.558 3.074.84.332 1.733.51 2.627.621.999.116 2.013.125 3.011-.012.966-.142 1.93-.401 2.782-.89.566-.331 1.108-.728 1.51-1.252.616-.775 1.052-1.72 1.114-2.717.064-.93-.207-1.873-.725-2.645-.566-.84-1.408-1.48-2.35-1.845a27.51 27.51 0 0 0-3.003-1.049l-6.081-1.784c-1.439-.545-2.87-1.223-3.997-2.295-.639-.627-1.147-1.388-1.5-2.211-.334-.763-.484-1.602-.468-2.433-.014-1.838.689-3.61 1.961-4.937 1.057-1.066 2.381-1.885 3.84-2.264v-.001zm-60.284-.159h14.154c1.658.018 3.34.393 4.768 1.258.636.392 1.245.848 1.719 1.431a8.27 8.27 0 0 1 1.935 4.718 8.68 8.68 0 0 1-.361 3.211c-.252.807-.604 1.592-1.114 2.27-.495.657-1.112 1.219-1.793 1.678-.559.37-1.141.72-1.776.945-.956.353-1.981.509-2.998.478l7.152 10.823c.169.045.345.03.519.031h2.706v2.513l-10.02.001v-2.514h3.183l-7.016-10.818c-1.665 0-3.33-.001-4.995 0v10.818h2.99v2.514c-3.101-.001-6.203.001-9.304-.001v-2.513h3.193v-23.84l-2.943-.001v-3.002h-.001zm6.064 2.872v10.257h8.137c.941-.009 1.917-.12 2.752-.589.712-.389 1.254-1.025 1.675-1.707a5.35 5.35 0 0 0 .79-2.14c.156-1.084-.045-2.213-.551-3.184a4.56 4.56 0 0 0-1.386-1.568c-.859-.614-1.9-.936-2.944-1.035-.491-.054-.986-.029-1.48-.035l-6.994.001h.001z" fill="#000"/><path d="M51 109.8h7.542v3.097H51V109.8zm112.435 0l7.565.002v3.092l-7.565.004V109.8h0z" fill="#0b70ff"/></g><defs><clipPath id="A"><path fill="#fff" transform="translate(51 96)" d="M0 0h120v30.311H0z"/></clipPath></defs></svg>