<svg xmlns="http://www.w3.org/2000/svg" width="222" height="222" fill="none" xmlns:v="https://vecta.io/nano"><path d="M62.9 112.717c-5.407-.752-6.903-1.421-6.903-3.021s2.197-2.747 5.503-2.747c3.597 0 6.3 1.708 7.108 4.252l4.007-.943c-.797-3.786-5.6-6.712-11.006-6.712-5.805 0-9.703 2.46-9.703 6.234 0 3.5 2.8 5.291 10.705 6.33 5.009.657 6.698 1.517 6.698 3.308s-2.402 2.843-6.3 2.843c-4.501 0-7.205-1.708-8.001-5.112l-4.008.847c.7 4.634 5.503 7.655 12.008 7.655s10.5-2.46 10.5-6.246-2.908-5.577-10.608-6.712v.024h0zm21.216-13.221h-4.513v4.407h-4.513V108h4.513v11.107c0 3.44 2.8 6.234 6.251 6.234h7.325v-4.407h-9.075V108h9.075v-4.097h-9.075v-4.407h.012zm29.942 7.25l-2.921-2.891h-13.07v4.3h14.181l-14.181 10.976v5.912l17.391-13.639v13.639h4.019v-12.935l-2.764-2.723-2.655-2.639zM173 103.855h-4.019v13.64l-17.39-13.64v5.912l14.18 10.976h-14.18v4.3h13.07l2.908-2.902.012.011 2.655-2.639L173 116.79v-12.935zM147.499 97h-4.574v28.353h4.574V97zm-18.947 10.14h-.205v-3.213h-4.309v21.116h4.309v-16.816h10.33v-4.682h-4.514c-2.401 0-4.368 1.039-5.611 3.594v.001z" fill="#000"/></svg>