<svg xmlns="http://www.w3.org/2000/svg" width="222" height="222" fill="none" xmlns:v="https://vecta.io/nano"><g clip-path="url(#A)"><path d="M95.168 75.167c.663-.106 1.333-.165 2.005-.167h28.292c3.232.059 6.555 1.257 8.746 3.703 1.976 2.195 3.007 5.193 2.914 8.136v28.292c.09 3.714-1.642 7.546-4.771 9.636-2.009 1.358-4.451 2.089-6.876 2.022-9.224-.002-18.448 0-27.671 0-3.621.236-7.428-1.124-9.773-3.959-1.781-2.136-2.639-4.938-2.698-7.692l.004-28.525c.078-2.979 1.113-6.017 3.228-8.169 1.737-1.815 4.136-2.894 6.6-3.277zm10.582 1.874c-3.006 1.447-5.376 4.147-6.416 7.32a12.79 12.79 0 0 0 .963 10.331c1.245 2.201 3.169 3.997 5.424 5.132.321.226.87.12.878-.336.064-1.538 0-3.08.028-4.62-.017-.716.112-1.515-.349-2.127-.874-1.232-1.498-2.681-1.559-4.206-.131-2.263 1.107-4.513 2.994-5.734 2.514-1.671 6.16-1.303 8.258.883 2.056 1.999 2.577 5.366 1.175 7.876-.391.733-1.095 1.348-1.101 2.237-.051 1.766-.011 3.537-.021 5.303-.049.321.139.579.359.79 3.462-1.468 6.146-4.593 7.134-8.216a12.8 12.8 0 0 0-1.151-9.564 12.42 12.42 0 0 0-7.168-5.898 12.32 12.32 0 0 0-9.448.83zm4.576 12.384c-1.386.448-2.326 1.868-2.328 3.306l-.006 20.093c-.036 1.035.403 2.083 1.204 2.749 1.164 1.033 3.103 1.081 4.274.029.862-.731 1.248-1.876 1.229-2.985l.009-19.235c-.003-.79-.026-1.623-.425-2.328-.727-1.377-2.468-2.119-3.957-1.629zM86.2 102.289c1.012.031 2.026.012 3.04.023-.055 2.884.116 5.812 1.042 8.564 2.102 6.835 7.779 12.431 14.64 14.44 5.161 1.553 10.907 1.135 15.75-1.257 5.205-2.539 9.274-7.217 11.203-12.665 1.062-2.867 1.4-5.943 1.333-8.985 1.029.004 2.06.019 3.088-.017l-9.375-9.257-.032 11.811c-.175 5.311-3.285 10.388-7.92 12.98-3.292 1.88-7.276 2.546-10.988 1.733-3.655-.774-6.944-2.981-9.173-5.962-2.115-2.787-3.279-6.264-3.329-9.756l-.008-10.904-9.27 9.252z" fill="#e51717"/><g fill="#111"><path d="M86.921 131.062c1.23-1.115 3.036-1.276 4.599-.95 1.449.331 2.854 1.352 3.194 2.864.408 1.773-.733 3.562-2.269 4.386 1.13.366 2.185 1.084 2.74 2.159 1.12 1.952.425 4.559-1.23 5.987-2.113 1.841-5.615 1.64-7.546-.373-1.443-1.422-1.827-3.774-.923-5.582.515-1.046 1.485-1.821 2.582-2.191-.727-.448-1.458-.955-1.878-1.722-.894-1.432-.568-3.494.731-4.578zm1.694 1.851c-.256 1.424.543 2.808 1.623 3.682 1.149-.914 1.929-2.425 1.648-3.91-.139-.799-.813-1.604-1.684-1.54-.908.042-1.462.953-1.587 1.768zm.516 11.4c.577.606 1.608.714 2.25.15.989-.826 1.394-2.248 1.115-3.488-.321-1.234-1.318-2.185-2.436-2.73-2.043 1.162-2.635 4.376-.93 6.068zm13.233-14.231c1.559-.211 3.232-.192 4.66.545.908.429 1.701 1.166 2.045 2.128.547 1.506-.072 3.295-1.356 4.225 1.172.205 2.324.843 2.902 1.914.862 1.532.742 3.391.347 5.043-.353 1.307-1.211 2.691-2.626 2.995-.997.133-2.123.117-2.989-.458-.776-.583-.539-1.654-.364-2.465.587.439 1.297 1.007 2.079.756.887-.516 1.039-1.648 1.118-2.578.059-1.246-.104-2.693-1.122-3.547-.74-.655-1.792-.604-2.707-.505v8.485c-1.092 0-2.184 0-3.276-.002l-.004-14.127 3.28-.457.005 4.959c1.483-.015 2.414-1.494 2.548-2.833.215-1.213-.554-2.493-1.724-2.874-1.578-.538-3.44-.205-4.754.822-1.709 1.365-1.965 4.09-.701 5.833-1.004-.023-2.212-.281-2.681-1.28-.482-1.196-.296-2.635.437-3.691 1.09-1.635 2.985-2.567 4.883-2.888zm11.03.875c2.108-1.168 4.641-1.095 6.961-.79 1.88.308 3.881.604 5.7-.152.144.961.072 2.258-.987 2.67-1.559.509-3.207-.009-4.766-.264v14.199h-3.224v-14.639c-1.041-.036-2.226.11-2.953.941-.708.88-.674 2.089-.617 3.156.03.714.376 1.356.807 1.91-1.022-.06-2.254-.296-2.744-1.319-.761-1.994-.152-4.652 1.823-5.712zm14.017 1.546c.735-1.219 1.929-2.254 3.376-2.459 1.443-.19 3.08-.061 4.225.934 1.036.849 1.405 2.432.848 3.642-.619.716-1.735.357-2.409-.099.619-.71.881-1.788.425-2.647-.294-.628-1.073-.995-1.732-.742-.873.273-1.302 1.166-1.638 1.944-.714 1.882-.855 3.929-.841 5.926.095 1.835.296 3.959 1.752 5.266 1.933 1.42 4.85.376 5.869-1.688l.593.245c-.397 1.769-1.793 3.248-3.511 3.799-1.375.444-2.89.507-4.278.084-1.576-.458-2.81-1.772-3.376-3.285-.663-1.73-.763-3.616-.695-5.448.11-1.885.408-3.828 1.392-5.472z"/></g></g><defs><clipPath id="A"><path fill="#fff" transform="translate(85 75)" d="M0 0h52.879v72H0z"/></clipPath></defs></svg>