<svg xmlns="http://www.w3.org/2000/svg" width="222" height="222" fill="none" xmlns:v="https://vecta.io/nano"><g clip-path="url(#A)"><g fill="#010000"><path d="M58.798 100.433c.348-.78.405-1.748.9-2.425l22.714.01c.285.043.661-.131.876.135l1.768 2.139-.006.088-.006 22.449c-.724.389-1.518.645-2.253 1.017l-9.101-8.857-1.492-1.447-2.351-2.277-4.061-3.931c-.456-.55-1.027-.994-1.514-1.516h3.323l1.633 1.559c.154.256.407.43.608.647l2.318 2.269 1.52 1.455 8.984 8.812.069-.096v-18.619c-.065-.504.104-1.079-.074-1.543-6.9.035-13.801-.012-20.702.022.493.528 1.033 1.007 1.539 1.521.548.562 1.14 1.08 1.67 1.659l-3.309.004c-.968-1.054-2.124-1.993-3.055-3.075h.002zm35.557-2.347c1.07-.154 2.224-.041 3.323-.055l.092.096 4.497 11.352c-1.156.036-2.312-.005-3.468.022-.266-.581-.434-1.203-.655-1.802l-4.395-.027c-.344.546-.383 1.275-.757 1.803-1.095.016-2.189-.015-3.282.032l4.645-11.421zm1.473 3.738l-1.224 3.581 2.597-.014-1.219-3.553-.154-.014zm9.184-2.869c.943-.9 2.389-1.091 3.621-.819 1.203.188 2.417 1.15 2.392 2.455.063 1.328-1.05 2.294-2.132 2.848l-.399.279c.511.421.861 1.049 1.442 1.367.215-.485.453-.97.561-1.494l.19-.016 1.86 1.34c-.149.706-.601 1.297-.9 1.937.544.432 1.009.954 1.545 1.4-.483.55-1.038 1.16-1.649 1.528-.514-.39-.942-.896-1.431-1.321-1.518.994-3.535 1.35-5.211.523-1.156-.538-1.964-1.796-1.825-3.085.063-1.183 1.005-2.063 1.985-2.595.114-.253-.17-.448-.248-.665-.655-1.111-.739-2.703.199-3.681zm2.303.955c-.806.43-.499 1.59-.045 2.187.655-.21 1.371-.925 1.21-1.698-.135-.499-.721-.669-1.165-.489zm-1.407 6.721c.56.788 1.7.649 2.461.25-.503-.767-1.336-1.369-1.925-2.116-.657.344-.997 1.23-.536 1.866zm7.569-8.604l9.693-.012.028 2.66c-1.064.109-2.152-.006-3.224.053l.01 8.739c-1.103.004-2.226.058-3.315-.026l.004-8.723a399.58 399.58 0 0 0-3.097.002l-.109-.092.01-2.602zM58 105.828l3.345-.008c.501.512.968 1.089 1.563 1.492.1.235.309.411.483.595l6.456 6.413 2.306 2.324-2.255.972L58 105.828zm57.744 6.976c.496-.713 1.521-.813 2.247-.406l3.918.009c1.412.067 2.951.683 3.608 2.015.638 1.311.587 2.926-.029 4.235-.683 1.382-2.273 2.067-3.755 2.063-.705.141-1.426-.115-2.121.047-.168.988-.009 2.048-.076 3.063a258.66 258.66 0 0 0-3.296 0l-.088-.113.01-5.581 4.391-.009c.532-.01 1.109.068 1.581-.237.931-.657.819-2.334-.182-2.875-1.051-.362-2.164-.028-3.243-.12.481.81 1.169 1.487 1.645 2.297l-2.334-.004c-.637-.599-.884-1.657-1.77-1.944-.849-.456-1.123-1.688-.506-2.44zm.979.249c-.512.221-.639.992-.203 1.348a.79.79 0 0 0 1.224-.175c.476-.625-.338-1.527-1.021-1.173zm-24.391.79c2.552-2.159 6.697-1.874 9.017.499-.598.794-1.316 1.494-1.927 2.28-.73-.745-1.655-1.457-2.752-1.466-1.291-.057-2.496.97-2.689 2.239-.317 1.332.409 2.895 1.737 3.353 1.324.483 2.74-.221 3.685-1.145l1.94 2.117c-1.658 1.643-4.133 2.521-6.437 1.934-1.979-.42-3.709-1.94-4.254-3.908-.645-2.069-.018-4.516 1.68-5.903zm14.169-1.463l3.425.012 4.299 10.601c.106.27.248.538.268.833-1.17-.008-2.339.01-3.507-.008l-.683-1.817c-1.502.008-3.002-.009-4.502.01-.276.587-.391 1.281-.736 1.817-1.095-.002-2.19-.008-3.284 0l.037-.332 4.683-11.118v.002zm.225 7.079c.866.123 1.762-.002 2.64.062-.262-1.24-.86-2.423-1.224-3.65-.593 1.125-.88 2.42-1.416 3.588zm21.134-7.067l3.228-.014.078.121-.002 11.204-.065.125c-1.079-.014-2.159.014-3.239-.014v-11.422zm5.244-.01l9.693.004v2.65c-1.07.067-2.161-.084-3.217.075l.006 8.171-.079.546c-1.075-.017-2.153.022-3.229-.019l-.033-8.767h-3.143l.002-2.66zm13.688-.002l3.4.01 4.34 10.714c.094.237.219.468.244.726l-3.491-.004c-.305-.567-.44-1.226-.7-1.821-1.508-.002-3.014-.01-4.52.004-.263.595-.409 1.242-.707 1.817-1.13-.055-2.331.11-3.415-.082 1.544-3.501 2.964-7.059 4.47-10.578.135-.256.158-.59.379-.786zm1.487 3.619c-.409 1.165-.836 2.327-1.287 3.479.884.076 1.776-.006 2.664.043-.309-1.238-.877-2.412-1.238-3.638a5.02 5.02 0 0 0-.139.116zm7.871-3.619l3.069.006.014 8.725 4.739.065-.027 2.642c-2.594.02-5.185-.002-7.777.01l-.078-.129-.002-11.19.062-.129z"/></g><g fill="#b2b2b2"><path d="M61.953 100.324l20.702-.022c.178.464.01 1.039.074 1.543H63.492l-1.539-1.521zm23.098.056c.553.591 1.125 1.246 1.539 1.945l-.014 21.378-2.013.954c-.608-.228-1.179-.545-1.772-.811l2.253-1.017.006-22.449zm-23.706 5.44l2.928-.002 1.514 1.516c-.959.008-1.931.029-2.879-.022-.595-.403-1.062-.98-1.563-1.492zm6.251-.002c.747.039 1.53-.09 2.255.059l-.002 1.486-.62.014c-.585-.474-1.113-1.015-1.633-1.559zm4.598.037l1.471 1.8.01 4.093c-.532-.455-1.005-.98-1.52-1.455l.039-4.438zm.005 7.687l1.492 1.447.006 2.471c-.62.436-1.4.657-2.067 1.046-.61-.174-1.162-.593-1.731-.89l2.255-.972.045-3.102z"/></g><g fill="#167aff"><path d="M58.651 103.61c1.021-.231 2.142-.038 3.202-.102l3.309-.004h4.96l.272.131 1.799 2.22c-.096 1.471.006 2.959-.039 4.438l-2.318-2.269.012-.661.002-1.486c-.726-.149-1.508-.02-2.255-.059a153.38 153.38 0 0 0-3.323 0c-.976-.004-1.952-.008-2.928.002-1.115-.01-2.23-.026-3.345.008.129-.753.464-1.471.651-2.218zm11.196 7.655l2.351 2.277c-.076 1.029-.027 2.067-.045 3.102l-2.306-2.324v-3.055z"/></g></g><defs><clipPath id="A"><path fill="#fff" transform="translate(58 98)" d="M0 0h106v26.657H0z"/></clipPath></defs></svg>