<svg xmlns="http://www.w3.org/2000/svg" width="222" height="222" fill="none" xmlns:v="https://vecta.io/nano"><path fill-rule="evenodd" d="M89.927 111c0-11.638 9.435-21.073 21.073-21.073s21.073 9.435 21.073 21.073-9.435 21.073-21.073 21.073S89.927 122.638 89.927 111zM111 86c-13.807 0-25 11.193-25 25s11.193 25 25 25 25-11.193 25-25-11.193-25-25-25zm4.014 32.553c.078.29.173.548.285.771h4.732v-.285c-.235-.458-.414-1.007-.537-1.644s-.184-1.443-.184-2.417v-7.786c0-1.051-.196-1.974-.588-2.768-.391-.806-.934-1.471-1.627-1.997s-1.516-.923-2.467-1.191c-.94-.269-1.958-.403-3.054-.403-1.219 0-2.304.156-3.255.47-.94.302-1.74.716-2.4 1.241-.649.526-1.146 1.136-1.493 1.829-.336.694-.504 1.427-.504 2.199h4.665c0-.683.218-1.225.655-1.628.436-.414 1.13-.621 2.08-.621 1.074 0 1.897.257 2.467.772.571.503.856 1.191.856 2.064v1.074h-2.601c-2.83 0-4.961.526-6.393 1.577-1.421 1.041-2.131 2.517-2.131 4.43 0 .783.156 1.51.469 2.182.314.66.75 1.23 1.309 1.711s1.225.856 1.997 1.124c.783.269 1.639.403 2.568.403.57 0 1.101-.056 1.594-.168.492-.1.939-.24 1.342-.419.414-.19.789-.409 1.124-.655s.632-.509.89-.788a10.43 10.43 0 0 0 .201.923zm-2.853-2.668c-.402.111-.839.167-1.308.167-.895 0-1.567-.207-2.014-.62-.436-.414-.654-.935-.654-1.561a2.75 2.75 0 0 1 .234-1.141 2.27 2.27 0 0 1 .722-.906c.324-.258.744-.453 1.258-.588.515-.145 1.136-.218 1.863-.218h2.383v3.121a3.38 3.38 0 0 1-.554.705c-.235.224-.515.425-.839.604a5.04 5.04 0 0 1-1.091.437z" fill="#222326"/></svg>