<svg xmlns="http://www.w3.org/2000/svg" width="222" height="222" fill="none" xmlns:v="https://vecta.io/nano"><path fill-rule="evenodd" d="M111 86c-13.807 0-25 11.193-25 25s11.193 25 25 25 25-11.193 25-25-11.193-25-25-25zm-2.127 32.079l-.016.03c-.555.97-.836 1.462-1.225 1.833-.424.405-.932.7-1.492.864-.511.141-1.081.141-2.224.141h-4.852c-1.019 0-1.524 0-1.83-.197-.332-.217-.535-.571-.559-.965-.019-.362.233-.806.738-1.69l11.98-21.113c.511-.897.767-1.346 1.092-1.511.348-.178.767-.178 1.119 0 .324.165.584.614 1.092 1.511l2.462 4.298.014.022c.551.962.83 1.448.951 1.962a3.65 3.65 0 0 1 0 1.708c-.121.517-.4 1.009-.959 1.984l-6.293 11.123h.003zm16.096 2.665c-.308.203-.822.203-1.849.203h-6.952c-1.024 0-1.541 0-1.843-.197a1.25 1.25 0 0 1-.56-.971c-.019-.359.235-.797.743-1.676l.011-.021 3.471-5.957c.511-.879.768-1.314 1.087-1.482a1.22 1.22 0 0 1 1.11 0c.317.162.565.579 1.055 1.408l.04.068 3.482 5.958c.016.029.035.056.051.086.484.833.73 1.257.711 1.608-.019.392-.227.754-.56.971l.003.002z" fill="#da5147"/></svg>