<svg xmlns="http://www.w3.org/2000/svg" width="222" height="222" fill="none" xmlns:v="https://vecta.io/nano"><g clip-path="url(#A)" fill="#48a0b4"><path d="M60 96.005c.48-.553 1.133-1.014 1.894-.981 1.479 0 2.973-.11 4.441.13-.083.405-.156.839-.474 1.133l-7.405 8.017h4.305l4.264 4.602c-2.855.002-5.71.004-8.567-.003l8.565 9.223c-1.762-.024-3.527.034-5.29-.022-.751-.005-1.356-.506-1.841-1.032l-8.084-8.729c-.458-.497-.856-1.113-.804-1.821 0-.711.453-1.294.907-1.791L60 96.005zm28.004 1.854c2.696-.18 5.404-.032 8.104-.081 1.95-.05 4.023.452 5.442 1.876 2.441 2.413 2.093 7.204-1.03 8.881 2.068.716 3.927 2.463 4.249 4.716.221 1.845-.094 3.891-1.354 5.319-1.057 1.226-2.645 1.82-4.195 2.083-2.361.36-4.756.229-7.135.252-1.365-.03-2.739.101-4.095-.126l.013-22.919zm4.993 4.421l-.007 4.417c1.352-.061 2.736.171 4.063-.149 1.789-.456 1.963-3.548.141-4.057-1.367-.364-2.801-.164-4.197-.211zm-.005 8.728v5.362l4.021-.032c.898-.051 1.856-.375 2.384-1.153.478-.763.534-1.748.27-2.596-.32-1.021-1.425-1.525-2.422-1.565-1.418-.045-2.837.002-4.253-.016zm15.469-13.163c1.079-.268 2.292.229 2.824 1.223.672 1.15.355 2.785-.744 3.547-1.083.805-2.772.538-3.561-.562-1.119-1.419-.335-3.866 1.481-4.208zm7.908 2.13l.26-.214c1.514-.025 3.058-.157 4.557.121l-.007 4.573 2.64.029c.36-.065.391.391.423.636.078 1.093.053 2.195-.085 3.284-.99.07-1.982.065-2.971.049l.004 12.275c-1.593.302-3.246.23-4.847.034l-.025-12.309c-.956-.022-1.93.106-2.873-.09-.382-1.232-.254-2.656-.022-3.929l2.902.014.044-4.473zm46.696-.119c1.273-.216 2.569-.11 3.854-.126.357.049.985-.09.96.463.101 1.417.011 2.838.038 4.257l2.998.059c.1 1.295.138 2.602-.036 3.893-.983.074-1.97.067-2.955.051l-.034 12.291c-1.59.247-3.234.252-4.825 0l-.009-12.286c-.922-.018-1.852.076-2.765-.056-.425-.138-.275-.675-.329-1.012.041-.934-.118-1.905.139-2.812.947-.272 1.977-.063 2.96-.123l.004-4.599zm-97.587 4.448l5.312.027c.822.005 1.448.585 1.964 1.16l8.08 8.735c.831.81.931 2.231.107 3.084l-8.176 8.852c-.505.567-1.108 1.158-1.908 1.21-1.186.101-2.379.04-3.568.054-.346-.057-.862.09-1.03-.322-.203-.398.177-.72.395-1.003l7.394-7.973a1016.74 1016.74 0 0 0-4.278 0l-4.309-4.599 8.558-.02-8.542-9.205zm41.176.22c1.47-.108 2.948-.094 4.42-.038.492-.043.349.556.391.862l-.024 15.441c-1.597.166-3.228.216-4.821-.038l-.024-14.036.058-2.191zm20.531 2.677c1.629-2.128 4.459-3.3 7.097-2.722 1.28.243 2.366 1.046 3.224 1.997l.237-1.711c1.3-.115 2.613-.151 3.915-.047.572-.009.434.715.487 1.1l-.011 14.395c-.011 1.626-.281 3.394-1.472 4.595-1.356 1.597-3.456 2.229-5.453 2.485-3.027.337-6.281-.292-8.73-2.184.177-1.169.986-2.139 1.578-3.133 2.046 1.177 4.487 1.714 6.819 1.228.983-.24 2.071-.668 2.534-1.648.359-.88.288-1.86.308-2.791-.889.868-1.894 1.705-3.136 1.974-2.429.63-5.118-.211-6.838-2.028-2.931-3.014-3.105-8.204-.559-11.51zm5.167 1.851c-1.302.526-2.231 1.866-2.276 3.281-.226 1.889 1.173 3.879 3.098 4.061 1.736.295 3.396-1.045 3.838-2.687.427-1.475-.076-3.176-1.282-4.131-.921-.781-2.265-.959-3.378-.524zm12.95-1.404c2.215-3.277 7.061-4.345 10.407-2.233 2.645 1.631 3.941 4.963 3.529 8-.058.542-.449 1.07-1.047.994-3.215.04-6.434-.014-9.65.018.277.641.556 1.327 1.134 1.758 1.182.956 2.828 1.039 4.26.76.805-.152 1.455-.775 2.259-.879.813.601 1.465 1.388 2.151 2.125-2.806 3.48-8.448 3.812-11.763.891-3.242-2.741-3.749-8.018-1.28-11.434zm4.056 1.869c-.473.47-.657 1.131-.833 1.754l6.521.003c-.201-.592-.344-1.242-.793-1.703-1.213-1.417-3.626-1.356-4.895-.054z"/></g><defs><clipPath id="A"><path fill="#fff" transform="translate(51 95)" d="M0 0h120v32.432H0z"/></clipPath></defs></svg>