<svg xmlns="http://www.w3.org/2000/svg" width="222" height="222" fill="none" xmlns:v="https://vecta.io/nano"><path d="M132.273 115.698V90h5.166v25.698h-5.166z" fill="#f7a600"/><path d="M72.074 123.331H61V97.634h10.628c5.166 0 8.175 2.816 8.175 7.219 0 2.851-1.933 4.693-3.271 5.306 1.597.722 3.641 2.345 3.641 5.776 0 4.798-3.38 7.397-8.1 7.397zm-.854-21.221h-5.054v5.919h5.054c2.192 0 3.419-1.191 3.419-2.961s-1.226-2.958-3.419-2.958zm.334 10.431h-5.388v6.316h5.388c2.342 0 3.455-1.443 3.455-3.177s-1.115-3.139-3.455-3.139zm24.374.251v10.539h-5.129v-10.539l-7.953-15.159h5.611l4.943 10.359 4.868-10.359h5.611l-7.951 15.159zm22.596 10.539H107.45V97.634h10.629c5.165 0 8.175 2.816 8.175 7.219 0 2.851-1.933 4.693-3.271 5.306 1.597.722 3.641 2.345 3.641 5.776 0 4.798-3.38 7.397-8.1 7.397zm-.854-21.221h-5.054v5.919h5.054c2.192 0 3.418-1.191 3.418-2.961s-1.226-2.958-3.418-2.958zm.334 10.431h-5.388v6.316h5.388c2.341 0 3.455-1.443 3.455-3.177s-1.114-3.139-3.455-3.139zm36.084-10.431v21.223h-5.165V102.11h-6.912v-4.477H161v4.477h-6.912z" fill="#000"/></svg>