<svg xmlns="http://www.w3.org/2000/svg" width="222" height="222" fill="#375bd2" xmlns:v="https://vecta.io/nano"><path d="M92.197 109.965a6.45 6.45 0 0 1 .429-2.56 6.48 6.48 0 0 1 1.405-2.189c.612-.628 1.345-1.126 2.155-1.465a6.56 6.56 0 0 1 2.561-.508c3.312 0 5.273 1.933 5.864 4.202l-2.078.697c-.183-.846-.667-1.598-1.362-2.118a3.64 3.64 0 0 0-2.424-.714c-2.147 0-4.293 1.555-4.293 4.697s2.096 4.639 4.318 4.639a3.91 3.91 0 0 0 2.431-.759c.702-.516 1.209-1.252 1.439-2.09l2.02.656a5.8 5.8 0 0 1-2.197 3.18c-1.076.78-2.389 1.169-3.718 1.105a6.48 6.48 0 0 1-2.588-.487 6.44 6.44 0 0 1-2.175-1.477c-.615-.636-1.091-1.391-1.399-2.219a6.37 6.37 0 0 1-.388-2.59zm16.471 6.462h-2.13V103.21h2.13v5.184c.31-.365.699-.655 1.138-.848a3.21 3.21 0 0 1 1.397-.27c2.205 0 3.27 1.572 3.27 3.53v5.621h-2.07v-5.26a1.71 1.71 0 0 0-.058-.765c-.076-.247-.208-.474-.385-.663s-.395-.338-.637-.432a1.74 1.74 0 0 0-.762-.115 1.88 1.88 0 0 0-.748.157c-.236.103-.448.254-.622.443s-.306.411-.389.654a1.84 1.84 0 0 0-.092.755l-.042 5.226zm10.563-5.092l2.29-.353c.515-.067.659-.328.659-.639 0-.747-.507-1.352-1.69-1.352-.228-.02-.458.007-.676.078a1.67 1.67 0 0 0-.589.337 1.69 1.69 0 0 0-.408.541c-.098.206-.153.429-.161.657l-1.944-.437c.161-1.538 1.564-2.907 3.761-2.907 2.755 0 3.803 1.554 3.803 3.361v4.411c-.005.479.031.956.109 1.429H122.4c-.069-.375-.097-.755-.085-1.135a3.12 3.12 0 0 1-1.19 1.066 3.13 3.13 0 0 1-1.565.337 2.81 2.81 0 0 1-1.118-.134 2.8 2.8 0 0 1-.975-.56c-.284-.251-.514-.556-.675-.897s-.252-.712-.266-1.089c0-1.622 1.175-2.496 2.705-2.714zm2.949 1.428v-.403l-2.332.345c-.317.01-.618.142-.84.367a1.22 1.22 0 0 0-.352.843 1.18 1.18 0 0 0 .107.471c.069.148.167.28.289.388a1.19 1.19 0 0 0 .422.24 1.2 1.2 0 0 0 .483.052 2.05 2.05 0 0 0 .909-.114 2.03 2.03 0 0 0 1.237-1.281c.094-.293.121-.603.077-.908zm5.713-9.738c.184-.003.367.032.539.1a1.41 1.41 0 0 1 .458.3 1.38 1.38 0 0 1 .414.986c0 .366-.146.716-.406.975a1.39 1.39 0 0 1-1.96 0c-.26-.259-.406-.609-.406-.975s.142-.709.397-.969a1.39 1.39 0 0 1 .964-.417zm-1.04 13.444v-8.932h2.105v8.89l-2.105.042zm6.989-.042h-2.129v-8.89h2.079v1.185a2.96 2.96 0 0 1 1.123-1.084c.465-.254.991-.379 1.522-.362 2.18 0 3.228 1.572 3.228 3.53v5.621h-2.13v-5.26c0-1.092-.498-1.975-1.833-1.975a1.89 1.89 0 0 0-.77.169 1.9 1.9 0 0 0-.634.467 1.88 1.88 0 0 0-.385.684 1.86 1.86 0 0 0-.071.781v5.134zm8.417 0V103.21h2.129v13.217h-2.129zm5.933-13.402a1.4 1.4 0 0 1 .986.406 1.38 1.38 0 0 1 .171 1.743 1.39 1.39 0 0 1-.622.504 1.4 1.4 0 0 1-1.507-.301 1.38 1.38 0 0 1-.379-.703c-.053-.267-.026-.543.077-.795a1.38 1.38 0 0 1 .507-.619 1.39 1.39 0 0 1 .767-.235zm-1.048 13.444v-8.932h2.113v8.89l-2.113.042zm6.997-.042h-2.129v-8.89h2.07v1.185a2.96 2.96 0 0 1 1.124-1.081 3 3 0 0 1 1.521-.365c2.189 0 3.236 1.572 3.236 3.53v5.621h-2.129v-5.26c.039-.256.019-.517-.057-.765a1.73 1.73 0 0 0-.386-.664c-.177-.189-.394-.337-.637-.431a1.74 1.74 0 0 0-.763-.115c-.264.002-.527.059-.768.169a1.88 1.88 0 0 0-.632.467 1.87 1.87 0 0 0-.383.685c-.078.252-.1.518-.067.78v5.134zm13.107-5.134l3.752 5.134h-2.611l-2.629-3.664-1.098 1.152v2.52h-2.113V103.21h2.113v7.923l3.431-3.596h2.831l-3.676 3.756zM66.963 99.638l9.211 5.26v10.563l-9.186 5.293-9.211-5.251V104.94l9.186-5.302zm0-7.764l-3.38 1.949-9.203 5.302-3.38 1.949v3.882 10.554 3.882l3.38 1.933 9.211 5.26 3.38 1.932 3.38-1.949 9.186-5.302 3.38-1.941v-3.882-10.562V101l-3.38-1.933-9.211-5.26-3.38-1.933h.017z"/></svg>