<svg xmlns="http://www.w3.org/2000/svg" width="222" height="222" fill="none" xmlns:v="https://vecta.io/nano"><path d="M70.119 102c-2.148 0-4.492 1.144-6.965 3.401-1.172 1.062-2.197 2.207-2.946 3.122l2.523 2.812c.716-.883 1.741-2.076 2.929-3.155 2.197-2.011 3.629-2.42 4.459-2.42 3.092 0 5.598 2.534 5.598 5.673 0 3.107-2.506 5.641-5.598 5.674a2.38 2.38 0 0 1-.537-.066c.895.409 1.871.703 2.783.703 5.663 0 6.77-3.826 6.835-4.104.163-.702.26-1.438.26-2.19-.016-5.216-4.198-9.45-9.341-9.45z" fill="url(#A)"/><path d="M50.341 120.851c2.148 0 4.491-1.144 6.965-3.4 1.172-1.063 2.197-2.207 2.946-3.123l-2.522-2.812c-.716.883-1.741 2.076-2.929 3.155-2.197 1.995-3.645 2.42-4.459 2.42-3.092 0-5.598-2.534-5.598-5.673 0-3.106 2.506-5.64 5.598-5.673.146 0 .325.016.537.065-.895-.409-1.871-.703-2.783-.703-5.663 0-6.77 3.826-6.835 4.104-.163.703-.26 1.439-.26 2.191 0 5.215 4.182 9.449 9.341 9.449z" fill="url(#B)"/><path fill-rule="evenodd" d="M54.647 108.262c-.618-.589-3.645-2.992-6.542-3.074-5.162-.127-6.679 3.546-6.81 4.02.989-4.119 4.675-7.192 9.056-7.208 3.572 0 7.182 3.428 9.849 6.522.013-.015 1.217 1.342 2.535 2.797 0 0 1.497 1.733 3.092 3.253.618.589 3.629 2.96 6.526 3.041 5.305.147 6.77-3.727 6.851-4.022-.976 4.137-4.67 7.227-9.064 7.243-3.573 0-7.184-3.43-9.862-6.525-.005.006-.01.012-.015.018l-2.523-2.812s-1.497-1.733-3.092-3.253z" fill="#29abe2"/><g fill="#262626"><path d="M180.357 106.741c.277 0 .47.111.582.305.054.112.137.334-.083.639l-3.209 4.891v3.334c0 .445-.276.723-.72.723h-.442c-.442 0-.719-.278-.719-.723v-3.334l-3.236-4.891c-.193-.333-.14-.555-.083-.666.083-.195.305-.306.581-.306h.581c.36 0 .607.139.773.445l2.296 3.695 2.324-3.695c.166-.278.415-.417.774-.417h.581zm-64.964.001h-5.034c-.442 0-.718.277-.718.722v8.475c0 .445.276.723.718.723h.443c.443 0 .719-.278.719-.723v-3.335h3.292a.68.68 0 0 0 .719-.722v-.194c0-.445-.277-.723-.719-.723h-3.292v-2.612h3.872c.443 0 .72-.278.72-.722v-.195c0-.417-.277-.694-.72-.694z"/><path fill-rule="evenodd" d="M97.575 106.743h-2.572c-.443 0-.719.277-.719.722v8.475c0 .445.277.723.719.723h2.599c2.987 0 5.062-2.029 5.062-4.947-.028-2.917-2.102-4.973-5.089-4.973zm3.152 4.946c0 1.945-1.3 3.306-3.18 3.306h-1.383v-6.641h1.383c1.88.028 3.18 1.39 3.18 3.335z"/><path d="M124.911 106.742h.443c.443 0 .719.277.719.722v8.475c0 .445-.276.723-.719.723h-.443c-.442 0-.719-.278-.719-.723v-8.475c0-.445.277-.722.719-.722zm16.384.001h-.443c-.442 0-.719.277-.719.722v5.641l-4.398-5.974c-.193-.278-.442-.389-.775-.389h-.193c-.442 0-.719.277-.719.722v8.475c0 .445.277.723.719.723h.443c.442 0 .719-.278.719-.723v-5.669l4.397 6.003c.194.277.443.389.775.389h.194c.442 0 .719-.278.719-.723v-8.475c0-.445-.277-.722-.719-.722zm9.402-.001h.443a.68.68 0 0 1 .72.722v8.475c0 .445-.278.723-.72.723h-.443c-.442 0-.718-.278-.718-.723v-8.475c0-.445.276-.722.718-.722zm15.772 0h-6.638a.68.68 0 0 0-.72.722v.195a.68.68 0 0 0 .72.722h2.378v7.558c0 .445.277.723.72.723h.442c.443 0 .719-.278.719-.723v-7.558h2.379c.443 0 .718-.278.718-.722v-.195c0-.445-.275-.722-.718-.722z"/></g><defs><linearGradient id="A" x1="65.22" y1="105.52" x2="75.943" y2="116.562" gradientUnits="userSpaceOnUse"><stop offset=".21" stop-color="#f15a24"/><stop offset=".684" stop-color="#fbb03b"/></linearGradient><linearGradient id="B" x1="55.23" y1="117.326" x2="44.506" y2="106.284" gradientUnits="userSpaceOnUse"><stop offset=".21" stop-color="#ed1e79"/><stop offset=".893" stop-color="#522785"/></linearGradient></defs></svg>