<svg xmlns="http://www.w3.org/2000/svg" width="222" height="222" fill="none" xmlns:v="https://vecta.io/nano"><g clip-path="url(#A)"><path fill-rule="evenodd" d="M38 110.55v6.538l5.57-.029 5.57-.029.033-.914.033-.914h-4.595-4.595v-1.992-1.991l2.211-.03 2.211-.03.033-.914.033-.914h-2.244-2.244v-1.717-1.718h4.427 4.427l-.033-.914-.033-.914-5.402-.028-5.402-.029v6.539zm13.437-6.495c0 .054.395.969.737 1.706l.271.634c0 .048.247.6.908 2.03l.324.749c0 .027.098.26.218.518l1.612 3.627 1.536 3.462c.141.303.147.304 1.276.304h1.135l.294-.636 1.802-4.016 2.496-5.522.38-.863.341-.772.447-.997.105-.274-1.083.032-1.083.031-2.389 5.366-2.425 5.402c-.02.02-.936-1.996-2.035-4.48l-2.42-5.429-.422-.914h-1.013l-1.013.041v.001zm16.683 6.495v6.536h5.542 5.543v-.94-.941l-4.619-.029-4.619-.029-.032-1.717.03-1.966c.062-.248.075-.249 2.244-.249h2.181v-.94-.939l-2.211-.03-2.211-.03v-1.662-1.662l4.451-.029 4.451-.029v-.94-.94h-5.374-5.374v6.536h0zm14.556-.003v6.548l.924-.033.924-.032.03-2.688.03-2.689 2.433.03 2.433.03.309.609 1.317 2.687 1.008 2.077h1.062c.584 0 1.062-.044 1.062-.097s-.447-.988-.992-2.077l-1.584-3.28c0-.032.217-.113.482-.179 1.462-.364 2.43-1.833 2.43-3.686 0-1.652-.763-2.848-2.183-3.421-.668-.27-.695-.272-5.178-.309L82.676 104v6.547zm13.508-6.203c.165.267 2.822 3.978 4.712 6.58l.312.429.055 2.839.057 2.839.923.032.924.032.001-2.801.001-2.802 2.686-3.627 2.687-3.739c0-.069-.438-.113-1.121-.113-.931 0-1.148.033-1.283.194-.182.217-1.298 1.759-2.788 3.851-.546.767-1.043 1.377-1.105 1.357s-.976-1.232-2.033-2.692l-1.921-2.654-1.158-.032-1.158-.031.209.338zm15.381 6.199v6.543h.884c.702 0 .897-.036.951-.176.038-.096.068-1.318.068-2.716v-2.541l2.435.03 2.436.03.392.776 1.313 2.686.922 1.91h1.066c.586 0 1.065-.031 1.065-.07s-.548-1.178-1.219-2.533l-1.292-2.689c-.063-.199.003-.25.519-.4 1.443-.417 2.328-1.798 2.328-3.628 0-1.648-.766-2.842-2.197-3.423-.652-.265-.699-.268-5.165-.305l-4.506-.037v6.543zm15.391-6.391c-.029.076-.041 3.005-.025 6.508l.029 6.37h5.543 5.542v-.886-.886l-4.59-.056-4.591-.055v-1.939-1.938l2.211-.03 2.212-.03v-.94-.939h-2.243-2.242l.031-1.689.031-1.69 4.451-.029 4.45-.029v-.94-.94h-5.378l-5.431.138h0zm19.15.554l-1.343 2.908-.704 1.551-.807 1.772-.782 1.717-.892 1.939-1.013 2.378c0 .07.385.114.988.114h.989l.315-.692.814-1.8 1.117-2.437 1.996-4.345c.305-.684.604-1.229.663-1.211.115.035 1.124 2.207 3.328 7.162l1.465 3.185c.132.168 2.097.197 2.097.031 0-.103-.897-2.146-1.704-3.88l-2.159-4.819-1.88-4.127c-.072-.093-.446-.138-1.142-.138h-1.034l-.312.692h0zm11.254 5.839v6.54h4.927 4.926v-.94-.94l-3.947-.029-3.946-.029-.057-5.539-.055-5.539-.924-.033-.924-.032v6.541h0zm12.877.005v6.536h.883c.703 0 .898-.036.952-.176.037-.096.068-2.09.068-4.431l.084-4.253c.046.002.638 1.008 1.316 2.236l1.513 2.738.875 1.587c.327.594.633 1.08.68 1.08s.156-.136.244-.303l.747-1.339.587-1.072c0-.021.269-.503.596-1.071l1.428-2.529.832-1.496.055 4.487.056 4.487.924.032.924.032v-6.541-6.54h-.946-.946l-.415.747-2.112 3.795-1.187 2.131-.786 1.302c-.036 0-1.062-1.794-2.28-3.987l-2.214-3.988h-.939-.939v6.536h0zm-78.554-4.376c.243.122.539.355.66.518.272.368.369 1.265.194 1.79-.163.49-.76 1.021-1.319 1.175-.248.068-1.707.116-3.53.116l-3.107.001v-1.865l.082-1.946c.045-.044 1.544-.065 3.331-.046 2.987.032 3.285.053 3.689.256v.001zm28.888 0c.697.35.903.716.903 1.606 0 .811-.158 1.146-.743 1.579-.478.353-1.056.41-4.212.413l-3.051.002v-1.865l.082-1.946c.045-.044 1.544-.065 3.331-.046 2.987.032 3.285.053 3.69.256v.001z" fill="#000"/></g><defs><clipPath id="A"><path fill="#fff" transform="translate(38 104)" d="M0 0h145v13.095H0z"/></clipPath></defs></svg>