<svg xmlns="http://www.w3.org/2000/svg" width="222" height="222" fill="none" fill-rule="evenodd" xmlns:v="https://vecta.io/nano"><path d="M118.116 98.478c0-9.087-4.429-16.902-7.797-19.446-.014-.008-.258-.145-.237.218l-.005.011c-.28 17.545-9.247 22.301-14.177 28.707-11.377 14.783-.796 30.99 9.978 33.986 6.028 1.676-1.392-2.966-2.348-12.77-1.156-11.851 14.586-20.896 14.586-30.706z" fill="#1d2143"/><path d="M123.285 104.452c-.069-.047-.167-.079-.235.033-.185 2.209-2.442 6.933-5.303 11.271-9.703 14.715-4.173 21.809-1.064 25.619 1.805 2.211 0 0 4.512-2.261.354-.177 8.805-4.914 9.72-15.707.886-10.453-5.395-17.041-7.63-18.955z" fill="#2483ff"/></svg>