<svg xmlns="http://www.w3.org/2000/svg" width="222" height="222" fill="none" xmlns:v="https://vecta.io/nano"><g clip-path="url(#A)"><path d="M123.069 120.688c0 15.49-6.557 19.4-19.845 25.982 1.707 1.138 4.009 2.499 7.918 4.355 10.245-4.85 20.143-11.21 20.143-28.16V87.109h-8.216v33.579zm-7.794-33.579H91v7.102h16.084v22.74c0 10.393-.618 11.358-14.129 17.445a24.51 24.51 0 0 0 4.083 6.805c15.267-6.805 18.237-10.319 18.237-22.097V87.109zM94.192 71.025v6.31c0 1.608-.94 2.697-2.92 2.697H91v-1.336h.247c.916 0 1.435-.47 1.435-1.41v-4.949h-1.386v-1.312h2.895zm2.722 7.72H98.3v-7.72h1.485v7.597c0 .94-.495 1.435-1.485 1.435h-1.386c-.99 0-1.485-.495-1.485-1.435v-7.597h1.485v7.72zm7.003-2.227v-5.493h1.484v5.543c0 2.499-1.311 3.439-3.662 3.439h-.742v-8.982h1.485v7.523h.074c.99 0 1.361-.916 1.361-2.029zm4.206-4.132v2.4h1.733l-.248 1.287h-1.46v2.573h2.153l-.247 1.361h-3.44v-8.982h3.316l.247 1.361h-2.054zm6.013-1.361h1.436v8.982h-1.436v-3.068l-1.41-3.118h-.074v6.186h-1.435v-8.982h1.41l1.41 3.39h.099v-3.39zm6.607 1.361h-1.435v7.621h-1.485v-7.621h-1.435l.248-1.361h3.86l.247 1.361zm2.277 6.359h1.386v-7.72h1.484v7.572c0 .94-.495 1.435-1.484 1.435h-1.386c-.99 0-1.485-.495-1.485-1.435v-7.572h1.485v7.72zm3.984-1.707h1.46v1.782h1.361v-1.262c0-.619-.149-.891-.619-1.163l-1.41-.891a1.76 1.76 0 0 1-.768-1.41v-1.658c0-.94.619-1.435 1.386-1.435h1.386c.99 0 1.386.495 1.386 1.435v1.114l-1.436.396v-1.782h-1.286v1.361c0 .445.148.742.569 1.014l1.361.841c.569.346.866.891.866 1.608v1.732c0 .965-.619 1.336-1.411 1.336h-1.361c-.989 0-1.484-.396-1.484-1.336v-1.683z" fill="#000"/></g><defs><clipPath id="A"><path fill="#fff" transform="translate(91 71)" d="M0 0h40.26v80H0z"/></clipPath></defs></svg>