<svg xmlns="http://www.w3.org/2000/svg" width="222" height="222" fill="none" xmlns:v="https://vecta.io/nano"><g clip-path="url(#A)"><path d="M48.544 94.045l2.073 1.151 4.081 2.313c.377.227.798.436 1.25.409.636-.075 1.151-.49 1.7-.784l3.68-2.072L63.26 94c.062.211.105.43.093.651l-.014 2.97-4.939 2.791c-.633.345-1.225.815-1.951.951a6.13 6.13 0 0 1-1.292-.005c-.399-.08-.749-.301-1.1-.496l-3.788-2.151-1.834-1.077-.009-2.986c-.011-.209.033-.412.118-.602v-.001z" fill="#4c6efb"/><path d="M41.004 103.729c-.092-1.799 1.374-3.469 3.123-3.756.586-.028 1.177-.042 1.76.023.682.188 1.271.588 1.885.923l6.112 3.451c.481.266.938.583 1.449.792.341.039.689.043 1.03-.003.433-.175.822-.439 1.23-.661l6.466-3.64c.592-.33 1.167-.731 1.84-.875a12.1 12.1 0 0 1 1.851.003c1.538.35 2.795 1.707 2.995 3.278l.024.741-.001 14.503-3.227.004-.007-14.599c.064-.552-.629-1.004-1.091-.663l-6.639 3.743-2.998 1.643c-.569.129-1.169.08-1.748.044-.503-.127-.934-.436-1.385-.681l-8.295-4.691c-.221-.136-.509-.268-.754-.107-.341.149-.435.556-.436.894l-.009 14.417a134.11 134.11 0 0 1-3.171-.002l-.005-14.781zm86.988-2.277c.595-.159 1.314-.156 1.823.235.427.331.345.925.326 1.401-.012.482-.452.822-.88.95-.313.035-.628.022-.94.019a1.15 1.15 0 0 1-1.047-.699c-.052-.43-.048-.868 0-1.298.14-.29.411-.51.717-.608h.001zm-15.563 1.923c.051-.097.113-.234.242-.235l1.499-.005.119.121.009 2.006 2.774.002.01 2.124c-.885.012-1.769-.009-2.654.007l-.127.121-.006 4.74c-.027.43.294.83.694.961.432.045.87.027 1.303-.004l.873-.204-.002 2.12c-1.385.417-2.969.668-4.317.003-.931-.451-1.243-1.553-1.321-2.505l-.003-5.237c-.391-.004-.782.016-1.171-.007l-.113-.136c-.026-.336-.025-.674.002-1.01.402-.41.972-.584 1.416-.937.098-.084.136-.213.182-.328l.591-1.596v-.001zm63.967-.156l1.702.006.031 1.939c.009.155.2.174.323.18l2.451.031.03 1.949-.009.056-2.705.006c-.146.402-.082.833-.092 1.252l.004 3.616a1.02 1.02 0 0 0 .693.978c.193.077.395.169.611.149.523-.059 1.033-.199 1.543-.327l.009 1.999c-.323.108-.645.218-.982.275-.695.111-1.408.274-2.111.121-.767-.111-1.611-.395-2.002-1.122-.654-1.072-.451-2.367-.485-3.558l-.054-3.384-1.227-.074.002-1.138 1.214-.732c.289-.198.399-.546.518-.856l.536-1.366h0zm-90.751 2.748c.513-.505 1.236-.726 1.937-.798.797-.061 1.62.033 2.362.344.541.224.858.743 1.288 1.114.269-.312.532-.636.874-.871.697-.493 1.583-.629 2.419-.6.734.03 1.51.167 2.099.639.814.605 1.023 1.701 1.035 2.656l-.017 6.878c-.87.009-1.74.009-2.61-.002l-.002-5.577c.016-.624-.053-1.276-.355-1.832-.488-.874-1.853-.823-2.475-.131-.428.487-.601 1.144-.673 1.774l-.012 5.778-2.78.015-.012-6.35c-.063-.627-.298-1.383-.962-1.601-.562-.053-1.228-.124-1.671.306-.594.496-.721 1.315-.787 2.041l-.021 5.586c-.931.026-1.865.036-2.794-.007.083-.683.017-1.374.037-2.059l.025-7.93 2.078.016.27 1.181.225.024.524-.594h0zm15.013-.005c1.956-.86 4.237-1.132 6.28-.406.524.259 1.001.647 1.275 1.173.345.636.454 1.378.44 2.093l-.003 6.528c-.638.006-1.276.003-1.914-.008l-.515-1.358c-.467.287-.789.754-1.266 1.023-.514.308-1.119.392-1.703.464-.635.086-1.285-.032-1.884-.246-.905-.356-1.526-1.27-1.603-2.229-.06-.851-.089-1.809.496-2.503.781-.944 2.081-1.196 3.242-1.273.814-.109 1.643-.015 2.452-.175.019-.51 0-1.077-.364-1.475-.376-.435-.992-.509-1.533-.47-.902.02-1.705.478-2.568.679l-.832-1.817h0zm3.077 4.874c-.488.144-.999.439-1.152.955-.124.452-.142 1.008.195 1.376.234.24.586.31.908.335.604.014 1.265-.121 1.692-.582.501-.477.588-1.219.576-1.876.016-.139-.055-.343-.223-.329-.665-.016-1.346-.037-1.996.121zm18.036-3.999c.477-.778 1.231-1.407 2.116-1.655.575-.068 1.156-.037 1.734-.017l-.126 2.591c-.571-.007-1.144-.048-1.712.019-.65.139-1.292.509-1.599 1.12-.189.377-.319.796-.304 1.221l.004 4.914c-.019.103.048.347-.133.32-.866.003-1.734.016-2.599-.008l-.116-.125-.006-9.456c-.004-.141.006-.287.092-.404.167-.136.393-.075.591-.09.506.024 1.026-.061 1.521.081.087.503.267.989.311 1.499l.226-.01zm25.038-.93c.517-.461 1.191-.793 1.898-.761.674-.002 1.394-.069 2.002.289 1.296.649 1.922 2.109 2.118 3.476l-.007 2.791c-.192 1.042-.551 2.115-1.329 2.87-1.132 1.114-3.015 1.257-4.365.463-.359-.214-.619-.552-.964-.784-.03.389.102.764.099 1.151l.001 4.315-2.728.003c-.066-.324-.047-.657-.047-.985l.005-13.151c-.02-.22.194-.348.395-.315l1.845.011c.212.386.262.838.43 1.245.243-.176.434-.408.647-.618h0zm.477 1.608c-.745.361-.971 1.289-.954 2.051.022.873-.119 1.79.232 2.618.192.522.656.939 1.208 1.036.451.01.956.095 1.343-.199.625-.409.823-1.182.92-1.877.013-.978.131-2.023-.332-2.924-.215-.453-.652-.849-1.176-.846-.414.007-.863-.068-1.241.141zm10.538-2.232c.615-.193 1.269-.125 1.905-.138 1.524-.071 3.045.77 3.816 2.084.455.756.738 1.634.696 2.522-.013.83.087 1.686-.178 2.489-.299 1.035-.933 2.013-1.874 2.569-1.275.777-2.892.911-4.315.512a4.33 4.33 0 0 1-2.62-2.007c-.437-.806-.715-1.717-.676-2.638.022-.654-.069-1.325.111-1.963.192-.908.62-1.784 1.292-2.431.53-.463 1.16-.823 1.843-.999h0zm.743 2.207c-.834.315-1.063 1.281-1.167 2.07-.046.936-.079 1.94.369 2.794.25.523.814.904 1.401.879.403-.009.836.056 1.199-.165.729-.334.939-1.203 1.058-1.924.043-.98.104-2.027-.373-2.922-.26-.523-.831-.871-1.415-.846-.359.008-.739-.043-1.072.114zm10.523-.662c.477-.776 1.224-1.416 2.118-1.643.569-.078 1.147-.036 1.72-.019.004.356.01.714-.062 1.064-.061.505-.04 1.016-.053 1.523-.806.024-1.678-.155-2.415.262-.769.385-1.228 1.255-1.193 2.102l.007 5.202c-.924.071-1.857.027-2.784.023l.009-10.006c.318-.091.652-.067.98-.069.379.005.767-.034 1.132.092l.322 1.498.219-.029zm-41.819-1.521c.472-.071.953-.027 1.429-.037.449.01.904-.038 1.349.046.176 1.04-.026 2.092.015 3.137l.002 6.898-2.798.003.003-10.047zm4.579-.032l2.785-.007c.236-.01.368.224.478.397l1.592 2.652h.192c.295-.554.645-1.076.97-1.614.308-.477.555-.996.92-1.436l2.969.008c-.009.349-.259.602-.43.882l-2.531 3.804c-.163.229-.012.494.13.69l3.099 4.647c-.268.079-.547.056-.82.057-.775-.005-1.548.006-2.321-.005l-1.978-3.253h-.208l-1.973 3.251c-1.049.003-2.1.024-3.148-.011l3.247-4.961c.141-.206-.048-.413-.152-.585l-2.321-3.511c-.19-.323-.482-.611-.5-1.006v.001zm-83.411 3.465c.407.063.731.334 1.085.522l5.555 3.143c.355.213.788.201 1.184.146.421-.148.79-.409 1.184-.614l4.794-2.705c.352-.19.68-.469 1.099-.489l.005 3.604-5.288 2.988c-.403.22-.79.475-1.221.64-.415.168-.873.138-1.311.132-.534.007-1.009-.267-1.455-.526l-5.632-3.2.003-3.641h0z" fill="#1f2342"/></g><defs><clipPath id="A"><path fill="#fff" transform="translate(41 94)" d="M0 0h140v25.948H0z"/></clipPath></defs></svg>