<svg xmlns="http://www.w3.org/2000/svg" width="222" height="222" fill="none" xmlns:v="https://vecta.io/nano"><g clip-path="url(#D)"><path d="M100.413 99.927l-8.312 26.778a.78.78 0 0 1-1.313.298l-8.582-9.264a.78.78 0 0 1-.172-.757l8.312-26.777a.78.78 0 0 1 1.313-.298l8.582 9.264a.78.78 0 0 1 .172.757z" fill="url(#A)"/><path d="M140.272 105.012l-8.312 26.777a.78.78 0 0 1-1.313.299l-8.582-9.264a.78.78 0 0 1-.172-.757l8.313-26.777a.78.78 0 0 1 1.313-.298l8.581 9.264c.19.206.253.493.172.756z" fill="url(#B)"/><path d="M124.754 88.273l-17.129 55.188a.78.78 0 0 1-1.313.298l-8.581-9.264a.78.78 0 0 1-.172-.756l17.124-55.194a.78.78 0 0 1 1.313-.298l8.581 9.264c.19.206.253.493.172.757l.006.006z" fill="url(#C)"/></g><defs><linearGradient id="A" x1="85.935" y1="125.583" x2="96.574" y2="91.298" gradientUnits="userSpaceOnUse"><stop offset=".13" stop-color="#1bb377"/><stop offset="1" stop-color="#25dda0"/></linearGradient><linearGradient id="B" x1="125.799" y1="130.661" x2="136.439" y2="96.376" gradientUnits="userSpaceOnUse"><stop offset=".13" stop-color="#e2884b"/><stop offset="1" stop-color="#fdb688"/></linearGradient><linearGradient id="C" x1="101.459" y1="142.327" x2="120.913" y2="79.637" gradientUnits="userSpaceOnUse"><stop offset=".13" stop-color="#1bb377"/><stop offset="1" stop-color="#25dda0"/></linearGradient><clipPath id="D"><path fill="#fff" transform="translate(82 78)" d="M0 0h58.307v66H0z"/></clipPath></defs></svg>