<svg xmlns="http://www.w3.org/2000/svg" xmlns:xlink="http://www.w3.org/1999/xlink" width="222" height="222" fill="none" xmlns:v="https://vecta.io/nano"><g fill="#000"><path d="M90.329 96H61.667c-.177 0-.346.07-.471.195s-.195.294-.195.471v28.663c0 .176.07.346.195.471s.294.195.471.195H90.33c.177 0 .346-.07.471-.195s.195-.295.195-.471V96.667c0-.177-.07-.346-.195-.471a.67.67 0 0 0-.472-.196zm-9.332 19.331c0 .177-.07.346-.195.471s-.294.195-.471.195h-8.666c-.177 0-.346-.07-.471-.195s-.195-.294-.195-.471v-8.666c0-.177.07-.346.195-.471s.295-.195.471-.195h8.666c.177 0 .346.07.471.195s.195.294.195.471v8.666zm69.34-9.331h-8.665c-.369 0-.667.298-.667.666v8.666c0 .368.298.667.667.667h8.665a.67.67 0 0 0 .667-.667v-8.666c0-.368-.299-.666-.667-.666z"/><use xlink:href="#B"/><use xlink:href="#B" x="20"/><use xlink:href="#C"/><use xlink:href="#C" x="20"/><path d="M125.323 96.001h-8.665c-.368 0-.667.298-.667.667v8.666c0 .368.299.666.667.666h8.665c.368 0 .667-.298.667-.666v-8.666a.67.67 0 0 0-.667-.667zm0 19.997h-8.665c-.368 0-.667.298-.667.667v8.665a.67.67 0 0 0 .667.667h8.665a.67.67 0 0 0 .667-.667v-8.665c0-.369-.299-.667-.667-.667zm-9.331-9.34a.67.67 0 0 0-.196-.472c-.125-.125-.294-.195-.471-.195h-9.332v-9.324c0-.177-.07-.346-.195-.471a.67.67 0 0 0-.472-.195h-8.665c-.177 0-.346.07-.471.195s-.195.294-.195.471v28.648c0 .176.07.346.195.471s.294.195.471.195h8.665c.177 0 .347-.07.472-.195s.195-.295.195-.471v-9.325h9.332c.177 0 .346-.07.471-.195a.67.67 0 0 0 .196-.472v-8.665z"/></g><defs ><path id="B" d="M140.334 96.001h-8.665c-.369 0-.667.298-.667.667v8.666c0 .368.298.666.667.666h8.665c.368 0 .667-.298.667-.666v-8.666c0-.368-.299-.667-.667-.667z"/><path id="C" d="M140.334 115.998h-8.665c-.369 0-.667.298-.667.667v8.665c0 .368.298.667.667.667h8.665a.67.67 0 0 0 .667-.667v-8.665c0-.369-.299-.667-.667-.667z"/></defs></svg>