<svg xmlns="http://www.w3.org/2000/svg" width="222" height="222" fill="none" xmlns:v="https://vecta.io/nano"><g clip-path="url(#A)"><path d="M68.906 105.306c-.56-.345-1.288-.345-1.904 0l-4.368 2.645-2.968 1.724-4.368 2.644c-.56.345-1.288.345-1.904 0l-3.472-2.069c-.56-.345-.952-.977-.952-1.667v-4.081c0-.69.336-1.323.952-1.667l3.416-2.012c.56-.345 1.288-.345 1.904 0l3.416 2.012c.56.344.952.977.952 1.667v2.644l2.968-1.782v-2.644c0-.69-.336-1.323-.952-1.667l-6.329-3.794c-.56-.345-1.288-.345-1.904 0l-6.44 3.794c-.616.344-.952.977-.952 1.667v7.645c0 .69.336 1.322.952 1.667l6.441 3.794c.56.345 1.288.345 1.904 0l4.368-2.587 2.968-1.782 4.368-2.587c.56-.345 1.288-.345 1.904 0l3.416 2.012c.56.345.952.977.952 1.667v4.082c0 .689-.336 1.322-.952 1.666l-3.416 2.07c-.56.345-1.288.345-1.904 0l-3.416-2.012c-.56-.345-.952-.977-.952-1.667v-2.644l-2.968 1.782v2.644c0 .69.336 1.322.952 1.667l6.441 3.794c.56.345 1.288.345 1.904 0l6.441-3.794c.56-.345.952-.977.952-1.667v-7.645c0-.69-.336-1.322-.952-1.667l-6.497-3.852z" fill="#7950dd"/><g fill="#000"><path d="M88.179 121.745v-6.347c.683.866 1.922 1.351 3.364 1.351 3.668 0 6.147-2.626 6.147-6.628s-2.277-6.627-5.843-6.627c-1.644 0-2.909.611-3.668 1.606v-1.402h-3.516v18.047h3.516zm2.934-8.055c-1.897 0-3.137-1.428-3.137-3.569 0-2.167 1.24-3.594 3.137-3.594 1.846 0 3.111 1.427 3.111 3.594 0 2.141-1.265 3.569-3.111 3.569zm14.562 3.059c3.921 0 6.729-2.804 6.729-6.628s-2.808-6.627-6.729-6.627-6.729 2.804-6.729 6.627 2.808 6.628 6.729 6.628zm0-3.059c-1.897 0-3.187-1.453-3.187-3.569 0-2.141 1.29-3.594 3.187-3.594s3.187 1.453 3.187 3.594c0 2.116-1.29 3.569-3.187 3.569zm12.37 2.855v-18.43h-3.516v18.43h3.516zm10.569-12.847l-2.656 8.284-2.681-8.284h-3.592l4.629 12.745-1.872 5.302h3.364l1.796-5.251 4.629-12.796h-3.617zm13.493 1.274c-.709-.892-1.973-1.478-3.516-1.478-3.719 0-5.97 2.625-5.97 6.627s2.251 6.628 6.02 6.628c1.493 0 2.833-.561 3.491-1.504v1.682c0 1.198-.784 2.039-1.847 2.039h-5.869v2.779h6.426c2.883 0 4.806-1.759 4.806-4.436v-13.611h-3.541v1.274zm-2.909 8.718c-1.872 0-3.112-1.402-3.112-3.569s1.24-3.594 3.112-3.594c1.897 0 3.137 1.427 3.137 3.594s-1.24 3.569-3.137 3.569zm15.314 3.059c3.921 0 6.728-2.804 6.728-6.628s-2.807-6.627-6.728-6.627-6.729 2.804-6.729 6.627 2.808 6.628 6.729 6.628zm0-3.059c-1.898 0-3.187-1.453-3.187-3.569 0-2.141 1.289-3.594 3.187-3.594s3.187 1.453 3.187 3.594c0 2.116-1.29 3.569-3.187 3.569zm12.193 2.855v-7.036c0-1.657 1.088-2.855 2.631-2.855 1.467 0 2.453 1.122 2.453 2.677v7.214h3.542v-8.004c0-2.957-1.872-5.047-4.756-5.047-1.745 0-3.162.739-3.87 1.988v-1.784h-3.541v12.847h3.541z"/></g></g><defs><clipPath id="A"><path fill="#fff" transform="translate(46 97)" d="M0 0h130v27.19H0z"/></clipPath></defs></svg>