<svg xmlns="http://www.w3.org/2000/svg" width="222" height="222" fill="none" xmlns:v="https://vecta.io/nano"><path d="M92.252 119.722l-1.638-2.845c.776-1.465.776-3.189.776-5.43 0-2.844 0-4.913-1.638-6.637-1.12-1.207-2.586-1.81-4.482-1.81s-3.362.69-4.482 1.81c-1.638 1.638-1.638 3.706-1.638 6.637 0 2.845-.086 4.913 1.638 6.637 1.207 1.207 2.586 1.81 4.482 1.81.517 0 .948-.086 1.379-.172h5.603zm-9.137-3.62c-.603-.69-.776-1.466-.776-4.655s.172-3.965.776-4.654c.431-.518 1.207-.862 2.069-.862s1.638.344 2.069.862c.603.689.776 1.465.776 4.654s-.172 3.965-.776 4.655c-.431.517-1.207.862-2.069.862s-1.638-.345-2.069-.862zm46.978-12.93h3.189v16.55h-3.189v-16.55zm-77.059 16.722c-2.5 0-4.396-.517-6.034-2.155l2.069-2.068c1.034 1.034 2.5 1.379 3.965 1.379 1.896 0 2.931-.69 2.931-2.069 0-.603-.172-1.034-.517-1.379s-.69-.431-1.465-.603L52 112.74c-1.379-.172-2.5-.689-3.189-1.379-.776-.776-1.207-1.896-1.207-3.275 0-2.931 2.155-5 5.775-5 2.241 0 3.965.517 5.344 1.897l-2.069 1.982c-1.034-1.034-2.327-1.12-3.362-1.12-1.724 0-2.586.948-2.586 2.068 0 .431.172.862.517 1.207s.862.517 1.552.689l1.982.259c1.552.172 2.5.603 3.189 1.293.862.862 1.293 2.069 1.293 3.534 0 3.189-2.758 4.999-6.206 4.999zm10.86-.172v-16.55H74.84v2.845h-7.671v3.879h6.551v2.93h-6.551v4.051h7.671v2.845H63.894zm38.443.172c-3.362 0-6.12-2.327-6.12-5.861v-10.861h3.275v10.775c0 1.896 1.121 3.017 2.845 3.017s2.844-1.121 2.844-3.017v-10.775h3.189v10.861c0 3.534-2.672 5.861-6.033 5.861zm21.377-1.81c-1.12 1.207-2.586 1.81-4.482 1.81s-3.362-.689-4.482-1.81c-1.638-1.638-1.638-3.706-1.638-6.637 0-2.844-.086-4.913 1.638-6.637 1.12-1.207 2.586-1.81 4.482-1.81s3.275.69 4.482 1.81c1.638 1.638 1.638 3.706 1.638 6.637 0 2.845 0 4.913-1.638 6.637zm-2.413-11.291c-.431-.518-1.207-.862-2.069-.862s-1.638.344-2.069.862c-.603.689-.776 1.465-.776 4.654s.173 3.965.776 4.655c.431.517 1.207.862 2.069.862s1.638-.345 2.069-.862c.603-.69.775-1.466.775-4.655s-.172-3.965-.775-4.654zm27.236 12.929l-.948-2.931h-5.861l-1.034 2.931h-3.362l6.034-16.55h2.499l6.034 16.55h-3.362zm-3.878-11.723l-2.069 6.034h4.137l-2.068-6.034z" fill="#3c3c3c"/><path d="M170.862 103.172H175v4.138h-4.138v-4.138zm-10.343 13.016v-13.016h-2.069v15.085l2.069-2.069zm1.466 1.465l-2.069 2.069H175v-2.069h-13.015zm2.671-5.603v-8.878h-2.069v10.947l2.069-2.069zm1.465 1.466l-2.068 2.068H175v-2.068h-8.879zm2.673-5.603v-4.741h-2.068v6.81l2.068-2.069zm1.465 1.465l-2.069 2.069H175v-2.069h-4.741z" fill="#50b848"/></svg>