<svg xmlns="http://www.w3.org/2000/svg" width="222" height="222" fill="#0097e0" xmlns:v="https://vecta.io/nano"><path d="M60.067 106.665c0 4.235 2.824 7.664 6.32 7.664h17.548c.403 0 .807.403.807.941s-.336.942-.807.942H60v6.79h26.759c3.496 0 6.32-3.496 6.32-7.732s-2.824-7.731-6.32-7.731H69.278c-.403 0-.807-.404-.807-.942s.336-.941.807-.941h23.733V99H66.387c-3.496 0-6.32 3.429-6.32 7.665zM119.703 99v14.926L103.701 99h-8.74v23.868h8.404v-14.993l16.001 14.993h8.741V99h-8.404zM163 99h-10.959l-13.581 10.488V99h-8.538v23.868h8.538v-10.556l13.581 10.556H163l-15.463-11.901L163 99z"/></svg>