<svg xmlns="http://www.w3.org/2000/svg" width="222" height="222" fill="#d3c17e" xmlns:v="https://vecta.io/nano"><path d="M83.539 127.249c-1.985 0-3.83-.364-5.535-1.091a13.25 13.25 0 0 1-4.361-3.019c-1.202-1.314-2.083-2.838-2.642-4.571l4.739-2.055c.755 1.789 1.845 3.201 3.271 4.236 1.426 1.006 3.033 1.509 4.823 1.509 1.006 0 1.873-.153 2.6-.461.755-.335 1.328-.783 1.719-1.342.419-.559.629-1.23.629-2.013 0-.922-.279-1.677-.839-2.264-.531-.615-1.342-1.091-2.432-1.426l-5.997-1.929c-2.432-.755-4.264-1.887-5.494-3.397s-1.845-3.285-1.845-5.326c0-1.789.433-3.369 1.3-4.739.895-1.37 2.125-2.432 3.69-3.187 1.593-.783 3.41-1.174 5.451-1.174 1.873 0 3.593.335 5.158 1.007 1.566.643 2.907 1.552 4.026 2.726 1.146 1.146 1.999 2.502 2.558 4.068l-4.697 2.097c-.615-1.566-1.538-2.768-2.768-3.607-1.23-.866-2.656-1.3-4.277-1.3-.951 0-1.789.168-2.516.504-.727.307-1.3.754-1.719 1.342-.391.559-.587 1.23-.587 2.012a3.5 3.5 0 0 0 .839 2.307c.559.643 1.412 1.146 2.558 1.51l5.745 1.803c2.488.811 4.347 1.929 5.577 3.355 1.258 1.426 1.887 3.187 1.887 5.284 0 1.789-.461 3.369-1.384 4.738s-2.195 2.447-3.816 3.23-3.509 1.174-5.661 1.174zm15.997-.504V95.503h4.445l17.194 23.149-2.307.461v-23.61h5.704v31.242h-4.488l-16.942-23.316 2.097-.461v23.777h-5.703zm28.651 0v-4.487l15.139-21.722h-14.258v-5.033h21.513v4.487l-15.097 21.723H151v5.032h-22.813z"/></svg>