<svg width="192" height="40" viewBox="0 0 192 40" fill="none" xmlns="http://www.w3.org/2000/svg">
<path d="M55.81 9.86002H68.14V7.19002H55.81V3.96002H68.14V1.27002H55.81H53V3.96002V7.19002V9.86002V15.75H55.81V9.86002Z" fill="black"/>
<path d="M73.6396 14.99C74.8096 15.67 76.0696 16 77.4196 16C78.7696 16 80.0296 15.66 81.1796 14.99C82.3496 14.31 83.2696 13.4 83.9496 12.26C84.6396 11.12 84.9896 9.87004 84.9896 8.52004C84.9896 7.17004 84.6396 5.92004 83.9496 4.78004C83.2696 3.64004 82.3496 2.73004 81.1796 2.05004C80.0296 1.37004 78.7696 1.04004 77.4196 1.04004C76.0696 1.04004 74.7996 1.38004 73.6396 2.05004C72.4896 2.73004 71.5596 3.64004 70.8696 4.78004C70.1896 5.92004 69.8496 7.17004 69.8496 8.52004C69.8496 9.87004 70.1896 11.12 70.8696 12.26C71.5596 13.4 72.4796 14.31 73.6396 14.99ZM73.3196 6.16004C73.7496 5.44004 74.3296 4.88004 75.0496 4.46004C75.7696 4.03004 76.5596 3.82004 77.4296 3.82004C78.2996 3.82004 79.0696 4.03004 79.7896 4.46004C80.5296 4.87004 81.0996 5.44004 81.5196 6.16004C81.9496 6.88004 82.1696 7.66004 82.1696 8.52004C82.1696 9.38004 81.9496 10.16 81.5196 10.88C81.0996 11.6 80.5296 12.17 79.7896 12.6C79.0696 13.01 78.2796 13.22 77.4296 13.22C76.5796 13.22 75.7696 13.01 75.0496 12.6C74.3296 12.17 73.7496 11.6 73.3196 10.88C72.8996 10.16 72.6896 9.38004 72.6896 8.52004C72.6896 7.66004 72.8996 6.88004 73.3196 6.16004Z" fill="black"/>
<path d="M89.5307 11.49H94.5007L99.0207 15.75H101.851V14.67L98.2007 11.21C98.5307 11.1 98.8507 10.97 99.1707 10.8C99.9907 10.34 100.641 9.72002 101.121 8.94002C101.611 8.15002 101.861 7.30002 101.861 6.37002C101.861 5.44002 101.611 4.60002 101.121 3.83002C100.641 3.04002 100.001 2.42002 99.1707 1.97002C98.3507 1.50002 97.4507 1.27002 96.4907 1.27002H86.7207V15.75H89.5307V11.49ZM89.5307 3.96002H96.4907C96.9507 3.96002 97.3807 4.06002 97.7907 4.27002C98.2107 4.48002 98.5407 4.77002 98.7807 5.14002C99.0307 5.50002 99.1507 5.89002 99.1507 6.32002C99.1507 6.79002 99.0307 7.22002 98.7807 7.60002C98.5407 7.97002 98.2007 8.27002 97.7907 8.49002C97.3907 8.71002 96.9507 8.82002 96.4907 8.82002H89.5307V3.96002Z" fill="black"/>
<path d="M118.72 15.75V13.06H106.39V9.86002H118.72V7.19002H106.39V3.96002H118.72V1.27002H106.39H103.58V3.96002V7.19002V9.86002V13.06V15.75H106.39H118.72Z" fill="black"/>
<path d="M124.939 15.75H131.099C131.909 15.75 132.649 15.56 133.329 15.17C134.019 14.78 134.569 14.27 134.969 13.62C135.369 12.96 135.579 12.24 135.579 11.47C135.579 10.7 135.379 9.99002 134.969 9.34002C134.569 8.68002 134.019 8.15002 133.329 7.77002C132.649 7.38002 131.909 7.19002 131.099 7.19002H124.939C124.479 7.19002 124.079 7.03002 123.749 6.71002C123.419 6.39002 123.249 6.01002 123.249 5.57002C123.249 5.13002 123.409 4.75002 123.749 4.43002C124.079 4.11002 124.479 3.95002 124.939 3.95002H131.079C131.539 3.95002 131.939 4.11002 132.269 4.43002C132.599 4.75002 132.769 5.13002 132.769 5.57002H135.579C135.579 4.78002 135.379 4.07002 134.969 3.42002C134.569 2.76002 134.019 2.23002 133.329 1.85002C132.649 1.46002 131.899 1.27002 131.079 1.27002H124.939C124.119 1.27002 123.359 1.46002 122.669 1.85002C121.989 2.24002 121.449 2.76002 121.049 3.42002C120.649 4.07002 120.449 4.79002 120.449 5.57002C120.449 6.35002 120.649 7.06002 121.049 7.72002C121.449 8.37002 121.989 8.89002 122.669 9.27002C123.359 9.66002 124.119 9.85002 124.939 9.85002H131.099C131.559 9.85002 131.949 10.01 132.269 10.33C132.599 10.63 132.769 11.01 132.769 11.45C132.769 11.89 132.599 12.27 132.269 12.59C131.949 12.91 131.559 13.07 131.099 13.07H124.939C124.479 13.07 124.079 12.91 123.749 12.59C123.419 12.27 123.249 11.89 123.249 11.45H120.439C120.439 12.24 120.639 12.96 121.039 13.62C121.439 14.27 121.979 14.79 122.659 15.17C123.349 15.56 124.109 15.75 124.929 15.75H124.939Z" fill="black"/>
<path d="M140.749 1.27002H137.939V15.75H140.749V1.27002Z" fill="black"/>
<path d="M158.28 16V8.14H151.25V10.62H155.68C155.68 11.5 155.27 12.21 154.45 12.75C153.63 13.27 152.56 13.54 151.25 13.54C150.34 13.54 149.46 13.31 148.59 12.84C147.74 12.36 147.05 11.73 146.51 10.96C145.98 10.17 145.72 9.34 145.73 8.46C145.73 7.51 145.99 6.65 146.46 5.89C146.95 5.13 147.61 4.54 148.45 4.11C149.29 3.68 150.22 3.47 151.24 3.47C152.26 3.47 153.17 3.65 154.09 4.01C155.03 4.35 155.86 4.9 156.6 5.64L158.26 3.67C157.29 2.77 156.2 2.1 154.97 1.64C153.74 1.18 152.5 0.970002 151.23 1C149.77 1 148.42 1.33 147.16 1.99C145.9 2.64 144.91 3.53 144.18 4.68C143.44 5.81 143.08 7.07 143.08 8.44C143.08 9.81 143.45 11.07 144.18 12.23C144.91 13.37 145.9 14.28 147.14 14.96C148.39 15.64 149.76 15.98 151.23 15.99C152.64 15.99 153.88 15.73 154.95 15.2C155.2 15.07 155.44 14.94 155.66 14.79V15.98H158.25L158.28 16Z" fill="black"/>
<path d="M162.81 9.77002H172.33V15.75H175.14V9.77002V7.10002V1.27002H172.33V7.10002H162.81V1.27002H160V7.10002V9.77002V15.75H162.81V9.77002Z" fill="black"/>
<path d="M185.839 1.27002H183.029H176.859V3.96002H183.029V15.75H185.839V3.96002H191.999V1.27002H185.839Z" fill="black"/>
<path d="M60.58 35.7L54.56 24H53V27.08L59.01 38.75H62.15L68.14 27.08V24H66.58L60.58 35.7Z" fill="black"/>
<path d="M70.4102 24V26.74V30.03V32.74V36.01V38.75H73.2202H85.5502V36.01H73.2202V32.74H85.5502V30.03H73.2202V26.74H85.5502V24H73.2202H70.4102Z" fill="black"/>
<path d="M100.15 34.58L90.6303 24H87.8203V38.75H90.6303V28.15L100.15 38.75H102.96V24H100.15V34.58Z" fill="black"/>
<path d="M111.391 24H105.221V26.74H111.391V38.75H114.201V26.74H120.371V24H114.201H111.391Z" fill="black"/>
<path d="M134.961 31.63C134.961 32.46 134.741 33.23 134.311 33.95C133.891 34.67 133.321 35.24 132.581 35.66C131.841 36.07 131.051 36.27 130.201 36.27C129.351 36.27 128.561 36.07 127.821 35.66C127.081 35.24 126.501 34.67 126.071 33.95C125.651 33.23 125.441 32.46 125.441 31.63V24H122.631V31.63C122.631 32.96 122.971 34.2 123.651 35.34C124.331 36.46 125.241 37.36 126.401 38.02C127.571 38.68 128.841 39.01 130.211 39.01C131.581 39.01 132.841 38.68 134.001 38.02C135.171 37.36 136.091 36.47 136.771 35.34C137.451 34.2 137.791 32.97 137.791 31.63V24H134.981V31.63H134.961Z" fill="black"/>
<path d="M154.449 31.82C154.939 31.02 155.179 30.15 155.179 29.21C155.179 28.27 154.939 27.41 154.449 26.62C153.969 25.82 153.329 25.19 152.499 24.72C151.679 24.24 150.779 24 149.819 24H140.039V38.75H142.849V34.41H147.829L152.349 38.75H155.179V37.65L151.529 34.13C151.859 34.02 152.189 33.89 152.499 33.71C153.319 33.25 153.969 32.61 154.449 31.81V31.82ZM152.109 30.46C151.869 30.84 151.529 31.14 151.119 31.37C150.719 31.59 150.279 31.71 149.819 31.71H142.849V26.76H149.819C150.279 26.76 150.709 26.87 151.119 27.08C151.539 27.29 151.869 27.59 152.109 27.96C152.349 28.33 152.479 28.73 152.479 29.16C152.479 29.64 152.359 30.07 152.109 30.47V30.46Z" fill="black"/>
<path d="M157.449 24V26.74V30.03V32.74V36.01V38.75H160.259H172.589V36.01H160.259V32.74H172.589V30.03H160.259V26.74H172.589V24H160.259H157.449Z" fill="black"/>
<path d="M179.359 26.74H185.499C185.959 26.74 186.359 26.9 186.689 27.22C187.019 27.54 187.189 27.93 187.189 28.38H189.999C189.999 27.58 189.799 26.85 189.389 26.19C188.989 25.52 188.439 24.98 187.749 24.59C187.069 24.2 186.319 24 185.499 24H179.359C178.539 24 177.779 24.2 177.089 24.59C176.409 24.98 175.869 25.52 175.469 26.19C175.069 26.85 174.859 27.58 174.859 28.38C174.859 29.18 175.059 29.9 175.469 30.57C175.869 31.23 176.409 31.76 177.089 32.15C177.779 32.54 178.539 32.74 179.359 32.74H185.529C185.989 32.74 186.379 32.9 186.699 33.22C187.029 33.53 187.199 33.91 187.199 34.36C187.199 34.81 187.029 35.2 186.699 35.52C186.379 35.84 185.989 36 185.529 36H179.359C178.899 36 178.499 35.84 178.169 35.52C177.839 35.2 177.669 34.81 177.669 34.36H174.859C174.859 35.16 175.059 35.9 175.469 36.57C175.869 37.23 176.409 37.76 177.089 38.15C177.779 38.54 178.539 38.74 179.359 38.74H185.529C186.339 38.74 187.079 38.54 187.759 38.15C188.449 37.76 188.999 37.23 189.399 36.57C189.799 35.9 190.009 35.17 190.009 34.38C190.009 33.59 189.809 32.87 189.399 32.21C188.999 31.54 188.449 31 187.759 30.61C187.079 30.22 186.339 30.02 185.529 30.02H179.359C178.899 30.02 178.499 29.86 178.169 29.54C177.839 29.22 177.669 28.83 177.669 28.38C177.669 27.93 177.839 27.54 178.169 27.22C178.499 26.9 178.899 26.74 179.359 26.74Z" fill="black"/>
<path fill-rule="evenodd" clip-rule="evenodd" d="M0 0H39.73V24.68L24.17 8.96L22.06 6.83L19.95 8.96L11.57 17.42L12.03 17.88L14.14 20.01L16.25 17.88L19.95 14.14L22.06 12.01L24.17 14.14L39.73 29.86V39.72H0V34.25L3.7 30.51L7.23 26.94L9.34 24.81L11.46 26.94L12.7 28.19L24.18 39.72H29.33L26.34 36.72L15.26 25.59L11.9 22.21L11.44 21.75L9.34 19.61L7.23 21.74L1.13 27.93L0 29.08V0Z" fill="black"/>
</svg>
