<svg xmlns="http://www.w3.org/2000/svg" width="118" height="24" fill="#000" xmlns:v="https://vecta.io/nano"><path d="M33.52.176v9.386h-1.743V.176h1.743zm7.643 5.564h-9.386V4.01h9.386v1.73zm0-3.821h-9.386V.176h9.386v1.743zm5.763-.094a2.72 2.72 0 0 1 1.461.416A2.88 2.88 0 0 1 49.46 3.34c.268.465.402.974.402 1.529s-.134 1.064-.402 1.529a2.98 2.98 0 0 1-1.073 1.113 2.79 2.79 0 0 1-1.461.402v1.81c.84 0 1.618-.219 2.333-.657.724-.438 1.296-1.028 1.716-1.77.429-.742.644-1.551.644-2.427s-.214-1.685-.644-2.427c-.42-.742-.992-1.332-1.716-1.77-.715-.438-1.493-.657-2.333-.657v1.81zm0 6.087c-.536 0-1.028-.134-1.475-.402a3.13 3.13 0 0 1-1.073-1.113c-.259-.465-.389-.974-.389-1.529s.13-1.064.389-1.529a3.01 3.01 0 0 1 1.073-1.099c.447-.277.939-.416 1.475-.416V.015c-.84 0-1.622.219-2.347.657-.715.438-1.287 1.028-1.716 1.77a4.84 4.84 0 0 0-.63 2.427 4.84 4.84 0 0 0 .63 2.427c.429.742 1.001 1.332 1.716 1.77a4.45 4.45 0 0 0 2.347.657v-1.81zM54.431.176v9.386h-1.743V.176h1.743zM58.749 6.8h-6.061V5.07h6.061V6.8zm0-4.881h-6.061V.176h6.061v1.743zm-.027 3.62l3.352 3.325v.697h-1.757l-2.829-2.789 1.234-1.234zm.027-.469c.286 0 .554-.072.804-.215.259-.143.465-.335.617-.577a1.57 1.57 0 0 0 .228-.831 1.37 1.37 0 0 0-.228-.764c-.152-.241-.358-.429-.617-.563a1.68 1.68 0 0 0-.804-.201V.176a3.19 3.19 0 0 1 1.663.456 3.26 3.26 0 0 1 1.207 1.207c.304.501.456 1.05.456 1.649a3.19 3.19 0 0 1-.456 1.663 3.25 3.25 0 0 1-1.207 1.207 3.26 3.26 0 0 1-1.663.442V5.07zM64.887.176v9.386h-1.743V.176h1.743zM72.53 5.74h-9.386V4.01h9.386v1.73zm0-3.821h-9.386V.176h9.386v1.743zm0 7.643h-9.386V7.819h9.386v1.743zm7.679-3.822h-3.821V4.01h3.821v1.73zm-.013-3.821h-3.808V.176h3.808v1.743zm.013 7.643h-3.821V7.819h3.821v1.743zm-6.61-6.597c0-.51.125-.974.375-1.394A2.82 2.82 0 0 1 74.98.551c.429-.25.898-.375 1.408-.375v1.743c-.286 0-.532.103-.737.308s-.308.451-.308.737.103.532.308.737.451.308.737.308v1.73a2.75 2.75 0 0 1-1.408-.375 2.85 2.85 0 0 1-1.006-1.006 2.72 2.72 0 0 1-.375-1.394zm0 3.808c0 .51.125.979.375 1.408a2.85 2.85 0 0 0 1.006 1.006c.429.25.898.375 1.408.375V7.819c-.286 0-.532-.103-.737-.308s-.308-.451-.308-.737H73.6zm6.61 1.046a.96.96 0 0 0 .724-.308c.206-.206.308-.451.308-.737a.96.96 0 0 0-.308-.724.96.96 0 0 0-.724-.308v-1.73a2.65 2.65 0 0 1 1.381.375 2.78 2.78 0 0 1 1.019 1.019 2.65 2.65 0 0 1 .375 1.381 2.72 2.72 0 0 1-.375 1.394 2.82 2.82 0 0 1-1.019 1.006 2.65 2.65 0 0 1-1.381.375V7.819zm-.013-5.9c.286 0 .532.103.737.308s.308.451.308.737h1.743c0-.51-.125-.974-.375-1.394A2.78 2.78 0 0 0 81.59.551c-.42-.25-.885-.375-1.394-.375v1.743zM86.193.176v9.386H84.45V.176h1.743zm6.51 1.421a4.66 4.66 0 0 1 1.77.349 4.2 4.2 0 0 1 1.555 1.059l1.032-1.274C96.462 1.15 95.782.712 95.022.417s-1.533-.434-2.32-.416v1.596zm0 6.53c.813 0 1.475-.17 1.984-.51.51-.349.764-.809.764-1.381h1.609c0 .554-.179 1.104-.536 1.649-.349.536-.854.979-1.515 1.327-.662.34-1.43.51-2.306.51V8.127zm0 0c-.563 0-1.113-.152-1.649-.456-.527-.313-.956-.72-1.287-1.22-.331-.51-.492-1.05-.483-1.622.009-.617.161-1.171.456-1.663a3.19 3.19 0 0 1 1.234-1.153 3.61 3.61 0 0 1 1.73-.416V.002c-.903 0-1.743.215-2.521.644a4.82 4.82 0 0 0-1.85 1.743c-.456.733-.684 1.546-.684 2.44a4.64 4.64 0 0 0 .684 2.454c.456.742 1.068 1.332 1.837 1.77.778.438 1.622.661 2.534.67V8.127zm4.358-3.5v5.095h-1.609V4.627h1.609zm0 1.609h-4.358V4.627h4.358v1.609zm2.812-6.06v9.386H98.13V.176h1.743zm7.642 5.511h-9.386v-1.73h9.386v1.73zm0-5.511v9.386h-1.743V.176h1.743zm6.634 0v9.386h-1.743V.176h1.743zm3.822 1.743h-9.386V.176h9.386v1.743zM31.777 16.411v-1.958h.965l4.706 9.386h-1.944l-3.728-7.428zm3.728 7.428l4.693-9.386h.965v1.958l-3.714 7.428h-1.944zm8.806-9.386v9.386h-1.743v-9.386h1.743zm7.643 5.565h-9.386v-1.73h9.386v1.73zm0-3.821h-9.386v-1.743h9.386v1.743zm0 7.643h-9.386v-1.743h9.386v1.743zm3.148-9.387v9.386h-1.743v-9.386h1.743zm7.643 0v9.386h-1.743v-9.386h1.743zm-7.643 0l7.214 8.233-1.314 1.153-7.2-8.233 1.301-1.153zm14.612 0v9.386h-1.743v-9.386h1.743zm3.821 1.743h-9.386v-1.743h9.386v1.743zm3.148-1.743v4.854H74.94v-4.854h1.743zm7.643 0v4.854h-1.743v-4.854h1.743zm-4.693 7.804a2.94 2.94 0 0 1-1.475-.389 3.01 3.01 0 0 1-1.086-1.086 2.94 2.94 0 0 1-.389-1.475H74.94a4.62 4.62 0 0 0 .63 2.36 4.71 4.71 0 0 0 1.703 1.703 4.62 4.62 0 0 0 2.36.63v-1.743zm0 0a2.94 2.94 0 0 0 1.475-.389 2.91 2.91 0 0 0 1.073-1.086 2.86 2.86 0 0 0 .402-1.475h1.743a4.62 4.62 0 0 1-.63 2.36 4.68 4.68 0 0 1-1.716 1.703 4.55 4.55 0 0 1-2.347.63v-1.743zm0 0V24v-1.743zm7.841-7.804v9.386h-1.743v-9.386h1.743zm4.318 6.624h-6.061v-1.73h6.061v1.73zm0-4.881h-6.061v-1.743h6.061v1.743zm-.027 3.62l3.352 3.325v.697H93.36l-2.829-2.789 1.233-1.234zm.027-.469a1.6 1.6 0 0 0 .805-.215c.259-.143.465-.335.617-.577a1.57 1.57 0 0 0 .228-.831 1.37 1.37 0 0 0-.228-.764c-.152-.241-.358-.429-.617-.563a1.68 1.68 0 0 0-.805-.201v-1.743a3.19 3.19 0 0 1 1.663.456 3.25 3.25 0 0 1 1.207 1.207c.304.5.456 1.05.456 1.649a3.19 3.19 0 0 1-.456 1.663 3.26 3.26 0 0 1-2.87 1.65v-1.73zm6.473-4.894v9.386h-1.743v-9.386h1.743zm7.642 5.565h-9.386v-1.73h9.386v1.73zm0-3.821h-9.386v-1.743h9.386v1.743zm0 7.643h-9.386v-1.743h9.386v1.743zm8.015-3.822h-3.821v-1.73h3.821v1.73zm-.013-3.821h-3.808v-1.743h3.808v1.743zm.013 7.643h-3.821v-1.743h3.821v1.743zm-6.61-6.597c0-.509.125-.974.376-1.395.25-.429.585-.769 1.005-1.019a2.75 2.75 0 0 1 1.408-.375v1.743c-.286 0-.532.103-.737.308s-.309.451-.309.738a1 1 0 0 0 .309.737c.206.205.451.308.737.308v1.73a2.75 2.75 0 0 1-1.408-.375 2.85 2.85 0 0 1-1.005-1.006c-.251-.429-.376-.894-.376-1.395zm0 3.808a2.74 2.74 0 0 0 .376 1.408 2.85 2.85 0 0 0 1.005 1.006 2.75 2.75 0 0 0 1.408.376v-1.743c-.286 0-.532-.103-.737-.308s-.309-.451-.309-.738h-1.743zm6.61 1.046c.287 0 .528-.103.725-.308a1.01 1.01 0 0 0 .308-.738c0-.287-.103-.527-.308-.724a.96.96 0 0 0-.725-.308v-1.73c.501 0 .961.125 1.382.375a2.79 2.79 0 0 1 1.019 1.019 2.65 2.65 0 0 1 .375 1.381 2.72 2.72 0 0 1-.375 1.395 2.83 2.83 0 0 1-1.019 1.006c-.421.25-.881.376-1.382.376v-1.743zm-.013-5.9a1.01 1.01 0 0 1 .738.308c.206.205.308.451.308.738h1.743a2.68 2.68 0 0 0-.375-1.395 2.79 2.79 0 0 0-1.019-1.019 2.68 2.68 0 0 0-1.395-.375v1.743z"/><path fill-rule="evenodd" d="M0 0h23.838v14.807l-8.494-8.579-.554-.56-1.557-1.572-1.556 1.572-.555.56-4.185 4.226 1.541 1.557.015-.015 2.096-2.116.533-.538 1.541-1.556.57-.575.569.575 1.541 1.557 8.494 8.579v5.918H0v-3.284l2.222-2.244.015-.016 1.26-1.273 1.541-1.557.57-.575.571.574 1.433 1.441h0l.011.011.1.1 6.789 6.821h3.09l-1.538-1.545-1.448-1.455-5.44-5.466h0l-.011-.011-1.445-1.453-.559-.562-.012-.012-1.535-1.563-1.562 1.578-.548.554-2.823 2.851-.015.016-.666.672V0z"/></svg>