<svg class="footer_link_email" width="24" height="24" viewBox="0 0 24 24" fill="none" xmlns="http://www.w3.org/2000/svg">
<rect width="24" height="24" fill="black"/>
<path d="M11.6535 15.0754C11.1214 15.0754 10.6314 14.9438 10.1834 14.6805C9.73531 14.4035 9.37128 14.0364 9.09125 13.5792C8.82523 13.1083 8.69222 12.5888 8.69222 12.0208C8.69222 11.439 8.82523 10.9195 9.09125 10.4624C9.37128 9.99137 9.73531 9.61734 10.1834 9.34029C10.6314 9.06323 11.1214 8.9247 11.6535 8.9247C12.3256 8.9247 12.8646 9.08401 13.2706 9.40262C13.6907 9.70739 13.9007 10.1853 13.9007 10.8364V13.1637C13.9007 13.8009 13.6977 14.2788 13.2916 14.5974C12.8856 14.916 12.3396 15.0754 11.6535 15.0754ZM11.7795 13.5169C12.2135 13.5169 12.5566 13.3784 12.8086 13.1013C13.0746 12.8104 13.2076 12.4433 13.2076 12C13.2076 11.5429 13.0746 11.1758 12.8086 10.8987C12.5566 10.6217 12.2135 10.4831 11.7795 10.4831C11.3595 10.4831 11.0164 10.6286 10.7504 10.9195C10.4844 11.1966 10.3514 11.5567 10.3514 12C10.3514 12.4433 10.4844 12.8104 10.7504 13.1013C11.0164 13.3784 11.3595 13.5169 11.7795 13.5169ZM13.3757 14.9507V13.3715L13.6067 11.9169L13.3757 10.5039V9.04938H14.9928V14.9507H13.3757ZM15.3918 15.9689L16.652 17.2364C16.0359 17.7628 15.3358 18.1645 14.5518 18.4416C13.7817 18.7186 12.9486 18.8572 12.0525 18.8572C11.0864 18.8572 10.1834 18.684 9.34328 18.3377C8.5032 17.9914 7.76813 17.5134 7.13807 16.9039C6.50801 16.2805 6.01797 15.5533 5.66793 14.7221C5.3179 13.8909 5.14288 12.9905 5.14288 12.0208C5.14288 11.0373 5.3179 10.1299 5.66793 9.29873C6.03197 8.46756 6.53601 7.74029 7.18007 7.11691C7.82413 6.49353 8.5732 6.00868 9.42728 5.66236C10.2814 5.31604 11.1985 5.14288 12.1785 5.14288C13.4947 5.14288 14.6498 5.43379 15.6439 6.01561C16.652 6.59743 17.436 7.40089 17.9961 8.426C18.5701 9.45111 18.8572 10.6286 18.8572 11.9585C18.8572 12.5541 18.7942 13.1013 18.6682 13.6C18.5561 14.0849 18.3671 14.5351 18.1011 14.9507L16.1269 14.8883C16.3369 14.6251 16.5049 14.3412 16.631 14.0364C16.757 13.7316 16.848 13.3992 16.904 13.039C16.974 12.665 17.009 12.2563 17.009 11.813C17.009 10.7602 16.82 9.87362 16.4419 9.15327C16.0779 8.41907 15.5389 7.86496 14.8248 7.49094C14.1107 7.10306 13.2426 6.90912 12.2205 6.90912C11.1704 6.90912 10.2604 7.11691 9.49029 7.53249C8.72022 7.94808 8.12516 8.53682 7.70512 9.29873C7.29909 10.0606 7.09607 10.9749 7.09607 12.0416C7.09607 13.0805 7.29208 13.981 7.68412 14.7429C8.09016 15.4909 8.66421 16.0728 9.40628 16.4883C10.1484 16.8901 11.0164 17.0909 12.0105 17.0909C12.7106 17.0909 13.3407 17.0009 13.9007 16.8208C14.4608 16.6269 14.9578 16.3429 15.3918 15.9689ZM14.1317 13.4961H18.1011V14.9507H14.1317V13.4961Z" fill="white"/>
</svg>
