<svg class="link_discord" width="20" height="20" viewBox="0 0 20 20" fill="none" xmlns="http://www.w3.org/2000/svg">
<rect width="20" height="20" fill="black"/>
<path d="M14.4397 5.82953C13.589 5.43913 12.6914 5.16049 11.7692 5.00057C11.7608 4.99916 11.7522 5.00038 11.7446 5.00405C11.737 5.00772 11.7307 5.01366 11.7265 5.02107C11.6109 5.22605 11.483 5.49417 11.3936 5.70408C10.3996 5.55322 9.38839 5.55322 8.39431 5.70408C8.29461 5.47025 8.18183 5.24222 8.05649 5.02107C8.05228 5.01375 8.04596 5.00787 8.03835 5.00421C8.03074 5.00055 8.0222 4.99928 8.01385 5.00057C7.09142 5.15964 6.19359 5.43842 5.34331 5.82953C5.33603 5.83231 5.32995 5.83752 5.32609 5.84429C3.62553 8.38528 3.15899 10.864 3.38775 13.3115C3.38857 13.323 3.39595 13.3344 3.40497 13.3418C4.39523 14.0754 5.50286 14.6354 6.68063 14.9981C6.68895 15.0007 6.69788 15.0006 6.70614 14.9978C6.7144 14.995 6.72154 14.9897 6.72655 14.9825C6.97909 14.6381 7.20375 14.2749 7.39726 13.8928C7.40129 13.885 7.40267 13.876 7.4012 13.8673C7.39972 13.8586 7.39546 13.8505 7.38906 13.8444C7.38482 13.8404 7.37979 13.8374 7.3743 13.8354C7.02104 13.6997 6.6789 13.5365 6.35101 13.3476C6.34186 13.3424 6.33505 13.3339 6.33199 13.3238C6.32894 13.3137 6.32988 13.3028 6.33462 13.2934C6.33741 13.2873 6.34162 13.282 6.34691 13.2779C6.41579 13.2262 6.48466 13.1721 6.55026 13.118C6.55605 13.1133 6.56301 13.1103 6.57037 13.1093C6.57774 13.1083 6.58524 13.1093 6.59208 13.1122C8.7395 14.0929 11.064 14.0929 13.1852 13.1122C13.1923 13.1092 13.2001 13.1081 13.2077 13.1091C13.2154 13.1101 13.2226 13.1132 13.2287 13.118C13.2943 13.1721 13.3631 13.2262 13.432 13.2779C13.4376 13.2819 13.4421 13.2873 13.4451 13.2936C13.4481 13.2998 13.4494 13.3067 13.4491 13.3136C13.4488 13.3205 13.4468 13.3272 13.4432 13.3331C13.4396 13.3391 13.4347 13.344 13.4287 13.3476C13.1016 13.5383 12.759 13.7012 12.4046 13.8346C12.399 13.8367 12.3938 13.8399 12.3896 13.8442C12.3853 13.8484 12.3821 13.8535 12.38 13.8592C12.3781 13.8647 12.3774 13.8705 12.3778 13.8763C12.3782 13.882 12.3798 13.8877 12.3825 13.8928C12.5793 14.2741 12.8048 14.6381 13.0524 14.9825C13.0574 14.9897 13.0645 14.995 13.0728 14.9978C13.0811 15.0006 13.09 15.0007 13.0983 14.9981C14.278 14.6365 15.3875 14.0764 16.3789 13.3418C16.3838 13.3384 16.388 13.3339 16.391 13.3286C16.3939 13.3234 16.3957 13.3175 16.3961 13.3115C16.67 10.4819 15.9378 8.02369 14.4561 5.84511C14.4546 5.84151 14.4524 5.83826 14.4496 5.83558C14.4468 5.8329 14.4434 5.83084 14.4397 5.82953ZM7.71785 11.8208C7.07092 11.8208 6.53878 11.2272 6.53878 10.4991C6.53878 9.77016 7.06108 9.17652 7.71785 9.17652C8.37955 9.17652 8.90677 9.77508 8.89693 10.4991C8.89693 11.2272 8.37463 11.8208 7.71785 11.8208ZM12.0767 11.8208C11.4305 11.8208 10.8976 11.2272 10.8976 10.4991C10.8976 9.77016 11.4199 9.17652 12.0767 9.17652C12.7383 9.17652 13.2664 9.77508 13.2557 10.4991C13.2557 11.2272 12.7383 11.8208 12.0767 11.8208Z" fill="white"/>
</svg>
