<svg class="footer_link_medium" width="24" height="24" viewBox="0 0 24 24" fill="none" xmlns="http://www.w3.org/2000/svg">
<path d="M0 0V24H24V0H0ZM19.9373 5.68725L18.6517 6.92175C18.5966 6.96222 18.5538 7.01729 18.5282 7.08076C18.5026 7.14423 18.4953 7.21358 18.507 7.281V16.3478C18.4952 16.4157 18.5024 16.4857 18.528 16.5497C18.5535 16.6138 18.5964 16.6696 18.6517 16.7108L19.9058 17.9452V18.2145H13.5855V17.9452L14.886 16.6793C15.015 16.5503 15.015 16.515 15.015 16.32V8.988L11.394 18.183H10.9058L6.69075 8.988V15.1522C6.6555 15.4102 6.74175 15.672 6.921 15.8595L8.616 17.9145V18.1838H3.81525V17.9145L5.51025 15.8595C5.69025 15.672 5.772 15.4102 5.72475 15.1522V8.02725C5.73574 7.9295 5.723 7.83054 5.68762 7.73876C5.65224 7.64698 5.59526 7.56508 5.5215 7.5L4.01775 5.68725V5.4135H8.6895L12.303 13.3395L15.4785 5.4135H19.9357L19.9373 5.68725Z" fill="black"/>
</svg>
