<svg class="footer_link_twitter" width="24" height="24" viewBox="0 0 24 24" fill="none" xmlns="http://www.w3.org/2000/svg">
<rect width="24" height="24" fill="black"/>
<path d="M9.13221 18.8571C14.9546 18.8571 18.1396 13.9094 18.1396 9.62621C18.1396 9.48775 18.1396 9.34732 18.1338 9.20887C18.7539 8.74849 19.2891 8.17852 19.7143 7.52566C19.135 7.78759 18.5212 7.96021 17.8927 8.03794C18.5548 7.63211 19.0506 6.99357 19.2881 6.241C18.6661 6.61891 17.9853 6.88419 17.2756 7.02525C16.7985 6.50409 16.1671 6.15884 15.4792 6.04297C14.7914 5.9271 14.0855 6.04709 13.4709 6.38434C12.8562 6.72159 12.3672 7.25728 12.0795 7.90845C11.7918 8.55961 11.7215 9.28989 11.8795 9.98619C10.6208 9.92146 9.38949 9.58612 8.26535 9.00192C7.14122 8.41772 6.14937 7.5977 5.35413 6.59505C4.95043 7.31015 4.82722 8.15602 5.00954 8.9609C5.19186 9.76578 5.66604 10.4693 6.33578 10.9287C5.8339 10.9112 5.34307 10.773 4.90285 10.5252V10.5697C4.90371 11.3188 5.15675 12.0446 5.61919 12.6245C6.08163 13.2044 6.72511 13.6027 7.44085 13.7521C7.16917 13.8289 6.88853 13.8672 6.60674 13.8659C6.40808 13.8665 6.20982 13.8476 6.01467 13.8095C6.21696 14.4544 6.61086 15.0182 7.14119 15.422C7.67153 15.8258 8.31173 16.0493 8.97213 16.0614C7.85024 16.9651 6.46441 17.4552 5.03785 17.4528C4.78648 17.4539 4.53529 17.439 4.28571 17.4083C5.73359 18.355 7.4151 18.8577 9.13221 18.8571Z" fill="white"/>
</svg>
