<svg class="link_share" width="20" height="20" viewBox="0 0 20 20" fill="none" xmlns="http://www.w3.org/2000/svg">
<rect width="20" height="20" fill="black"/>
<path d="M7.59245 15.8333C6.9149 15.8333 6.25257 15.6324 5.6892 15.256C5.12582 14.8796 4.68671 14.3446 4.42738 13.7186C4.16805 13.0927 4.10015 12.4039 4.23226 11.7393C4.36437 11.0748 4.69056 10.4644 5.16959 9.98518L6.62289 8.53119L7.59176 9.50006L6.13846 10.9534C5.75293 11.3389 5.53634 11.8618 5.53634 12.407C5.53634 12.9522 5.75293 13.4751 6.13846 13.8607C6.52399 14.2462 7.04688 14.4628 7.5921 14.4628C8.13733 14.4628 8.66022 14.2462 9.04575 13.8607L10.4984 12.4074L11.4679 13.3769L10.0146 14.8302C9.69712 15.1493 9.31952 15.4022 8.90364 15.5744C8.48776 15.7466 8.04187 15.8346 7.59176 15.8333H7.59245ZM8.07688 12.8918L7.10801 11.9229L11.9524 7.07789L12.9219 8.04676L8.07757 12.8911L8.07688 12.8918ZM13.407 11.4385L12.4375 10.4696L13.8901 9.01631C14.0865 8.82673 14.2431 8.59995 14.3509 8.34918C14.4587 8.09842 14.5155 7.8287 14.5179 7.55576C14.5203 7.28282 14.4684 7.01213 14.3651 6.75948C14.2618 6.50683 14.1092 6.27728 13.9163 6.08423C13.7233 5.89118 13.4938 5.73849 13.2412 5.63508C12.9886 5.53166 12.718 5.47959 12.445 5.48189C12.1721 5.4842 11.9023 5.54084 11.6515 5.64851C11.4007 5.75619 11.1738 5.91273 10.9842 6.10902L9.53019 7.56232L8.56132 6.59345L10.0146 5.13946C10.6599 4.51045 11.527 4.16098 12.428 4.16676C13.3291 4.17253 14.1917 4.53308 14.8288 5.17031C15.4659 5.80753 15.8264 6.67012 15.832 7.57121C15.8377 8.4723 15.4881 9.33933 14.859 9.98449L13.4063 11.4378V11.4385H13.407Z" fill="white"/>
</svg>
