<svg width="256" height="42" viewBox="0 0 256 42" fill="none" xmlns="http://www.w3.org/2000/svg">
<g clip-path="url(#clip0_1801_153)">
<path d="M107.28 0.663716C110.972 -0.218885 114.882 -0.225946 118.572 0.670776C122.012 1.51454 125.248 3.26209 127.742 5.78633C130.125 8.17994 131.807 11.2479 132.574 14.5329C129.265 14.5329 125.957 14.5347 122.649 14.5311C121.749 12.2081 119.803 10.3688 117.495 9.45971C114.812 8.3953 111.751 8.34763 109.006 9.20905C106.418 10.0263 104.183 11.8692 102.884 14.2469C101.257 17.1931 100.969 20.7623 101.754 24.0032C102.42 26.771 104.096 29.3306 106.522 30.8681C109.146 32.5715 112.448 32.9704 115.489 32.432C117.831 32.0154 120.133 30.9669 121.726 29.1629C122.511 28.2891 123.056 27.2176 123.333 26.0773C119.725 26.0667 116.118 26.0773 112.51 26.072V18.7041C119.442 18.7023 126.372 18.7041 133.302 18.7023C133.444 22.358 132.972 26.0826 131.572 29.4806C130.398 32.3508 128.517 34.9474 126.07 36.8645C123.6 38.8256 120.605 40.0648 117.515 40.6314C111.477 41.7241 104.862 40.6896 99.8887 36.951C97.4844 35.161 95.522 32.7886 94.196 30.102C92.7128 27.1029 92.0056 23.7402 92.0445 20.4022C92.0321 16.3546 93.1565 12.2823 95.3965 8.89661C98.0996 4.75369 102.477 1.8058 107.28 0.663716V0.663716Z" fill="#4000F9"/>
<path d="M175.204 2.37596C177.982 2.37419 180.759 2.37419 183.537 2.37596C183.537 5.06789 183.535 7.75806 183.537 10.45C186.135 10.4518 188.736 10.45 191.337 10.45V17.3131C188.736 17.3149 186.135 17.3131 183.537 17.3131C183.537 21.4101 183.535 25.5054 183.537 29.6024C183.54 30.5503 183.844 31.5547 184.583 32.1902C185.335 32.8398 186.364 33.0463 187.336 33.0463C188.632 33.0463 189.929 33.0446 191.225 33.0446C191.227 35.4647 191.227 37.8847 191.225 40.3048C189.348 40.3066 187.47 40.3031 185.593 40.3066C183.084 40.3543 180.45 39.8812 178.399 38.3525C176.624 37.0622 175.482 35.041 175.042 32.9157C174.632 31.1258 174.761 29.2794 174.739 27.4595V17.3131H169.924C169.922 15.0483 169.924 12.7836 169.922 10.5171C171.069 10.4818 172.225 10.593 173.368 10.45C174.504 10.2788 175.201 9.12962 175.189 8.04225C175.226 6.15349 175.192 4.26472 175.204 2.37596V2.37596Z" fill="#4000F9"/>
<path d="M10.9643 9.65743C14.6345 9.65567 18.3047 9.6539 21.9749 9.65743C18.6742 13.9151 15.3735 18.1728 12.0728 22.4287C11.7139 22.9035 11.2861 23.3519 11.0934 23.9291C10.7592 24.8894 10.913 26.0244 11.5636 26.8222C15.0376 31.3006 18.5115 35.7789 21.9837 40.2607C18.3135 40.2625 14.6451 40.259 10.9749 40.2625C7.55574 35.8548 4.13835 31.4435 0.719197 27.0358C0.00318936 26.1373 -0.196586 24.8682 0.202964 23.7949C0.416883 23.1877 0.853559 22.7005 1.24073 22.1974C4.4831 18.0192 7.7237 13.8374 10.9643 9.65743V9.65743Z" fill="#4000F9"/>
<path d="M24.5674 9.65739C28.2376 9.65563 31.9078 9.65563 35.578 9.65739C38.8787 13.9133 42.1759 18.1745 45.4819 22.4286C46.1467 23.1788 46.6311 24.1444 46.5374 25.1735C46.5038 26.0208 46.0671 26.7834 45.5314 27.4171C42.2042 31.6942 38.8894 35.9801 35.5692 40.2607C31.899 40.2607 28.2288 40.2624 24.5586 40.2607C27.9884 35.8371 31.4146 31.41 34.8497 26.9917C35.7867 25.9608 35.891 24.2697 35.0335 23.1594C31.5472 18.6582 28.0555 14.1587 24.5674 9.65739V9.65739Z" fill="#4000F9"/>
<path d="M148.275 10.1852C150.81 9.58855 153.479 9.56737 156.032 10.0846C158.78 10.6477 161.375 12.0192 163.288 14.0792C165.494 16.4199 166.774 19.5213 167.191 22.6846C167.433 24.3845 167.345 26.1055 167.363 27.816C160.022 27.8178 152.68 27.8107 145.34 27.8195C145.487 29.4329 146.093 31.041 147.244 32.2114C148.683 33.7206 150.834 34.3843 152.889 34.2819C155.382 34.2396 158.019 33.0445 159.158 30.7286C161.801 30.7286 164.444 30.7268 167.089 30.7286C166.516 33.417 165.07 35.9306 162.922 37.6676C160.178 39.9306 156.578 40.9015 153.073 41.0215C150.271 41.1556 147.414 40.619 144.923 39.3075C142.092 37.8459 139.799 35.4011 138.482 32.5079C137.181 29.7083 136.802 26.5451 137.115 23.4913C137.43 20.3616 138.57 17.2689 140.616 14.8506C142.561 12.5064 145.315 10.886 148.275 10.1852V10.1852ZM147.829 17.9874C146.604 18.9741 145.764 20.4128 145.509 21.9644C150.074 21.9732 154.637 21.9697 159.2 21.9644C158.99 20.2257 158.042 18.5752 156.568 17.6079C153.973 15.8956 150.246 15.9874 147.829 17.9856V17.9874Z" fill="#4000F9"/>
<path d="M230.58 9.95751C234.091 9.41206 237.797 9.77216 241.035 11.2849C243.924 12.6194 246.366 14.9018 247.86 17.7103C250.487 22.6546 250.356 28.9917 247.434 33.7824C245.885 36.319 243.541 38.3508 240.827 39.5564C237.581 41.0092 233.891 41.3498 230.4 40.7709C226.873 40.1901 223.519 38.4214 221.191 35.6924C217.359 31.2723 216.532 24.7005 218.625 19.3148C219.674 16.6229 221.528 14.2452 223.908 12.5965C225.886 11.2126 228.2 10.3406 230.58 9.95751V9.95751ZM231.807 17.8638C230.212 18.2487 228.78 19.2336 227.847 20.5787C226.696 22.208 226.273 24.2733 226.454 26.2397C226.627 28.4939 227.746 30.7357 229.682 31.9784C232.413 33.7736 236.4 33.4082 238.675 31.027C241.37 28.2203 241.529 23.426 239.211 20.3457C237.546 18.1092 234.476 17.1807 231.807 17.8638V17.8638Z" fill="#4000F9"/>
<path d="M211.41 10.5118C213.095 10.0599 214.854 10.2823 216.576 10.2311V18.5046C214.973 18.554 213.357 18.3934 211.764 18.6088C209.973 18.8841 208.322 19.9538 207.376 21.5002C206.398 23.0606 206.045 24.9335 206.055 26.7534C206.059 31.2705 206.057 35.7877 206.057 40.3048H197.262V10.45H205.548C205.55 11.9681 205.548 13.4861 205.551 15.0042C205.838 15.0236 206.057 14.893 206.154 14.6194C207.231 12.5982 209.197 11.0908 211.41 10.5118Z" fill="#4000F9"/>
<path d="M249.68 10.3194C250.496 10.3176 251.313 10.3176 252.134 10.3194V10.7819C251.805 10.7819 251.483 10.7819 251.161 10.7836C251.159 11.7086 251.159 12.6353 251.159 13.5621H250.652C250.65 12.6353 250.652 11.7086 250.652 10.7819H249.68V10.3194V10.3194Z" fill="#4000F9"/>
<path d="M252.642 10.3193C252.842 10.3193 253.045 10.3193 253.252 10.3176C253.627 11.186 254.005 12.0545 254.376 12.9265C254.714 12.0563 255.059 11.1878 255.402 10.3193H256.001V13.562H255.494C255.492 12.8259 255.49 12.0898 255.494 11.3555C255.2 12.0987 254.9 12.8418 254.611 13.5867C254.491 13.5744 254.251 13.5479 254.131 13.5355C253.75 12.8259 253.494 12.0563 253.149 11.329V13.5602C252.978 13.562 252.808 13.562 252.642 13.562C252.64 12.4817 252.64 11.3996 252.642 10.3193V10.3193Z" fill="#4000F9"/>
<path d="M41.7983 9.6574C45.4667 9.65387 49.1351 9.6574 52.8036 9.65564C56.0442 13.8303 59.2795 18.0103 62.5201 22.185C63.0628 22.8558 63.6409 23.5707 63.7346 24.4621C63.8937 25.4736 63.5401 26.508 62.8736 27.2706C59.5058 31.5953 56.1591 35.936 52.793 40.2607C49.1263 40.2589 45.4596 40.2642 41.793 40.2589C45.1273 35.943 48.4722 31.6377 51.8135 27.3306C52.328 26.7163 52.8213 26.0155 52.8372 25.1823C52.9326 24.2574 52.5242 23.373 51.9125 22.7022C48.5358 18.3581 45.1679 14.0069 41.7983 9.6574V9.6574Z" fill="#8365FB"/>
<path d="M59.0266 9.65917C62.7003 9.65917 66.3741 9.64328 70.0478 9.66623C73.4422 14.0633 76.8525 18.4481 80.254 22.8382C80.9241 23.666 81.168 24.8117 80.8799 25.839C80.6925 26.6051 80.1479 27.2017 79.6794 27.809C76.4583 31.9572 73.246 36.1125 70.0213 40.2589C66.3546 40.2642 62.6862 40.2607 59.0195 40.2607C62.4953 35.7594 65.9904 31.2723 69.4697 26.7746C70.138 25.9202 70.2547 24.6987 69.8215 23.7137C69.5864 23.2124 69.2063 22.7993 68.8739 22.3633C65.5909 18.1286 62.3079 13.8956 59.0266 9.65917V9.65917Z" fill="#C1B2FE"/>
</g>
<defs>
<clipPath id="clip0_1801_153">
<rect width="256" height="42" fill="white"/>
</clipPath>
</defs>
</svg>
