<svg class="nav_search" width="20" height="20" viewBox="0 0 20 20" fill="none" xmlns="http://www.w3.org/2000/svg">
<path fill-rule="evenodd" clip-rule="evenodd" d="M14.3241 3.71742C17.2531 6.64635 17.2531 11.3951 14.3241 14.324C11.3952 17.253 6.64648 17.253 3.71754 14.324C0.788613 11.3951 0.788613 6.64635 3.71754 3.71742C6.64648 0.788489 11.3952 0.788489 14.3241 3.71742ZM15.3745 14.6674C18.3465 11.3295 18.232 6.2111 15.0313 3.01031C11.7118 -0.309142 6.3299 -0.309143 3.01044 3.01031C-0.309018 6.32977 -0.309018 11.7117 3.01044 15.0311C6.2112 18.2319 11.3295 18.3463 14.6674 15.3745L18.9203 19.6274L19.6275 18.9203L15.3745 14.6674Z" fill="black"/>
</svg>
