<svg xmlns="http://www.w3.org/2000/svg" width="197" height="40" fill="none" xmlns:v="https://vecta.io/nano"><path d="M55.81 9.86h12.33V7.19H55.81V3.96h12.33V1.27H55.81 53v2.69 3.23 2.67 5.89h2.81V9.86zm17.83 5.13c1.17.68 2.43 1.01 3.78 1.01a7.36 7.36 0 0 0 3.76-1.01c1.17-.68 2.09-1.59 2.77-2.73a7.1 7.1 0 0 0 1.04-3.74 7.1 7.1 0 0 0-1.04-3.74c-.68-1.14-1.6-2.05-2.77-2.73-1.15-.68-2.41-1.01-3.76-1.01a7.46 7.46 0 0 0-3.78 1.01c-1.15.68-2.08 1.59-2.77 2.73-.68 1.14-1.02 2.39-1.02 3.74s.34 2.6 1.02 3.74a7.79 7.79 0 0 0 2.77 2.73zm-.32-8.83c.43-.72 1.01-1.28 1.73-1.7.72-.43 1.51-.64 2.38-.64a4.47 4.47 0 0 1 2.36.64c.74.41 1.31.98 1.73 1.7.43.72.65 1.5.65 2.36s-.22 1.64-.65 2.36a4.68 4.68 0 0 1-1.73 1.72 4.7 4.7 0 0 1-2.36.62c-.85 0-1.66-.21-2.38-.62-.72-.43-1.3-1-1.73-1.72-.42-.72-.63-1.5-.63-2.36s.21-1.64.63-2.36zm16.21 5.33h4.97l4.52 4.26h2.83v-1.08l-3.65-3.46a6.26 6.26 0 0 0 .97-.41 5.28 5.28 0 0 0 1.95-1.86c.49-.79.74-1.64.74-2.57s-.25-1.77-.74-2.54c-.48-.79-1.12-1.41-1.95-1.86a5.31 5.31 0 0 0-2.68-.7h-9.77v14.48h2.81v-4.26h0zm0-7.53h6.96a2.8 2.8 0 0 1 1.3.31c.42.21.75.5.99.87.25.36.37.75.37 1.18a2.28 2.28 0 0 1-.37 1.28c-.24.37-.58.67-.99.89-.4.22-.84.33-1.3.33h-6.96V3.96zm29.19 11.79v-2.69h-12.33v-3.2h12.33V7.19h-12.33V3.96h12.33V1.27h-12.33-2.81v2.69 3.23 2.67 3.2 2.69h2.81 12.33zm6.22 0h6.16a4.39 4.39 0 0 0 2.23-.58c.69-.39 1.24-.9 1.64-1.55a4.09 4.09 0 0 0 .61-2.15 3.91 3.91 0 0 0-.61-2.13 4.34 4.34 0 0 0-1.64-1.57 4.39 4.39 0 0 0-2.23-.58h-6.16c-.46 0-.86-.16-1.19-.48s-.5-.7-.5-1.14.16-.82.5-1.14c.33-.32.73-.48 1.19-.48h6.14c.46 0 .86.16 1.19.48s.5.7.5 1.14h2.81c0-.79-.2-1.5-.61-2.15a4.34 4.34 0 0 0-1.64-1.57c-.68-.39-1.43-.58-2.25-.58h-6.14c-.82 0-1.58.19-2.27.58-.68.39-1.22.91-1.62 1.57a4.03 4.03 0 0 0-.6 2.15c0 .78.2 1.49.6 2.15.4.65.94 1.17 1.62 1.55.69.39 1.45.58 2.27.58h6.16a1.59 1.59 0 0 1 1.17.48c.33.3.5.68.5 1.12s-.17.82-.5 1.14a1.59 1.59 0 0 1-1.17.48h-6.16c-.46 0-.86-.16-1.19-.48s-.5-.7-.5-1.14h-2.81a4.1 4.1 0 0 0 .6 2.17c.4.65.94 1.17 1.62 1.55.69.39 1.45.58 2.27.58h.01zm15.81-14.48h-2.81v14.48h2.81V1.27zM158.28 16V8.14h-7.03v2.48h4.43c0 .88-.41 1.59-1.23 2.13-.82.52-1.89.79-3.2.79-.91 0-1.79-.23-2.66-.7-.85-.48-1.54-1.11-2.08-1.88-.53-.79-.79-1.62-.78-2.5.01-.95.26-1.81.73-2.57.49-.76 1.15-1.35 1.99-1.78s1.77-.64 2.79-.64a7.6 7.6 0 0 1 2.85.54c.94.34 1.77.89 2.51 1.63l1.66-1.97c-.97-.9-2.06-1.57-3.29-2.03a9.89 9.89 0 0 0-3.74-.64 8.62 8.62 0 0 0-4.07.99c-1.26.65-2.25 1.54-2.98 2.69-.74 1.13-1.1 2.39-1.1 3.76s.37 2.63 1.1 3.79c.73 1.14 1.72 2.05 2.96 2.73 1.25.68 2.62 1.02 4.09 1.03 1.41 0 2.65-.26 3.72-.79l.71-.41v1.19h2.59l.03.02zm4.53-6.23h9.52v5.98h2.81V9.77 7.1 1.27h-2.81V7.1h-9.52V1.27H160V7.1v2.67 5.98h2.81V9.77zm23.03-8.5h-2.81-6.17v2.69h6.17v11.79h2.81V3.96H192V1.27h-6.16zM60.58 35.7L54.56 24H53v3.08l6.01 11.67h3.14l5.99-11.67V24h-1.56l-6 11.7zM70.41 24v2.74 3.29 2.71 3.27 2.74h2.81 12.33v-2.74H73.22v-3.27h12.33v-2.71H73.22v-3.29h12.33V24H73.22h-2.81zm29.74 10.58L90.63 24h-2.81v14.75h2.81v-10.6l9.52 10.6h2.81V24h-2.81v10.58zM111.39 24h-6.17v2.74h6.17v12.01h2.81V26.74h6.17V24h-6.17-2.81zm23.57 7.63c0 .83-.22 1.6-.65 2.32a4.58 4.58 0 0 1-1.73 1.71 4.82 4.82 0 0 1-2.38.61 4.82 4.82 0 0 1-2.38-.61 4.71 4.71 0 0 1-1.75-1.71 4.52 4.52 0 0 1-.63-2.32V24h-2.81v7.63a7.12 7.12 0 0 0 1.02 3.71 7.52 7.52 0 0 0 2.75 2.68c1.17.66 2.44.99 3.81.99s2.63-.33 3.79-.99c1.17-.66 2.09-1.55 2.77-2.68.68-1.14 1.02-2.37 1.02-3.71V24h-2.81v7.63h-.02zm19.49.19a4.9 4.9 0 0 0 .73-2.61c0-.94-.24-1.8-.73-2.59a5.23 5.23 0 0 0-1.95-1.9 5.23 5.23 0 0 0-2.68-.72h-9.78v14.75h2.81v-4.34h4.98l4.52 4.34h2.83v-1.1l-3.65-3.52c.33-.11.66-.24.97-.42a5.23 5.23 0 0 0 1.95-1.9v.01zm-2.34-1.37c-.24.38-.58.68-.99.91-.4.22-.84.34-1.3.34h-6.97v-4.95h6.97c.46 0 .89.11 1.3.32a2.49 2.49 0 0 1 .99.88c.24.37.37.77.37 1.2 0 .48-.12.91-.37 1.31v-.01zm5.34-6.45v2.74 3.29 2.71 3.27 2.74h2.81 12.33v-2.74h-12.33v-3.27h12.33v-2.71h-12.33v-3.29h12.33V24h-12.33-2.81zm21.91 2.74h6.14c.46 0 .86.16 1.19.48s.5.71.5 1.16H190c0-.8-.2-1.53-.61-2.19a4.42 4.42 0 0 0-1.64-1.6c-.68-.39-1.43-.59-2.25-.59h-6.14c-.82 0-1.58.2-2.27.59a4.44 4.44 0 0 0-1.62 1.6 4.15 4.15 0 0 0-.61 2.19c0 .8.2 1.52.61 2.19.4.66.94 1.19 1.62 1.58.69.39 1.45.59 2.27.59h6.17a1.59 1.59 0 0 1 1.17.48c.33.31.5.69.5 1.14s-.17.84-.5 1.16a1.59 1.59 0 0 1-1.17.48h-6.17c-.46 0-.86-.16-1.19-.48s-.5-.71-.5-1.16h-2.81c0 .8.2 1.54.61 2.21.4.66.94 1.19 1.62 1.58.69.39 1.45.59 2.27.59h6.17a4.4 4.4 0 0 0 2.23-.59c.69-.39 1.24-.92 1.64-1.58.4-.67.61-1.4.61-2.19a4.02 4.02 0 0 0-.61-2.17 4.42 4.42 0 0 0-1.64-1.6 4.4 4.4 0 0 0-2.23-.59h-6.17c-.46 0-.86-.16-1.19-.48s-.5-.71-.5-1.16.17-.84.5-1.16.73-.48 1.19-.48h0z" fill="#000"/><path fill-rule="evenodd" d="M0 0h39.73v24.68L24.17 8.96l-2.11-2.13-2.11 2.13-8.38 8.46.46.46 2.11 2.13 2.11-2.13 3.7-3.74 2.11-2.13 2.11 2.13 15.56 15.72v9.86H0v-5.47l3.7-3.74 3.53-3.57 2.11-2.13 2.12 2.13 1.24 1.25 11.48 11.53h5.15l-2.99-3-11.08-11.13-3.36-3.38-.46-.46-2.1-2.14-2.11 2.13-6.1 6.19L0 29.08V0z" fill="#00dd59"/></svg>